<svg width="232" height="216" viewBox="0 0 232 216" fill="none" xmlns="http://www.w3.org/2000/svg">
    <path d="M48.204 168.716L65.98 168.62L83.752 168.584L119.304 168.52L154.852 168.584L172.628 168.62L190.404 168.716L172.628 168.816L154.852 168.852L119.304 168.916L83.752 168.852L65.98 168.816L48.204 168.716Z" fill="#263238"/>
    <path d="M92.68 184.46C124.034 184.46 149.452 181.575 149.452 178.016C149.452 174.457 124.034 171.572 92.68 171.572C61.3257 171.572 35.908 174.457 35.908 178.016C35.908 181.575 61.3257 184.46 92.68 184.46Z" fill="#EBEBEB"/>
    <path d="M170.128 181.72C185.791 181.72 198.488 180.062 198.488 178.017C198.488 175.971 185.791 174.312 170.128 174.312C154.465 174.312 141.768 175.971 141.768 178.017C141.768 180.062 154.465 181.72 170.128 181.72Z" fill="#EBEBEB"/>
    <path d="M49.76 177.732L115.36 178.016C131.304 165.492 132.96 146.94 121.576 135.696C114.692 128.896 105.948 130.268 97.624 129.184H97.6C94.7 128.808 91.856 128.132 89.156 126.708C80.584 122.184 75.752 111.508 68.54 102.544C67.64 101.42 66.7 100.324 65.716 99.2721C59.784 92.9401 47.98 92.7322 41.808 101.636C26.128 124.252 33.316 157.92 49.76 177.732Z" fill="#DBDBDB"/>
    <path d="M48.304 125.976C50.024 152.892 81.104 162.94 100.524 154.876C117.404 147.864 111.88 131.864 97.632 129.184H97.6C94.7 128.808 91.856 128.132 89.156 126.708C80.584 122.184 75.752 111.508 68.54 102.544C57.804 96.9597 47.044 106.268 48.304 125.976Z" fill="#C7C7C7"/>
    <path d="M102.828 175.915C101.92 175.583 81.404 159.183 81.016 158.063C80.864 157.639 83.08 154.511 85.864 150.807C86.464 150.007 87.088 149.207 87.728 148.355C91.876 142.951 96.4 137.315 96.4 137.315L110.156 148.247L101.108 158.983L99.108 161.343C99.108 161.343 104.156 171.135 104.448 172.407C104.74 173.679 103.736 176.247 102.828 175.915Z" fill="#AD6359"/>
    <path d="M102.828 175.915C101.92 175.583 81.404 159.183 81.016 158.063C80.836 157.547 84.14 153.035 87.728 148.355L101.108 158.983L99.108 161.343C99.108 161.343 104.156 171.135 104.448 172.407C104.74 173.679 103.736 176.247 102.828 175.915Z" fill="white"/>
    <path d="M102.828 175.916C101.92 175.584 81.404 159.184 81.016 158.064C80.864 157.64 83.08 154.512 85.864 150.808L99.12 161.344C99.12 161.344 104.168 171.136 104.46 172.408C104.752 173.68 103.736 176.248 102.828 175.916Z" fill="#3D66CC"/>
    <path d="M103.2 174.859C99.828 172.027 85.96 160.915 82.4 158.371C82.368 158.351 82.356 158.371 82.4 158.395C85.68 161.275 99.64 172.271 103.16 174.915C103.22 174.971 103.26 174.919 103.2 174.859Z" fill="#263238"/>
    <path d="M103.732 170.615C103.358 170.3 102.922 170.067 102.452 169.929C101.982 169.791 101.489 169.753 101.004 169.815C100.128 169.918 99.3267 170.357 98.768 171.039C98.768 171.059 98.788 171.091 98.808 171.071C99.4699 170.485 100.304 170.129 101.185 170.057C102.067 169.985 102.948 170.2 103.696 170.671C103.703 170.676 103.712 170.678 103.721 170.676C103.73 170.674 103.737 170.669 103.742 170.661C103.747 170.654 103.748 170.645 103.747 170.636C103.745 170.628 103.739 170.62 103.732 170.615Z" fill="#263238"/>
    <path d="M100.184 162.752C98.82 161.632 96.836 160.844 95.08 161.284C95.012 161.304 95.04 161.4 95.08 161.412C96.7884 161.743 98.4565 162.255 100.056 162.94C100.081 162.957 100.112 162.963 100.141 162.958C100.171 162.952 100.197 162.935 100.214 162.91C100.231 162.885 100.237 162.855 100.232 162.825C100.226 162.795 100.209 162.769 100.184 162.752Z" fill="#263238"/>
    <path d="M100.912 164C99.552 162.88 97.568 162.092 95.812 162.532C95.744 162.552 95.772 162.648 95.812 162.66C97.5249 162.996 99.1971 163.513 100.8 164.204C100.827 164.219 100.859 164.223 100.889 164.214C100.918 164.205 100.943 164.185 100.958 164.158C100.973 164.131 100.976 164.099 100.968 164.07C100.959 164.04 100.939 164.015 100.912 164Z" fill="#263238"/>
    <path d="M101.644 165.279C100.284 164.159 98.3 163.371 96.544 163.811C96.476 163.811 96.5 163.927 96.544 163.935C98.2507 164.269 99.9173 164.783 101.516 165.467C101.541 165.484 101.572 165.491 101.601 165.485C101.631 165.48 101.657 165.462 101.674 165.437C101.691 165.413 101.697 165.382 101.692 165.352C101.686 165.323 101.669 165.296 101.644 165.279Z" fill="#263238"/>
    <path d="M102.376 166.544C101.016 165.424 99.032 164.636 97.276 165.076C97.208 165.076 97.232 165.188 97.276 165.2C98.9832 165.532 100.65 166.046 102.248 166.732C102.273 166.749 102.304 166.755 102.333 166.75C102.363 166.744 102.389 166.727 102.406 166.702C102.423 166.677 102.429 166.647 102.424 166.617C102.418 166.587 102.401 166.561 102.376 166.544Z" fill="#263238"/>
    <path d="M85.888 155.804C84.34 154.576 82.428 156.98 83.976 158.204C85.524 159.428 87.44 157.036 85.888 155.804Z" fill="#263238"/>
    <path d="M104.604 160.268C104.372 159.132 103.04 158.996 102.132 159.252C100.58 159.722 99.1786 160.591 98.068 161.772C98.0622 161.777 98.0575 161.782 98.0543 161.789C98.051 161.796 98.0493 161.803 98.0493 161.81C98.0493 161.818 98.051 161.825 98.0543 161.831C98.0575 161.838 98.0622 161.844 98.068 161.848C98.0523 161.878 98.0441 161.912 98.0441 161.946C98.0441 161.98 98.0522 162.014 98.0679 162.044C98.0836 162.074 98.1064 162.1 98.1342 162.12C98.1621 162.139 98.1943 162.152 98.228 162.156C99.748 162.26 101.364 162.556 102.872 162.196C103.764 162 104.828 161.34 104.604 160.268ZM100.58 161.844C99.828 161.812 99.084 161.74 98.336 161.732C99.136 161.244 99.896 160.724 100.736 160.312C101.139 160.11 101.554 159.935 101.98 159.788C102.644 159.572 104.916 159.5 103.856 161.108C103.276 162 101.472 161.884 100.58 161.844Z" fill="#263238"/>
    <path d="M94.24 159.551C95.292 160.691 96.8 161.339 98.124 162.095C98.1546 162.11 98.1884 162.118 98.2225 162.117C98.2565 162.116 98.2899 162.107 98.3197 162.091C98.3496 162.074 98.375 162.051 98.3938 162.022C98.4127 161.994 98.4244 161.961 98.428 161.927C98.456 161.927 98.484 161.927 98.48 161.875C98.2145 160.275 97.5315 158.772 96.5 157.519C95.888 156.799 94.708 156.175 93.88 156.987C93.052 157.799 93.624 158.883 94.24 159.551ZM94.036 158.103C94.036 156.175 95.896 157.499 96.328 158.043C96.6008 158.403 96.8481 158.781 97.068 159.175C97.54 159.975 97.892 160.843 98.268 161.691C97.64 161.291 96.984 160.923 96.34 160.535C95.6 160.071 94.028 159.163 94.036 158.103Z" fill="#263238"/>
    <path d="M124.052 127.232C124.028 129.288 121.972 133.04 119.156 137.232C113.74 145.308 105.496 155.008 103.46 157.376L102.996 157.912L88.428 146.712L88.596 146.496L101.424 129.696L63.152 129.472L77.684 118.172C77.684 118.172 78.864 118.852 81.312 118.492C89.76 117.256 108.804 114.52 113.292 114.7C119.084 114.948 124.14 120.616 124.052 127.232Z" fill="#455A64"/>
    <path d="M119.156 137.236C113.74 145.312 105.496 155.012 103.46 157.38L88.596 146.504L101.424 129.704L119.156 137.236Z" fill="#263238"/>
    <path d="M106.032 123.46C105.555 123.997 105.113 124.563 104.708 125.156L103.344 126.932V126.952C103.424 126.776 103.504 126.6 103.588 126.428C103.872 125.836 104.1 125.228 104.44 124.66C104.46 124.624 104.408 124.592 104.388 124.628C104.04 125.188 103.636 125.724 103.34 126.316C103.2 126.592 103.068 126.876 102.94 127.16C102.872 127.316 102.8 127.476 102.74 127.632C102.712 127.708 102.68 127.784 102.656 127.864C102.456 128.14 102.256 128.416 102.06 128.7C101.628 129.324 101.26 129.984 100.808 130.608C100.784 130.64 100.84 130.672 100.864 130.64C101.304 130.056 101.8 129.512 102.252 128.932C102.704 128.352 103.144 127.732 103.572 127.124C104 126.516 104.4 125.924 104.82 125.332C105.277 124.744 105.698 124.128 106.08 123.488C106.084 123.482 106.085 123.474 106.083 123.467C106.081 123.46 106.076 123.454 106.07 123.45C106.064 123.446 106.056 123.445 106.049 123.447C106.042 123.449 106.036 123.454 106.032 123.46Z" fill="#263238"/>
    <path d="M68.4 102.167C71.112 105.507 80.96 115.055 87.108 116.455C90.496 117.227 106.868 119.519 109.108 117.475C111.74 115.075 110.52 106.071 108.428 105.987C102.052 105.735 90.252 106.983 87.304 106.335C85.968 106.039 78.904 101.479 71.352 97.8353C68.52 96.4553 66.572 99.8953 68.4 102.167Z" fill="#AD6359"/>
    <path d="M105.916 105.2C105.916 105.2 105.88 105.548 105.82 106.14C105.82 106.236 105.82 106.34 105.792 106.448C105.756 106.788 105.716 107.188 105.672 107.628C105.672 107.68 105.672 107.732 105.672 107.784C105.637 108.152 105.597 108.544 105.552 108.96C105.552 109.06 105.528 109.164 105.52 109.268C105.48 109.648 105.436 110.044 105.396 110.448C105.396 110.5 105.396 110.552 105.396 110.604C105.352 111.004 105.312 111.404 105.268 111.804C105.268 111.904 105.244 112.008 105.236 112.108C105.192 112.508 105.148 112.908 105.104 113.288C105.104 113.34 105.104 113.392 105.084 113.444C105.04 113.844 104.996 114.244 104.952 114.624L104.916 114.928C104.884 115.18 104.856 115.428 104.828 115.668C104.808 115.816 104.788 115.964 104.772 116.108C104.772 116.16 104.772 116.212 104.772 116.264C104.743 116.488 104.715 116.704 104.688 116.912C104.664 117.096 104.64 117.276 104.62 117.444C104.62 117.548 104.588 117.652 104.572 117.748C104.492 118.296 104.424 118.708 104.364 118.948C104.354 119.002 104.337 119.055 104.312 119.104C104.312 119.104 104.292 119.128 104.284 119.128L104.08 119.104L103.512 119.044L103.204 119.012L102.548 118.948L102.028 118.896H101.868L100.692 118.776L100.384 118.744L99.208 118.624H99.048L97.872 118.5L97.564 118.468L96.388 118.34H96.228L95.052 118.212L94.744 118.176L93.568 118.04H93.408L92.232 117.9L91.924 117.864L91.672 117.832L90.748 117.716L90.588 117.696L89.412 117.54H89.336L89.104 117.508L87.928 117.34L87.768 117.316C87.344 117.252 86.952 117.188 86.592 117.124L86.284 117.068C85.82 116.984 85.42 116.904 85.108 116.824L84.948 116.784L84.864 116.76C84.5364 116.66 84.22 116.526 83.92 116.36L83.772 116.284L83.628 116.204L83.464 116.112C83.1 115.896 82.708 115.644 82.288 115.352C82.236 115.32 82.184 115.28 82.128 115.24L81.824 115.024L81.404 114.72L80.952 114.38L80.644 114.144L79.884 113.54L79.688 113.384L79.468 113.204L79.308 113.072L79.096 112.9C78.824 112.672 78.544 112.444 78.268 112.204C78.2207 112.168 78.1753 112.129 78.132 112.088L77.908 111.9L77.824 111.828C77.424 111.492 77.024 111.152 76.648 110.804L76.552 110.72L76.488 110.664L76.376 110.564L75.312 109.608L75.064 109.384L75.004 109.328L74.724 109.076C74.42 108.8 74.12 108.52 73.824 108.244L73.6 108L73.384 107.8L73.216 107.644L72.416 106.896L72.108 106.604L71.96 106.464L71.636 106.156L70.928 105.476L70.772 105.324L70.42 104.98L70.256 104.82L69.6 104.156L69.296 103.852L69.076 103.636L68.82 103.376L68.776 103.328C68.5361 103.086 68.3154 102.825 68.116 102.548C68.06 102.476 68.008 102.4 67.96 102.324C67.912 102.248 67.884 102.208 67.848 102.152C67.8122 102.101 67.7801 102.048 67.752 101.992C67.5288 101.623 67.3502 101.228 67.22 100.816C67.1838 100.715 67.1531 100.612 67.128 100.508C67.0264 100.125 66.9832 99.7285 67 99.3323C67 99.2763 67 99.2242 67 99.1722C67.0344 98.7476 67.1853 98.3407 67.436 97.9963C67.5231 97.8831 67.6224 97.7798 67.732 97.6883C67.7985 97.6309 67.8694 97.5787 67.944 97.5323C67.994 97.4984 68.0461 97.4677 68.1 97.4403C68.4669 97.2578 68.8703 97.1607 69.28 97.1562H69.6C69.934 97.1721 70.266 97.2176 70.592 97.2922L70.78 97.3403C70.8329 97.3498 70.885 97.3632 70.936 97.3802C71.2492 97.4652 71.5576 97.5667 71.86 97.6843L72.116 97.7883L72.424 97.9203L72.576 97.9922C72.78 98.0842 72.976 98.1882 73.208 98.3042L73.608 98.5083L73.764 98.5922L74.84 99.1682L74.944 99.2242L75.136 99.3283C75.1759 99.3472 75.2147 99.3686 75.252 99.3922C75.652 99.6042 76.052 99.8202 76.428 100.036L76.588 100.124L77.268 100.524L77.764 100.804L77.816 100.832L78.072 100.976L79.248 101.644L79.408 101.736L79.884 102.008L80.164 102.168L80.564 102.408L80.872 102.588L82.048 103.26L82.192 103.344L82.712 103.644L83.368 104.012L83.676 104.188L84.82 104.82H84.852L85.012 104.904L85.124 104.964C85.524 105.168 85.864 105.364 86.188 105.512L86.496 105.656C86.8748 105.844 87.268 106 87.672 106.124H87.732L87.832 106.148C87.8874 106.161 87.9435 106.17 88 106.176C88.3354 106.201 88.6719 106.207 89.008 106.196H89.316C89.66 106.196 90.056 106.196 90.492 106.16H90.652L91.128 106.14L91.828 106.108H92.136L93.312 106.044H93.472L94.648 105.976H94.956L96.132 105.904H96.292L97.468 105.832L97.776 105.812L98.952 105.736H99.112L100.288 105.656L100.596 105.636L101.772 105.556H101.932L103.108 105.476L103.416 105.452L104.592 105.368H104.752L105.916 105.2Z" fill="#3D66CC"/>
    <path opacity="0.2" d="M68.132 97.4403V102.548C68.076 102.476 68.024 102.4 67.976 102.324V97.5242C68.0262 97.4931 68.0783 97.4651 68.132 97.4403ZM70.796 97.3443V105.316L70.952 105.468V97.3843C70.9023 97.3674 70.8515 97.354 70.8 97.3443H70.796ZM69.312 97.1562V103.852L69.616 104.156V97.1562H69.312ZM72.132 97.7922V106.592L72.44 106.884V97.9242L72.132 97.7922ZM73.616 98.5122V108L73.772 108.144V98.5963L73.616 98.5122ZM76.436 100.04V110.556L76.5 110.612L76.596 110.696V100.128L76.436 100.04ZM75.144 99.3323L74.952 99.2283V109.276H75.012L75.26 109.5V99.3963C75.2227 99.3726 75.1839 99.3512 75.144 99.3323ZM77.824 100.816L77.772 100.788V111.72L77.856 111.792L78.08 111.98V100.96L77.824 100.816ZM79.256 101.616V112.952L79.416 113.084V101.72L79.256 101.616ZM82.22 103.316L82.076 103.232V115.12C82.132 115.16 82.184 115.2 82.236 115.232V103.328L82.22 103.316ZM80.592 102.4V114.044L80.9 114.28V102.572L80.592 102.4ZM83.412 104V116.092H83.576L83.72 116.172V104.172L83.412 104ZM84.896 104.824V116.672L85.056 116.712V104.912L84.896 104.824ZM87.776 106.144H87.716V117.2L87.876 117.224V106.148L87.776 106.144ZM86.232 105.516V116.956L86.54 117.012V105.664L86.232 105.516ZM89.032 106.216V117.416H89.264H89.34V106.212L89.032 106.216ZM90.516 106.172V117.6L90.676 117.62V106.168L90.516 106.172ZM93.316 106.032V117.94H93.476V106.028L93.316 106.032ZM91.832 106.112V117.764L92.14 117.8V106.1L91.832 106.112ZM94.632 105.956V118.092L94.94 118.128V105.944L94.632 105.956ZM96.116 105.868V118.268H96.276V105.868H96.116ZM98.936 105.688V118.56H99.096V105.68L98.936 105.688ZM97.452 105.784V118.4L97.76 118.432V105.768L97.452 105.784ZM100.272 105.596V118.692L100.58 118.724V105.6L100.272 105.596ZM101.756 105.496V118.844H101.916V105.488L101.756 105.496ZM104.576 105.296V116.896C104.603 116.688 104.631 116.472 104.66 116.248C104.66 116.196 104.66 116.144 104.66 116.092C104.66 115.948 104.696 115.8 104.716 115.652V105.288L104.576 105.296ZM103.092 105.404V118.976L103.4 119.008V105.384L103.092 105.404ZM102.436 118.912L103.092 118.976L103.4 119.008L103.968 119.068H104.2C104.225 119.019 104.242 118.966 104.252 118.912H102.436ZM89.236 117.428H89.312L90.488 117.584L90.648 117.604L91.572 117.72H104.52C104.52 117.624 104.548 117.52 104.568 117.416L89.236 117.428ZM83.528 116.092L83.672 116.172L83.82 116.248H104.72C104.72 116.196 104.72 116.144 104.72 116.092H83.528ZM79.588 113.272L79.784 113.428H104.984C104.984 113.376 104.984 113.324 105.004 113.272H79.588ZM81.304 114.608L81.724 114.912H104.836L104.872 114.608H81.304ZM77.808 111.808L78.032 111.996C78.0753 112.037 78.1207 112.076 78.168 112.112H105.2C105.2 112.012 105.22 111.908 105.232 111.808H77.808ZM76.276 110.472L76.388 110.572L76.452 110.628H105.316C105.316 110.576 105.316 110.524 105.316 110.472H76.276ZM73.184 107.652L73.352 107.808H105.608C105.608 107.756 105.608 107.704 105.608 107.652H73.184ZM74.624 108.984L74.904 109.236V109.292H105.456C105.456 109.188 105.476 109.084 105.488 108.984H74.624ZM91.124 106.164L90.648 106.184H90.488C90.052 106.184 89.656 106.216 89.312 106.22H89.004C88.6679 106.231 88.3314 106.225 87.996 106.2C87.9395 106.194 87.8834 106.185 87.828 106.172V106.148H71.66L71.984 106.456H105.792C105.792 106.348 105.812 106.244 105.82 106.148L91.124 106.164ZM85.008 104.928L84.848 104.844H70.28L70.444 105.004H85.168L85.008 104.928ZM79.892 102H67.768C67.7961 102.056 67.8282 102.109 67.864 102.16H80.172L79.892 102ZM82.236 103.344H68.8L68.844 103.392L69.1 103.652H82.764L82.236 103.344ZM77.772 100.8L77.276 100.52H67.144C67.1691 100.624 67.1998 100.727 67.236 100.828H77.824L77.772 100.8ZM74.952 99.2403L74.848 99.1843H67.032C67.032 99.2363 67.032 99.2883 67.032 99.3443H75.16L74.952 99.2403ZM72.44 97.9362L72.132 97.8042L71.876 97.7003H67.764C67.6544 97.7918 67.5551 97.8951 67.468 98.0083H72.592L72.44 97.9362Z" fill="white"/>
    <path d="M79.044 112.8C75.232 109.648 70.864 105.432 68.836 103.384C66.036 100.564 66.328 96.3402 70.608 97.3002C71.772 99.2282 76.848 108.692 79.044 112.8Z" fill="#263238"/>
    <path d="M103.28 106.432C103.28 106.396 103.228 106.384 103.22 106.432C103.036 107.36 102.96 108.312 102.856 109.252C102.752 110.192 102.652 111.192 102.564 112.168C102.392 114.104 102.188 116.056 102.124 118.004C102.128 118.018 102.136 118.03 102.147 118.039C102.158 118.047 102.172 118.052 102.186 118.052C102.2 118.052 102.214 118.047 102.225 118.039C102.236 118.03 102.244 118.018 102.248 118.004C102.54 116.092 102.696 114.148 102.876 112.224C102.964 111.272 103.052 110.316 103.12 109.36C103.188 108.404 103.292 107.404 103.28 106.432Z" fill="#263238"/>
    <path d="M80.052 127.056C79.8533 127.16 79.6381 127.229 79.416 127.26L79.256 127.292L78.856 127.376L78.096 127.512L77.972 127.532L77.788 127.56L76.612 127.748L76.452 127.768C76.08 127.828 75.688 127.884 75.276 127.944L74.968 127.988L73.792 128.152L73.632 128.172L72.456 128.332L72.148 128.372L70.972 128.524L70.812 128.544L70.336 128.604L69.636 128.696H69.5C69.444 128.696 69.384 128.696 69.328 128.72L68.152 128.864L67.992 128.884L66.996 129.004L66.816 129.024L66.508 129.064L65.332 129.208L65.172 129.228L63.996 129.364L63.688 129.4L62.512 129.536L62.352 129.556L61.176 129.692C61.072 129.692 60.968 129.712 60.868 129.728L59.692 129.856L59.532 129.876H59.332L58.356 129.98L58.048 130.016L56.872 130.136L56.712 130.156H56.656C56.22 130.2 55.856 130.236 55.536 130.26L55.228 130.288L54.892 130.312C54.8016 130.322 54.7104 130.322 54.62 130.312C54.5974 130.264 54.5891 130.209 54.596 130.156C54.596 129.948 54.596 129.544 54.652 128.98C54.652 128.884 54.652 128.78 54.676 128.672C54.708 128.324 54.748 127.932 54.796 127.492C54.796 127.44 54.796 127.388 54.796 127.336C54.836 126.968 54.88 126.576 54.928 126.156L54.964 125.852C55.008 125.476 55.056 125.08 55.108 124.652C55.108 124.6 55.108 124.548 55.108 124.496C55.1373 124.288 55.1653 124.076 55.192 123.86L55.264 123.316C55.264 123.216 55.292 123.116 55.304 123.012C55.356 122.612 55.412 122.236 55.468 121.832L55.492 121.676C55.4903 121.654 55.4903 121.631 55.492 121.608C55.544 121.244 55.596 120.872 55.652 120.496C55.652 120.396 55.68 120.296 55.696 120.192C55.756 119.792 55.816 119.412 55.876 119.012L55.9 118.856C55.96 118.456 56.02 118.056 56.084 117.656C56.084 117.556 56.12 117.456 56.136 117.352C56.196 116.952 56.264 116.552 56.328 116.172C56.328 116.12 56.328 116.068 56.352 116.016C56.42 115.616 56.488 115.216 56.56 114.836C56.56 114.736 56.592 114.632 56.612 114.532C56.632 114.432 56.648 114.316 56.668 114.212L56.824 113.352C56.824 113.352 56.824 113.332 56.824 113.324L56.848 113.196C56.92 112.796 56.996 112.396 57.072 112.016C57.072 111.916 57.108 111.812 57.132 111.712C57.204 111.312 57.284 110.912 57.36 110.512L57.396 110.356C57.476 109.956 57.556 109.556 57.64 109.176C57.664 109.072 57.684 108.972 57.704 108.868C57.792 108.468 57.88 108.068 57.972 107.692C57.972 107.648 57.972 107.608 58 107.564C58.028 107.52 58 107.544 58 107.536C58.092 107.136 58.188 106.736 58.28 106.356L58.304 106.264C58.304 106.192 58.34 106.12 58.36 106.048C58.46 105.648 58.56 105.248 58.664 104.872C58.664 104.82 58.692 104.764 58.708 104.712C58.816 104.312 58.928 103.912 59.04 103.536L59.136 103.228C59.248 102.856 59.364 102.5 59.48 102.164C59.48 102.128 59.504 102.088 59.52 102.052C59.536 102.016 59.556 101.944 59.576 101.892C59.596 101.84 59.616 101.772 59.64 101.716C59.708 101.52 59.78 101.316 59.852 101.152C59.924 100.988 59.968 100.856 60.028 100.716C60.088 100.576 60.12 100.508 60.164 100.408C60.3436 99.998 60.5591 99.6045 60.808 99.2322C60.808 99.2322 60.88 99.1282 60.916 99.0842C60.9787 99.0023 61.0454 98.9235 61.116 98.8482L61.228 98.7362L61.44 98.5442C61.712 98.3042 61.964 98.0922 62.2 97.9082C62.2287 97.8818 62.2595 97.8577 62.292 97.8362L62.452 97.7122L62.604 97.6002C62.972 97.3282 63.308 97.1082 63.628 96.9082L64 96.8002L64.064 96.7602C64.2354 96.6573 64.4179 96.5741 64.608 96.5122C64.7942 96.4506 64.9839 96.3999 65.176 96.3602H65.22L65.336 96.3362C65.7251 96.2662 66.1177 96.2168 66.512 96.1882H66.82C67.22 96.1882 67.62 96.1602 67.996 96.1882H68.156C68.592 96.1882 68.996 96.2242 69.332 96.2602L69.64 96.2962C69.825 96.3155 70.0082 96.3489 70.188 96.3962L70.256 96.4202C70.3342 96.4548 70.407 96.5006 70.472 96.5562C70.5948 96.6582 70.7098 96.7691 70.816 96.8882L70.976 97.0682C71.132 97.2562 71.308 97.4682 71.484 97.7322C71.556 97.8322 71.628 97.9322 71.7 98.0402C71.848 98.2602 72 98.5002 72.152 98.7522C72.244 98.9002 72.34 99.0562 72.428 99.2162L72.46 99.2682L72.52 99.3762C72.732 99.7522 72.92 100.148 73.128 100.552C73.18 100.652 73.228 100.756 73.276 100.86C73.404 101.14 73.524 101.424 73.636 101.712C73.68 101.82 73.72 101.928 73.76 102.036L73.796 102.132L73.82 102.196C73.9536 102.569 74.0685 102.948 74.164 103.332C74.1662 103.345 74.1662 103.359 74.164 103.372C74.188 103.46 74.212 103.564 74.244 103.68C74.32 103.988 74.42 104.384 74.544 104.856C74.544 104.908 74.572 104.96 74.588 105.016C74.68 105.372 74.78 105.764 74.896 106.192C74.896 106.28 74.94 106.372 74.964 106.464C74.9659 106.476 74.9659 106.488 74.964 106.5C75.06 106.855 75.16 107.231 75.264 107.628V107.68C75.264 107.732 75.292 107.784 75.304 107.836L75.616 109.012C75.64 109.112 75.668 109.216 75.696 109.32C75.796 109.72 75.9 110.096 76.004 110.5C76.004 110.552 76.032 110.604 76.048 110.656C76.148 111.056 76.252 111.456 76.356 111.856L76.428 112.132C76.4285 112.142 76.4285 112.151 76.428 112.16C76.48 112.348 76.528 112.54 76.58 112.732L76.736 113.34C76.736 113.392 76.764 113.444 76.78 113.496C76.88 113.896 76.984 114.296 77.084 114.676C77.112 114.776 77.14 114.876 77.164 114.98C77.268 115.38 77.372 115.78 77.472 116.16C77.472 116.212 77.5 116.264 77.512 116.316C77.592 116.628 77.676 116.94 77.756 117.252L77.816 117.496C77.844 117.596 77.868 117.7 77.896 117.8L78.064 118.452C78.108 118.632 78.152 118.808 78.2 118.98C78.2 119.032 78.224 119.084 78.24 119.136L78.536 120.316C78.564 120.42 78.588 120.52 78.616 120.62C78.716 121.02 78.816 121.42 78.908 121.8C78.908 121.852 78.936 121.904 78.948 121.956L79.236 123.136L79.308 123.432C79.336 123.564 79.368 123.692 79.396 123.832C79.464 124.108 79.528 124.376 79.584 124.632L79.62 124.788C79.724 125.24 79.808 125.636 79.876 125.988C79.9 126.096 79.92 126.2 79.936 126.292C80.0157 126.539 80.0549 126.797 80.052 127.056Z" fill="#3D66CC"/>
    <path opacity="0.2" d="M56.856 113.404V130.172L56.696 130.192V114.292L56.852 113.432C56.852 113.432 56.856 113.412 56.856 113.404ZM55.512 121.736L55.488 121.892C55.432 122.292 55.376 122.692 55.324 123.072C55.324 123.176 55.296 123.276 55.284 123.376L55.2 123.92V130.32L55.508 130.292V121.668C55.5076 121.69 55.5089 121.713 55.512 121.736ZM58.312 106.456C58.22 106.856 58.124 107.236 58.032 107.636V130.036L58.34 130V106.364L58.312 106.456ZM59.6 102C59.6 102.052 59.56 102.104 59.544 102.16C59.528 102.216 59.516 102.236 59.504 102.272V129.9L59.664 129.88V101.816C59.652 101.872 59.632 101.932 59.6 102ZM62.324 97.9316V129.58L62.484 129.56V97.7996L62.324 97.9316ZM60.948 99.1796C60.912 99.2236 60.876 99.2756 60.84 99.3276V129.752C60.94 129.752 61.044 129.728 61.148 129.716V98.9356C61.0815 99.0111 61.0188 99.0899 60.96 99.1716L60.948 99.1796ZM63.66 97.0036V129.424L63.968 129.388V96.7996L63.66 97.0036ZM65.188 96.3596H65.144V129.252L65.304 129.232V96.3276L65.188 96.3596ZM67.964 96.1516V128.908L68.124 128.888V96.1436L67.964 96.1516ZM66.48 96.1876V129.08L66.788 129.04V96.1636L66.48 96.1876ZM69.28 96.2236V128.744C69.336 128.744 69.396 128.744 69.452 128.72H69.588V96.2516L69.28 96.2236ZM70.764 96.8516V128.552L70.924 128.532V97.0236L70.764 96.8516ZM73.74 102C73.7 101.892 73.66 101.784 73.616 101.676V128.18L73.776 128.16V102H73.74ZM72.408 99.1996C72.32 99.0396 72.224 98.8836 72.132 98.7356V128.4L72.44 128.36V99.2236L72.408 99.1996ZM74.96 106.484C74.9619 106.472 74.9619 106.459 74.96 106.448V128L75.268 127.956V107.6C75.1587 107.194 75.056 106.813 74.96 106.456V106.484ZM76.444 112.124C76.4445 112.114 76.4445 112.105 76.444 112.096V127.796L76.604 127.776V112.696C76.544 112.476 76.496 112.284 76.444 112.096V112.124ZM79.328 123.404L79.256 123.108V127.32L79.416 127.288V123.792C79.388 123.636 79.356 123.508 79.328 123.376V123.404ZM77.912 117.764C77.884 117.664 77.86 117.56 77.832 117.46L77.772 117.216V127.56L77.956 127.532L78.08 127.512V118.4L77.912 117.764ZM54.58 130.196C54.5731 130.249 54.5814 130.303 54.604 130.352H55.2V130.328L55.508 130.3C55.816 130.276 56.192 130.24 56.628 130.196H54.58ZM54.66 128.712C54.66 128.82 54.66 128.924 54.636 129.02H66.98L67.976 128.9L68.136 128.88L69.312 128.736C69.368 128.736 69.428 128.736 69.484 128.712H54.66ZM54.796 127.376C54.796 127.428 54.796 127.48 54.796 127.532H77.972L78.096 127.512L78.856 127.376H54.796ZM79.596 124.556H55.128C55.128 124.608 55.128 124.66 55.128 124.712H79.64L79.596 124.556ZM79.888 125.892H54.964L54.928 126.196H79.956C79.94 126.104 79.92 126 79.896 125.892H79.888ZM79.248 123.092H55.324C55.324 123.196 55.296 123.296 55.284 123.396H79.328L79.248 123.092ZM78.916 121.748H55.512L55.488 121.904H78.964C78.952 121.84 78.936 121.788 78.924 121.736L78.916 121.748ZM78.208 118.948H55.928L55.904 119.104H78.256C78.24 119.02 78.228 118.968 78.216 118.916L78.208 118.948ZM78.544 120.284H55.724C55.724 120.388 55.696 120.488 55.68 120.588H78.632C78.604 120.456 78.58 120.356 78.552 120.252L78.544 120.284ZM77.824 117.464H56.164C56.164 117.568 56.128 117.668 56.112 117.768H77.912C77.884 117.636 77.86 117.532 77.832 117.432L77.824 117.464ZM77.48 116.128H56.4C56.4 116.18 56.4 116.232 56.376 116.284H77.548C77.516 116.2 77.5 116.148 77.488 116.096L77.48 116.128ZM76.744 113.308H56.88L56.856 113.436C56.856 113.436 56.856 113.456 56.856 113.464H76.8C76.8 113.38 76.768 113.328 76.752 113.276L76.744 113.308ZM77.092 114.644H56.64C56.64 114.744 56.604 114.848 56.588 114.948H77.2C77.156 114.8 77.128 114.712 77.1 114.612L77.092 114.644ZM76.428 112.1L76.356 111.824H57.156C57.132 111.924 57.112 112.028 57.096 112.128H76.436C76.4384 112.108 76.4384 112.087 76.436 112.068L76.428 112.1ZM76.004 110.5H57.428L57.392 110.656H76.056C76.04 110.56 76.028 110.508 76 110.456L76.004 110.5ZM75.264 107.68H58.024V107.708C58.024 107.752 58.024 107.792 57.996 107.836H75.304C75.3 107.74 75.284 107.688 75.272 107.636L75.264 107.68ZM75.616 109.012H57.736C57.736 109.116 57.696 109.216 57.672 109.32H75.704C75.676 109.172 75.648 109.068 75.624 108.968L75.616 109.012ZM74.944 106.464C74.92 106.372 74.896 106.28 74.876 106.192H58.4C58.4 106.264 58.36 106.336 58.344 106.408L58.32 106.5H74.96C74.967 106.473 74.9641 106.444 74.952 106.42L74.944 106.464ZM74.544 104.864H58.744C58.744 104.916 58.712 104.972 58.7 105.024H74.576C74.56 104.916 74.544 104.864 74.532 104.8L74.544 104.864ZM73.788 102.14V102H59.6C59.6 102.052 59.56 102.104 59.544 102.16H73.8L73.788 102.14ZM74.164 103.38H59.172L59.076 103.688H74.232C74.2 103.52 74.176 103.416 74.152 103.328L74.164 103.38ZM73.12 100.58H60.2C60.156 100.68 60.108 100.78 60.064 100.888H73.264C73.2 100.712 73.16 100.608 73.108 100.508L73.12 100.58ZM72.452 99.2956L72.42 99.2436H60.96C60.924 99.2876 60.888 99.3396 60.852 99.3916H72.508L72.452 99.2956ZM70.248 96.4476L70.18 96.4236H65.156C64.9639 96.4632 64.7742 96.514 64.588 96.5756H70.452C70.3917 96.4972 70.3187 96.4296 70.236 96.3756L70.248 96.4476ZM71.476 97.7596H62.676L62.524 97.8716L62.364 97.9956C62.3314 98.017 62.3007 98.0411 62.272 98.0676H71.68C71.6 97.8876 71.536 97.7876 71.464 97.6876L71.476 97.7596Z" fill="white"/>
    <path d="M70.32 128.604C66.548 129.088 62.4 129.576 59.316 129.912L59.888 101.252C60.336 100.1 60.804 99.2518 61.272 98.8238L61.484 98.6318L70.32 128.604Z" fill="#263238"/>
    <path d="M75.52 124.611C75.328 123.723 75.1347 122.835 74.94 121.947C74.548 120.171 74.148 118.397 73.74 116.623C72.916 113.047 72.0427 109.483 71.12 105.931C70.608 103.931 70.06 101.955 69.556 99.9593C69.5537 99.9532 69.5496 99.9479 69.5443 99.9442C69.5389 99.9405 69.5325 99.9385 69.526 99.9385C69.5195 99.9385 69.5131 99.9405 69.5077 99.9442C69.5024 99.9479 69.4983 99.9532 69.496 99.9593C70.42 103.495 71.224 107.063 72.052 110.623C72.88 114.183 73.692 117.711 74.484 121.263L75.144 124.251C75.364 125.259 75.544 126.299 75.832 127.283C75.864 127.395 76.06 127.371 76.044 127.251C75.94 126.399 75.708 125.491 75.52 124.611Z" fill="#263238"/>
    <path d="M69.536 100.876C68.056 101.08 65.776 98.6276 64.964 96.7396C64.908 96.6116 65.22 95.3316 65.528 93.7596C65.708 92.8036 65.888 91.7356 65.984 90.7516C65.984 90.5476 66.656 90.9836 66.656 90.9836L67.9 91.4156L72.024 92.8396C71.5542 94.0385 71.2331 95.2905 71.068 96.5676C71.0546 96.7006 71.0546 96.8346 71.068 96.9676V97.0356C71.124 97.8276 70.968 100.676 69.536 100.876Z" fill="#AD6359"/>
    <path d="M71.072 96.9802V97.0482C70.8596 97.0562 70.6469 97.0468 70.436 97.0202C66.28 96.5322 66.26 91.2002 66.26 91.2002L67.9 91.4282L72.024 92.8522C71.5541 94.0511 71.2331 95.3031 71.068 96.5802C71.056 96.7133 71.0573 96.8473 71.072 96.9802Z" fill="#263238"/>
    <path d="M66.736 82.9036C65.628 84.9036 65.464 91.3876 66.704 93.0956C68.508 95.5756 72.104 96.5276 74.376 94.2156C76.576 91.9716 76.64 83.5396 75.176 81.9196C73.06 79.5316 68.376 79.9196 66.736 82.9036Z" fill="#AD6359"/>
    <path d="M72.1 88.2637C72.1 88.2637 72.064 88.2837 72.064 88.2997C72.064 88.7357 71.992 89.2357 71.592 89.3677C71.592 89.3677 71.592 89.3957 71.592 89.3917C72.08 89.3397 72.168 88.6757 72.1 88.2637Z" fill="#263238"/>
    <path d="M71.724 87.7957C71.024 87.7237 70.924 89.1237 71.576 89.1957C72.228 89.2677 72.308 87.8597 71.724 87.7957Z" fill="#263238"/>
    <path d="M74.608 88.5078C74.608 88.5078 74.644 88.5318 74.64 88.5518C74.596 88.9838 74.64 89.4878 75.004 89.6598C75.004 89.6598 75.004 89.6878 75.004 89.6838C74.52 89.5998 74.5 88.9118 74.608 88.5078Z" fill="#263238"/>
    <path d="M75.028 88.084C75.732 88.084 75.688 89.484 75.028 89.488C74.368 89.492 74.44 88.088 75.028 88.084Z" fill="#263238"/>
    <path d="M71.2 87.1158C71.3879 87.0749 71.5735 87.0242 71.756 86.9638C71.959 86.9376 72.1475 86.8447 72.292 86.6998C72.3291 86.6453 72.3472 86.5802 72.3436 86.5144C72.34 86.4486 72.3148 86.3858 72.272 86.3358C72.1717 86.2511 72.0507 86.1946 71.9213 86.1721C71.792 86.1496 71.659 86.1619 71.536 86.2078C71.2721 86.2623 71.0381 86.4135 70.88 86.6318C70.8462 86.6834 70.8283 86.7438 70.8285 86.8055C70.8287 86.8672 70.8469 86.9275 70.8809 86.979C70.9149 87.0304 70.9633 87.0708 71.02 87.0951C71.0767 87.1194 71.1393 87.1266 71.2 87.1158Z" fill="#263238"/>
    <path d="M75.62 87.4158C75.428 87.3678 75.26 87.2958 75.072 87.2318C74.8709 87.1927 74.6883 87.0887 74.552 86.9358C74.5179 86.8798 74.5033 86.8141 74.5105 86.749C74.5177 86.6838 74.5464 86.6229 74.592 86.5758C74.6973 86.497 74.8216 86.4474 74.9522 86.4319C75.0828 86.4165 75.2152 86.4358 75.336 86.4878C75.596 86.5582 75.821 86.722 75.968 86.9478C75.9979 87.0016 76.0116 87.0629 76.0075 87.1243C76.0035 87.1858 75.9818 87.2447 75.945 87.2941C75.9083 87.3435 75.8581 87.3813 75.8004 87.4028C75.7428 87.4244 75.6801 87.4289 75.62 87.4158Z" fill="#263238"/>
    <path d="M71.964 91.0001C72.062 91.1797 72.1961 91.3371 72.3579 91.4624C72.5197 91.5876 72.7056 91.6781 72.904 91.7281C73.0774 91.7741 73.2567 91.7943 73.436 91.7881C73.4705 91.7922 73.5055 91.7922 73.54 91.7881H73.636C73.6593 91.7849 73.6808 91.7741 73.6974 91.7575C73.714 91.7409 73.7248 91.7194 73.728 91.6961C73.73 91.6815 73.73 91.6667 73.728 91.6521V91.6001C73.76 91.2641 73.76 90.7561 73.76 90.7561C73.88 90.8241 74.484 91.1561 74.484 90.9721C74.551 89.4605 74.4639 87.946 74.224 86.4521C74.224 86.4415 74.2198 86.4313 74.2123 86.4238C74.2048 86.4163 74.1946 86.4121 74.184 86.4121C74.1734 86.4121 74.1632 86.4163 74.1557 86.4238C74.1482 86.4313 74.144 86.4415 74.144 86.4521C74.072 87.8481 74.252 89.2521 74.204 90.6521C73.9896 90.5323 73.7593 90.4435 73.52 90.3881C73.472 90.3881 73.52 91.3761 73.52 91.5281C73.2442 91.5359 72.9697 91.4882 72.7127 91.3879C72.4558 91.2876 72.2216 91.1367 72.024 90.9441C71.976 90.9361 71.94 90.9641 71.964 91.0001Z" fill="#263238"/>
    <path d="M75.488 84.1078C73.26 85.3758 70.564 82.9518 70.564 82.9518C70.3461 83.3963 69.9905 83.7586 69.5502 83.9849C69.1099 84.2112 68.6083 84.2894 68.12 84.2078C68.12 84.2078 67.408 87.7358 66.468 87.6518C65.036 87.5238 65 82.6238 65.532 81.7078C66.064 80.7918 67.3 80.6478 67.3 80.6478C67.4823 80.0806 67.8724 79.6033 68.392 79.3118C69.432 78.6438 72.72 79.9358 72.72 79.9358C72.9514 79.5002 73.2815 79.1249 73.684 78.8398C73.7808 78.7689 73.8909 78.7183 74.0077 78.6911C74.1246 78.664 74.2457 78.6607 74.3639 78.6817C74.482 78.7026 74.5947 78.7473 74.6951 78.8129C74.7955 78.8786 74.8815 78.964 74.948 79.0638C74.7519 79.3139 74.6152 79.6052 74.548 79.9158C74.292 80.9438 75.144 81.0118 75.216 80.0678C75.2534 79.7139 75.1642 79.3581 74.964 79.0638C75.436 78.4798 76.14 78.3358 76.528 78.7038C77.22 79.3678 77.34 83.0558 75.488 84.1078Z" fill="#263238"/>
    <path d="M67.004 88.2555C67.004 88.2555 65.972 85.9675 64.96 86.2995C63.948 86.6315 64.46 89.7595 65.46 90.3635C65.5832 90.4498 65.7226 90.5104 65.8698 90.5414C66.017 90.5725 66.1689 90.5735 66.3165 90.5444C66.4641 90.5152 66.6043 90.4565 66.7286 90.3718C66.8529 90.2871 66.9588 90.1782 67.04 90.0515L67.004 88.2555Z" fill="#AD6359"/>
    <path d="M65.128 87.2002C65.128 87.2002 65.104 87.2202 65.128 87.2282C65.828 87.6762 66.092 88.4522 66.236 89.2282C66.2063 89.144 66.1588 89.0673 66.0965 89.0034C66.0343 88.9394 65.9589 88.8898 65.8756 88.8578C65.7923 88.8259 65.7031 88.8124 65.614 88.8183C65.525 88.8243 65.4383 88.8495 65.36 88.8922C65.34 88.8922 65.36 88.9362 65.36 88.9362C65.5012 88.9188 65.6444 88.9456 65.7698 89.0129C65.8951 89.0803 65.9965 89.1848 66.06 89.3122C66.1625 89.5248 66.2429 89.7473 66.3 89.9762C66.324 90.0522 66.452 90.0402 66.44 89.9562C66.64 88.9722 66.144 87.4842 65.128 87.2002Z" fill="#263238"/>
    <path d="M71.072 97.0475L69.728 100.4L65.084 95.9355L63.848 97.4435C63.848 97.4435 68.472 104.62 68.492 104.292L69.896 101.116L72.12 103.232L71.788 97.7675L71.072 97.0475Z" fill="#3D66CC"/>
    <path d="M72.108 100.516C72.024 99.6163 71.964 98.7043 71.836 97.8083C71.8337 97.8021 71.8296 97.7969 71.8243 97.7931C71.8189 97.7894 71.8125 97.7874 71.806 97.7874C71.7995 97.7874 71.7931 97.7894 71.7877 97.7931C71.7824 97.7969 71.7783 97.8021 71.776 97.8083C71.62 98.6843 71.964 102.124 71.984 102.952C71.888 102.86 69.924 101.092 69.904 101.12C69.596 101.628 68.564 103.92 68.492 104.148C67.76 103.008 64.664 98.5203 63.808 97.4483C63.8029 97.4438 63.7964 97.4411 63.7896 97.4405C63.7828 97.44 63.7761 97.4416 63.7703 97.4452C63.7645 97.4487 63.7599 97.4541 63.7574 97.4604C63.7548 97.4667 63.7543 97.4737 63.756 97.4803C64.408 98.6803 68.408 104.612 68.464 104.596C69.012 103.504 69.502 102.384 69.932 101.24C70.268 101.64 72.26 103.64 72.264 103.492C72.2644 102.498 72.2124 101.505 72.108 100.516Z" fill="#263238"/>
    <path d="M89.364 121.296H105.608L108.676 98.3076H92.436L89.364 121.296Z" fill="#A6A6A6"/>
    <path d="M90.164 121.296H106.404L109.476 98.3076H93.232L90.164 121.296Z" fill="#DBDBDB"/>
    <path d="M101.4 108.664C101.356 109.092 101.157 109.489 100.84 109.78C100.523 110.071 100.11 110.236 99.68 110.244C99.4778 110.247 99.2771 110.208 99.0914 110.127C98.9057 110.047 98.7392 109.929 98.6029 109.779C98.4667 109.63 98.3639 109.453 98.3013 109.261C98.2387 109.068 98.2178 108.865 98.24 108.664C98.2784 108.232 98.4748 107.83 98.7916 107.535C99.1083 107.24 99.523 107.072 99.956 107.064C100.16 107.06 100.363 107.1 100.55 107.181C100.738 107.263 100.906 107.383 101.043 107.535C101.179 107.686 101.282 107.866 101.344 108.06C101.405 108.255 101.425 108.461 101.4 108.664Z" fill="white"/>
    <path d="M60.14 103.448C59.376 114.148 61.26 121.516 63.144 122.304C68.224 124.432 83.668 125.616 87.208 125.24C88.592 125.096 87.68 113.62 86.192 113.64C82.504 113.74 68.992 113.852 68.816 113.772C67.668 113.232 67.616 109.664 64.96 102.04C62.82 95.8875 60.452 99.0715 60.14 103.448Z" fill="#AD6359"/>
    <path d="M98 111.368C98.1927 111.646 98.2959 111.976 98.2959 112.314C98.2959 112.652 98.1927 112.982 98 113.26C98.5363 113.465 98.9837 113.851 99.264 114.352C99.716 115.26 98.496 116.352 98.496 116.352C99.0068 116.683 99.4067 117.16 99.644 117.72C99.992 118.632 98.916 119.924 98.916 119.924C99.2177 120.486 99.3085 121.137 99.172 121.76C98.896 122.824 96.244 124.18 94.664 124.684C93.084 125.188 88.136 125.144 87.188 125.228L83.864 115.124C83.864 115.124 90.296 110.848 92.236 110.516C93.892 110.252 97.236 110.336 98 111.368Z" fill="#AD6359"/>
    <path d="M97.896 113.12C96.088 112.996 94.344 113.416 92.576 113.74C92.536 113.74 92.548 113.808 92.576 113.8C94.328 113.46 96.128 113.472 97.892 113.204C97.9011 113.202 97.9092 113.196 97.9152 113.189C97.9211 113.182 97.9246 113.173 97.925 113.163C97.9255 113.154 97.9229 113.145 97.9177 113.137C97.9124 113.129 97.9048 113.123 97.896 113.12Z" fill="#263238"/>
    <path d="M98.44 116.243C98.0332 116.256 97.6298 116.322 97.24 116.439C96.812 116.539 96.388 116.647 95.964 116.759C95.12 116.987 94.276 117.235 93.444 117.507C93.4392 117.506 93.434 117.505 93.4288 117.506C93.4237 117.506 93.4188 117.508 93.4146 117.511C93.4104 117.514 93.4069 117.518 93.4045 117.523C93.4021 117.527 93.4009 117.532 93.4009 117.537C93.4009 117.543 93.4021 117.548 93.4045 117.552C93.4069 117.557 93.4104 117.561 93.4146 117.564C93.4188 117.567 93.4237 117.568 93.4288 117.569C93.434 117.57 93.4392 117.569 93.444 117.567C94.288 117.343 95.136 117.127 95.988 116.939C96.416 116.843 96.844 116.755 97.272 116.667C97.6822 116.609 98.0846 116.506 98.472 116.359C98.4874 116.355 98.5004 116.345 98.5083 116.331C98.5162 116.317 98.5182 116.301 98.514 116.285C98.5098 116.27 98.4996 116.257 98.4857 116.249C98.4718 116.241 98.4554 116.239 98.44 116.243Z" fill="#263238"/>
    <path d="M98.9 119.943C98.5264 119.959 98.1583 120.039 97.812 120.179L96.66 120.507C95.888 120.723 95.12 120.935 94.344 121.123C94.304 121.123 94.316 121.195 94.344 121.183C95.144 120.999 95.944 120.823 96.712 120.627C97.112 120.535 97.488 120.435 97.876 120.335C98.236 120.279 98.5829 120.159 98.9 119.979C98.9 119.979 98.92 119.943 98.9 119.943Z" fill="#263238"/>
    <path d="M84.744 113.096V125.976L83.72 125.924C83.624 125.924 83.52 125.924 83.412 125.924H83.068L82.236 125.88C82.184 125.88 82.132 125.88 82.076 125.88L80.9 125.804H80.592L79.416 125.724H79.256L78.08 125.632L77.772 125.608L76.596 125.508H76.436L75.26 125.4L74.952 125.368L73.776 125.244H73.616C73.216 125.204 72.816 125.156 72.44 125.112L72.132 125.076L70.956 124.924L70.8 124.8L70.228 124.72L69.624 124.632L69.316 124.584L69.204 124.564C68.84 124.508 68.488 124.448 68.14 124.384L67.98 124.356C67.58 124.284 67.18 124.208 66.804 124.128L66.496 124.06C66.096 123.968 65.696 123.876 65.32 123.776L65.16 123.732C64.752 123.62 64.38 123.504 64.044 123.384L63.984 123.364L63.676 123.244C63.548 123.188 63.424 123.136 63.312 123.08C63.0238 122.95 62.7547 122.782 62.512 122.58L62.472 122.544L62.352 122.42C62.2016 122.26 62.0676 122.086 61.952 121.9C61.92 121.852 61.892 121.8 61.86 121.744C61.6461 121.366 61.4641 120.972 61.316 120.564L61.208 120.26L61.172 120.148C61.064 119.828 60.96 119.484 60.864 119.12V119.08L60.828 118.924C60.728 118.548 60.64 118.152 60.552 117.724C60.552 117.624 60.512 117.524 60.496 117.42C60.416 117.04 60.348 116.644 60.284 116.24C60.284 116.188 60.264 116.136 60.256 116.084C60.196 115.684 60.14 115.304 60.088 114.904C60.088 114.804 60.06 114.7 60.048 114.6C60 114.2 59.952 113.8 59.912 113.42C59.912 113.368 59.912 113.316 59.912 113.264C59.872 112.864 59.836 112.464 59.804 112.084L59.78 111.78C59.756 111.476 59.736 111.172 59.716 110.868C59.716 110.78 59.716 110.692 59.716 110.6V110.444C59.692 110.044 59.676 109.644 59.66 109.264C59.66 109.16 59.66 109.056 59.66 108.956C59.66 108.556 59.636 108.156 59.628 107.78V107.624C59.628 107.224 59.628 106.824 59.628 106.444V106.136C59.628 105.736 59.628 105.336 59.652 104.96C59.652 104.904 59.652 104.852 59.652 104.8C59.652 104.4 59.68 104 59.704 103.624C59.704 103.52 59.704 103.416 59.704 103.316C59.704 103.124 59.732 102.944 59.748 102.768C59.764 102.592 59.792 102.336 59.816 102.14C59.816 102.084 59.816 102.032 59.816 101.98C59.852 101.704 59.896 101.456 59.94 101.24C59.972 101.088 60.004 100.944 60.044 100.804C60.084 100.664 60.104 100.596 60.136 100.496C60.2629 100.08 60.4474 99.6842 60.684 99.3197L60.804 99.1597L60.904 99.0397C60.9955 98.9312 61.0988 98.8333 61.212 98.7477C61.3733 98.6117 61.5612 98.5108 61.7637 98.4516C61.9662 98.3924 62.1788 98.376 62.388 98.4037L62.548 98.4357C62.9968 98.5644 63.4011 98.815 63.716 99.1597C63.764 99.2077 63.812 99.2557 63.86 99.3117C63.908 99.3677 63.972 99.4357 64.024 99.5037C64.2714 99.8116 64.4909 100.141 64.68 100.488L64.848 100.796C64.968 101.032 65.084 101.284 65.2 101.556C65.252 101.684 65.308 101.816 65.36 101.956L65.42 102.116C65.536 102.432 65.652 102.768 65.76 103.124C65.76 103.18 65.796 103.236 65.812 103.292C65.828 103.348 65.872 103.496 65.908 103.6L66.264 104.776L66.312 104.936C66.384 105.18 66.456 105.42 66.528 105.652C66.576 105.808 66.624 105.96 66.668 106.112C66.712 106.264 66.732 106.32 66.76 106.42C66.788 106.52 66.812 106.58 66.836 106.66L67.124 107.6C67.124 107.652 67.16 107.704 67.176 107.756C67.3 108.156 67.424 108.556 67.54 108.932C67.576 109.036 67.608 109.14 67.636 109.24C67.768 109.64 67.892 110.04 68.012 110.396C68.012 110.396 68.012 110.396 68.012 110.42C68.012 110.444 68.044 110.524 68.064 110.576L68.164 110.872C68.272 111.196 68.376 111.488 68.472 111.756L68.588 112.06C68.7297 112.468 68.9078 112.863 69.12 113.24C69.1558 113.296 69.1974 113.348 69.244 113.396C69.2704 113.42 69.3041 113.436 69.34 113.44H69.648L70.824 113.416H70.984H71.504H72.16H72.468L73.644 113.388H73.804L74.98 113.36H75.288L76.464 113.332H76.624L77.8 113.304H78.108L79.284 113.272H79.444L80.62 113.24H80.928L82.104 113.212H82.264L83.44 113.18H83.748L84.744 113.096Z" fill="#3D66CC"/>
    <path opacity="0.2" d="M59.676 102.799V110.879C59.676 110.791 59.676 110.703 59.676 110.611V110.455C59.652 110.055 59.636 109.655 59.62 109.275C59.62 109.171 59.62 109.067 59.62 108.967C59.62 108.567 59.596 108.167 59.588 107.791V107.635C59.588 107.235 59.588 106.835 59.588 106.455V106.147C59.588 105.747 59.588 105.347 59.612 104.971C59.612 104.915 59.612 104.863 59.612 104.811C59.612 104.411 59.64 104.011 59.664 103.635C59.664 103.531 59.664 103.427 59.664 103.327C59.644 103.135 59.66 102.955 59.676 102.799ZM62.336 98.3994V122.399L62.456 122.523L62.496 122.559V98.4474L62.336 98.3994ZM60.852 99.0354V119.095C60.948 119.459 61.052 119.803 61.16 120.123V98.7594C61.0468 98.845 60.9435 98.943 60.852 99.0514V99.0354ZM63.816 99.3154C63.768 99.2594 63.72 99.2114 63.672 99.1634V123.219L63.98 123.339V99.5234C63.928 99.4554 63.872 99.3914 63.816 99.3314V99.3154ZM65.156 101.559V123.707L65.316 123.751V101.971C65.264 101.835 65.2 101.703 65.156 101.575V101.559ZM68.036 110.595C68.016 110.543 68 110.491 67.984 110.439C67.968 110.387 67.984 110.439 67.984 110.415V124.331L68.144 124.359V110.907L68.036 110.595ZM66.724 106.439C66.696 106.339 66.664 106.235 66.632 106.131C66.6 106.027 66.54 105.827 66.492 105.671V124.035L66.8 124.103V106.455L66.724 106.439ZM69.312 113.459V124.559L69.62 124.607V113.471L69.312 113.459ZM70.796 113.415V124.799L70.956 124.823V113.431L70.796 113.415ZM73.596 113.363V125.119H73.756V113.375L73.596 113.363ZM72.112 113.399V124.951L72.42 124.987V113.387L72.112 113.399ZM74.912 113.331V125.259L75.22 125.291V113.339L74.912 113.331ZM76.396 113.295V125.399H76.556V113.307L76.396 113.295ZM79.196 113.223V125.623H79.356V113.235L79.196 113.223ZM77.864 113.259H77.712V125.515L78.02 125.539V113.271L77.864 113.259ZM80.532 113.187V125.723H80.84V113.199L80.532 113.187ZM82.016 113.151V125.819C82.072 125.819 82.124 125.819 82.176 125.819V113.163L82.016 113.151ZM83.352 113.115V125.891C83.46 125.891 83.564 125.891 83.66 125.891V113.091L83.352 113.115ZM69.2 124.555L69.312 124.575L69.62 124.623L70.224 124.711H84.744V124.555H69.2ZM83.068 125.891H83.412C83.52 125.891 83.624 125.891 83.72 125.891L84.744 125.943V125.859L83.068 125.891ZM63.308 123.071C63.42 123.127 63.544 123.179 63.672 123.235L63.98 123.355L64.04 123.375H84.744V123.071H63.308ZM61.848 121.735C61.88 121.791 61.908 121.843 61.94 121.891H84.74V121.735H61.848ZM60.804 118.935L60.84 119.091H84.744V118.935H60.804ZM61.204 120.271L61.312 120.575H84.752V120.271H61.204ZM60.48 117.451C60.48 117.555 60.516 117.655 60.536 117.755H84.752V117.451H60.48ZM60.24 116.115C60.24 116.167 60.24 116.219 60.268 116.271H84.752V116.115H60.24ZM59.88 113.295C59.88 113.347 59.88 113.399 59.88 113.451H69.2C69.1534 113.404 69.1118 113.352 69.076 113.295H59.88ZM77.78 113.295L76.604 113.323H76.444L75.268 113.351H74.96L73.784 113.379H73.6L72.424 113.407H72.116H71.46H84.728V113.251L77.78 113.295ZM60.032 114.631C60.032 114.731 60.056 114.835 60.072 114.935H84.752V114.631H60.032ZM68.452 111.831H59.74L59.764 112.135H68.564L68.452 111.831ZM68 110.455H59.648V110.611H68.024C68 110.559 68 110.507 68 110.455ZM67.104 107.635H59.544V107.791H67.144C67.124 107.739 67.108 107.687 67.088 107.635H67.104ZM67.504 108.967H59.576C59.576 109.067 59.576 109.171 59.576 109.275H67.576C67.572 109.175 67.54 109.071 67.504 108.967ZM66.632 106.147H59.532V106.455H66.732C66.696 106.355 66.664 106.251 66.632 106.147ZM66.232 104.811H59.56C59.56 104.863 59.56 104.915 59.56 104.971H66.28L66.232 104.811ZM65.328 102.011H59.768C59.768 102.063 59.768 102.115 59.768 102.171H65.408L65.328 102.011ZM65.78 103.347H59.632C59.632 103.447 59.632 103.551 59.632 103.655H65.892C65.836 103.531 65.808 103.431 65.776 103.327L65.78 103.347ZM64.64 100.547H60.084C60.052 100.647 60.02 100.751 59.992 100.855H64.792L64.64 100.547ZM63.672 99.1994H60.752L60.632 99.3594H63.832C63.768 99.2754 63.72 99.2274 63.672 99.1994Z" fill="white"/>
    <path d="M84.828 113.1C84.8384 113.079 84.8433 113.057 84.8423 113.034C84.8413 113.011 84.8345 112.989 84.8224 112.97C84.8103 112.95 84.7934 112.935 84.7734 112.924C84.7533 112.913 84.7308 112.907 84.708 112.908C82.684 112.884 80.648 112.992 78.624 113.044C76.6 113.096 74.568 113.136 72.54 113.204C71.4 113.244 69.208 113.344 69.188 113.312C69.168 113.28 68.556 111.376 68.424 110.98C68.168 110.208 67.9 109.44 67.624 108.668C67.548 108.444 67.468 108.22 67.388 108C67.364 107.848 67.336 107.696 67.32 107.548C67.304 107.4 67.272 107.148 67.248 106.924C67.2021 106.511 67.134 106.101 67.044 105.696C67.0405 105.689 67.0347 105.684 67.0276 105.681C67.0205 105.678 67.0127 105.678 67.0054 105.68C66.9982 105.682 66.992 105.687 66.9881 105.694C66.9842 105.7 66.9827 105.708 66.984 105.716C67.0666 106.137 67.1094 106.566 67.112 106.996L67.136 107.304C66.736 106.24 66.64 106.052 66.3 104.976C66.3018 104.971 66.3024 104.966 66.3017 104.961C66.3011 104.955 66.2992 104.951 66.2963 104.946C66.2933 104.942 66.2894 104.939 66.2848 104.936C66.2802 104.934 66.2752 104.933 66.27 104.933C66.2648 104.933 66.2598 104.934 66.2552 104.936C66.2506 104.939 66.2467 104.942 66.2437 104.946C66.2408 104.951 66.2389 104.955 66.2383 104.961C66.2376 104.966 66.2382 104.971 66.24 104.976C66.64 106.532 66.856 107.2 67.344 108.736C67.592 109.512 67.836 110.288 68.096 111.064C68.224 111.44 68.808 113.2 68.996 113.552C69.02 113.596 71.076 113.48 72.088 113.464C73.1 113.448 74.116 113.432 75.132 113.408L81.216 113.256C82.34 113.228 83.472 113.228 84.596 113.164C84.596 113.296 84.696 113.964 84.688 114.008C84.68 114.052 84.752 114.06 84.748 114.008C84.744 113.956 84.832 113.112 84.828 113.1Z" fill="#263238"/>
    <path d="M82.468 114.123C82.468 114.091 82.412 114.079 82.404 114.123C82.276 115.015 82.256 115.927 82.204 116.827C82.152 117.727 82.112 118.691 82.08 119.627C82.02 121.487 81.928 123.355 81.98 125.227C81.98 125.243 81.9863 125.259 81.9976 125.27C82.0088 125.281 82.0241 125.287 82.04 125.287C82.0559 125.287 82.0712 125.281 82.0824 125.27C82.0937 125.259 82.1 125.243 82.1 125.227C82.284 123.391 82.328 121.531 82.396 119.687C82.4307 118.775 82.4573 117.861 82.476 116.943C82.488 115.999 82.536 115.047 82.468 114.123Z" fill="#263238"/>
    <path d="M84.844 120.728V120.328C84.844 120.264 84.844 120.196 84.844 120.132C84.8532 120.103 84.8532 120.072 84.844 120.044C84.844 120.008 84.844 119.972 84.844 119.932H84.812C84.812 119.972 84.812 120.008 84.812 120.044C84.812 120.044 84.812 120.068 84.812 120.072C84.776 121.036 84.672 122 84.628 122.964C84.584 123.928 84.568 124.904 84.576 125.88C83.476 125.788 82.36 125.8 81.256 125.744C80.152 125.688 78.968 125.604 77.824 125.512C75.532 125.328 73.244 125.112 70.964 124.788L69.064 124.52C68.42 124.428 67.748 124.38 67.116 124.228C67.076 124.228 67.06 124.284 67.116 124.292C67.696 124.364 68.272 124.524 68.848 124.628C69.424 124.732 69.976 124.828 70.544 124.916C71.6747 125.097 72.8093 125.257 73.948 125.396C76.22 125.678 78.5 125.877 80.788 125.992L82.752 126.076C83.396 126.096 84.048 126.136 84.692 126.104C84.7194 126.102 84.7453 126.09 84.7651 126.071C84.7848 126.052 84.7972 126.027 84.8 126C84.8 124.988 84.852 123.976 84.864 122.964C84.864 122.468 84.864 121.972 84.864 121.476C84.856 121.224 84.852 120.976 84.844 120.728Z" fill="#263238"/>
    <path d="M108.592 104.924C109.612 106.236 111.972 107.668 112.38 108.832C112.49 109.116 112.506 109.428 112.426 109.722C112.345 110.016 112.172 110.276 111.932 110.464C111.932 110.464 113.26 110.796 113.456 111.912C113.556 112.488 112.724 113.156 112.724 113.156C113.02 113.247 113.285 113.418 113.491 113.65C113.696 113.883 113.833 114.167 113.888 114.472C113.976 115.272 113.132 115.82 113.132 115.82C113.132 115.82 114 116.588 113.828 117.42C113.484 119.132 106.732 120.62 105.14 118.364C104.396 117.312 106.064 117.04 106.064 117.04C106.064 117.04 103.572 116.852 103.228 115.468C102.884 114.084 105.076 113.868 105.076 113.868C105.076 113.868 102.656 113.668 102.448 112.196C102.24 110.724 104.448 110.812 104.448 110.812C104.448 110.812 102.724 110.128 102.82 108.964C102.98 107.044 106.748 108.68 108.156 108L108.592 104.924Z" fill="#AD6359"/>
    <path d="M112.76 113.16C112.784 113.16 112.8 113.196 112.76 113.208C110.344 114.376 107.59 114.64 104.996 113.952C104.908 113.928 104.852 113.812 104.96 113.836C106.752 114.22 110.624 113.828 112.76 113.16Z" fill="#263238"/>
    <path d="M104.284 110.704C106.824 111.352 109.32 111.104 111.848 110.512C111.88 110.512 111.888 110.548 111.848 110.564C110.696 111.2 109.048 111.416 107.744 111.48C106.538 111.561 105.333 111.324 104.248 110.792C104.216 110.772 104.228 110.692 104.284 110.704Z" fill="#263238"/>
    <path d="M156.02 157.332C155.684 158.236 139.22 178.704 138.1 179.088C137.676 179.236 134.556 177.012 130.86 174.216C130.06 173.612 129.26 172.984 128.412 172.344C123.024 168.18 117.404 163.636 117.404 163.636L128.376 149.912L139.084 159L141.436 161C141.436 161 151.244 155.984 152.52 155.696C153.796 155.408 156.356 156.424 156.02 157.332Z" fill="#AD6359"/>
    <path d="M156.02 157.332C155.684 158.236 139.22 178.704 138.1 179.088C137.58 179.264 133.084 175.944 128.412 172.344L139.084 159L141.436 161C141.436 161 151.244 155.984 152.52 155.696C153.796 155.408 156.356 156.424 156.02 157.332Z" fill="white"/>
    <path d="M156.02 157.332C155.684 158.236 139.22 178.704 138.1 179.088C137.676 179.236 134.556 177.012 130.86 174.216L141.436 160.992C141.436 160.992 151.244 155.976 152.52 155.688C153.796 155.4 156.356 156.424 156.02 157.332Z" fill="#3D66CC"/>
    <path d="M154.968 156.963C152.12 160.327 140.968 174.163 138.412 177.699C138.412 177.727 138.412 177.743 138.432 177.699C141.324 174.431 152.368 160.499 155.024 156.995C155.08 156.935 155.028 156.895 154.968 156.963Z" fill="#263238"/>
    <path d="M150.724 156.4C150.409 156.774 150.176 157.209 150.038 157.678C149.9 158.147 149.861 158.639 149.924 159.124C150.022 159.997 150.452 160.798 151.124 161.364C151.144 161.364 151.176 161.344 151.156 161.324C150.569 160.661 150.213 159.826 150.141 158.944C150.069 158.062 150.285 157.181 150.756 156.432C150.757 156.427 150.756 156.423 150.755 156.419C150.754 156.415 150.751 156.411 150.748 156.408C150.745 156.404 150.741 156.402 150.737 156.401C150.733 156.399 150.728 156.399 150.724 156.4Z" fill="#263238"/>
    <path d="M142.848 159.935C141.724 161.291 140.928 163.275 141.364 165.031C141.364 165.099 141.48 165.075 141.492 165.031C141.828 163.325 142.345 161.659 143.036 160.063C143.053 160.039 143.059 160.008 143.054 159.978C143.048 159.949 143.031 159.922 143.006 159.905C142.981 159.888 142.95 159.882 142.921 159.888C142.891 159.893 142.865 159.911 142.848 159.935Z" fill="#263238"/>
    <path d="M144.116 159.2C142.992 160.556 142.196 162.54 142.632 164.296C142.632 164.364 142.744 164.34 142.756 164.296C143.093 162.59 143.612 160.924 144.304 159.328C144.321 159.303 144.327 159.273 144.322 159.243C144.316 159.213 144.299 159.187 144.274 159.17C144.249 159.153 144.218 159.147 144.189 159.152C144.159 159.158 144.133 159.175 144.116 159.2Z" fill="#263238"/>
    <path d="M145.38 158.479C144.256 159.835 143.46 161.819 143.896 163.575C143.916 163.643 144.012 163.619 144.024 163.575C144.36 161.869 144.877 160.203 145.568 158.607C145.585 158.582 145.591 158.552 145.586 158.522C145.58 158.493 145.563 158.466 145.538 158.449C145.513 158.432 145.482 158.426 145.453 158.432C145.423 158.437 145.397 158.454 145.38 158.479Z" fill="#263238"/>
    <path d="M146.648 157.752C145.524 159.112 144.728 161.092 145.164 162.848C145.164 162.916 145.276 162.892 145.288 162.848C145.625 161.141 146.144 159.476 146.836 157.88C146.853 157.855 146.859 157.824 146.854 157.795C146.848 157.765 146.831 157.739 146.806 157.722C146.781 157.705 146.75 157.699 146.721 157.704C146.691 157.71 146.665 157.727 146.648 157.752Z" fill="#263238"/>
    <path d="M135.856 174.204C134.62 175.748 137.02 177.672 138.256 176.124C139.492 174.576 137.092 172.66 135.856 174.204Z" fill="#263238"/>
    <path d="M140.4 155.504C139.264 155.736 139.124 157.064 139.376 157.972C139.839 159.526 140.704 160.931 141.884 162.044C141.888 162.05 141.893 162.054 141.9 162.058C141.906 162.061 141.913 162.062 141.92 162.062C141.927 162.062 141.934 162.061 141.94 162.058C141.947 162.054 141.952 162.05 141.956 162.044C141.986 162.059 142.02 162.068 142.055 162.068C142.089 162.067 142.123 162.059 142.153 162.044C142.183 162.028 142.21 162.005 142.23 161.978C142.25 161.95 142.263 161.918 142.268 161.884C142.376 160.364 142.668 158.752 142.324 157.24C142.092 156.352 141.452 155.284 140.4 155.504ZM141.96 159.536C141.924 160.284 141.852 161.028 141.844 161.78C141.334 161.004 140.862 160.203 140.432 159.38C140.231 158.977 140.057 158.562 139.912 158.136C139.696 157.472 139.632 155.2 141.236 156.264C142.1 156.84 142 158.644 141.94 159.536H141.96Z" fill="#263238"/>
    <path d="M139.628 165.867C140.772 164.819 141.424 163.311 142.188 161.991C142.203 161.961 142.21 161.927 142.21 161.893C142.209 161.859 142.2 161.826 142.183 161.796C142.167 161.766 142.143 161.741 142.115 161.722C142.086 161.703 142.054 161.691 142.02 161.687C142.021 161.68 142.02 161.673 142.017 161.666C142.014 161.659 142.01 161.653 142.005 161.648C141.999 161.643 141.993 161.639 141.986 161.637C141.979 161.635 141.971 161.634 141.964 161.635C140.362 161.894 138.856 162.571 137.6 163.599C136.88 164.207 136.252 165.387 137.06 166.215C137.868 167.043 138.96 166.479 139.628 165.867ZM138.18 166.067C136.252 166.047 137.58 164.203 138.132 163.775C138.492 163.503 138.87 163.255 139.264 163.035C140.064 162.567 140.936 162.235 141.784 161.835C141.384 162.459 141.012 163.115 140.62 163.755C140.156 164.519 139.24 166.075 138.18 166.067Z" fill="#263238"/>
    <path d="M138.512 156.928L127.092 172.336L88.556 145.6L84.84 143.02C84.84 143.02 83.788 143.728 82.204 144.62C80.004 145.82 76.78 147.376 73.928 147.796C69.128 148.504 61.156 148.428 57.128 143.036C53.732 138.496 56.052 130.272 56.052 130.272L61.652 129.652C61.652 129.652 73.252 119.96 81.324 119.652C84.744 119.516 89.724 122.108 94.336 124.816C98.948 127.524 138.512 156.928 138.512 156.928Z" fill="#455A64"/>
    <path d="M84.84 143.016C84.84 143.016 83.788 143.724 82.204 144.616C79.404 141.264 73.476 135.176 73.296 134.96L84.84 143.016Z" fill="#263238"/>
    <path d="M65.38 126.832C64.636 127.344 63.92 127.896 63.184 128.432C62.448 128.968 61.72 129.444 61.036 130.012C60.352 130.58 59.676 131.212 59.036 131.832C58.72 132.132 58.404 132.436 58.1 132.744C57.7777 133.046 57.4782 133.371 57.204 133.716C57.18 133.748 57.228 133.788 57.26 133.768C57.6069 133.521 57.9394 133.254 58.256 132.968C58.604 132.676 58.944 132.376 59.292 132.084C59.96 131.516 60.64 130.964 61.292 130.392C61.944 129.82 62.568 129.192 63.224 128.636C63.88 128.08 64.664 127.436 65.396 126.868C65.408 126.844 65.396 126.82 65.38 126.832Z" fill="#263238"/>
    <path d="M135.832 156.376C135.088 157.176 134.404 158.036 133.712 158.88C133.02 159.724 132.328 160.58 131.644 161.436C130.276 163.144 128.892 164.848 127.548 166.576C126.808 167.528 126.08 168.484 125.392 169.472C125.385 169.481 125.381 169.493 125.383 169.505C125.384 169.517 125.39 169.528 125.4 169.536C125.41 169.543 125.422 169.546 125.434 169.545C125.446 169.543 125.457 169.537 125.464 169.528C126.94 167.908 128.264 166.18 129.652 164.472C131.04 162.764 132.388 161.04 133.728 159.308C134.464 158.36 135.224 157.416 135.9 156.424C135.903 156.415 135.902 156.405 135.899 156.397C135.896 156.388 135.891 156.381 135.883 156.375C135.876 156.37 135.867 156.367 135.858 156.367C135.848 156.367 135.839 156.37 135.832 156.376Z" fill="#263238"/>
    <path d="M105.232 132.315C103.876 130.743 98.06 126.619 94.344 124.775C94.3369 124.774 94.3294 124.774 94.3227 124.777C94.316 124.78 94.3106 124.786 94.3073 124.792C94.304 124.799 94.3031 124.806 94.3047 124.813C94.3063 124.82 94.3103 124.827 94.316 124.831C98.02 127.211 104.124 131.723 105.176 132.395C105.224 132.423 105.268 132.355 105.232 132.315Z" fill="#263238"/>
    <path d="M172.444 78.0352H112.22V102.111H172.444V78.0352Z" fill="#EBEBEB"/>
    <path d="M112.232 102.115V106.899L116.568 102.115H112.232Z" fill="#EBEBEB"/>
    <path d="M123.772 100.048C128.948 100.048 133.144 95.8517 133.144 90.6757C133.144 85.4997 128.948 81.3037 123.772 81.3037C118.596 81.3037 114.4 85.4997 114.4 90.6757C114.4 95.8517 118.596 100.048 123.772 100.048Z" fill="white"/>
    <path d="M139.884 82.5479L140.568 83.9359L142.096 84.1559L140.992 85.2359L141.252 86.7599L139.884 86.0399L138.516 86.7599L138.776 85.2359L137.672 84.1559L139.2 83.9359L139.884 82.5479Z" fill="#3D66CC"/>
    <path d="M145.908 82.5479L146.592 83.9359L148.12 84.1559L147.012 85.2359L147.276 86.7599L145.908 86.0399L144.54 86.7599L144.8 85.2359L143.692 84.1559L145.224 83.9359L145.908 82.5479Z" fill="#C7C7C7"/>
    <path d="M151.928 82.5479L152.612 83.9359L154.144 84.1559L153.036 85.2359L153.296 86.7599L151.928 86.0399L150.56 86.7599L150.824 85.2359L149.716 84.1559L151.244 83.9359L151.928 82.5479Z" fill="#C7C7C7"/>
    <path d="M157.952 82.5479L158.636 83.9359L160.168 84.1559L159.06 85.2359L159.32 86.7599L157.952 86.0399L156.584 86.7599L156.848 85.2359L155.74 84.1559L157.268 83.9359L157.952 82.5479Z" fill="#C7C7C7"/>
    <path d="M163.976 82.5479L164.66 83.9359L166.188 84.1559L165.084 85.2359L165.344 86.7599L163.976 86.0399L162.608 86.7599L162.868 85.2359L161.764 84.1559L163.292 83.9359L163.976 82.5479Z" fill="#C7C7C7"/>
    <path d="M166.248 90.0752H137.672V90.6752H166.248V90.0752Z" fill="#263238"/>
    <path d="M163.124 91.9033H137.672V92.5033H163.124V91.9033Z" fill="white"/>
    <path d="M158.712 93.7314H137.672V94.3314H158.712V93.7314Z" fill="white"/>
    <path d="M160.672 95.5596H137.672V96.1596H160.672V95.5596Z" fill="white"/>
    <mask id="mask0_971_3513" style="mask-type:luminance" maskUnits="userSpaceOnUse" x="114" y="78" width="20" height="23">
    <path d="M133.144 90.7596C133.146 90.733 133.146 90.7063 133.144 90.6796C133.146 89.7087 132.995 88.7435 132.696 87.8196C132.484 86.6661 132.212 85.5245 131.88 84.3996C131.342 82.3711 130.033 80.6329 128.232 79.5556C128.117 79.4726 127.997 79.3978 127.872 79.3316C127.848 79.3119 127.821 79.2958 127.792 79.2836L127.708 79.2396C125.428 77.9836 122.864 78.5716 120.908 79.4636C119.936 79.9024 119.089 80.5792 118.448 81.4316C117.667 82.3609 117.065 83.4269 116.672 84.5756C115.498 85.947 114.746 87.6281 114.504 89.417C114.263 91.2059 114.544 93.0263 115.312 94.6596C115.325 95.144 115.363 95.6274 115.428 96.1076C115.428 96.1716 115.524 96.1596 115.524 96.1076C115.524 95.7676 115.524 95.4317 115.524 95.0956C115.644 95.3143 115.777 95.5303 115.924 95.7436C115.924 95.9116 115.924 96.0756 115.924 96.2397C115.924 96.4716 116.268 96.7236 116.852 96.9756C117.747 97.962 118.842 98.7463 120.064 99.2763C121.286 99.8063 122.607 100.07 123.939 100.049C125.271 100.029 126.583 99.725 127.788 99.1577C128.993 98.5905 130.064 97.773 130.928 96.7596C131.506 96.4905 132.056 96.1635 132.568 95.7836C132.82 95.5956 132.9 94.5836 132.828 93.1676C132.925 92.8357 133 92.4976 133.052 92.1556C133.164 93.2076 133.252 94.2636 133.336 95.3196C133.336 95.3956 133.456 95.3876 133.456 95.3196C133.429 93.7954 133.325 92.2734 133.144 90.7596ZM130.036 81.4116C129.952 81.2876 129.86 81.1676 129.772 81.0516C130.808 82.2628 131.531 83.7088 131.88 85.2636C131.984 85.6636 132.08 86.0876 132.168 86.4996C132.014 86.1932 131.843 85.8954 131.656 85.6076C131.2 83.8516 130.66 82.3036 130.036 81.4116Z" fill="white"/>
    </mask>
    <g mask="url(#mask0_971_3513)">
    <path d="M120.892 79.4678C116.552 81.4198 115.616 87.5358 115.9 96.2398C115.944 97.5638 127.136 99.8638 132.552 95.7838C133.424 95.1238 132.184 84.4758 130.036 81.4118C127.372 77.5998 123.576 78.2598 120.892 79.4678Z" fill="#263238"/>
    <path d="M120.772 79.5557C118.504 80.7117 117.044 83.0077 116.372 85.4157C115.936 87.2054 115.636 89.0251 115.472 90.8597C115.23 92.6018 115.203 94.3671 115.392 96.1157C115.392 96.1284 115.397 96.1407 115.406 96.1497C115.415 96.1587 115.427 96.1637 115.44 96.1637C115.453 96.1637 115.465 96.1587 115.474 96.1497C115.483 96.1407 115.488 96.1284 115.488 96.1157C115.47 92.819 115.812 89.5301 116.508 86.3077C117.072 83.6077 118.46 81.1917 120.844 79.7317C120.952 79.6677 120.872 79.5077 120.772 79.5557Z" fill="#263238"/>
    <path d="M131.884 84.3999C131.533 83.0725 130.848 81.857 129.894 80.8692C128.941 79.8813 127.75 79.1538 126.436 78.7559V78.7879C129.444 79.9239 131.132 82.2159 131.892 85.2559C132.72 88.5679 133.056 91.9279 133.328 95.3159C133.328 95.3318 133.334 95.347 133.346 95.3583C133.357 95.3695 133.372 95.3759 133.388 95.3759C133.404 95.3759 133.419 95.3695 133.43 95.3583C133.442 95.347 133.448 95.3318 133.448 95.3159C133.418 91.6236 132.892 87.9521 131.884 84.3999Z" fill="#263238"/>
    <path d="M117.672 99.4998L117.708 99.5278C119.672 100.868 123.552 103.22 125.624 102.472C126.232 102.226 126.781 101.855 127.236 101.383C127.691 100.911 128.041 100.348 128.264 99.7318C127.454 99.0769 126.597 98.482 125.7 97.9518C122.64 95.9158 119.88 97.1358 117.672 99.4998Z" fill="#A6A6A6"/>
    <path d="M120.628 98.3436C120.768 98.7956 123.164 101.636 125.26 101.396C125.944 101.32 125.68 97.5716 125.68 97.5716L125.724 97.2916L126.332 93.3556L121.6 90.7356L120.916 90.3916C120.916 90.3916 120.82 91.4796 120.716 92.8356C120.716 92.8996 120.716 92.9636 120.716 93.0276C120.716 93.0916 120.716 93.1796 120.696 93.2516C120.696 93.4516 120.66 93.6516 120.648 93.8636C120.636 94.0756 120.624 94.1756 120.62 94.3396C120.616 94.5036 120.62 94.6676 120.592 94.8316C120.524 96.0017 120.536 97.1751 120.628 98.3436Z" fill="#F7A9A0"/>
    <path d="M120.696 92.8356C121.161 93.8985 121.851 94.8476 122.72 95.617C123.588 96.3864 124.613 96.9578 125.724 97.2916L126.332 93.3556L121.6 90.7356L120.916 90.3916C120.916 90.3916 120.8 91.4796 120.696 92.8356Z" fill="#263238"/>
    <path d="M131.2 86.7996C132.296 93.7036 128.284 95.1396 126.8 95.3756C125.452 95.5876 121.088 95.9156 119.284 89.1636C117.48 82.4116 120.084 79.9636 123.14 79.2956C126.196 78.6276 130.1 79.9036 131.2 86.7996Z" fill="#F7A9A0"/>
    <path d="M130 86.4C129.849 86.4545 129.696 86.5012 129.54 86.54C129.385 86.6155 129.208 86.6353 129.04 86.596C128.99 86.5745 128.948 86.5369 128.921 86.4892C128.894 86.4414 128.884 86.3862 128.892 86.332C128.925 86.2271 128.986 86.133 129.067 86.0592C129.149 85.9853 129.248 85.9346 129.356 85.912C129.566 85.8301 129.798 85.8301 130.008 85.912C130.055 85.934 130.094 85.969 130.121 86.0127C130.148 86.0565 130.162 86.1071 130.161 86.1586C130.16 86.21 130.145 86.2602 130.116 86.303C130.088 86.3458 130.047 86.3795 130 86.4Z" fill="#263238"/>
    <path d="M124.92 86.6038C125.079 86.6279 125.239 86.644 125.4 86.6518C125.566 86.6952 125.743 86.6811 125.9 86.6118C125.945 86.5796 125.978 86.5337 125.994 86.4811C126.011 86.4285 126.01 86.3719 125.992 86.3198C125.94 86.223 125.863 86.1421 125.768 86.0858C125.674 86.0294 125.566 85.9997 125.456 85.9998C125.234 85.9629 125.007 86.0084 124.816 86.1278C124.775 86.1587 124.744 86.2007 124.726 86.2488C124.708 86.2969 124.704 86.3491 124.715 86.3992C124.726 86.4493 124.751 86.4953 124.788 86.5315C124.824 86.5678 124.87 86.5929 124.92 86.6038Z" fill="#263238"/>
    <path d="M126.032 88.2041C126.032 88.2041 125.996 88.2321 126 88.2481C126.068 88.7201 126.068 89.2721 125.656 89.4761C125.656 89.4761 125.656 89.5081 125.656 89.5041C126.176 89.3721 126.172 88.6401 126.032 88.2041Z" fill="#263238"/>
    <path d="M125.556 87.7561C124.788 87.7841 124.9 89.3161 125.608 89.2921C126.316 89.2681 126.196 87.7361 125.556 87.7561Z" fill="#263238"/>
    <path d="M125.26 87.8598C125.132 87.9558 125.012 88.1198 124.86 88.1438C124.708 88.1678 124.524 88.0278 124.388 87.8798C124.388 87.8798 124.364 87.8798 124.364 87.8998C124.364 88.1958 124.516 88.4878 124.832 88.5078C125.148 88.5278 125.312 88.2558 125.364 87.9518C125.364 87.8958 125.312 87.8198 125.26 87.8598Z" fill="#263238"/>
    <path d="M128.988 87.7715C128.988 87.7715 129.028 87.7715 129.028 87.8115C129.028 88.2875 129.144 88.8315 129.584 88.9595V88.9875C129.052 88.9475 128.928 88.2275 128.988 87.7715Z" fill="#263238"/>
    <path d="M129.384 87.2482C130.144 87.1442 130.3 88.6722 129.596 88.7682C128.892 88.8642 128.744 87.3402 129.384 87.2482Z" fill="#263238"/>
    <path d="M129.712 87.3162C129.84 87.3842 129.976 87.5202 130.112 87.5162C130.248 87.5122 130.388 87.3322 130.476 87.1602C130.476 87.1602 130.5 87.1602 130.504 87.1602C130.54 87.4522 130.476 87.7642 130.2 87.8482C129.924 87.9322 129.736 87.6962 129.636 87.4122C129.628 87.3762 129.66 87.2882 129.712 87.3162Z" fill="#263238"/>
    <path d="M128.368 89.9478C128.368 89.9478 128.524 90.6478 128.552 90.9798C127.849 90.935 127.144 91.0343 126.48 91.2718C126.444 91.2718 126.372 91.2278 126.46 91.1638C127.003 90.8286 127.641 90.6797 128.276 90.7398C128.276 90.6478 127.98 89.6398 128.032 89.6318C128.293 89.635 128.552 89.6713 128.804 89.7398C128.52 88.2758 128.004 86.8638 127.74 85.3998C127.736 85.3887 127.736 85.3763 127.741 85.3654C127.746 85.3545 127.755 85.3461 127.766 85.3418C127.777 85.3376 127.79 85.3379 127.8 85.3428C127.811 85.3477 127.82 85.3567 127.824 85.3678C128.425 86.8635 128.877 88.4151 129.172 89.9998C129.2 90.1878 128.504 89.9998 128.368 89.9478Z" fill="#263238"/>
    <path d="M119.276 89.1673C120.02 89.0633 121.808 86.8393 121.572 83.2113C121.572 83.2113 121.572 86.4833 121.352 86.9833C121.132 87.4833 122.348 85.7313 122.2 82.8033C123.174 83.3868 124.226 83.8285 125.324 84.1153C126.736 84.3873 127.58 84.3073 127.672 84.1993C127.764 84.0913 125.672 83.6153 125.076 83.0273C125.076 83.0273 128.888 84.4353 130.588 84.4273C130.784 84.4273 130.548 80.7873 127.788 79.2913C125.028 77.7953 121.184 79.5713 120.156 80.7393C120.156 80.7393 118.864 81.0313 117.6 83.0833C116.336 85.1353 118.468 89.2833 119.276 89.1673Z" fill="#263238"/>
    <path d="M120.908 89.748C120.908 89.748 119.232 87.684 118.284 88.296C117.336 88.908 118.684 91.98 119.884 92.328C120.034 92.381 120.192 92.4037 120.351 92.3949C120.509 92.3861 120.664 92.3459 120.807 92.2767C120.95 92.2075 121.078 92.1107 121.183 91.9918C121.288 91.8729 121.369 91.7343 121.42 91.584L120.908 89.748Z" fill="#F7A9A0"/>
    <path d="M118.696 89.1641V89.1961C119.532 89.4681 120.012 90.1921 120.368 90.9521C120.315 90.8739 120.246 90.8081 120.166 90.7593C120.085 90.7105 119.995 90.68 119.901 90.6697C119.807 90.6594 119.713 90.6697 119.623 90.6998C119.534 90.7299 119.452 90.7791 119.384 90.8441C119.38 90.8478 119.378 90.8528 119.377 90.8581C119.376 90.8635 119.378 90.8689 119.38 90.8735C119.383 90.8781 119.387 90.8817 119.392 90.8836C119.397 90.8855 119.403 90.8857 119.408 90.8841C119.546 90.8332 119.695 90.8247 119.838 90.8597C119.981 90.8946 120.109 90.9713 120.208 91.0801C120.372 91.2714 120.515 91.4791 120.636 91.7001C120.68 91.7681 120.808 91.7201 120.776 91.6401C120.724 90.5841 119.816 89.2001 118.696 89.1641Z" fill="#263238"/>
    </g>
    <path d="M176.444 47.2793H116.22V71.3553H176.444V47.2793Z" fill="#EBEBEB"/>
    <path d="M116.232 71.3555V76.1395L120.568 71.3555H116.232Z" fill="#EBEBEB"/>
    <path d="M127.772 69.2918C132.948 69.2918 137.144 65.0959 137.144 59.9199C137.144 54.7438 132.948 50.5479 127.772 50.5479C122.596 50.5479 118.4 54.7438 118.4 59.9199C118.4 65.0959 122.596 69.2918 127.772 69.2918Z" fill="white"/>
    <path d="M143.888 52.0635L144.572 53.4515L146.104 53.6755L144.996 54.7555L145.256 56.2835L143.888 55.5595L142.516 56.2835L142.78 54.7555L141.672 53.6755L143.204 53.4515L143.888 52.0635Z" fill="#3D66CC"/>
    <path d="M149.924 52.0635L150.608 53.4515L152.14 53.6755L151.032 54.7555L151.292 56.2835L149.924 55.5595L148.552 56.2835L148.812 54.7555L147.704 53.6755L149.236 53.4515L149.924 52.0635Z" fill="#3D66CC"/>
    <path d="M155.956 52.0635L156.644 53.4515L158.176 53.6755L157.068 54.7555L157.328 56.2835L155.956 55.5595L154.588 56.2835L154.848 54.7555L153.74 53.6755L155.272 53.4515L155.956 52.0635Z" fill="#3D66CC"/>
    <path d="M161.992 52.0635L162.676 53.4515L164.208 53.6755L163.1 54.7555L163.364 56.2835L161.992 55.5595L160.62 56.2835L160.884 54.7555L159.776 53.6755L161.308 53.4515L161.992 52.0635Z" fill="#C7C7C7"/>
    <path d="M168.028 52.0635L168.712 53.4515L170.244 53.6755L169.136 54.7555L169.396 56.2835L168.028 55.5595L166.656 56.2835L166.92 54.7555L165.808 53.6755L167.34 53.4515L168.028 52.0635Z" fill="#C7C7C7"/>
    <path d="M170.248 59.3154H141.672V59.9154H170.248V59.3154Z" fill="#263238"/>
    <path d="M158.38 61.1436H141.672V61.7436H158.38V61.1436Z" fill="white"/>
    <path d="M166.34 62.9756H141.672V63.5756H166.34V62.9756Z" fill="white"/>
    <path d="M164.212 64.8037H141.672V65.4037H164.212V64.8037Z" fill="white"/>
    <mask id="mask1_971_3513" style="mask-type:luminance" maskUnits="userSpaceOnUse" x="118" y="48" width="20" height="22">
    <path d="M137.148 59.9194C137.148 61.5612 136.718 63.1744 135.899 64.5975C135.08 66.0207 133.902 67.2039 132.483 68.0288C131.063 68.8537 129.452 69.2914 127.81 69.2981C126.168 69.3048 124.554 68.8802 123.127 68.0669C121.701 67.2536 120.514 66.08 119.683 64.6636C118.853 63.2472 118.409 61.6376 118.396 59.9958C118.383 58.3541 118.802 56.7377 119.61 55.3084C120.418 53.8791 121.587 52.687 123 51.8514C123.436 50.4514 124.564 49.1194 127.08 48.4874C132.004 47.2594 133.08 50.8114 133.2 51.1954C133.37 51.6513 133.516 52.116 133.636 52.5874C134.737 53.4652 135.625 54.5809 136.233 55.8507C136.841 57.1205 137.154 58.5115 137.148 59.9194Z" fill="white"/>
    </mask>
    <g mask="url(#mask1_971_3513)">
    <path d="M130.456 66.131L129.624 69.887L123.96 65.999L122.552 68.075C122.552 68.075 126.26 73.091 130.208 73.091C132.284 73.091 132.688 68.335 132.688 68.335L130.456 66.131Z" fill="#3D66CC"/>
    <path d="M129.504 70.3992C127.984 70.8712 125.16 68.6872 123.976 66.8432C123.896 66.7152 124 65.3152 124.048 63.6072C124.072 62.5712 124.076 61.4152 124.004 60.3632C124.004 60.1472 124.752 60.4912 124.752 60.4912L126.14 60.7272L130.724 61.5272C130.439 62.8702 130.319 64.2431 130.368 65.6152C130.378 65.7615 130.403 65.9063 130.444 66.0472C130.443 66.0712 130.443 66.0953 130.444 66.1192C130.648 66.9192 130.98 69.9432 129.504 70.3992Z" fill="#EB9481"/>
    <path d="M130.444 66.0589C130.443 66.0829 130.443 66.1069 130.444 66.1309C130.221 66.1773 129.995 66.2054 129.768 66.2149C125.312 66.4229 124.364 60.8029 124.364 60.8029L126.128 60.7549L130.712 61.5549C130.427 62.8992 130.307 64.2735 130.356 65.6469C130.371 65.7869 130.4 65.925 130.444 66.0589Z" fill="#263238"/>
    <path d="M123.432 51.9753C122.632 54.2913 123.568 61.1273 125.172 62.7073C127.5 65.0033 131.452 65.3793 133.44 62.5513C135.364 59.8073 133.968 50.9233 132.16 49.4713C129.5 47.3313 124.64 48.5553 123.432 51.9753Z" fill="#EB9481"/>
    <path d="M130 56.7111C130 56.6911 129.968 56.7351 129.972 56.7551C130.048 57.2151 130.056 57.7511 129.66 57.9551C129.66 57.9551 129.66 57.9872 129.66 57.9832C130.176 57.8472 130.156 57.1311 130 56.7111Z" fill="#263238"/>
    <path d="M129.532 56.2829C128.784 56.3269 128.924 57.8189 129.62 57.7789C130.316 57.7389 130.16 56.2469 129.532 56.2829Z" fill="#263238"/>
    <path d="M132.692 56.5313C132.692 56.5313 132.732 56.5312 132.732 56.5712C132.76 57.0352 132.872 57.5593 133.308 57.6753V57.6992C132.8 57.6752 132.648 56.9753 132.692 56.5313Z" fill="#263238"/>
    <path d="M133.06 55.999C133.8 55.871 134 57.359 133.316 57.475C132.632 57.591 132.44 56.115 133.06 55.999Z" fill="#263238"/>
    <path d="M128.88 55.6592C129.076 55.5872 129.248 55.4872 129.436 55.3992C129.646 55.3377 129.83 55.2065 129.956 55.0272C129.986 54.9635 129.994 54.8917 129.978 54.823C129.963 54.7543 129.926 54.6925 129.872 54.6472C129.75 54.577 129.612 54.54 129.472 54.54C129.332 54.54 129.194 54.577 129.072 54.6472C128.804 54.7509 128.585 54.9505 128.456 55.2072C128.431 55.2677 128.424 55.334 128.436 55.3984C128.447 55.4628 128.477 55.5224 128.522 55.5701C128.567 55.6178 128.624 55.6516 128.688 55.6674C128.751 55.6832 128.818 55.6804 128.88 55.6592Z" fill="#263238"/>
    <path d="M133.568 55.1991C133.356 55.1991 133.168 55.1351 132.96 55.1031C132.74 55.0991 132.527 55.0217 132.356 54.8831C132.311 54.8263 132.286 54.7558 132.286 54.6831C132.286 54.6104 132.311 54.5399 132.356 54.4831C132.453 54.383 132.575 54.3101 132.709 54.2715C132.843 54.2329 132.985 54.23 133.12 54.2631C133.406 54.2901 133.671 54.4228 133.864 54.6351C133.913 54.686 133.944 54.7508 133.954 54.8205C133.964 54.8902 133.951 54.9612 133.919 55.0235C133.886 55.0858 133.835 55.1363 133.772 55.1678C133.709 55.1993 133.637 55.2102 133.568 55.1991Z" fill="#263238"/>
    <path d="M130.268 59.8153C130.74 60.2153 132.32 60.2153 132.324 60.1433L132.196 59.0353C132.332 59.0913 133.024 59.3273 132.996 59.1393C132.801 57.5381 132.444 55.9607 131.932 54.4313C131.929 54.4223 131.924 54.4145 131.916 54.4089C131.909 54.4034 131.899 54.4004 131.89 54.4004C131.881 54.4004 131.871 54.4034 131.864 54.4089C131.856 54.4145 131.851 54.4223 131.848 54.4313C132.02 55.9113 132.448 57.3553 132.648 58.8313C132.402 58.7445 132.145 58.6921 131.884 58.6753C131.832 58.6953 132.068 59.7113 132.064 59.8753C131.49 59.9015 130.915 59.8242 130.368 59.6473C130.184 59.5993 130.144 59.7113 130.268 59.8153Z" fill="#263238"/>
    <path d="M124.264 57.4951C124.848 57.3471 125.396 55.4311 125.416 53.5751C125.416 52.3751 125.908 50.8751 127.24 50.4271C128.124 50.1271 129.664 50.8551 130.548 50.6391C131.432 50.4231 131.592 49.9231 132.112 49.9351C132.632 49.9471 133.212 51.2311 133.212 51.2311C133.212 51.2311 132.284 47.1871 127.08 48.4871C121.6 49.8591 122.704 54.5511 123.232 56.0551C123.636 57.2191 124.264 57.4951 124.264 57.4951Z" fill="#263238"/>
    <path d="M124.648 57.5631C124.648 57.5631 123.164 55.3351 122.156 55.8591C121.148 56.3831 122.228 59.5911 123.388 60.0511C123.533 60.1178 123.689 60.155 123.848 60.1607C124.007 60.1664 124.166 60.1403 124.314 60.0841C124.463 60.0279 124.6 59.9426 124.715 59.8333C124.831 59.7239 124.924 59.5926 124.988 59.4471L124.648 57.5631Z" fill="#EB9481"/>
    <path d="M122.488 56.7988V56.8308C123.288 57.1828 123.716 57.9508 124 58.7468C123.954 58.6636 123.891 58.5913 123.814 58.5349C123.738 58.4785 123.65 58.4392 123.557 58.4199C123.464 58.4005 123.368 58.4015 123.275 58.4227C123.182 58.4439 123.095 58.4849 123.02 58.5428C123.017 58.5471 123.015 58.5521 123.015 58.5573C123.015 58.5625 123.016 58.5677 123.018 58.5723C123.021 58.5768 123.025 58.5806 123.029 58.5832C123.034 58.5858 123.039 58.587 123.044 58.5868C123.189 58.5431 123.345 58.5462 123.489 58.5958C123.632 58.6453 123.756 58.7387 123.844 58.8628C123.994 59.0671 124.119 59.2887 124.216 59.5228C124.252 59.5948 124.388 59.5588 124.36 59.4748V59.4548C124.4 58.3988 123.6 56.9268 122.488 56.7988Z" fill="#263238"/>
    </g>
    <path d="M180.444 16.5195H120.22V40.5955H180.444V16.5195Z" fill="#EBEBEB"/>
    <path d="M120.232 40.5957V45.3837L124.568 40.5957H120.232Z" fill="#EBEBEB"/>
    <path d="M131.772 38.5311C136.948 38.5311 141.144 34.3351 141.144 29.1591C141.144 23.9831 136.948 19.7871 131.772 19.7871C126.596 19.7871 122.4 23.9831 122.4 29.1591C122.4 34.3351 126.596 38.5311 131.772 38.5311Z" fill="white"/>
    <path d="M147.888 21.623L148.572 23.011L150.104 23.235L148.996 24.315L149.256 25.843L147.888 25.123L146.516 25.843L146.78 24.315L145.672 23.235L147.204 23.011L147.888 21.623Z" fill="#3D66CC"/>
    <path d="M153.924 21.623L154.608 23.011L156.14 23.235L155.032 24.315L155.292 25.843L153.924 25.123L152.552 25.843L152.812 24.315L151.704 23.235L153.236 23.011L153.924 21.623Z" fill="#3D66CC"/>
    <path d="M159.956 21.623L160.644 23.011L162.176 23.235L161.068 24.315L161.328 25.843L159.956 25.123L158.588 25.843L158.848 24.315L157.74 23.235L159.272 23.011L159.956 21.623Z" fill="#3D66CC"/>
    <path d="M165.992 21.623L166.676 23.011L168.208 23.235L167.1 24.315L167.364 25.843L165.992 25.123L164.62 25.843L164.884 24.315L163.776 23.235L165.308 23.011L165.992 21.623Z" fill="#3D66CC"/>
    <path d="M172.028 21.623L172.712 23.011L174.244 23.235L173.136 24.315L173.396 25.843L172.028 25.123L170.656 25.843L170.92 24.315L169.808 23.235L171.34 23.011L172.028 21.623Z" fill="#3D66CC"/>
    <path d="M174.248 28.5596H145.672V29.1596H174.248V28.5596Z" fill="#263238"/>
    <path d="M166.932 30.3877H145.672V30.9877H166.932V30.3877Z" fill="white"/>
    <path d="M171.124 32.2158H145.672V32.8158H171.124V32.2158Z" fill="white"/>
    <path d="M156.592 34.0439H145.672V34.6439H156.592V34.0439Z" fill="white"/>
    <path d="M141.6 36.296H140.8C140.72 35.276 140.072 33.716 140.236 34.504C140.34 35.0952 140.375 35.6966 140.34 36.296H126.8C126.644 34.76 127.328 32.236 127.328 32.236C126.528 33.504 126.244 35.304 126.128 36.296H124.852C124.807 35.4631 124.871 34.6279 125.044 33.812C124.7 34.6009 124.482 35.4392 124.4 36.296H122.944C122.952 34.3717 123.542 32.4949 124.636 30.912C125.62 29.444 124.404 28.588 124.428 25.712C124.452 21.908 127.064 20.448 127.496 20.048C133.404 14.576 138.764 19.648 139.336 23.268C139.892 26.804 138.876 27.268 140.536 30.468C141.748 32.912 141.6 36.296 141.6 36.296Z" fill="#263238"/>
    <path d="M125.672 38.2831L125.708 38.3071C127.672 39.6471 131.552 41.9991 133.624 41.2511C134.232 41.0062 134.781 40.636 135.236 40.1646C135.691 39.6931 136.041 39.1311 136.264 38.5151C135.455 37.8578 134.598 37.2615 133.7 36.7311C130.64 34.6991 127.88 35.9151 125.672 38.2831Z" fill="#455A64"/>
    <path d="M128.628 37.1238C128.768 37.5758 131.164 40.4158 133.26 40.1758C133.944 40.0998 133.68 36.3518 133.68 36.3518L133.724 36.0718L134.332 32.1358L129.6 29.5158L128.916 29.1758C128.916 29.1758 128.82 30.2598 128.716 31.6158C128.716 31.6798 128.716 31.7438 128.716 31.8118C128.716 31.8798 128.716 31.9598 128.696 32.0318C128.696 32.2318 128.66 32.4318 128.648 32.6438C128.636 32.8558 128.624 32.9558 128.62 33.1198C128.616 33.2838 128.62 33.4478 128.592 33.6118C128.524 34.7819 128.536 35.9553 128.628 37.1238Z" fill="#DD6A57"/>
    <path d="M128.696 31.5998C129.161 32.6627 129.851 33.6117 130.72 34.3812C131.588 35.1506 132.613 35.722 133.724 36.0558L134.332 32.1198L129.6 29.5158L128.916 29.1758C128.916 29.1758 128.8 30.2598 128.696 31.5998Z" fill="#263238"/>
    <path d="M139.2 25.5997C140.296 32.5037 136.284 33.9397 134.8 34.1757C133.452 34.3877 128.8 34.9437 127.016 28.1757C125.232 21.4077 128.076 18.7317 131.14 18.0797C134.204 17.4277 138.1 18.6837 139.2 25.5997Z" fill="#DD6A57"/>
    <path d="M127.576 28.6597C129.304 28.4517 129.364 23.0597 129.364 22.4237C129.388 22.8237 129.508 25.0357 129.684 25.1117C129.869 25.0911 130.05 25.0412 130.22 24.9637C130.199 24.6975 130.199 24.43 130.22 24.1637C130.22 24.0397 130.288 24.4237 130.396 24.8917L130.708 24.7757C130.642 24.217 130.652 23.652 130.736 23.0957C130.768 22.8837 130.9 23.8117 131.168 24.6077C132.611 24.056 134.111 23.6643 135.64 23.4397C136.072 23.3877 136.44 23.3637 136.776 23.3517C136.724 22.7037 136.592 22.0197 136.652 22.1517C136.816 22.5383 136.94 22.9403 137.024 23.3517H137.52C137.488 22.4357 136.932 21.0117 137.096 21.2197C137.588 21.8721 137.952 22.6118 138.168 23.3997C138.804 23.4717 138.968 23.5797 138.988 23.3997C138.652 21.6122 137.691 20.0027 136.276 18.8597C133.936 16.9997 129.572 16.8597 127.396 20.1917C127.396 20.1917 125.496 21.6677 125.356 23.7917C125.216 25.9157 126.576 28.7757 127.576 28.6597Z" fill="#263238"/>
    <path d="M128.192 28.5312C128.192 28.5312 126.516 26.4632 125.564 27.0752C124.612 27.6872 125.964 30.7592 127.164 31.1072C127.313 31.1629 127.472 31.1878 127.631 31.1803C127.79 31.1727 127.946 31.133 128.089 31.0634C128.233 30.9939 128.36 30.8959 128.465 30.7755C128.569 30.6552 128.648 30.5149 128.696 30.3632L128.192 28.5312Z" fill="#DD6A57"/>
    <path d="M126 27.9473C125.98 27.9473 125.98 27.9713 126 27.9753C126.836 28.2473 127.316 28.9713 127.672 29.7313C127.619 29.6531 127.55 29.5873 127.47 29.5385C127.389 29.4898 127.299 29.4592 127.205 29.4489C127.111 29.4386 127.017 29.4489 126.927 29.479C126.838 29.5091 126.756 29.5583 126.688 29.6233C126.684 29.627 126.682 29.632 126.681 29.6373C126.68 29.6427 126.681 29.6481 126.684 29.6527C126.687 29.6573 126.691 29.6609 126.696 29.6628C126.701 29.6647 126.707 29.6649 126.712 29.6633C126.85 29.6124 126.999 29.604 127.142 29.6389C127.285 29.6738 127.413 29.7506 127.512 29.8593C127.676 30.0506 127.819 30.2583 127.94 30.4793C127.984 30.5513 128.112 30.5033 128.076 30.4193C128 29.3633 127.1 27.9713 126 27.9473Z" fill="#263238"/>
    <path d="M136.312 29.5994C136.166 29.8995 135.944 30.156 135.668 30.3434C135.515 30.4425 135.334 30.4914 135.152 30.4834C134.752 30.4594 134.676 30.1154 134.684 29.8034C134.691 29.6382 134.718 29.4743 134.764 29.3154C135.237 29.5716 135.779 29.671 136.312 29.5994Z" fill="white"/>
    <path d="M137.756 24.7355C137.592 24.7355 137.44 24.6995 137.276 24.6795C137.105 24.6833 136.937 24.6298 136.8 24.5275C136.762 24.4872 136.739 24.4354 136.734 24.3803C136.729 24.3253 136.742 24.2701 136.772 24.2235C136.845 24.1418 136.938 24.0807 137.042 24.0463C137.146 24.0119 137.257 24.0054 137.364 24.0275C137.589 24.0405 137.801 24.136 137.96 24.2955C137.994 24.334 138.017 24.3817 138.024 24.4327C138.032 24.4837 138.025 24.5359 138.003 24.5827C137.981 24.6295 137.946 24.6689 137.902 24.6961C137.858 24.7232 137.808 24.737 137.756 24.7355Z" fill="#263238"/>
    <path d="M132.952 25.308C133.108 25.271 133.262 25.2243 133.412 25.168C133.582 25.1418 133.738 25.0602 133.856 24.936C133.885 24.8892 133.898 24.8341 133.893 24.7792C133.888 24.7243 133.865 24.6726 133.828 24.632C133.743 24.5632 133.641 24.5187 133.532 24.5032C133.424 24.4877 133.313 24.5018 133.212 24.544C132.992 24.595 132.8 24.7262 132.672 24.912C132.645 24.956 132.632 25.0069 132.633 25.0585C132.635 25.1101 132.652 25.16 132.682 25.2021C132.711 25.2442 132.753 25.2767 132.801 25.2955C132.849 25.3143 132.902 25.3187 132.952 25.308Z" fill="#263238"/>
    <path d="M134.032 26.9834C134.032 26.9834 133.996 27.0114 134 27.0274C134.068 27.4994 134.068 28.0514 133.656 28.2554C133.656 28.2554 133.656 28.2874 133.656 28.2834C134.176 28.1514 134.172 27.4194 134.032 26.9834Z" fill="#263238"/>
    <path d="M133.556 26.5354C132.788 26.5634 132.9 28.0954 133.608 28.0714C134.316 28.0474 134.196 26.5154 133.556 26.5354Z" fill="#263238"/>
    <path d="M133.26 26.6398C133.132 26.7358 133.012 26.8998 132.86 26.9278C132.708 26.9558 132.524 26.8078 132.388 26.6638H132.364C132.364 26.9598 132.516 27.2518 132.832 27.2758C133.148 27.2998 133.312 27.0198 133.364 26.7198C133.364 26.6798 133.312 26.5998 133.26 26.6398Z" fill="#263238"/>
    <path d="M136.988 26.5518C136.988 26.5518 137.028 26.5718 137.028 26.5918C137.028 27.0678 137.144 27.6118 137.584 27.7398V27.7678C137.052 27.7278 136.928 27.0078 136.988 26.5518Z" fill="#263238"/>
    <path d="M137.384 26.0318C138.144 25.9238 138.3 27.4518 137.596 27.5518C136.892 27.6518 136.744 26.1198 137.384 26.0318Z" fill="#263238"/>
    <path d="M137.712 26.0955C137.84 26.1675 137.976 26.2995 138.112 26.2955C138.248 26.2915 138.388 26.1115 138.476 25.9395C138.476 25.9395 138.5 25.9395 138.504 25.9395C138.54 26.2315 138.476 26.5435 138.2 26.6315C137.924 26.7195 137.736 26.4755 137.636 26.1915C137.628 26.1555 137.66 26.0715 137.712 26.0955Z" fill="#263238"/>
    <path d="M136.368 28.7274C136.368 28.7274 136.524 29.4274 136.552 29.7594C136.552 29.7914 136.476 29.8154 136.364 29.8314C136.08 29.9084 135.781 29.9059 135.499 29.824C135.217 29.7422 134.962 29.5842 134.764 29.3674C134.74 29.3394 134.764 29.2994 134.812 29.3194C135.262 29.5741 135.783 29.6765 136.296 29.6114C136.296 29.5154 135.988 28.4114 136.04 28.4114C136.301 28.4141 136.561 28.4518 136.812 28.5234C136.528 27.0554 136.012 25.6434 135.748 24.1794C135.746 24.1739 135.745 24.168 135.746 24.1622C135.746 24.1564 135.748 24.1508 135.75 24.1456C135.753 24.1404 135.757 24.1357 135.761 24.1319C135.765 24.1281 135.77 24.1252 135.776 24.1234C135.782 24.1215 135.787 24.1208 135.793 24.1212C135.799 24.1216 135.805 24.1232 135.81 24.1258C135.815 24.1284 135.82 24.132 135.823 24.1364C135.827 24.1408 135.83 24.1459 135.832 24.1514C136.432 25.6522 136.881 27.2093 137.172 28.7994C137.2 28.9674 136.504 28.7714 136.368 28.7274Z" fill="#263238"/>
    <path d="M174.52 144.316C174.52 144.316 183.72 142.236 188.736 137.6C193.752 132.964 196.58 124.656 196.58 124.656C193.091 125.324 189.651 126.227 186.284 127.36C185.46 128.24 183.884 130.052 183.168 131.76C183.081 130.713 183.073 129.661 183.144 128.612C181.967 129.126 180.866 129.799 179.872 130.612C175.7 134.252 174.52 144.316 174.52 144.316Z" fill="#3D66CC"/>
    <path d="M190.848 128.692C192.1 127.828 193.372 126.992 194.62 126.116C194.633 126.105 194.641 126.089 194.643 126.072C194.646 126.055 194.642 126.038 194.633 126.024C194.624 126.009 194.61 125.999 194.594 125.994C194.577 125.988 194.56 125.989 194.544 125.996C192.176 127.408 189.844 128.92 187.588 130.5C186.788 131.052 186.028 131.624 185.264 132.212L185.424 131.94C185.7 131.476 185.992 131.024 186.28 130.572C186.858 129.653 187.51 128.783 188.232 127.972C188.256 127.94 188.212 127.896 188.184 127.928C187.472 128.752 186.756 129.568 186.104 130.444C185.792 130.844 185.508 131.288 185.232 131.728C185.088 131.96 184.952 132.188 184.832 132.424L184.692 132.66C183.492 133.592 182.352 134.564 181.248 135.592C180.565 136.227 179.908 136.884 179.276 137.564C179.628 136.452 179.94 135.328 180.352 134.236C180.354 134.231 180.354 134.226 180.354 134.221C180.353 134.216 180.351 134.211 180.348 134.206C180.345 134.202 180.341 134.199 180.337 134.196C180.332 134.194 180.327 134.193 180.322 134.193C180.317 134.193 180.312 134.194 180.307 134.196C180.303 134.199 180.299 134.202 180.296 134.206C180.293 134.211 180.291 134.216 180.29 134.221C180.29 134.226 180.29 134.231 180.292 134.236C179.892 135.384 179.452 136.536 179.144 137.716C178.44 138.476 177.768 139.26 177.144 140.08C177.144 140.032 177.164 139.98 177.176 139.932C177.28 139.5 177.388 139.068 177.504 138.636C177.728 137.808 177.972 136.98 178.252 136.168C178.781 134.476 179.618 132.896 180.72 131.508C180.744 131.48 180.7 131.436 180.672 131.468C178.88 133.588 177.828 136.136 177.156 138.808C177.06 139.208 176.964 139.608 176.876 139.984C176.828 140.196 176.776 140.408 176.74 140.62C176.46 140.996 176.188 141.376 175.94 141.764C174.378 144.151 173.075 146.699 172.056 149.364C170.909 152.367 169.926 155.43 169.112 158.54C169.112 158.6 169.188 158.62 169.208 158.54C171.004 153.168 172.836 147.74 175.912 142.916C176.561 141.904 177.261 140.925 178.008 139.984C179.529 139.885 181.029 139.586 182.472 139.096C184.049 138.565 185.553 137.838 186.948 136.932C187.743 136.396 188.508 135.818 189.24 135.2C189.244 135.198 189.248 135.195 189.251 135.191C189.254 135.187 189.256 135.183 189.257 135.178C189.258 135.173 189.258 135.168 189.256 135.164C189.255 135.159 189.253 135.155 189.25 135.151C189.247 135.147 189.243 135.144 189.239 135.142C189.234 135.14 189.23 135.139 189.225 135.139C189.22 135.14 189.215 135.141 189.211 135.143C189.207 135.145 189.203 135.148 189.2 135.152C187.919 136.187 186.503 137.044 184.992 137.7C183.508 138.382 181.955 138.902 180.36 139.252C179.684 139.4 178.996 139.512 178.308 139.604C179.156 138.556 180.06 137.555 181.016 136.604C181.324 136.296 181.644 136 181.964 135.7C183.034 134.95 184.171 134.299 185.36 133.756C186.864 133.028 188.344 132.256 189.832 131.5C190.672 131.072 191.508 130.636 192.356 130.224C192.392 130.204 192.356 130.152 192.32 130.168C190.812 130.9 189.28 131.58 187.756 132.276C186.324 132.932 184.872 133.592 183.496 134.364L183.324 134.468C184.568 133.388 185.856 132.356 187.172 131.36C188.356 130.46 189.6 129.56 190.848 128.692Z" fill="#263238"/>
    <path d="M190.324 133.427C189.576 133.751 188.816 134.043 188.08 134.387C187.344 134.731 186.596 135.159 185.876 135.587C185.871 135.592 185.867 135.598 185.866 135.604C185.864 135.611 185.865 135.618 185.869 135.624C185.872 135.63 185.878 135.634 185.884 135.636C185.891 135.638 185.898 135.638 185.904 135.635C186.636 135.283 187.38 134.955 188.104 134.591C188.828 134.227 189.58 133.819 190.344 133.487C190.4 133.471 190.36 133.411 190.324 133.427Z" fill="#263238"/>
    <path d="M144.696 98.0479C146.391 100.236 147.352 102.905 147.44 105.672C147.468 106.496 147.34 107.644 147.244 108.992C150.668 110.82 153.244 114.112 153.244 114.112C151.3 112.944 148.628 112.472 147.188 112.664C147.235 113.586 147.353 114.503 147.54 115.408C148.176 115.372 149.404 115.456 151.432 116.176C150.227 116.164 149.032 116.403 147.924 116.876C149.56 122.076 154.424 127.432 167.856 129.704C167.856 129.704 170.448 120.584 165.48 110.8C161.444 102.88 144.696 98.0479 144.696 98.0479Z" fill="#3D66CC"/>
    <path d="M172.5 152C172.268 149.776 171.972 147.556 171.628 145.348C170.95 140.92 170.046 136.531 168.92 132.196C168.395 130.158 167.747 128.155 166.98 126.196C167.019 125.838 167.037 125.479 167.032 125.12C167.032 124.692 167.032 124.26 167.032 123.832C167.032 122.968 166.984 122.112 166.912 121.252C166.774 119.553 166.497 117.869 166.084 116.216C165.84 115.26 165.552 114.316 165.284 113.368C165.28 113.361 165.275 113.356 165.268 113.353C165.261 113.35 165.253 113.35 165.245 113.352C165.238 113.354 165.232 113.359 165.228 113.366C165.224 113.372 165.223 113.38 165.224 113.388C165.667 115.034 165.996 116.708 166.208 118.4C166.451 120.07 166.601 121.753 166.66 123.44C166.66 123.904 166.684 124.364 166.688 124.828C166.688 125.024 166.688 125.228 166.688 125.42C166.019 123.817 165.255 122.255 164.4 120.744C163.035 118.342 161.498 116.043 159.8 113.864C159.796 113.609 159.76 113.357 159.692 113.112C159.628 112.812 159.564 112.512 159.496 112.212C159.356 111.6 159.204 110.988 159.036 110.384C158.704 109.184 158.264 107.984 157.88 106.784C157.878 106.778 157.874 106.772 157.868 106.768C157.863 106.765 157.857 106.763 157.85 106.763C157.843 106.763 157.837 106.765 157.832 106.768C157.826 106.772 157.822 106.778 157.82 106.784C158.176 107.984 158.412 109.208 158.684 110.42C158.82 111.016 158.952 111.62 159.084 112.216L159.276 113.116V113.184C158.743 112.501 158.188 111.826 157.612 111.16C155.044 108.152 152.232 105.376 149.404 102.62C149.056 102.28 148.696 101.952 148.344 101.616C148.316 101.588 148.272 101.616 148.3 101.664C151.008 104.464 153.672 107.34 156.192 110.328C156.792 111.04 157.392 111.756 157.964 112.484L157.048 111.876C156.248 111.364 155.472 110.868 154.648 110.412C153.824 109.956 153.012 109.508 152.176 109.092C151.34 108.676 150.392 108.32 149.564 107.836C149.528 107.816 149.496 107.876 149.532 107.892C150.381 108.283 151.201 108.736 151.984 109.248C152.784 109.732 153.616 110.22 154.42 110.732C155.224 111.244 156.02 111.724 156.788 112.236C157.44 112.66 158.084 113.124 158.764 113.516C160.322 115.516 161.759 117.608 163.068 119.78C163.881 121.147 164.623 122.556 165.292 124L164.808 123.788L163.6 123.264C162.8 122.912 162 122.572 161.224 122.224C159.716 121.572 158.184 120.968 156.708 120.248C155.879 119.856 155.077 119.41 154.308 118.912C154.276 118.888 154.244 118.944 154.276 118.964C157.032 120.864 160.12 122.2 163.168 123.552L164.492 124.136C164.856 124.296 165.216 124.476 165.592 124.616C166.495 126.634 167.254 128.714 167.864 130.84C169.07 135.117 170.05 139.455 170.8 143.836C171.568 148.236 172.088 152.636 172.492 157.08C172.544 157.632 172.592 158.184 172.656 158.736C172.662 158.777 172.683 158.815 172.715 158.843C172.747 158.87 172.788 158.885 172.83 158.885C172.872 158.885 172.913 158.87 172.945 158.843C172.977 158.815 172.998 158.777 173.004 158.736C172.964 156.476 172.736 154.22 172.5 152Z" fill="#263238"/>
    <path d="M164.328 114.884C164.08 113.52 163.716 112.184 163.348 110.848C163.348 110.808 163.28 110.824 163.288 110.848C163.628 112.16 163.872 113.5 164.12 114.848C164.368 116.196 164.592 117.568 164.784 118.936C164.784 118.96 164.824 118.96 164.82 118.936C164.732 117.577 164.568 116.224 164.328 114.884Z" fill="#263238"/>
    <path d="M158.536 118.588C157.602 117.973 156.626 117.424 155.616 116.944C155.128 116.692 154.632 116.452 154.136 116.212C153.64 115.972 153.092 115.756 152.584 115.5C152.577 115.498 152.569 115.499 152.563 115.502C152.556 115.505 152.551 115.51 152.547 115.517C152.544 115.523 152.543 115.531 152.545 115.538C152.546 115.545 152.55 115.551 152.556 115.556C153.044 115.804 153.512 116.1 153.996 116.356L155.484 117.156C156.468 117.684 157.432 118.268 158.464 118.696C158.477 118.697 158.49 118.694 158.502 118.688C158.513 118.682 158.523 118.673 158.53 118.662C158.538 118.651 158.542 118.639 158.543 118.626C158.544 118.613 158.541 118.6 158.536 118.588Z" fill="#263238"/>
    <path opacity="0.1" d="M174.688 128.4C174.688 128.4 183.184 126.372 187.088 120.672C190.816 115.228 192.02 105.952 192.116 105.136C191.96 105.884 190.208 113.992 184.424 117.768C180 120.676 175.712 123.056 174.688 128.4Z" fill="#263238"/>
    <path d="M182.532 113.732C181.02 115.121 179.933 116.911 179.396 118.892C179.396 118.892 179.42 118.92 179.424 118.892C180.049 116.958 181.128 115.203 182.572 113.772C182.6 113.752 182.56 113.704 182.532 113.732Z" fill="#263238"/>
    <path d="M174.688 128.4C174.688 128.4 183.184 126.372 187.088 120.672C190.816 115.228 192.02 105.952 192.116 105.136C192.118 105.116 192.118 105.096 192.116 105.076C192.116 105.076 188.044 110.868 183.76 112.348C179.476 113.828 173.46 118.944 174.688 128.4Z" fill="#3D66CC"/>
    <path d="M190.616 108.284C189.857 109.845 188.983 111.346 188 112.776C187.009 114.134 185.832 115.346 184.504 116.376C183.352 117.292 182.132 118.124 180.964 119.02L180.988 118.98C181.208 118.652 181.444 118.336 181.684 118.028C182.172 117.408 182.704 116.828 183.24 116.24C184.296 115.096 185.372 113.972 186.32 112.732C186.844 112.046 187.3 111.311 187.68 110.536C187.7 110.5 187.64 110.48 187.62 110.516C186.244 113.388 183.492 115.224 181.528 117.648C181.248 117.996 180.984 118.352 180.728 118.724C180.534 118.998 180.371 119.291 180.24 119.6C179.164 120.46 178.192 121.443 177.344 122.528C177.417 121.971 177.53 121.42 177.684 120.88C177.882 120.124 178.185 119.4 178.584 118.728C178.604 118.692 178.552 118.66 178.532 118.692C178.12 119.365 177.788 120.083 177.54 120.832C177.361 121.427 177.257 122.043 177.232 122.664C176.812 123.234 176.428 123.83 176.084 124.448C176.12 124.268 176.152 124.084 176.188 123.904C176.356 123.056 176.544 122.212 176.764 121.38C177.161 119.674 177.853 118.049 178.808 116.58C178.832 116.548 178.78 116.512 178.756 116.544C177.781 117.989 177.018 119.566 176.492 121.228C176.22 122.06 176.004 122.908 175.812 123.764C175.72 124.184 175.636 124.604 175.556 125.024C175.512 125.24 175.468 125.464 175.432 125.688C174.588 127.538 173.932 129.468 173.472 131.448C172.636 134.985 172.031 138.573 171.66 142.188C171.22 145.976 171.024 149.787 171.072 153.6C171.072 154.076 171.108 154.556 171.132 155.032C171.132 155.156 171.324 155.172 171.328 155.032C171.412 153.144 171.46 151.26 171.572 149.376C171.684 147.492 171.848 145.608 172.052 143.732C172.438 140.041 173.029 136.374 173.82 132.748C174.512 129.64 175.42 126.512 177.1 123.792C177.944 122.437 178.977 121.21 180.168 120.148C181.368 119.076 182.66 118.148 183.916 117.152C185.185 116.185 186.34 115.075 187.356 113.844C188.395 112.467 189.301 110.993 190.06 109.444C190.26 109.044 190.46 108.68 190.668 108.296C190.684 108.284 190.632 108.248 190.616 108.284Z" fill="#263238"/>
    <path d="M189.148 109.528C188.592 110.673 187.96 111.779 187.256 112.84C187.256 112.864 187.276 112.888 187.296 112.864C188.025 111.814 188.664 110.704 189.208 109.548C189.224 109.512 189.164 109.492 189.148 109.528Z" fill="#263238"/>
    <path d="M143.512 124.656C143.512 124.656 143.376 136.728 150.596 140.216C157.816 143.704 161.684 140.796 166.596 141.964C166.408 141.676 162.908 136.64 157.34 135.256C151.6 133.824 145.248 129.688 143.512 124.656Z" fill="#3D66CC"/>
    <path opacity="0.1" d="M143.512 124.656C143.512 124.656 143.376 136.728 150.596 140.216C157.816 143.704 161.684 140.796 166.596 141.964C164.006 140.729 161.237 139.911 158.392 139.54C153.824 138.988 145.124 136.024 143.512 124.656Z" fill="#263238"/>
    <path d="M167.064 142.18C166.206 141.398 165.24 140.743 164.196 140.236C164.04 140.16 163.88 140.1 163.724 140.032C163.648 139.936 163.564 139.844 163.48 139.756C163.264 139.532 163.04 139.316 162.8 139.112C162.349 138.719 161.863 138.368 161.348 138.064C160.148 137.36 158.844 136.864 157.62 136.216C157.584 136.196 157.552 136.252 157.588 136.268C158.192 136.584 158.788 136.928 159.368 137.272C159.948 137.616 160.524 137.924 161.08 138.284C161.581 138.606 162.058 138.965 162.508 139.356C162.636 139.468 162.76 139.588 162.88 139.712C162.082 139.44 161.267 139.224 160.44 139.064C159.12 138.796 157.784 138.608 156.464 138.324C155.817 138.186 155.177 138.014 154.548 137.808C153.948 137.324 153.348 136.848 152.784 136.324C152.098 135.695 151.472 135.002 150.916 134.256C150.892 134.22 150.84 134.256 150.864 134.288C151.74 135.471 152.732 136.564 153.824 137.552C153.512 137.434 153.204 137.301 152.9 137.152C150.421 136.039 148.294 134.27 146.748 132.036C146.728 132.004 146.672 132.036 146.696 132.068C148.006 133.994 149.7 135.628 151.672 136.868C152.66 137.482 153.715 137.981 154.816 138.356C156.096 138.752 157.402 139.06 158.724 139.28C160.02 139.49 161.299 139.793 162.552 140.188C163.7 140.581 164.78 141.15 165.752 141.876C167.59 143.304 169.07 145.141 170.076 147.24C171.444 149.98 172.096 153.044 172.476 156.068C172.476 156.196 172.692 156.196 172.68 156.068C172.336 150.984 170.98 145.704 167.064 142.18Z" fill="#263238"/>
    <path d="M158.688 138.244C158.311 137.68 157.802 137.217 157.204 136.896C156.519 136.541 155.917 136.043 155.44 135.436C155.416 135.404 155.36 135.436 155.384 135.468C155.818 136.022 156.346 136.494 156.944 136.864C157.6 137.212 158.179 137.689 158.644 138.268C158.664 138.296 158.708 138.272 158.688 138.244Z" fill="#263238"/>
    <path d="M162.52 151.092L162.848 157.728L163.852 178.016H179L180.004 157.728L180.332 151.092H162.52Z" fill="#37474F"/>
    <path d="M162.52 151.092L162.848 157.728H180.004L180.332 151.092H162.52Z" fill="#263238"/>
    <path d="M161.456 154.652H181.396V148.32H161.456V154.652Z" fill="#37474F"/>
    </svg>
    