<svg width="164" height="164" viewBox="0 0 164 164" fill="none" xmlns="http://www.w3.org/2000/svg">
<path d="M12.0409 151.789L29.5298 151.707L47.0188 151.68L82 151.625L116.978 151.677L134.47 151.707L151.959 151.789L134.47 151.867L116.978 151.897L82 151.953L47.0188 151.897L29.5298 151.867L12.0409 151.789Z" fill="#263238"/>
<path d="M23.288 110.093C23.288 110.093 23.5898 110.093 23.944 111.405C24.131 112.124 23.0289 118.214 23.1371 124.683C23.2191 129.537 23.4651 134.851 23.8292 137.885C23.8292 137.885 24.1834 138.596 25.3478 138.38C24.4158 133.813 23.9074 129.169 23.8292 124.509C23.78 119.959 24.7017 114.764 24.6754 111.225C24.6882 110.797 24.7898 110.377 24.9739 109.992L23.288 110.093Z" fill="#455A64"/>
<path d="M24.3638 108.407C24.3638 108.407 23.0026 107.394 23.0518 105.846C23.101 104.297 23.6422 103.097 24.3999 102.366C25.1576 101.634 25.4233 101.68 25.4233 101.68C25.4233 101.68 26.2728 101.568 26.7878 103.35C27.3027 105.131 27.8111 106.63 27.1978 107.548C26.0202 109.276 24.3638 108.407 24.3638 108.407Z" fill="#3D66CC"/>
<path opacity="0.3" d="M24.3638 108.407C24.3638 108.407 23.0026 107.394 23.0518 105.846C23.101 104.297 23.6422 103.097 24.3999 102.366C25.1576 101.634 25.4233 101.68 25.4233 101.68C25.4233 101.68 26.2728 101.568 26.7878 103.35C27.3027 105.131 27.8111 106.63 27.1978 107.548C26.0202 109.276 24.3638 108.407 24.3638 108.407Z" fill="#1D1D1D"/>
<path d="M22.0974 106.092C22.0974 106.092 21.5135 104.583 22.0383 103.438C22.5631 102.293 22.9534 102.29 23.0682 102.261C23.183 102.231 23.9276 102.448 24.2031 103.546C24.4786 104.645 24.4721 105.422 24.295 105.878C24.1178 106.334 23.3962 106.672 23.3962 106.672C23.1482 106.694 22.8988 106.652 22.6715 106.55C22.4442 106.449 22.2466 106.291 22.0974 106.092Z" fill="#3D66CC"/>
<path opacity="0.2" d="M22.0974 106.092C22.0974 106.092 21.5135 104.583 22.0383 103.438C22.5631 102.293 22.9534 102.29 23.0682 102.261C23.183 102.231 23.9276 102.448 24.2031 103.546C24.4786 104.645 24.4721 105.422 24.295 105.878C24.1178 106.334 23.3962 106.672 23.3962 106.672C23.1482 106.694 22.8988 106.652 22.6715 106.55C22.4442 106.449 22.2466 106.291 22.0974 106.092Z" fill="#1D1D1D"/>
<path d="M22.163 102.962C22.163 102.962 21.5463 103.123 21.3659 104.179C21.2552 105.018 21.2941 105.87 21.4807 106.695C21.5463 106.921 21.7234 109.09 22.855 109.952C23.9866 110.815 24.2064 110.28 24.2064 110.28C24.4999 110.073 24.7414 109.8 24.9121 109.484C25.0828 109.167 25.178 108.816 25.1904 108.456C25.2925 107.363 25.1811 106.26 24.8624 105.209C24.5541 104.281 24.4327 103.76 23.7997 103.425C23.1666 103.09 22.386 102.844 22.163 102.962Z" fill="#3D66CC"/>
<path opacity="0.1" d="M22.163 102.962C22.163 102.962 21.5463 103.123 21.3659 104.179C21.2552 105.018 21.2941 105.87 21.4807 106.695C21.5463 106.921 21.7234 109.09 22.855 109.952C23.9866 110.815 24.2064 110.28 24.2064 110.28C24.4999 110.073 24.7414 109.8 24.9121 109.484C25.0828 109.167 25.178 108.816 25.1904 108.456C25.2925 107.363 25.1811 106.26 24.8624 105.209C24.5541 104.281 24.4327 103.76 23.7997 103.425C23.1666 103.09 22.386 102.844 22.163 102.962Z" fill="#1D1D1D"/>
<path d="M25.0198 110.536C25.0198 110.536 23.6554 110.752 23.2618 108.798C22.8682 106.843 23.3339 106.2 23.4258 105.924C23.5176 105.649 23.4028 105.344 23.6193 105.009C23.8358 104.675 23.9735 104.747 24.2458 104.297C24.518 103.848 24.6033 103.186 24.8263 102.985C24.9225 102.888 25.0393 102.813 25.1681 102.767C25.297 102.72 25.4346 102.703 25.5709 102.716C25.9705 102.845 26.3588 103.006 26.732 103.199C27.06 103.323 26.9649 103.95 27.1814 104.219C27.3978 104.488 28.0276 105.265 27.7652 106.754C27.5028 108.243 27.3191 109.24 26.6598 109.801C26.0006 110.362 25.4692 110.536 25.0198 110.536Z" fill="#3D66CC"/>
<path d="M23.0879 110.438C22.8518 110.474 22.2843 110.493 21.5955 109.654C20.7526 108.627 20.8378 107.154 20.7821 106.777C20.7213 106.054 20.6017 105.336 20.4246 104.632C20.2179 104.071 20.2704 103.75 20.3327 103.71C20.395 103.671 20.9067 103.861 21.179 104.524C21.4512 105.186 22.0318 105.8 22.1269 106.774C22.222 107.748 22.1761 109.145 22.714 109.726C23.2519 110.306 23.839 110.162 23.698 110.431C23.4949 110.445 23.2912 110.448 23.0879 110.438Z" fill="#3D66CC"/>
<path d="M23.557 125.886C23.557 125.886 22.7435 123.262 25.2822 118.47C27.821 113.678 30.1235 112.238 30.1235 112.238C30.1235 112.238 30.1006 114.905 27.8702 119.333C25.6398 123.761 23.8981 125.69 23.557 125.886Z" fill="#455A64"/>
<path d="M28.8804 114.292C28.9558 114.154 28.9854 114.292 28.9132 114.423C28.0112 116.122 24.8985 121.245 23.8948 124.778C23.8522 124.925 23.7308 124.778 23.78 124.627C25.748 118.67 27.9653 116.02 28.8804 114.292Z" fill="#37474F"/>
<path d="M29.9464 121.55C29.9464 121.55 30.117 118.208 29.2018 117.362C28.2867 116.515 28.0899 116.735 27.821 116.67C27.4974 116.669 27.1768 116.73 26.8763 116.85C26.8763 116.85 28.2605 117.162 28.5754 118.103L29.9464 121.55Z" fill="#3D66CC"/>
<path opacity="0.2" d="M29.9464 121.55C29.9464 121.55 30.117 118.208 29.2018 117.362C28.2867 116.515 28.0899 116.735 27.821 116.67C27.4974 116.669 27.1768 116.73 26.8763 116.85C26.8763 116.85 28.2605 117.162 28.5754 118.103L29.9464 121.55Z" fill="#1D1D1D"/>
<path d="M31.406 122.567C31.6855 123.021 31.7904 123.56 31.7012 124.086C30.9566 131.302 29.1198 135.139 26.1088 139.83C26.1088 139.83 25.5151 141.345 26.2564 141.004C26.2564 141.004 31.0058 135.986 32.2424 124.43C32.2424 124.43 32.2982 123.118 33.1542 122.56C33.1542 122.564 31.547 122.18 31.406 122.567Z" fill="#455A64"/>
<path d="M31.16 115.364C31.3627 115.353 31.562 115.42 31.7178 115.55C31.8736 115.68 31.9743 115.865 31.9997 116.066C32.1768 116.84 33.5774 121.039 32.9837 122.246C32.39 123.453 32.144 122.934 31.6126 123C31.0321 123.085 29.7758 122.242 29.5626 121.557C29.3494 120.871 28.9821 119.464 29.0936 118.661C29.2051 117.857 28.9788 115.39 31.16 115.364Z" fill="#3D66CC"/>
<path opacity="0.1" d="M31.16 115.364C31.3627 115.353 31.562 115.42 31.7178 115.55C31.8736 115.68 31.9743 115.865 31.9997 116.066C32.1768 116.84 33.5774 121.039 32.9837 122.246C32.39 123.453 32.144 122.934 31.6126 123C31.0321 123.085 29.7758 122.242 29.5626 121.557C29.3494 120.871 28.9821 119.464 29.0936 118.661C29.2051 117.857 28.9788 115.39 31.16 115.364Z" fill="#1D1D1D"/>
<path d="M34.8238 114.954C34.8238 114.954 35.5158 115.538 35.5421 116.201C35.5683 116.863 35.9193 119.809 35.1583 121.255C34.3974 122.702 33.761 123.102 32.695 123.095C31.629 123.089 33.5052 115.682 33.5052 115.682C33.5052 115.682 34.44 114.541 34.8238 114.954Z" fill="#3D66CC"/>
<path opacity="0.2" d="M34.8238 114.954C34.8238 114.954 35.5158 115.538 35.5421 116.201C35.5683 116.863 35.9193 119.809 35.1583 121.255C34.3974 122.702 33.761 123.102 32.695 123.095C31.629 123.089 33.5052 115.682 33.5052 115.682C33.5052 115.682 34.44 114.541 34.8238 114.954Z" fill="#1D1D1D"/>
<path d="M33.3248 115.374C33.3248 115.374 34.3711 115.423 34.7549 116.201C35.2392 117.24 35.4309 118.392 35.3092 119.533C35.1321 120.658 34.8926 123.413 32.4786 123.085C30.6549 122.836 30.2547 120.376 30.3433 118.342C30.4056 116.85 31.3273 116.62 31.8455 116.086C32.234 115.674 32.7608 115.421 33.3248 115.374Z" fill="#3D66CC"/>
<path d="M32.4523 123.059C32.4523 123.059 30.4417 123.348 29.5594 122.124C28.677 120.901 28.9722 120.032 28.8246 119.172C28.737 118.653 28.5769 118.148 28.349 117.673C28.349 117.673 28.9001 117.939 29.333 119.592C29.766 121.245 31.16 122.908 32.4523 123.059Z" fill="#3D66CC"/>
<path d="M26.2794 140.781C26.2794 140.781 27.1518 137.078 30.8714 133.585C34.417 130.239 36.6474 130.137 37.2838 129.806L37.3592 129.76C37.8742 129.389 35.0042 133.368 32.5146 135.625C30.0251 137.881 27.9915 139.994 26.2794 140.781Z" fill="#455A64"/>
<path d="M34.6171 131.971C31.488 133.978 29.2478 136.514 27.3191 139.348C27.2306 139.479 27.1387 139.748 27.2273 139.62C29.2507 136.75 31.72 134.222 34.5417 132.132C34.6663 132.036 34.7483 131.889 34.6171 131.971Z" fill="#37474F"/>
<path d="M18.9617 116.617C18.9617 116.617 20.559 116.05 20.969 114.554C21.379 113.058 21.2118 111.753 20.7034 110.828C20.195 109.903 19.9326 109.86 19.9326 109.86C19.9326 109.86 19.1552 109.503 18.1384 111.054C17.1216 112.606 16.1934 113.891 16.4984 114.944C17.1216 116.958 18.9617 116.617 18.9617 116.617Z" fill="#3D66CC"/>
<path opacity="0.3" d="M18.9617 116.617C18.9617 116.617 20.559 116.05 20.969 114.554C21.379 113.058 21.2118 111.753 20.7034 110.828C20.195 109.903 19.9326 109.86 19.9326 109.86C19.9326 109.86 19.1552 109.503 18.1384 111.054C17.1216 112.606 16.1934 113.891 16.4984 114.944C17.1216 116.958 18.9617 116.617 18.9617 116.617Z" fill="#1D1D1D"/>
<path d="M19.5258 118.182C19.5258 118.182 19.2241 118.182 18.8698 119.494C18.5418 120.753 17.0888 129.59 20.4541 136.992C20.4541 136.992 20.7624 138.259 19.598 138.045C19.598 138.045 16.013 129.426 18.1384 119.313C18.188 118.88 18.0822 118.443 17.8399 118.08L19.5258 118.182Z" fill="#455A64"/>
<path d="M21.8087 115.072C21.8087 115.072 22.8124 113.816 22.632 112.553C22.4516 111.29 22.0941 111.185 21.976 111.123C21.8579 111.061 21.1002 111.048 20.5131 112.019C19.926 112.989 19.7062 113.734 19.739 114.219C19.7718 114.705 20.3655 115.243 20.3655 115.243C20.6004 115.341 20.8567 115.377 21.1096 115.347C21.3624 115.318 21.6033 115.223 21.8087 115.072Z" fill="#3D66CC"/>
<path opacity="0.2" d="M21.8087 115.072C21.8087 115.072 22.8124 113.816 22.632 112.553C22.4516 111.29 22.0941 111.185 21.976 111.123C21.8579 111.061 21.1002 111.048 20.5131 112.019C19.926 112.989 19.7062 113.734 19.739 114.219C19.7718 114.705 20.3655 115.243 20.3655 115.243C20.6004 115.341 20.8567 115.377 21.1096 115.347C21.3624 115.318 21.6033 115.223 21.8087 115.072Z" fill="#1D1D1D"/>
<path d="M22.6681 112.061C22.6681 112.061 23.2093 112.389 23.0715 113.458C22.9294 114.292 22.6406 115.094 22.2187 115.827C22.0941 116.027 21.2839 118.044 19.9457 118.536C18.6074 119.028 18.5615 118.451 18.5615 118.451C18.3395 118.166 18.1863 117.835 18.1141 117.481C18.0418 117.128 18.0524 116.762 18.145 116.414C18.3688 115.338 18.8011 114.316 19.4176 113.406C19.985 112.609 20.2573 112.146 20.9592 112.015C21.6611 111.884 22.491 111.881 22.6681 112.061Z" fill="#3D66CC"/>
<path opacity="0.1" d="M22.6681 112.061C22.6681 112.061 23.2093 112.389 23.0715 113.458C22.9294 114.292 22.6406 115.094 22.2187 115.827C22.0941 116.027 21.2839 118.044 19.9457 118.536C18.6074 119.028 18.5615 118.451 18.5615 118.451C18.3395 118.166 18.1863 117.835 18.1141 117.481C18.0418 117.128 18.0524 116.762 18.145 116.414C18.3688 115.338 18.8011 114.316 19.4176 113.406C19.985 112.609 20.2573 112.146 20.9592 112.015C21.6611 111.884 22.491 111.881 22.6681 112.061Z" fill="#1D1D1D"/>
<path d="M17.712 118.454C17.712 118.454 18.9518 119.064 19.903 117.309C20.8542 115.554 20.5984 114.807 20.5951 114.515C20.5918 114.223 20.7854 113.97 20.6804 113.583C20.5754 113.196 20.4147 113.229 20.2868 112.72C20.1589 112.212 20.2868 111.55 20.1162 111.307C20.0534 111.185 19.9639 111.078 19.8543 110.995C19.7447 110.912 19.6179 110.855 19.4832 110.828C19.0639 110.832 18.6457 110.872 18.2335 110.949C17.8793 110.969 17.7907 111.605 17.5021 111.792C17.2134 111.979 16.3836 112.543 16.1901 114.039C15.9966 115.535 15.885 116.548 16.3508 117.28C16.8166 118.011 17.2758 118.329 17.712 118.454Z" fill="#3D66CC"/>
<path d="M19.5849 118.93C19.7981 119.034 20.3327 119.221 21.2413 118.621C22.3499 117.89 22.7009 116.456 22.8616 116.112C23.1366 115.431 23.4657 114.773 23.8456 114.144C24.2064 113.668 24.249 113.347 24.2031 113.291C24.1572 113.235 23.6094 113.265 23.1568 113.823C22.7042 114.38 21.976 114.8 21.5824 115.699C21.1888 116.597 20.8378 117.952 20.1523 118.349C19.4668 118.746 18.9518 118.434 19.0043 118.733C19.1932 118.811 19.3872 118.877 19.5849 118.93Z" fill="#3D66CC"/>
<path d="M18.6107 133.234C18.6107 133.234 19.4242 130.61 16.8822 125.818C14.3402 121.025 12.0409 119.586 12.0409 119.586C12.0409 119.586 12.0671 122.252 14.2975 126.68C16.5279 131.108 18.2696 133.037 18.6107 133.234Z" fill="#455A64"/>
<path d="M13.284 121.636C13.2118 121.501 13.1823 121.636 13.2545 121.77C14.1532 123.469 17.2659 128.589 18.2696 132.125C18.3122 132.273 18.4336 132.125 18.3877 131.974C16.4164 126.018 14.1991 123.364 13.284 121.636Z" fill="#37474F"/>
<path d="M13.9695 151.789H37.0017L35.9849 140.814L35.7618 138.393H15.2094L14.9863 140.814L13.9695 151.789Z" fill="#3D66CC"/>
<path opacity="0.1" d="M15.0552 140.04L35.9849 140.814L35.7618 138.393H15.2094L15.0552 140.04Z" fill="#1D1D1D"/>
<path d="M13.8908 139.249H37.0771V136.333H13.8908V139.249Z" fill="#3D66CC"/>
<path d="M117.752 108.801C116.896 119.143 110.208 141.673 105.541 145.517C102.53 147.99 89.6227 150.736 82.8594 150.746C80.0845 150.746 78.0246 131.738 82.2034 131.466C89.3833 131 94.464 130.344 96.3762 129.357C97.8654 128.586 101.605 121.416 111.733 107.751C115.472 102.664 118.224 102.992 117.752 108.801Z" fill="#D3766A"/>
<path d="M86.5133 150.345C86.1623 150.434 81.1866 151.677 78.2444 151.857C76.0468 151.992 69.7164 152.212 69.3261 149.811C69.0604 148.171 72.7701 147.603 75.381 147.144C76.7586 146.901 78.6052 145.934 78.4182 145.038C78.0902 143.48 74.5249 144.172 72.1174 144.933C67.4565 146.403 60.9982 149.483 58.9514 146.826C58.1774 145.822 59.6074 144.632 61.5394 143.582C58.5447 144.638 55.4451 145.36 54.5431 144.277C54.0216 143.661 54.1397 143.001 54.6579 142.332C53.7887 142.414 53.0835 142.201 52.6899 141.562C52.0339 140.479 52.749 139.266 53.9855 138.114C53.8304 138.06 53.6902 137.97 53.5763 137.851C53.4623 137.733 53.3778 137.589 53.3295 137.432C52.152 134.273 62.976 128.396 66.256 128.36C75.9418 128.235 85.5457 131.23 85.5457 131.23C88.5075 134.926 86.5198 150.339 86.5133 150.345Z" fill="#D3766A"/>
<path d="M74.889 138.842C72.6238 138.695 70.3531 139.03 68.2273 139.826C65.5508 140.84 63.5992 142.293 61.2343 143.671C61.224 143.679 61.2169 143.691 61.2146 143.704C61.2122 143.717 61.2146 143.731 61.2213 143.742C61.2281 143.754 61.2387 143.762 61.2513 143.767C61.2639 143.771 61.2777 143.771 61.2901 143.766C62.4151 143.11 67.0038 140.738 68.1781 140.227C70.287 139.273 72.5853 138.812 74.8988 138.878C74.9152 138.885 74.9152 138.846 74.889 138.842Z" fill="#263238"/>
<path d="M74.0526 134.555C71.4876 134.677 68.8603 134.788 66.361 135.428C63.6254 136.127 61.2474 137.724 58.9154 139.275C57.5181 140.2 56.1405 141.155 54.7826 142.139C54.7268 142.181 54.7826 142.277 54.8383 142.237C57.2087 140.639 59.6271 139.114 62.0937 137.662C64.3756 136.298 66.9051 135.401 69.536 135.021C71.0382 134.805 72.5536 134.693 74.0657 134.601C74.0788 134.601 74.0821 134.555 74.0526 134.555Z" fill="#263238"/>
<path d="M72.2354 130.564C69.7787 130.521 67.6434 130.472 65.2753 131.266C62.1494 132.312 58.8629 134.523 57.7083 135.31C56.4291 136.176 55.1827 137.088 53.9494 138.016C53.9002 138.055 53.9658 138.144 54.0183 138.104C56.8152 136.089 59.7394 134.256 62.7726 132.617C64.2065 131.816 65.7554 131.24 67.3646 130.911C68.977 130.663 70.6076 130.553 72.2387 130.583L72.2354 130.564Z" fill="#263238"/>
<path d="M114.114 132.755L101.149 120.048C101.149 120.048 108.87 109.086 114.078 104.304C116.998 101.618 119.12 103.851 119.103 107.436C119.044 119.986 114.114 132.755 114.114 132.755Z" fill="#3D66CC"/>
<path d="M114.114 132.755L101.149 120.048C101.149 120.048 108.87 109.086 114.078 104.304C116.998 101.618 119.12 103.851 119.103 107.436C119.044 119.986 114.114 132.755 114.114 132.755Z" fill="#3D66CC"/>
<path opacity="0.1" d="M114.934 115.692C115.294 115.333 115.676 114.998 116.079 114.688C115.817 114.902 115.564 115.131 115.312 115.344L114.934 115.692ZM119.025 109.998C118.749 109.877 118.46 109.768 118.165 109.67V109.732C118.167 109.739 118.167 109.746 118.165 109.752C118.172 109.779 118.178 109.806 118.182 109.834C118.218 110.037 118.254 110.238 118.287 110.441C118.391 111.237 118.561 112.024 118.795 112.793C118.764 113.092 118.732 113.391 118.697 113.688C118.329 112.914 118.087 112.085 117.982 111.235C117.804 114.627 116.974 117.953 115.538 121.032C115.553 121.05 115.565 121.071 115.571 121.094C116.581 124.686 115.459 127.654 112.524 129.829C112.524 129.865 112.507 129.898 112.497 129.931C112.471 130.022 112.337 129.98 112.343 129.891C112.596 126.795 111.809 123.23 115.016 121.563C115.711 119.641 116.283 117.677 116.729 115.682C115.308 118.454 113.354 120.274 110.103 121.344C110.094 121.362 110.081 121.378 110.063 121.39C110.046 121.401 110.025 121.407 110.005 121.407C109.984 121.407 109.964 121.401 109.946 121.39C109.929 121.378 109.915 121.362 109.906 121.344C109.902 121.335 109.899 121.325 109.899 121.316C109.899 121.306 109.902 121.296 109.906 121.288C110.223 119.007 111.246 116.883 112.832 115.213C114.016 113.987 115.476 113.734 117.096 113.859C117.712 110.356 117.724 106.774 117.132 103.268C112.832 108.65 110.077 114.99 107.207 121.229V121.265C107.279 122.836 107.732 124.591 107.39 126.185L106.958 125.762C107.194 124.473 106.958 123.085 106.866 121.78C106.796 122.942 106.649 124.098 106.426 125.24L106.344 125.158C106.545 124.068 106.688 122.967 106.774 121.862C106.341 122.688 105.928 123.522 105.537 124.368L105.508 124.342C105.918 123.489 106.344 122.646 106.78 121.806L106.8 121.642C106.705 121.77 106.61 121.891 106.511 122.013C106.057 122.695 105.64 123.39 105.262 124.099L105.18 124.02C105.459 123.512 105.757 123.01 106.072 122.524C105.695 122.948 105.304 123.354 104.94 123.787L104.563 123.413C105.264 122.611 106.032 121.871 106.859 121.199C106.861 121.191 106.861 121.182 106.859 121.173C106.86 121.167 106.863 121.162 106.867 121.157C106.87 121.152 106.875 121.149 106.881 121.147C106.886 121.144 106.892 121.143 106.898 121.144C106.904 121.145 106.91 121.147 106.915 121.15L107.118 120.973C107.663 119.431 108.257 117.901 108.903 116.381C107.814 117.539 106.715 118.798 105.331 119.526C104.448 119.989 102.91 120.324 101.631 120.533L101.382 120.291C102.508 120.101 103.609 119.782 104.662 119.34C106.154 118.651 107.568 117.303 108.794 116.112C108.057 116.719 107.274 117.267 106.452 117.752V117.736C107.295 117.168 108.092 116.558 108.876 115.912C107.236 116.47 105.547 116.853 104.006 117.654C103.327 118.006 102.67 118.399 102.038 118.828L102.136 118.693C102.726 118.283 103.341 117.909 103.976 117.572C105.587 116.799 107.278 116.204 109.017 115.797C107.3 115.598 105.562 115.925 104.035 116.735C103.73 116.907 103.435 117.096 103.153 117.303L103.3 117.106C103.622 116.886 103.961 116.692 104.314 116.525C105.779 115.819 107.42 115.561 109.03 115.784L109.112 115.715C107.118 115.213 105.413 115.338 103.796 116.42C103.999 116.145 104.219 115.853 104.452 115.554C105.79 114.823 107.331 114.672 109.227 115.627C111.147 111.155 113.638 106.953 116.64 103.123C116.963 103.143 117.276 103.246 117.549 103.422C117.883 105.31 118.052 107.224 118.054 109.142C118.07 109.214 118.083 109.29 118.1 109.362C118.419 109.378 118.735 109.428 119.044 109.509C119.044 109.673 119.034 109.837 119.025 109.998ZM115.302 121.731V121.685L115.236 121.731H115.217C115.162 121.764 115.111 121.801 115.062 121.842C115.041 121.854 115.021 121.868 115.003 121.885C113.55 122.974 112.894 124.43 112.832 126.303C112.816 126.756 112.832 127.205 112.806 127.648C112.809 128.281 112.745 128.914 112.616 129.534C113.6 128.297 114.767 127.385 115.24 125.788C115.582 124.46 115.604 123.069 115.302 121.731ZM110.297 120.802C111.169 119.162 111.664 117.335 113.055 116C113.933 115.149 115.024 114.55 116.214 114.265C114.449 114.413 113.291 114.994 112.107 116.775C111.251 118.06 110.795 119.392 110.297 120.802ZM110.297 120.96C111.187 119.588 112.22 118.315 113.38 117.162C113.878 116.65 114.403 116.178 114.938 115.692C114.41 116.207 113.918 116.755 113.449 117.234C112.375 118.339 111.388 119.526 110.497 120.783C111.651 119.825 112.947 119.064 114 117.968C115.065 116.813 116.02 115.562 116.853 114.229H116.768C116.531 114.367 116.302 114.52 116.082 114.685C116.272 114.527 116.472 114.38 116.679 114.246C115.227 114.514 113.897 115.236 112.881 116.309C111.612 117.657 111.176 119.451 110.257 121.002L110.297 120.96ZM116.984 114.226H116.925C116.113 115.54 115.189 116.782 114.164 117.939C113.026 119.063 111.769 120.06 110.415 120.911L110.365 120.98C111.54 120.304 112.839 119.756 113.875 118.903C115.364 117.683 116.112 115.892 116.981 114.226H116.984ZM106.033 118.018C104.655 119.034 102.956 119.658 101.28 120.179L101.152 120.055C102.831 119.51 104.527 119.094 106.019 118.024L106.033 118.018ZM115.354 121.626L115.305 121.737C115.269 121.813 115.233 121.888 115.2 121.967C115.125 123.243 115.082 124.502 114.623 125.722C114.105 127.043 113.434 128.298 112.622 129.462C112.617 129.493 112.611 129.523 112.602 129.553C112.604 129.577 112.604 129.602 112.602 129.626C112.602 129.649 112.563 129.642 112.566 129.626C112.568 129.599 112.568 129.573 112.566 129.547C112.562 129.548 112.557 129.548 112.552 129.547C112.547 129.546 112.543 129.543 112.54 129.54C112.536 129.537 112.533 129.533 112.532 129.528C112.53 129.524 112.53 129.519 112.53 129.514C112.528 129.511 112.527 129.507 112.527 129.503C112.527 129.498 112.528 129.494 112.53 129.491C112.553 129.406 112.583 129.321 112.606 129.232C112.658 128.714 112.72 128.196 112.802 127.681C113.13 125.614 113.75 123.617 115 121.918C115.069 121.816 115.144 121.718 115.223 121.619C115.223 121.55 115.223 121.478 115.223 121.409H115.24C115.24 121.475 115.24 121.537 115.24 121.599C115.299 121.524 115.354 121.449 115.417 121.373C115.417 121.373 115.446 121.373 115.436 121.373C115.367 121.455 115.302 121.54 115.236 121.622V121.74V121.763L115.256 121.727C115.282 121.681 115.308 121.632 115.335 121.59C115.361 121.547 115.364 121.59 115.351 121.619L115.354 121.626ZM115.18 122.006C114.16 124.302 113.54 126.716 112.701 129.075C112.701 129.14 112.678 129.209 112.661 129.275C113.399 128.143 114.03 126.945 114.544 125.696C114.936 124.507 115.149 123.267 115.177 122.016L115.18 122.006ZM115.197 121.76C115.197 121.724 115.197 121.688 115.197 121.652C115.141 121.724 115.085 121.8 115.036 121.872C114.259 122.891 113.693 124.055 113.37 125.296C113.104 126.355 112.98 127.441 112.799 128.514C113.127 127.412 113.508 126.316 113.868 125.217C114.193 124.035 114.632 122.887 115.18 121.79C115.18 121.79 115.194 121.767 115.194 121.754L115.197 121.76ZM118.182 109.752H118.155C118.157 109.759 118.157 109.765 118.155 109.772L118.192 109.847C118.423 110.346 118.673 110.833 118.939 111.31C118.938 111.34 118.938 111.369 118.939 111.399C118.693 110.943 118.46 110.484 118.244 110.014C118.451 110.628 118.661 111.248 118.9 111.858L118.88 112.091C118.658 111.555 118.465 111.008 118.303 110.451C118.228 110.208 118.162 109.965 118.103 109.726L117.886 109.634L118.1 109.719V109.686C118.1 109.65 118.07 109.618 118.057 109.585C118.044 109.552 118.057 109.565 118.073 109.585C118.073 109.585 118.096 109.565 118.1 109.585C118.103 109.604 118.142 109.703 118.162 109.762H118.192C118.481 109.886 118.762 110.027 119.034 110.185C119.036 110.198 119.036 110.211 119.034 110.224C118.761 110.044 118.475 109.884 118.178 109.746L118.182 109.752Z" fill="#1D1D1D"/>
<path opacity="0.1" d="M102.395 121.268L114.114 132.748C114.114 132.748 119.034 119.979 119.103 107.433C119.103 106.092 118.818 104.94 118.296 104.153L102.395 121.268Z" fill="#1D1D1D"/>
<path d="M103.599 118.457C105.754 120.245 111.471 125.266 114.751 129.016C114.77 129.038 114.695 129.12 114.672 129.104C111.471 126.398 105.488 120.55 103.487 118.582C103.448 118.546 103.559 118.408 103.599 118.457Z" fill="#263238"/>
<path d="M148.689 152.051L104.081 151.936L106.78 135.136C106.78 135.136 102.923 130.449 103.651 125.362C104.452 119.786 114.475 105.682 115.331 104.871C118.736 101.68 122.298 100.827 125.535 102.5C136.664 108.24 148.689 152.051 148.689 152.051Z" fill="#3D66CC"/>
<path opacity="0.1" d="M132.138 131.912C132.207 132.415 132.245 132.922 132.25 133.43C132.25 133.102 132.204 132.755 132.177 132.42L132.138 131.912ZM135.313 152.018H134.769C134.545 151.857 134.312 151.71 134.07 151.579C132.453 150.709 131.157 150.969 129.58 151.064L129.284 151.08L129.462 151.267V151.287C129.691 151.533 129.901 151.775 130.118 152.005H129.649C129.359 151.663 129.136 151.269 128.993 150.844C130.685 150.542 132.184 150.349 133.785 151.077C134.332 151.325 134.845 151.641 135.313 152.018ZM136.651 152.018H136.143C135.668 150.939 135.276 149.825 134.972 148.686H134.942C133.535 148.059 131.951 147.193 131.243 145.734C130.534 144.274 130.803 142.191 130.967 140.62C130.968 140.599 130.977 140.579 130.992 140.564C131.008 140.55 131.028 140.541 131.049 140.541C131.062 140.541 131.075 140.544 131.086 140.549C131.098 140.555 131.107 140.564 131.115 140.574C133.571 142.637 135.625 144.927 135.106 148.253C135.516 149.55 136.032 150.81 136.651 152.021V152.018ZM134.769 148.256L134.867 148.302C134.861 148.29 134.858 148.276 134.858 148.263C134.858 148.249 134.861 148.235 134.867 148.223C134.878 148.203 134.896 148.187 134.916 148.177C134.874 146.498 134.782 145.156 133.66 143.716C132.945 142.805 132.164 141.935 131.364 141.092L131.239 140.961L131.174 140.889L131.154 140.869L131.125 140.837V140.876C131.126 140.892 131.126 140.909 131.125 140.925C131.193 142.3 131.069 143.71 131.453 145.038C131.908 146.596 133.319 147.6 134.769 148.256ZM136.832 118.661C136.284 120.205 135.687 121.711 135.644 123.417C135.644 121.747 136.163 120.061 136.733 118.447C136.776 118.506 136.796 118.575 136.832 118.647V118.661ZM146.445 144.514C146.091 144.625 145.734 144.72 145.379 144.805H145.36C144.878 147.238 143.87 149.536 142.408 151.539C142.408 151.71 142.408 151.867 142.388 152.048H141.814C141.984 149.157 141.797 146.256 141.256 143.411C141.142 142.814 141.007 142.224 140.866 141.637C140.833 141.638 140.801 141.631 140.771 141.617C138.914 140.7 137.146 139.612 135.49 138.367L135.287 138.268C132.696 141.312 128.727 139.328 125.863 137.842C125.835 137.831 125.81 137.812 125.793 137.787C125.775 137.761 125.766 137.732 125.766 137.701C125.766 137.67 125.775 137.64 125.793 137.615C125.81 137.59 125.835 137.571 125.863 137.56H125.886L125.932 137.54C127.638 136.809 129.18 135.854 131.105 136.107C132.084 136.255 133.026 136.589 133.88 137.091C131.284 134.903 129.132 132.236 127.543 129.235C127.52 129.24 127.497 129.24 127.474 129.235C123.997 127.877 122.301 125.194 122.334 121.544L122.269 121.462C122.213 121.383 122.328 121.301 122.393 121.36C124.715 123.426 128.035 124.942 127.431 128.51C128.55 130.225 129.774 131.869 131.098 133.43C129.74 130.626 129.458 127.963 130.567 124.732C130.557 124.714 130.553 124.694 130.555 124.673C130.556 124.653 130.563 124.634 130.575 124.617C130.587 124.601 130.603 124.588 130.622 124.58C130.641 124.573 130.662 124.571 130.682 124.574C130.702 124.573 130.722 124.581 130.738 124.594C132.364 126.217 133.442 128.31 133.817 130.577C134.083 132.263 133.404 133.578 132.325 134.808C134.751 137.409 137.604 139.575 140.761 141.214C139.052 134.539 135.644 128.527 132.391 122.478C132.391 122.478 132.368 122.478 132.358 122.462C130.839 121.429 128.812 120.652 127.841 118.989C126.792 117.188 126.952 114.695 126.966 112.691C126.966 112.691 127.061 112.635 127.064 112.658C128.704 113.914 130.462 115.315 131.495 117.132C132.391 118.706 132.512 120.465 132.627 122.226L132.646 122.246C132.651 122.249 132.655 122.253 132.658 122.258C132.66 122.264 132.662 122.269 132.662 122.275C132.662 122.281 132.66 122.287 132.658 122.292C132.655 122.297 132.651 122.301 132.646 122.305C132.646 122.393 132.646 122.482 132.663 122.57C133.568 123.935 134.431 125.331 135.251 126.759C134.982 125.188 134.637 123.554 134.89 122.013C135.07 120.904 135.894 119.221 136.53 118.021L136.678 118.349C136.137 119.379 135.718 120.469 135.431 121.596C135.084 123.203 135.31 125.145 135.52 126.844C135.476 125.888 135.507 124.929 135.612 123.977H135.631C135.576 124.991 135.582 125.998 135.631 127.011C136.172 125.371 136.884 123.787 137.176 122.075C137.295 121.378 137.376 120.675 137.419 119.969L137.468 120.081C137.441 120.753 137.374 121.424 137.265 122.088C136.912 123.841 136.368 125.55 135.644 127.185C136.839 125.935 137.625 124.35 137.898 122.642C137.962 122.169 137.985 121.69 137.967 121.212C137.996 121.281 138.029 121.353 138.058 121.426C138.057 121.954 138.003 122.482 137.898 123C137.577 124.599 136.791 126.068 135.638 127.221C135.638 127.257 135.638 127.29 135.638 127.326C137.425 125.886 138.373 124.263 138.285 121.967C138.406 122.252 138.528 122.534 138.646 122.823C138.626 124.692 137.908 126.352 135.644 127.471C139.758 134.824 142.532 142.913 142.437 151.087C143.989 147.894 144.96 144.451 145.304 140.919C145.465 141.404 145.632 141.88 145.766 142.342C145.701 142.985 145.609 143.624 145.491 144.258C145.639 143.756 145.766 143.274 145.904 142.775C145.947 142.906 145.986 143.038 146.026 143.165C145.914 143.51 145.796 143.851 145.658 144.192C145.658 144.192 145.658 144.192 145.658 144.208C145.619 144.31 145.576 144.409 145.534 144.507L145.58 144.491C145.848 144.405 146.111 144.32 146.37 144.225C146.377 144.281 146.409 144.392 146.445 144.5V144.514ZM127.333 112.957C129.393 115.22 130.984 117.869 132.017 120.75C131.764 119.481 131.62 118.208 130.924 116.998C129.99 115.361 128.691 114.167 127.333 112.944V112.957ZM132.132 121.832C130.869 120.688 129.508 119.513 128.681 118.021C127.825 116.44 127.464 114.518 127.057 112.773C127.241 114.561 127.402 117.099 128.274 118.657C129.104 120.12 130.747 120.911 132.132 121.819V121.832ZM128.691 117.844C129.485 119.376 130.865 120.527 132.122 121.708C130.64 118.663 128.975 115.711 127.136 112.868C127.592 114.515 127.894 116.292 128.691 117.831V117.844ZM132.282 121.859C132.24 121.711 132.197 121.56 132.161 121.409C131.073 118.358 129.43 115.533 127.316 113.078C129.149 115.841 130.77 118.739 132.164 121.747L132.282 121.859ZM127.093 128.576L127.136 128.596C127.138 128.569 127.138 128.543 127.136 128.517C127.137 128.509 127.137 128.502 127.136 128.494V128.478C127.139 128.416 127.139 128.355 127.136 128.294C127.138 128.269 127.138 128.244 127.136 128.218C127.136 126.395 126.375 124.994 124.916 123.817C124.558 123.528 124.197 123.259 123.85 122.984C123.349 122.599 122.888 122.165 122.475 121.688C122.879 123.213 122.898 124.699 123.889 126.031C124.739 127.123 125.838 127.995 127.093 128.576ZM130.849 125.135C131.643 126.828 132.794 128.317 133.02 130.232C133.175 131.444 133 132.675 132.512 133.794C133.457 132.296 133.69 131.023 132.981 129.006C132.463 127.546 131.676 126.382 130.849 125.132V125.135ZM132.109 134.388C131.545 132.948 131.106 131.462 130.797 129.947C130.583 128.361 130.544 126.756 130.678 125.162C130.678 125.135 130.662 125.109 130.656 125.083C130.488 126.428 130.144 127.792 130.2 129.134C130.275 131.062 131.256 132.742 132.063 134.434L132.109 134.388ZM132.24 134.175C132.897 132.857 133.121 131.364 132.879 129.911C132.568 128.084 131.4 126.654 130.721 124.991C130.721 125.014 130.721 125.037 130.721 125.06C131.28 126.597 131.674 128.189 131.899 129.809C132.004 130.514 132.072 131.223 132.135 131.935C132.036 131.207 131.899 130.482 131.807 129.819C131.568 128.286 131.211 126.774 130.741 125.296C130.806 126.795 130.636 128.291 130.879 129.79C131.16 131.335 131.583 132.852 132.145 134.319L132.2 134.241C132.233 133.967 132.25 133.692 132.25 133.417C132.262 133.669 132.258 133.921 132.24 134.172V134.175ZM135.005 138.127L134.946 138.098H134.929L134.86 138.062C134.68 137.973 134.503 137.881 134.329 137.79C133.273 137.232 132.24 136.671 131.003 136.51C129.55 136.323 128.337 136.917 127.067 137.425C126.831 137.517 126.595 137.609 126.352 137.691L126.388 137.711L126.447 137.74L127.218 138.157C128.36 138.774 129.537 139.37 130.826 139.469C132.433 139.59 133.712 138.98 135.005 138.124V138.127ZM127.408 128.707L127.264 128.576C127.287 128.671 127.313 128.763 127.336 128.855C127.336 128.855 127.316 128.878 127.313 128.855C127.29 128.75 127.264 128.645 127.234 128.543L127.149 128.468L127.13 128.451L127.146 128.491C127.169 128.538 127.19 128.586 127.208 128.635C127.208 128.668 127.175 128.684 127.159 128.655L127.1 128.55L126.982 128.327C125.998 127.497 125.03 126.706 124.328 125.604C123.587 124.396 122.989 123.104 122.547 121.757L122.485 121.685L122.436 121.629C122.436 121.613 122.436 121.59 122.462 121.603L122.521 121.658C122.524 121.654 122.527 121.651 122.532 121.649C122.536 121.646 122.541 121.645 122.546 121.645C122.551 121.645 122.555 121.646 122.56 121.649C122.564 121.651 122.568 121.654 122.57 121.658H122.593L122.751 121.875C123.133 122.227 123.506 122.59 123.869 122.964C125.326 124.473 126.552 126.178 127.149 128.212C127.189 128.327 127.221 128.445 127.251 128.563L127.408 128.707ZM126.952 128.314C125.745 126.126 124.184 124.164 122.803 122.082L122.665 121.931C123.125 123.2 123.703 124.423 124.391 125.585C125.106 126.614 125.969 127.533 126.952 128.31V128.314ZM127.221 128.546C127.198 128.461 127.175 128.379 127.146 128.294C126.799 127.054 126.208 125.895 125.408 124.886C124.722 124.033 123.932 123.282 123.184 122.488C123.859 123.423 124.496 124.381 125.171 125.326C125.867 126.329 126.618 127.323 127.11 128.448L127.143 128.478L127.221 128.546ZM135.166 138.114C135.182 138.114 135.166 138.144 135.166 138.14L134.985 138.081H134.956C133.715 138.804 132.293 139.152 130.859 139.085C130.088 139.037 129.328 138.884 128.599 138.629C128.159 138.482 127.667 138.331 127.212 138.134C126.94 138.023 126.682 137.884 126.441 137.717L126.388 137.685L126.037 137.796C125.995 137.796 125.972 137.744 126.014 137.73L126.254 137.652C126.259 137.65 126.265 137.65 126.27 137.652H126.28L126.231 137.616L126.306 137.655C126.539 137.58 126.775 137.504 127.015 137.435C128.131 137.071 129.301 136.895 130.475 136.914C131.784 137.011 133.069 137.31 134.286 137.799C134.516 137.881 134.742 137.973 134.962 138.065L135.169 137.947L134.972 138.065L135.005 138.081L135.113 138.104V138.127L135.166 138.114ZM126.723 137.596C129.383 137.279 132.077 137.411 134.693 137.986C133.339 137.54 131.938 137.058 130.514 137.002C129.226 136.979 127.943 137.178 126.723 137.593V137.596ZM134.956 138.075H134.936L134.86 138.058C132.098 137.499 129.265 137.372 126.464 137.681H126.428C129.107 139.128 132.204 139.58 134.929 138.085L134.956 138.075ZM135.064 148.492L134.887 148.341C134.887 148.407 134.887 148.469 134.887 148.535C134.885 148.541 134.88 148.547 134.875 148.551C134.869 148.555 134.862 148.557 134.856 148.557C134.849 148.557 134.842 148.555 134.836 148.551C134.831 148.547 134.827 148.541 134.824 148.535C134.824 148.446 134.805 148.358 134.795 148.269C134.796 148.283 134.796 148.298 134.795 148.312C134.795 148.312 134.778 148.331 134.775 148.312L134.756 148.246C133.739 147.367 132.742 146.403 132.132 145.186C131.476 143.874 131.295 142.401 131.164 140.958L131.128 140.915C131.128 140.915 131.098 140.883 131.085 140.863C131.072 140.843 131.085 140.833 131.108 140.843L131.125 140.866L131.157 140.902C131.159 140.888 131.159 140.874 131.157 140.86C131.157 140.86 131.157 140.879 131.157 140.889C131.157 140.899 131.157 140.919 131.157 140.932L131.269 141.056L131.216 140.961L131.131 140.801H131.148C131.213 140.902 131.279 141.004 131.341 141.106C131.371 141.148 131.397 141.194 131.426 141.24C133.224 143.208 134.598 145.524 134.834 148.243C134.834 148.259 134.834 148.276 134.834 148.292L135.047 148.486C135.116 148.472 135.087 148.512 135.064 148.489V148.492ZM134.801 148.19C134.646 146.895 134.278 145.634 133.712 144.458C133.147 143.384 132.449 142.385 131.633 141.486C132.118 142.303 132.538 143.152 132.961 144.008C132.482 143.06 131.938 142.145 131.423 141.217C131.357 141.135 131.289 141.056 131.223 140.978C131.42 142.29 131.603 143.664 132.141 144.914C132.719 146.226 133.706 147.21 134.749 148.141C134.413 147.056 133.973 146.004 133.437 145.002C133.993 146.007 134.438 147.07 134.765 148.171L134.801 148.19ZM134.208 152.018H133.958C133.734 151.916 133.504 151.827 133.27 151.749C132.246 151.446 131.19 151.265 130.124 151.211C131.07 151.427 132.003 151.696 132.919 152.018H132.446C131.512 151.69 130.557 151.421 129.583 151.169H129.393C129.736 151.474 130.095 151.761 130.469 152.028H130.328C130.026 151.798 129.737 151.559 129.465 151.306V151.287L129.33 151.162H129.225C129.18 151.162 129.18 151.11 129.209 151.087C129.206 151.084 129.204 151.081 129.202 151.078C129.201 151.074 129.2 151.071 129.2 151.067C129.2 151.063 129.201 151.06 129.202 151.056C129.204 151.053 129.206 151.05 129.209 151.047L129.153 150.988C129.152 150.987 129.15 150.985 129.149 150.983C129.148 150.981 129.148 150.979 129.147 150.976C129.147 150.974 129.148 150.972 129.148 150.97C129.149 150.967 129.15 150.965 129.152 150.964C129.153 150.962 129.155 150.961 129.157 150.959C129.159 150.958 129.161 150.958 129.164 150.958C129.166 150.958 129.168 150.958 129.17 150.959C129.173 150.959 129.175 150.96 129.176 150.962L129.278 151.054L129.432 151.083C129.485 151.083 129.537 151.083 129.59 151.083C130.856 151.108 132.112 151.304 133.325 151.667C133.627 151.762 133.922 151.878 134.208 152.015V152.018ZM146.321 144.11C146.081 144.216 145.835 144.306 145.583 144.379L145.55 144.435C145.541 144.453 145.532 144.471 145.52 144.487C145.498 144.523 145.435 144.487 145.458 144.458L145.488 144.405L145.406 144.428L145.353 144.471C145.334 144.471 145.317 144.471 145.314 144.451C145.196 144.481 145.078 144.51 144.96 144.53C144.842 144.55 144.878 144.432 144.96 144.418C145.14 144.386 145.32 144.34 145.498 144.29L145.625 144.179C145.63 144.17 145.635 144.161 145.642 144.153C145.642 144.153 145.642 144.153 145.642 144.136C145.793 143.864 145.937 143.589 146.078 143.313L146.117 143.441C146.009 143.641 145.901 143.838 145.789 144.031L146.19 143.671C146.19 143.7 146.209 143.73 146.216 143.756C146.042 143.913 145.868 144.061 145.691 144.205L145.671 144.238C145.882 144.168 146.088 144.086 146.288 143.992C146.288 144.035 146.311 144.071 146.321 144.107V144.11ZM115.312 115.358C115.564 115.135 115.817 114.905 116.079 114.702C115.676 115.011 115.294 115.346 114.934 115.705L115.312 115.358ZM107.217 121.262C107.302 123.098 107.905 125.198 107.161 126.959C106.597 128.307 105.406 129.383 104.189 130.314C104.153 130.209 104.12 130.098 104.088 129.986C105.124 129.002 106.174 127.871 106.662 126.759C107.345 125.207 106.99 123.42 106.876 121.767C106.725 123.462 106.616 125.273 105.914 126.815C105.401 127.857 104.76 128.831 104.006 129.714C104.006 129.675 103.983 129.635 103.973 129.593C104.669 128.772 105.27 127.874 105.764 126.916C106.511 125.362 106.597 123.561 106.784 121.849C105.655 124.038 104.638 126.284 103.737 128.576L103.707 128.415C104.612 126.162 105.675 123.971 106.79 121.809L106.81 121.645C106.715 121.773 106.62 121.895 106.521 122.016C105.302 123.842 104.332 125.822 103.635 127.904C103.635 127.782 103.609 127.661 103.596 127.54C104.229 125.779 105.063 124.097 106.082 122.528C105.222 123.492 104.291 124.374 103.743 125.66C103.684 125.798 103.632 125.932 103.579 126.07C103.579 125.84 103.618 125.608 103.651 125.375C103.7 125.063 103.764 124.754 103.845 124.45C104.596 123.161 105.728 122.183 106.862 121.203C106.864 121.194 106.864 121.185 106.862 121.176C106.864 121.17 106.866 121.165 106.87 121.16C106.874 121.156 106.879 121.152 106.884 121.15C106.89 121.148 106.896 121.147 106.902 121.147C106.908 121.148 106.913 121.15 106.918 121.153L107.122 120.976C107.666 119.435 108.261 117.904 108.906 116.384C108.077 117.343 107.16 118.221 106.167 119.008C106.338 118.68 106.518 118.352 106.698 118.024C107.44 117.431 108.142 116.755 108.791 116.125C108.234 116.588 107.651 117.018 107.043 117.411L107.105 117.296C107.709 116.866 108.292 116.41 108.863 115.938C108.466 116.073 108.066 116.197 107.666 116.325C107.696 116.269 107.728 116.217 107.761 116.161C108.174 116.043 108.588 115.932 108.994 115.833C108.666 115.804 108.319 115.787 107.984 115.791L108.017 115.735C108.355 115.738 108.693 115.765 109.027 115.817L109.109 115.748C108.785 115.665 108.457 115.599 108.125 115.551C108.181 115.459 108.233 115.364 108.292 115.272C108.61 115.378 108.919 115.507 109.217 115.659C110.846 111.891 112.867 108.305 115.246 104.96C115.273 104.929 115.301 104.899 115.331 104.871C115.814 104.415 116.326 103.99 116.863 103.599C112.714 108.896 110.018 115.128 107.207 121.229L107.217 121.262ZM123.216 117.326H123.194C123.178 117.321 123.163 117.313 123.151 117.303C121.54 116.381 119.848 115.725 118.887 114.023C118.412 113.156 118.109 112.206 117.991 111.225C117.812 114.621 116.979 117.951 115.538 121.032C115.553 121.05 115.565 121.071 115.571 121.094C116.581 124.686 115.459 127.654 112.524 129.829C112.524 129.865 112.507 129.898 112.497 129.931C112.471 130.022 112.337 129.98 112.343 129.891C112.596 126.795 111.809 123.23 115.016 121.563C115.711 119.641 116.283 117.677 116.729 115.682C115.308 118.454 113.354 120.274 110.103 121.344C110.094 121.362 110.081 121.378 110.063 121.39C110.046 121.401 110.025 121.407 110.005 121.407C109.984 121.407 109.964 121.401 109.946 121.39C109.929 121.378 109.915 121.362 109.906 121.344C109.902 121.335 109.899 121.325 109.899 121.316C109.899 121.306 109.902 121.296 109.906 121.288C110.223 119.007 111.246 116.883 112.832 115.213C114.016 113.987 115.476 113.734 117.096 113.859C117.703 110.401 117.723 106.866 117.155 103.402C117.273 103.317 117.394 103.238 117.516 103.163C117.881 105.135 118.065 107.136 118.067 109.142C118.083 109.214 118.096 109.29 118.113 109.362C122.105 109.601 122.905 113.954 123.443 117.145V117.165C123.454 117.195 123.455 117.227 123.447 117.258C123.438 117.289 123.419 117.316 123.394 117.335C123.368 117.354 123.337 117.365 123.305 117.365C123.273 117.365 123.242 117.355 123.216 117.335V117.326ZM115.302 121.721V121.675L115.236 121.721H115.217C115.162 121.754 115.111 121.791 115.062 121.832C115.041 121.844 115.021 121.859 115.003 121.875C113.55 122.964 112.894 124.42 112.832 126.293C112.816 126.746 112.832 127.195 112.806 127.638C112.809 128.272 112.745 128.904 112.616 129.524C113.6 128.287 114.767 127.376 115.24 125.778C115.581 124.453 115.602 123.066 115.302 121.731V121.721ZM110.297 120.793C111.169 119.153 111.664 117.326 113.055 115.991C113.933 115.139 115.024 114.54 116.214 114.256C114.449 114.403 113.291 114.984 112.107 116.765C111.251 118.06 110.795 119.392 110.297 120.802V120.793ZM110.297 120.95C111.187 119.578 112.22 118.305 113.38 117.152C113.878 116.64 114.403 116.168 114.938 115.682C114.41 116.197 113.918 116.745 113.449 117.224C112.375 118.329 111.388 119.516 110.497 120.773C111.651 119.815 112.947 119.054 114 117.959C115.065 116.804 116.02 115.552 116.853 114.219H116.768C116.531 114.358 116.302 114.51 116.082 114.675C116.272 114.517 116.472 114.37 116.679 114.236C115.227 114.504 113.897 115.227 112.881 116.299C111.612 117.647 111.176 119.441 110.257 120.993L110.297 120.95ZM116.984 114.216H116.925C116.113 115.53 115.189 116.773 114.164 117.929C113.026 119.054 111.769 120.05 110.415 120.901L110.365 120.97C111.54 120.294 112.839 119.746 113.875 118.893C115.364 117.683 116.112 115.892 116.981 114.226L116.984 114.216ZM122.419 116.45C122.626 116.574 122.833 116.702 123.033 116.84C123.033 116.84 123.033 116.814 123.033 116.801C123.033 116.788 123.033 116.778 123.033 116.768C122.98 116.456 122.934 116.142 122.888 115.827C122.695 114.557 122.459 113.275 121.78 112.219C120.898 110.831 119.641 110.178 118.172 109.664V109.726C118.173 109.732 118.173 109.739 118.172 109.746C118.179 109.773 118.184 109.8 118.188 109.828C118.224 110.031 118.26 110.231 118.293 110.434C118.483 111.605 118.657 112.76 119.277 113.836C120.009 115.128 121.232 115.735 122.416 116.46L122.419 116.45ZM126.513 108.073C125.768 109.536 123.951 110.556 122.593 111.372C122.581 111.381 122.567 111.386 122.553 111.387C122.538 111.388 122.524 111.385 122.511 111.378C122.498 111.371 122.487 111.361 122.48 111.348C122.472 111.336 122.468 111.321 122.469 111.307C122.467 111.298 122.467 111.289 122.469 111.281C122.633 108.076 123.226 105.049 126.195 103.471L126.477 103.067C126.549 103.113 126.621 103.166 126.693 103.222L126.618 103.32C126.618 103.33 126.618 103.34 126.618 103.35C126.979 104.858 127.241 106.646 126.51 108.083L126.513 108.073ZM126.392 103.746C126.392 103.71 126.375 103.678 126.369 103.641C126.361 103.652 126.352 103.661 126.342 103.668C126.331 103.674 126.319 103.679 126.306 103.681C126.282 103.689 126.255 103.689 126.231 103.681C124.919 104.724 123.902 105.606 123.43 107.371C123.128 108.489 122.905 109.641 122.702 110.785L122.672 110.962C122.665 110.993 122.659 111.023 122.656 111.054V111.08C122.657 111.095 122.657 111.109 122.656 111.123L122.688 111.097L122.724 111.067C123.781 110.182 124.978 109.427 125.818 108.338C126.795 107.033 126.733 105.311 126.388 103.756L126.392 103.746ZM115.354 121.609L115.305 121.721C115.269 121.796 115.233 121.872 115.2 121.95C115.125 123.226 115.082 124.486 114.623 125.706C114.105 127.027 113.434 128.282 112.622 129.445C112.617 129.476 112.611 129.507 112.602 129.537C112.604 129.561 112.604 129.585 112.602 129.609C112.602 129.632 112.563 129.626 112.566 129.609C112.568 129.583 112.568 129.557 112.566 129.53C112.562 129.532 112.557 129.532 112.552 129.53C112.547 129.529 112.543 129.527 112.54 129.524C112.536 129.52 112.533 129.516 112.532 129.512C112.53 129.507 112.53 129.502 112.53 129.498C112.528 129.494 112.527 129.49 112.527 129.486C112.527 129.482 112.528 129.478 112.53 129.475C112.553 129.389 112.583 129.304 112.606 129.216C112.658 128.697 112.72 128.179 112.802 127.664C113.13 125.598 113.75 123.6 115 121.901C115.069 121.8 115.144 121.701 115.223 121.603C115.223 121.534 115.223 121.462 115.223 121.393H115.24C115.24 121.458 115.24 121.521 115.24 121.583C115.299 121.508 115.354 121.432 115.417 121.357C115.417 121.357 115.446 121.357 115.436 121.357C115.367 121.439 115.302 121.524 115.236 121.606V121.724V121.747L115.256 121.711C115.282 121.665 115.308 121.616 115.335 121.573C115.361 121.531 115.364 121.59 115.351 121.619L115.354 121.609ZM115.18 121.99C114.16 124.286 113.54 126.7 112.701 129.058C112.701 129.124 112.678 129.193 112.661 129.258C113.399 128.127 114.03 126.929 114.544 125.68C114.934 124.496 115.147 123.262 115.177 122.016L115.18 121.99ZM115.197 121.744C115.197 121.708 115.197 121.672 115.197 121.636C115.141 121.708 115.085 121.783 115.036 121.855C114.257 122.88 113.691 124.05 113.37 125.296C113.104 126.355 112.98 127.441 112.799 128.514C113.127 127.412 113.508 126.316 113.868 125.217C114.193 124.035 114.632 122.887 115.18 121.79C115.18 121.79 115.194 121.767 115.194 121.754L115.197 121.744ZM123.289 117.096L123.079 116.952C123.079 116.952 123.079 116.952 123.062 116.952L123.033 116.922V116.984C123.033 116.984 123.033 116.984 123.016 116.984V116.902C122.823 116.768 122.629 116.63 122.439 116.489C121.464 115.811 120.608 114.975 119.907 114.016C119.2 112.92 118.666 111.722 118.323 110.464C118.247 110.221 118.182 109.978 118.123 109.739L117.906 109.647L118.119 109.732V109.7C118.119 109.664 118.09 109.631 118.077 109.598C118.064 109.565 118.077 109.578 118.093 109.598C118.093 109.598 118.116 109.578 118.119 109.598C118.123 109.618 118.162 109.716 118.182 109.775H118.211C119.537 110.331 120.676 111.257 121.491 112.442C121.913 113.088 122.244 113.789 122.475 114.524C122.616 114.951 122.787 115.417 122.908 115.886C122.989 116.194 123.037 116.509 123.052 116.827V116.857L123.354 117.066C123.364 117.047 123.328 117.096 123.289 117.096ZM118.195 109.844C119.409 112.385 121.012 114.722 122.948 116.768L122.977 116.791C122.515 113.78 121.009 111.035 118.178 109.759H118.152C118.154 109.765 118.154 109.772 118.152 109.778L118.195 109.844ZM122.728 116.614C120.874 114.679 119.357 112.447 118.241 110.011C118.7 111.363 119.159 112.77 119.959 113.947C120.722 114.984 121.659 115.88 122.728 116.597V116.614ZM126.385 103.723V103.743L126.408 103.707C126.408 103.707 126.437 103.707 126.428 103.707L126.388 103.76C126.3 105.101 126.129 106.475 125.519 107.696C124.863 109.008 123.8 110.041 122.728 111.015C122.728 111.035 122.728 111.054 122.728 111.071C122.727 111.092 122.727 111.114 122.728 111.136C122.728 111.136 122.695 111.136 122.698 111.136C122.697 111.126 122.697 111.116 122.698 111.107C122.697 111.091 122.697 111.076 122.698 111.061L122.665 111.09L122.685 111.071C122.695 111.059 122.706 111.048 122.718 111.038L122.747 110.874L122.702 110.979C122.675 111.031 122.652 111.087 122.626 111.14C122.6 111.192 122.603 111.14 122.606 111.14C122.646 111.028 122.688 110.92 122.731 110.812L122.79 110.654C123.289 108.03 124.299 105.544 126.336 103.717L126.365 103.687C126.365 103.589 126.365 103.494 126.392 103.399C126.393 103.394 126.397 103.389 126.401 103.386C126.406 103.383 126.411 103.382 126.416 103.382C126.421 103.382 126.427 103.383 126.431 103.386C126.436 103.389 126.439 103.394 126.441 103.399C126.441 103.477 126.441 103.556 126.424 103.635L126.569 103.504C126.601 103.477 126.644 103.527 126.615 103.553L126.385 103.723ZM126.323 103.782C125.38 104.686 124.594 105.741 123.997 106.902C123.48 107.999 123.103 109.157 122.875 110.349C123.236 109.47 123.666 108.624 124.092 107.771C123.62 108.725 123.22 109.709 122.78 110.68C122.757 110.782 122.731 110.884 122.708 110.985C123.649 110.028 124.627 109.063 125.286 107.889C125.991 106.636 126.172 105.265 126.296 103.864C125.63 104.785 125.053 105.766 124.574 106.797C125.043 105.754 125.623 104.764 126.303 103.845C126.303 103.845 126.323 103.782 126.323 103.766V103.782ZM107.702 148.348C107.453 148.577 107.207 148.807 106.951 149.027C107.348 148.71 107.725 148.368 108.079 148.003L107.702 148.348ZM104.983 151.956H104.53C104.454 151.622 104.357 151.294 104.242 150.972L104.373 150.165C104.65 150.729 104.855 151.325 104.983 151.939V151.956ZM113.026 142.349C112.748 144.63 111.761 146.766 110.205 148.456C109.037 149.702 107.581 149.978 105.941 149.883C105.836 150.572 105.75 151.257 105.691 151.949H105.124C105.303 148.747 106.069 145.605 107.384 142.68C107.369 142.661 107.358 142.64 107.351 142.618C106.282 139.042 107.351 136.058 110.251 133.831C110.251 133.798 110.267 133.765 110.277 133.729C110.3 133.64 110.438 133.68 110.431 133.765C110.231 136.868 111.087 140.42 107.896 142.139C107.235 144.071 106.697 146.043 106.285 148.043C107.656 145.248 109.565 143.385 112.812 142.273C112.821 142.254 112.835 142.238 112.852 142.227C112.87 142.216 112.89 142.21 112.911 142.21C112.931 142.21 112.952 142.216 112.969 142.227C112.987 142.238 113 142.254 113.009 142.273C113.016 142.281 113.021 142.291 113.024 142.301C113.027 142.311 113.027 142.322 113.026 142.332V142.349ZM107.607 141.994V142.037L107.673 141.988C107.673 141.988 107.673 141.988 107.692 141.988C107.745 141.953 107.797 141.914 107.85 141.87C107.873 141.859 107.894 141.843 107.912 141.824C109.342 140.712 109.972 139.246 110.005 137.376C110.005 136.917 110.005 136.464 110.005 136.018C109.992 135.392 110.045 134.767 110.162 134.152C109.208 135.408 108.046 136.336 107.607 137.94C107.29 139.268 107.29 140.651 107.607 141.978V141.994ZM106.111 149.519C106.904 148.193 107.808 146.936 108.814 145.763C109.929 144.614 111.166 143.59 112.504 142.71C112.518 142.687 112.534 142.665 112.55 142.644C111.389 143.336 110.1 143.907 109.076 144.776C107.604 146.022 106.889 147.823 106.042 149.506L106.111 149.519ZM112.632 142.834C111.786 144.504 111.32 146.324 109.949 147.682C109.086 148.549 108.005 149.167 106.82 149.47C108.584 149.292 109.729 148.692 110.884 146.892C111.72 145.576 112.153 144.238 112.632 142.818V142.834ZM112.681 142.631L112.629 142.677C111.761 144.063 110.748 145.354 109.608 146.527C109.119 147.046 108.601 147.538 108.079 148.02C108.594 147.495 109.08 146.944 109.539 146.452C110.591 145.325 111.555 144.119 112.422 142.844C111.284 143.828 109.998 144.605 108.968 145.717C107.921 146.889 106.986 148.156 106.177 149.502H106.272C106.508 149.36 106.736 149.203 106.954 149.033C106.765 149.194 106.567 149.344 106.361 149.483C107.809 149.19 109.127 148.446 110.126 147.357C111.369 145.983 111.776 144.182 112.681 142.614V142.631ZM123.446 142.677C123.42 142.71 123.331 142.837 123.318 142.844C120.842 146.072 118.398 150.191 113.806 147.977C113.239 149.325 112.632 150.654 111.976 151.959H111.349C112.934 148.82 114.321 145.566 115.741 142.342C115.739 142.33 115.739 142.318 115.741 142.306C115.623 140.473 114.987 138.396 115.702 136.609C116.476 134.674 118.542 133.266 120.13 132.043C120.13 132.043 120.232 132.086 120.215 132.102C120.232 134.165 120.215 136.415 119.415 138.334C118.726 140.01 117.414 141.184 116.096 142.362C116.094 142.37 116.094 142.379 116.096 142.388C116.094 142.394 116.092 142.399 116.088 142.404C116.084 142.409 116.079 142.412 116.074 142.415C116.068 142.417 116.062 142.418 116.056 142.417C116.05 142.417 116.045 142.414 116.04 142.411L115.84 142.591C115.322 144.144 114.752 145.682 114.131 147.206C115.203 146.029 116.279 144.753 117.65 144.002C119.333 143.083 123.469 142.605 123.482 142.618C123.495 142.631 123.466 142.65 123.446 142.66V142.677ZM116.384 141.568C118.122 138.834 119.337 135.801 119.969 132.624C118.919 135.763 117.629 138.818 116.112 141.762C116.112 141.817 116.112 141.873 116.112 141.926C116.194 141.798 116.289 141.673 116.384 141.552V141.568ZM120.025 132.351C119.005 133.745 117.782 135.067 117.057 136.642C116.332 138.216 116.283 139.99 116.112 141.696C117.604 138.657 118.911 135.531 120.025 132.335V132.351ZM120.078 132.564C119.557 135.577 118.448 138.457 116.814 141.04C117.657 140.056 118.575 139.164 119.11 137.868C119.805 136.12 119.946 134.368 120.078 132.548V132.564ZM116.033 141.808C116.158 140.108 116.233 138.298 116.912 136.743C117.631 135.103 118.926 133.627 120.051 132.23C118.756 133.473 116.857 135.162 116.164 136.822C115.508 138.357 115.896 140.141 116.033 141.791V141.808ZM121.465 144.868C120.675 145.737 119.738 146.46 118.697 147.003C117.239 147.737 115.596 148.022 113.977 147.823L113.898 147.889C116.23 148.436 118.162 148.141 119.982 146.478C120.516 145.973 121.011 145.429 121.465 144.851V144.868ZM122.518 143.556C122.091 143.91 121.626 144.228 121.183 144.54C120.495 145.051 119.774 145.517 119.025 145.934C117.425 146.731 115.743 147.354 114.01 147.79C115.73 147.963 117.462 147.607 118.975 146.77C120.376 145.96 121.445 144.733 122.518 143.543V143.556ZM123.174 142.785C121.534 143.277 119.91 143.441 118.3 144.199C116.814 144.914 115.426 146.285 114.219 147.495C114.947 146.873 115.721 146.307 116.535 145.803C115.702 146.386 114.915 147.01 114.141 147.666C115.781 147.085 117.454 146.682 118.982 145.845C120.433 145.079 121.771 144.115 122.957 142.982C120.924 143.818 118.772 144.179 116.948 145.53C118.706 144.186 121.019 143.497 123.115 142.828L123.174 142.785ZM110.28 134.188C110.257 134.277 110.231 134.362 110.208 134.45C110.169 134.962 110.113 135.474 110.041 135.982C109.752 138.055 109.165 140.066 107.948 141.788C107.876 141.893 107.8 141.994 107.722 142.096V142.306V142.116C107.663 142.191 107.607 142.27 107.545 142.345H107.525C107.594 142.263 107.659 142.178 107.722 142.093C107.722 142.054 107.722 142.014 107.722 141.975V141.952L107.702 141.988L107.627 142.129C107.61 142.158 107.568 142.129 107.581 142.099C107.598 142.065 107.613 142.03 107.627 141.994C107.663 141.916 107.699 141.837 107.732 141.758C107.784 140.479 107.807 139.223 108.243 137.993C108.74 136.664 109.391 135.398 110.182 134.221C110.186 134.19 110.193 134.159 110.201 134.129C110.2 134.105 110.2 134.081 110.201 134.057C110.201 134.034 110.238 134.04 110.238 134.057C110.236 134.083 110.236 134.109 110.238 134.136C110.242 134.134 110.247 134.135 110.252 134.136C110.256 134.137 110.261 134.139 110.264 134.142C110.268 134.146 110.27 134.15 110.272 134.154C110.274 134.159 110.274 134.164 110.274 134.168L110.27 134.175L110.28 134.188ZM110.011 135.172C109.683 136.281 109.336 137.383 108.994 138.485C108.634 139.649 108.312 140.856 107.728 141.932C107.728 141.949 107.728 141.962 107.728 141.975C107.728 141.988 107.728 142.047 107.728 142.083C107.784 142.008 107.84 141.932 107.889 141.857C108.648 140.822 109.195 139.647 109.496 138.4C109.729 137.311 109.837 136.222 110.001 135.136L110.011 135.172ZM110.1 134.621C110.1 134.552 110.123 134.487 110.136 134.418C109.417 135.561 108.808 136.769 108.315 138.026C107.94 139.213 107.742 140.45 107.728 141.696C108.709 139.4 109.296 136.963 110.09 134.595L110.1 134.621ZM104.304 151.936H104.186C104.166 151.877 104.14 151.821 104.117 151.762L104.147 151.566C104.202 151.69 104.255 151.812 104.304 151.936Z" fill="#1D1D1D"/>
<path d="M114.502 133.854C116.497 134.037 118.477 134.365 120.425 134.838C121.39 135.087 122.337 135.379 123.282 135.69C123.754 135.844 124.23 135.986 124.706 136.12C125.2 136.278 125.713 136.375 126.231 136.409C126.24 136.409 126.25 136.412 126.256 136.419C126.263 136.426 126.267 136.435 126.267 136.445C126.267 136.454 126.263 136.463 126.256 136.47C126.25 136.477 126.24 136.481 126.231 136.481C125.741 136.505 125.25 136.496 124.761 136.455C124.289 136.397 123.821 136.309 123.361 136.189C122.377 135.946 121.393 135.661 120.432 135.408C118.464 134.9 116.496 134.391 114.479 134.027C114.467 134.026 114.456 134.022 114.446 134.016C114.436 134.011 114.427 134.003 114.42 133.994C114.413 133.985 114.408 133.974 114.405 133.963C114.402 133.952 114.402 133.94 114.403 133.929C114.405 133.918 114.408 133.907 114.414 133.897C114.42 133.887 114.428 133.878 114.437 133.871C114.446 133.864 114.456 133.859 114.467 133.856C114.479 133.853 114.49 133.852 114.502 133.854Z" fill="#263238"/>
<path d="M109.572 135.625C111.215 135.451 112.866 135.372 114.518 135.385C115.348 135.385 116.158 135.454 116.991 135.533C117.385 135.572 117.775 135.615 118.169 135.667C118.562 135.72 119.021 135.835 119.454 135.884C119.5 135.884 119.5 135.959 119.454 135.956C119.044 135.92 118.628 135.956 118.218 135.956L116.984 135.923C116.161 135.904 115.344 135.89 114.511 135.864C112.871 135.808 111.231 135.769 109.568 135.769C109.48 135.759 109.486 135.631 109.572 135.625Z" fill="#263238"/>
<path d="M130.951 107.292C142.073 121.465 154.698 147.81 151.139 152.914C147.174 158.598 131.387 140.778 132.033 139.954C132.581 139.249 127.858 122.2 124.528 109.821C121.199 97.4422 128.202 103.786 130.951 107.292Z" fill="#D3766A"/>
<path d="M144.612 124.312L126.542 125.801C126.542 125.801 123.318 112.773 123.112 105.695C122.997 101.726 125.312 101.785 128.009 104.147C137.432 112.422 144.612 124.312 144.612 124.312Z" fill="#3D66CC"/>
<path opacity="0.1" d="M137.432 116.719C137.432 116.719 137.389 116.558 137.38 116.515C137.38 116.496 137.38 116.489 137.347 116.515C137.314 116.542 135.162 120.071 134.854 121.964C134.719 123.018 134.75 124.087 134.946 125.132L135.31 125.102C135.169 123.915 135.202 122.712 135.408 121.534C135.789 119.786 136.681 118.408 137.294 116.82V116.899C136.53 118.962 135.654 121.209 135.631 123.423C135.687 121.15 136.727 119.235 137.32 117.116C137.482 118.749 137.419 120.397 137.134 122.013C136.936 123.039 136.649 124.045 136.274 125.02H136.415C136.768 124.05 137.038 123.052 137.222 122.036C137.356 121.189 137.433 120.334 137.452 119.477C137.475 118.933 137.507 118.369 137.491 117.811C137.77 119.392 138.078 121.006 137.855 122.59C137.738 123.416 137.486 124.217 137.111 124.961H137.173C137.478 124.32 137.707 123.645 137.855 122.951C138.067 121.794 138.073 120.61 137.875 119.451C138.046 120.162 138.166 120.884 138.232 121.613C138.35 122.751 138.139 123.899 137.626 124.922L138.206 124.876C139.22 122.505 138.15 119.481 137.432 116.719ZM135.585 123.892C135.543 124.282 135.513 124.673 135.497 125.066H135.569C135.569 124.679 135.585 124.292 135.605 123.902C135.608 123.882 135.589 123.879 135.589 123.892H135.585ZM132.633 122.501C132.633 122.413 132.633 122.324 132.617 122.236C132.622 122.232 132.626 122.228 132.628 122.223C132.631 122.218 132.632 122.212 132.632 122.206C132.632 122.2 132.631 122.195 132.628 122.19C132.626 122.184 132.622 122.18 132.617 122.177L132.597 122.157C132.482 120.396 132.361 118.638 131.466 117.063C130.432 115.246 128.671 113.846 127.034 112.589C127.034 112.566 126.929 112.616 126.936 112.622C126.936 114.626 126.762 117.119 127.812 118.92C128.796 120.583 130.81 121.36 132.328 122.393C132.328 122.393 132.351 122.393 132.361 122.41L133.867 125.201L134.306 125.165C133.766 124.264 133.206 123.376 132.627 122.501H132.633ZM130.931 116.984C131.626 118.195 131.771 119.467 132.023 120.737C130.991 117.856 129.399 115.207 127.339 112.944C128.691 114.167 129.99 115.361 130.924 116.984H130.931ZM128.281 118.624C127.408 117.066 127.248 114.528 127.064 112.74C127.471 114.488 127.831 116.41 128.688 117.988C129.498 119.481 130.875 120.655 132.138 121.8C130.747 120.911 129.104 120.12 128.274 118.641L128.281 118.624ZM127.143 112.839C128.98 115.685 130.642 118.64 132.122 121.688C130.865 120.507 129.498 119.356 128.691 117.824C127.884 116.292 127.592 114.515 127.136 112.855L127.143 112.839ZM132.171 121.718C130.777 118.709 129.156 115.811 127.323 113.048C129.437 115.504 131.079 118.328 132.168 121.38C132.204 121.531 132.246 121.681 132.289 121.829L132.171 121.718ZM131.515 125.378C131.27 125.07 131.004 124.78 130.718 124.509C130.703 124.495 130.683 124.488 130.662 124.489C130.642 124.486 130.621 124.488 130.603 124.495C130.584 124.503 130.567 124.515 130.555 124.532C130.543 124.548 130.536 124.568 130.535 124.588C130.533 124.608 130.538 124.629 130.547 124.647C130.449 124.929 130.364 125.207 130.288 125.483L130.616 125.457C130.636 125.326 130.652 125.198 130.669 125.066C130.669 125.093 130.685 125.119 130.692 125.145C130.692 125.247 130.692 125.348 130.675 125.45H130.744C130.744 125.401 130.744 125.352 130.744 125.303C130.744 125.352 130.774 125.398 130.787 125.447H130.875C130.829 125.309 130.78 125.171 130.728 125.037C130.728 125.014 130.728 124.991 130.728 124.968C130.793 125.129 130.862 125.296 130.938 125.444H131.006C130.954 125.342 130.905 125.24 130.856 125.139L131.056 125.44L131.515 125.378ZM126.267 124.594C126.372 125.043 126.454 125.381 126.503 125.578C126.542 125.644 126.578 125.709 126.611 125.778L127.051 125.742C126.836 125.332 126.569 124.952 126.257 124.61L126.267 124.594ZM126.641 103.343C126.641 103.333 126.641 103.323 126.641 103.313C126.677 103.268 126.716 103.218 126.749 103.169C126.674 103.12 126.595 103.074 126.519 103.031L126.218 103.464C124.793 104.218 123.714 105.491 123.203 107.02C123.226 107.348 123.253 107.676 123.285 108.004C123.338 107.787 123.39 107.574 123.449 107.348C123.922 105.583 124.935 104.701 126.25 103.658C126.275 103.666 126.301 103.666 126.326 103.658C126.338 103.656 126.35 103.651 126.361 103.645C126.372 103.638 126.381 103.629 126.388 103.618C126.388 103.655 126.405 103.687 126.411 103.723C126.756 105.278 126.818 107.003 125.824 108.315C125.163 109.101 124.401 109.796 123.558 110.382C123.574 110.506 123.59 110.631 123.61 110.759C124.755 110.047 125.962 109.185 126.533 108.06C127.241 106.646 126.979 104.858 126.631 103.359L126.641 103.343ZM126.592 103.51C126.621 103.484 126.592 103.435 126.546 103.461L126.401 103.592C126.401 103.514 126.401 103.435 126.418 103.356C126.416 103.351 126.413 103.347 126.408 103.344C126.404 103.341 126.399 103.339 126.393 103.339C126.388 103.339 126.383 103.341 126.378 103.344C126.374 103.347 126.37 103.351 126.369 103.356C126.369 103.451 126.352 103.546 126.342 103.645L126.313 103.674C124.906 104.974 123.871 106.624 123.315 108.456C123.315 108.499 123.315 108.542 123.315 108.584C123.489 107.993 123.717 107.419 123.994 106.869C124.591 105.708 125.377 104.654 126.319 103.75C126.319 103.766 126.319 103.786 126.319 103.802C125.639 104.721 125.059 105.711 124.591 106.754C125.07 105.724 125.646 104.742 126.313 103.822C126.188 105.219 126.008 106.593 125.303 107.846C124.801 108.684 124.196 109.455 123.502 110.142C123.5 110.172 123.5 110.201 123.502 110.231C124.306 109.49 124.98 108.62 125.496 107.656C126.106 106.446 126.277 105.072 126.365 103.72L126.405 103.668C126.405 103.668 126.405 103.645 126.385 103.668L126.362 103.704V103.684L126.592 103.51ZM124.102 107.738C123.863 108.217 123.623 108.693 123.394 109.175C123.394 109.214 123.394 109.25 123.394 109.29C123.62 108.771 123.85 108.253 124.102 107.745C124.109 107.755 124.096 107.745 124.092 107.755L124.102 107.738Z" fill="#1D1D1D"/>
<path d="M126.936 122.905C129.698 122.446 137.222 121.412 142.198 121.383C142.227 121.383 142.24 121.498 142.198 121.501C138.062 122.157 129.734 122.856 126.943 123.072C126.906 123.079 126.887 122.911 126.936 122.905Z" fill="#263238"/>
<path d="M128.743 125.624C128.006 125.624 127.269 125.639 126.533 125.67L126.674 125.775C126.346 123.784 125.929 121.813 125.483 119.848C125.037 117.883 124.545 115.912 123.958 113.99C124.233 115.991 124.614 117.972 125.017 119.946C125.421 121.921 125.89 123.882 126.411 125.834L126.441 125.955L126.552 125.939C127.284 125.847 128.015 125.745 128.743 125.624Z" fill="#263238"/>
<path d="M124.765 117.936C124.645 117.524 124.478 117.128 124.266 116.755C124.06 116.378 123.824 116.018 123.561 115.679C123.581 115.896 123.632 116.109 123.712 116.312C123.785 116.514 123.875 116.709 123.981 116.896C124.185 117.282 124.45 117.633 124.765 117.936Z" fill="#263238"/>
<path d="M123.735 104.353C123.64 105.209 120.307 111.084 116.486 111.356C115.24 111.441 114.465 104.658 114.465 104.658L114.292 104.17L111.894 97.3406L119.5 91.0823L120.606 90.2394C120.606 90.2394 121.137 92.1516 121.777 94.5394C121.809 94.651 121.839 94.7592 121.868 94.8674C121.898 94.9757 121.947 95.1266 121.98 95.2545C122.078 95.6087 122.18 95.9728 122.272 96.3369C122.344 96.6124 122.416 96.8814 122.478 97.1733C122.541 97.4652 122.616 97.7538 122.688 98.0458C123.328 100.958 123.771 103.992 123.735 104.353Z" fill="#D3766A"/>
<path d="M121.777 94.5394C121.303 96.592 120.389 98.5168 119.096 100.18C117.803 101.843 116.164 103.204 114.292 104.17L111.894 97.3406L119.5 91.0823L120.606 90.2394C120.606 90.2394 121.137 92.168 121.777 94.5394Z" fill="#263238"/>
<path d="M122.498 91.512C122.725 91.7799 122.896 92.0897 123.003 92.4238C123.485 93.9425 122.806 95.5038 121.954 96.7403C121.039 98.0523 119.753 99.2561 119.31 100.837C119.104 101.454 119.132 102.125 119.389 102.723C119.717 103.379 120.373 103.707 121.045 103.901C121.718 104.094 122.642 104.189 123.128 104.822C123.306 105.095 123.418 105.407 123.453 105.731C123.488 106.055 123.447 106.383 123.331 106.689C122.846 108.26 121.153 109.08 120.146 110.297C119.064 111.581 118.394 113.162 118.224 114.833C118.079 116.398 118.392 117.972 119.126 119.362C119.477 120.043 119.925 120.67 120.455 121.222C121.048 121.832 121.767 122.305 122.387 122.885C123.007 123.466 123.505 124.155 123.482 124.984C123.482 125.624 122.17 127.608 119.451 128.592C119.258 128.661 119.395 129.009 119.618 129.009C120.047 129.017 120.475 128.998 120.901 128.953C122.659 128.772 124.35 128.176 125.833 127.213C127.315 126.251 128.548 124.949 129.429 123.417C130.358 121.761 130.867 119.903 130.911 118.005C130.938 116.952 130.879 115.886 131.082 114.846C131.28 113.936 131.693 113.087 132.286 112.37C133.391 110.976 134.821 109.86 135.684 108.276C136.438 106.846 136.826 105.251 136.812 103.635C136.794 101.974 136.419 100.337 135.711 98.8353C135.004 97.3331 133.981 96.001 132.712 94.9298C130.193 92.7551 122.374 91.3611 122.498 91.512Z" fill="#263238"/>
<path d="M122.567 91.5973C122.972 92.1591 123.243 92.8067 123.358 93.4898C123.424 94.115 123.331 94.7467 123.089 95.3266C122.57 96.6386 121.573 97.6226 120.619 98.6066C119.723 99.5414 118.821 100.575 118.615 101.903C118.513 102.472 118.575 103.057 118.792 103.592C119.064 104.161 119.551 104.599 120.146 104.809C121.222 105.245 122.721 105.465 123.134 106.734C123.548 108.004 122.505 109.165 121.767 110.031C119.966 112.146 117.316 114.623 118.031 117.716C118.395 119.28 119.422 120.747 120.468 121.934C121.222 122.793 122.187 123.869 121.983 125.106C121.983 125.152 121.908 125.129 121.914 125.086C122.108 123.774 120.957 122.862 120.146 122.019C119.168 121.028 118.389 119.859 117.85 118.575C117.35 117.278 117.38 115.836 117.932 114.561C118.47 113.232 119.369 112.12 120.314 111.061C120.799 110.516 121.298 109.982 121.763 109.421C122.223 108.938 122.569 108.359 122.777 107.725C122.865 107.407 122.849 107.068 122.731 106.76C122.613 106.451 122.399 106.188 122.121 106.01C121.554 105.619 120.881 105.472 120.245 105.232C119.668 105.049 119.158 104.701 118.775 104.232C118.486 103.832 118.305 103.364 118.251 102.874C118.15 101.758 118.469 100.644 119.146 99.7514C120.058 98.4722 121.37 97.5308 122.259 96.2352C122.744 95.5804 123.044 94.8062 123.125 93.995C123.174 93.1389 122.797 92.4206 122.429 91.6793C122.426 91.6621 122.428 91.6443 122.435 91.6283C122.442 91.6123 122.454 91.599 122.469 91.59C122.484 91.581 122.502 91.5769 122.519 91.5782C122.537 91.5795 122.553 91.5862 122.567 91.5973Z" fill="#263238"/>
<path d="M134.168 94.8904C136.766 97.0388 137.776 100.594 137.186 103.845C136.832 105.659 136.052 107.364 134.91 108.817C133.863 110.182 132.614 111.441 131.866 113.012C131.049 114.757 131.334 116.64 131.338 118.5C131.344 120.001 131.023 121.486 130.4 122.852C129.175 125.509 126.949 127.574 124.207 128.596C123.863 128.725 123.511 128.834 123.154 128.924C123.149 128.926 123.144 128.927 123.139 128.927C123.133 128.927 123.128 128.926 123.123 128.923C123.119 128.921 123.114 128.918 123.111 128.913C123.108 128.909 123.105 128.904 123.104 128.899C123.103 128.894 123.103 128.889 123.104 128.883C123.105 128.878 123.107 128.873 123.11 128.869C123.114 128.865 123.118 128.861 123.123 128.859C123.127 128.856 123.132 128.855 123.138 128.855C125.949 128.107 128.297 126.037 129.645 123.489C130.314 122.233 130.718 120.853 130.833 119.435C130.967 117.683 130.583 115.915 130.947 114.187C131.275 112.547 132.348 111.218 133.391 109.972C134.532 108.611 135.648 107.263 136.281 105.58C137.458 102.457 137.052 98.7969 134.883 96.1958C132.463 93.293 128.628 92.4271 125.043 92.063L123.604 91.922C123.551 91.922 123.548 91.8334 123.604 91.8367C127.264 92.0237 131.233 92.4632 134.168 94.8904Z" fill="#263238"/>
<path d="M123.21 89.6424C123.768 89.767 124.378 90.341 124.387 90.7248C124.397 91.1086 122.593 93.4734 121.855 93.5325C121.117 93.5915 120.812 92.2566 120.812 92.2566L123.21 89.6424Z" fill="#3D66CC"/>
<path d="M100.539 88.232C101.874 100.863 109.585 101.496 112.304 101.208C114.774 100.945 123.151 99.7415 123.128 87.0381C123.105 74.3346 116.817 70.9661 111.136 71.2613C105.455 71.5565 99.2036 75.604 100.539 88.232Z" fill="#D3766A"/>
<path d="M101.929 86.8741C102.207 86.7865 102.48 86.6836 102.746 86.5658C103.048 86.4997 103.319 86.3346 103.517 86.0967C103.565 86.0101 103.583 85.9101 103.568 85.8122C103.553 85.7143 103.506 85.6241 103.435 85.5555C103.273 85.4412 103.083 85.3724 102.885 85.3562C102.687 85.3401 102.488 85.3772 102.31 85.4637C101.921 85.582 101.591 85.8403 101.382 86.1886C101.338 86.271 101.32 86.3642 101.329 86.4569C101.337 86.5496 101.373 86.6377 101.431 86.7105C101.489 86.7832 101.567 86.8374 101.656 86.8665C101.744 86.8955 101.839 86.8982 101.929 86.8741Z" fill="#263238"/>
<path d="M110.484 85.5424C110.192 85.5408 109.901 85.5244 109.611 85.4932C109.302 85.5179 108.993 85.4407 108.732 85.2734C108.661 85.2039 108.615 85.1129 108.6 85.0145C108.586 84.9161 108.605 84.8158 108.653 84.729C108.774 84.5723 108.934 84.4505 109.118 84.3761C109.301 84.3018 109.501 84.2775 109.696 84.3058C110.103 84.3043 110.496 84.4539 110.798 84.7257C110.864 84.7912 110.909 84.8744 110.928 84.965C110.947 85.0557 110.94 85.1499 110.906 85.2364C110.873 85.3228 110.815 85.3978 110.74 85.4521C110.665 85.5064 110.576 85.5378 110.484 85.5424Z" fill="#263238"/>
<path d="M108.971 88.9044C108.971 88.8716 109.044 88.9372 109.047 88.9733C109.129 89.8294 109.375 90.7937 110.175 90.9774C110.201 90.9774 110.205 91.0266 110.175 91.0266C109.224 91.0167 108.912 89.731 108.971 88.9044Z" fill="#263238"/>
<path d="M109.618 87.904C110.976 87.6219 111.438 90.3574 110.178 90.6198C108.919 90.8822 108.479 88.1533 109.618 87.904Z" fill="#263238"/>
<path d="M110.178 87.9696C110.444 88.0844 110.726 88.3206 111.018 88.2976C111.31 88.2746 111.559 87.9466 111.733 87.6416C111.75 87.6088 111.776 87.6416 111.782 87.6646C111.881 88.1894 111.782 88.7601 111.222 88.9339C110.661 89.1078 110.274 88.6879 110.054 88.1828C110.014 88.0844 110.074 87.9237 110.178 87.9696Z" fill="#263238"/>
<path d="M104.232 89.521C104.232 89.4915 104.173 89.5735 104.179 89.6063C104.356 90.4493 104.416 91.4431 103.7 91.8597C103.678 91.8597 103.7 91.9154 103.7 91.9056C104.632 91.6071 104.534 90.2918 104.232 89.521Z" fill="#263238"/>
<path d="M103.32 88.7699C101.939 88.9077 102.316 91.6563 103.592 91.5317C104.868 91.407 104.475 88.6551 103.32 88.7699Z" fill="#263238"/>
<path d="M102.772 89.029C102.572 89.2062 102.395 89.4981 102.136 89.5538C101.877 89.6096 101.575 89.3472 101.345 89.0881C101.322 89.0618 101.303 89.0881 101.306 89.1242C101.365 89.649 101.614 90.1738 102.133 90.2066C102.651 90.2394 102.88 89.7375 102.933 89.1963C102.946 89.0979 102.851 88.9602 102.772 89.029Z" fill="#263238"/>
<path d="M110.894 95.12C110.756 95.3726 110.641 95.7006 110.352 95.8186C110.044 95.9064 109.721 95.9287 109.404 95.8842C109.378 95.8842 109.358 95.9203 109.385 95.9367C109.551 96.0619 109.749 96.1395 109.956 96.1615C110.164 96.1834 110.373 96.1488 110.562 96.0614C110.716 95.9657 110.839 95.8263 110.913 95.6611C110.988 95.4958 111.012 95.312 110.982 95.1331C110.982 95.0872 110.913 95.0905 110.894 95.12Z" fill="#263238"/>
<path d="M106.682 93.2274C106.682 93.2274 106.82 94.5165 106.967 95.1036C106.967 95.1594 107.128 95.1495 107.331 95.1036C107.331 95.1036 107.331 95.1036 107.354 95.1036C107.882 95.0691 108.39 94.8902 108.823 94.5865C109.255 94.2828 109.596 93.866 109.808 93.3816C109.834 93.3127 109.742 93.2734 109.7 93.3226C109.078 94.0209 108.247 94.5005 107.331 94.6903C107.249 94.5362 107.167 92.4763 107.072 92.4927C106.626 92.6464 106.202 92.8593 105.813 93.1258C105.445 90.4526 105.511 87.74 105.108 85.0799C105.108 85.0582 105.099 85.0373 105.084 85.0219C105.068 85.0066 105.047 84.9979 105.026 84.9979C105.004 84.9979 104.983 85.0066 104.968 85.0219C104.952 85.0373 104.944 85.0582 104.944 85.0799C104.675 87.9171 105.029 91.0069 105.337 93.7785C105.373 94.136 106.472 93.3849 106.682 93.2274Z" fill="#263238"/>
<path d="M105.462 75.8861C105.462 75.8861 105.501 77.8836 106.518 79.0447C108.611 81.4326 111.717 79.7696 113.157 80.5404C114.505 81.262 114.734 83.4924 115.984 84.2402C117.716 85.28 119.369 84.2173 119.858 85.1094C120.346 86.0016 121.8 88.0057 123.121 88.0614C124.443 88.1172 124.817 66.9218 108.548 71.3334C106.592 71.7322 104.78 72.6499 103.3 73.9902C100.168 76.9783 100.319 84.2337 100.319 84.2337C100.319 84.2337 100.371 84.1254 100.778 83.4924C101.352 82.6002 101.47 81.8918 101.903 81.2948C102.589 80.3567 103.146 80.4814 103.871 79.5498C104.96 78.1066 105.462 75.8861 105.462 75.8861Z" fill="#263238"/>
<path d="M105.455 74.9382C105.432 75.7979 105.508 76.6575 105.682 77.4998C105.803 78.3327 106.15 79.1164 106.685 79.7663C107.286 80.3314 108.072 80.659 108.896 80.688C109.726 80.7536 110.579 80.5994 111.481 80.688C111.947 80.733 112.392 80.9055 112.766 81.1866C113.106 81.4936 113.381 81.8649 113.577 82.2788C113.973 83.0463 114.374 83.8007 115.076 84.2304C115.426 84.4493 115.82 84.5888 116.231 84.6393C116.641 84.6897 117.057 84.6498 117.45 84.5223C118.247 84.2993 119.064 83.8237 119.943 83.9549C119.057 83.8958 118.323 84.4141 117.509 84.7126C117.088 84.8683 116.638 84.93 116.19 84.8931C115.742 84.8563 115.308 84.7219 114.918 84.4994C114.092 84.0566 113.655 83.1874 113.255 82.4559C113.077 82.0894 112.829 81.7616 112.524 81.4916C112.203 81.2612 111.825 81.1228 111.431 81.0914C110.618 80.9898 109.752 81.1308 108.866 81.0521C108.416 81.0194 107.974 80.9176 107.554 80.7503C107.123 80.5964 106.738 80.3344 106.436 79.9894C105.895 79.2779 105.561 78.4314 105.468 77.5425C105.362 76.6779 105.357 75.8038 105.455 74.9382Z" fill="#263238"/>
<path d="M105.357 75.7483C105.416 76.5538 105.366 77.3636 105.209 78.1558C105.071 78.9815 104.691 79.7476 104.117 80.3567C103.816 80.6363 103.486 80.8836 103.133 81.0947C102.83 81.2966 102.59 81.5796 102.441 81.9114C102.337 82.3026 102.195 82.6827 102.018 83.0463C101.808 83.3975 101.521 83.696 101.178 83.9188C101.458 83.6451 101.681 83.3185 101.834 82.9578C101.974 82.5884 102.076 82.206 102.139 81.8163C102.278 81.4023 102.544 81.0429 102.9 80.7897C103.225 80.5778 103.531 80.3386 103.815 80.0746C104.332 79.5096 104.697 78.8221 104.875 78.0771C105.088 77.3127 105.249 76.5346 105.357 75.7483Z" fill="#263238"/>
<path d="M120.963 88.232C120.963 88.232 122.931 83.8138 124.879 84.4436C126.828 85.0734 125.883 91.1086 123.961 92.2828C123.725 92.4504 123.457 92.5684 123.174 92.6297C122.891 92.691 122.598 92.6943 122.314 92.6394C122.029 92.5846 121.759 92.4727 121.519 92.3105C121.279 92.1483 121.074 91.9391 120.917 91.6957L120.963 88.232Z" fill="#D3766A"/>
<path d="M124.565 86.159C124.597 86.159 124.61 86.1951 124.584 86.2115C123.246 87.0807 122.744 88.5764 122.482 90.0786C122.81 89.4554 123.338 89.0487 124.158 89.4226C124.2 89.4423 124.178 89.5079 124.135 89.5079C123.864 89.4749 123.589 89.5273 123.349 89.6579C123.109 89.7884 122.916 89.9905 122.797 90.2361C122.601 90.644 122.449 91.0718 122.344 91.512C122.301 91.653 122.052 91.6301 122.075 91.4694C122.075 91.4694 122.075 91.4464 122.075 91.4366C121.688 89.603 122.613 86.7298 124.565 86.159Z" fill="#263238"/>
<path d="M150.9 153.373C146.636 155.944 132.286 154.272 113.088 149.906C110.431 149.302 116.768 130.882 119.648 131.39C123.256 132.02 137.153 135.244 138.14 135.608C146.449 138.678 153.783 151.628 150.9 153.373Z" fill="#D3766A"/>
<path d="M124.542 133.188C124.542 133.188 123.387 132.761 117.654 129.517C113.691 127.274 102.602 124.345 92.6731 132.417C88.8683 135.513 89.3767 139.531 93.8998 137.009C97.0847 135.238 99.1479 133.729 100.342 133.453C100.342 133.453 98.213 138.61 99.935 141.345C101.447 143.741 103.126 146.028 104.96 148.187C105.431 147.941 105.885 147.666 106.321 147.364C107.097 148.379 108.144 149.155 109.34 149.603C110.537 150.051 111.836 150.152 113.088 149.896L124.542 133.188Z" fill="#D3766A"/>
<path d="M113.531 127.982C111.192 128.461 106.272 129.56 102.53 131.856C98.3902 134.414 91.1086 140.466 93.0175 143.5C94.4246 145.727 97.4094 143.661 97.4094 143.661C97.4094 143.661 94.9265 146.796 96.6386 148.528C98.1999 150.109 100.414 148.371 100.414 148.371C100.414 148.371 99.2331 150.532 101.031 151.762C103.189 153.245 105.295 148.482 108.791 148.082C109.588 148.007 113.531 127.982 113.531 127.982Z" fill="#D3766A"/>
<path d="M105.964 135.792C103.842 136.605 99.489 139.689 97.416 143.579C97.3701 143.664 97.416 143.749 97.4718 143.677C99.9856 140.726 102.849 138.091 106 135.831C106.01 135.815 105.99 135.792 105.964 135.792Z" fill="#263238"/>
<path d="M108.43 140.056C106.669 140.945 102.323 144.32 100.361 148.335C100.316 148.427 100.361 148.505 100.42 148.433C102.773 145.357 105.469 142.56 108.456 140.095C108.476 140.056 108.45 140.033 108.43 140.056Z" fill="#263238"/>
<path d="M100.42 148.42C99.7718 148.882 99.005 149.149 98.2098 149.191C97.8058 149.198 97.4074 149.096 97.0572 148.894C96.7071 148.692 96.4184 148.399 96.2221 148.046C96.0443 147.68 95.963 147.275 95.9859 146.869C96.0161 146.468 96.0999 146.073 96.2352 145.694C96.5075 144.941 96.9008 144.238 97.3996 143.612L97.5275 143.753C96.9013 144.187 96.1942 144.492 95.448 144.648C95.0697 144.73 94.6783 144.73 94.3 144.648C93.9164 144.551 93.5675 144.349 93.293 144.064C93.0205 143.78 92.8202 143.435 92.7092 143.057C92.6089 142.68 92.5866 142.286 92.6436 141.899C92.7789 141.148 93.0645 140.432 93.4833 139.794C93.8877 139.159 94.3607 138.57 94.8937 138.039C95.4086 137.504 95.94 136.983 96.4779 136.471C97.5452 135.427 98.6687 134.441 99.8432 133.519L100.004 133.798C98.9142 134.286 97.852 134.833 96.8223 135.438C96.3074 135.74 95.8154 136.064 95.3332 136.422C94.8408 136.781 94.3185 137.097 93.7719 137.366C93.2237 137.644 92.6382 137.841 92.0335 137.95C91.7199 138.004 91.3993 138.004 91.0856 137.95C90.7555 137.887 90.4595 137.707 90.2525 137.442C90.0531 137.177 89.9439 136.855 89.9409 136.523C89.9355 136.206 89.9878 135.891 90.095 135.592C90.3084 135.016 90.613 134.477 90.997 133.998C91.7617 133.056 92.6601 132.232 93.6637 131.551C94.6443 130.855 95.6724 130.228 96.7403 129.675C98.8692 128.552 101.174 127.801 103.556 127.454C101.192 127.854 98.9139 128.653 96.819 129.819C95.7647 130.382 94.7509 131.018 93.785 131.722C92.8108 132.402 91.9412 133.22 91.2037 134.152C90.8419 134.613 90.5573 135.129 90.3607 135.68C90.1705 136.215 90.141 136.842 90.4788 137.265C90.8166 137.688 91.43 137.757 91.9876 137.668C92.5591 137.562 93.1117 137.372 93.6276 137.104C94.1564 136.841 94.6613 136.533 95.1364 136.182C95.623 135.823 96.1277 135.489 96.6485 135.182C97.6854 134.57 98.7588 134.022 99.8629 133.542L101.175 132.961L100.04 133.772C98.875 134.678 97.7582 135.645 96.6944 136.668C96.1565 137.175 95.6295 137.693 95.1134 138.222C94.591 138.737 94.1278 139.308 93.7326 139.925C93.3321 140.527 93.0576 141.204 92.9257 141.916C92.8705 142.264 92.8861 142.62 92.9716 142.962C93.0649 143.301 93.2394 143.611 93.48 143.867C93.7193 144.122 94.0248 144.305 94.3623 144.395C94.7087 144.479 95.0688 144.486 95.4185 144.418C96.1335 144.28 96.8136 144 97.4193 143.595L97.9277 143.267L97.5472 143.733C97.0572 144.339 96.6664 145.018 96.3894 145.747C96.252 146.11 96.1627 146.489 96.1237 146.875C96.0937 147.259 96.1626 147.644 96.3238 147.994C96.506 148.337 96.7779 148.624 97.1106 148.825C97.4433 149.027 97.8243 149.133 98.213 149.135C99.0017 149.11 99.7672 148.862 100.42 148.42Z" fill="#263238"/>
<path d="M144.842 140.666C144.186 139.928 142.286 137.593 139.266 136.074C136.622 134.762 132.86 134.05 130.898 133.814C130.849 133.814 130.826 133.863 130.875 133.88C132.568 134.457 136.015 135.192 138.846 136.556C141.019 137.645 143.021 139.045 144.789 140.712C144.822 140.742 144.871 140.712 144.842 140.666Z" fill="#263238"/>
<path d="M73.659 79.8319C73.6579 82.0383 74.2701 84.2016 75.4272 86.0802C76.5843 87.9589 78.2408 89.4789 80.2117 90.4707C82.1826 91.4624 84.3904 91.8869 86.5886 91.6966C88.7868 91.5063 90.8888 90.7088 92.66 89.3931L98.4918 90.8822L96.0646 85.4506C96.9181 83.8546 97.3966 82.0852 97.4636 80.2766C97.5306 78.468 97.1845 76.668 96.4515 75.0133C95.7185 73.3586 94.6179 71.8927 93.2334 70.7272C91.8489 69.5616 90.2169 68.727 88.4614 68.2868C86.706 67.8466 84.8733 67.8124 83.1026 68.1867C81.332 68.561 79.6699 69.3341 78.2429 70.4471C76.8158 71.5602 75.6612 72.9839 74.867 74.6101C74.0727 76.2363 73.6595 78.0221 73.659 79.8319Z" fill="white"/>
<path d="M73.659 79.8319C73.6731 82.0346 74.2939 84.1909 75.4531 86.0639C75.741 86.5282 76.0576 86.9741 76.401 87.3989C76.757 87.8144 77.1382 88.2077 77.5425 88.5764C77.7524 88.7535 77.9361 88.9569 78.1624 89.1143L78.8184 89.5998C79.0382 89.7638 79.2842 89.8884 79.5138 90.0327L79.8647 90.2426C79.9861 90.3115 80.1107 90.364 80.2354 90.423C80.4814 90.5378 80.7274 90.6592 80.9766 90.7707L81.7442 91.0495C82.0011 91.1428 82.2641 91.2185 82.5314 91.2758C82.797 91.3382 83.0562 91.4234 83.3251 91.4595C83.8614 91.5576 84.404 91.6168 84.9487 91.6366C85.4951 91.6753 86.0437 91.6676 86.5887 91.6137C87.6738 91.5146 88.74 91.2662 89.7572 90.8757C90.7697 90.4787 91.7241 89.9469 92.5944 89.2947L92.637 89.2619H92.6928L98.5312 90.7248L98.3639 90.9249L95.9236 85.4965L95.8908 85.4276L95.9302 85.3587C96.7714 83.7832 97.2437 82.0372 97.3113 80.2524C97.3789 78.4677 97.0401 76.6909 96.3205 75.0562C95.5893 73.4209 94.509 71.9655 93.1553 70.7922C91.7905 69.6305 90.1784 68.7958 88.4419 68.3519C86.7009 67.9036 84.8809 67.8554 83.1185 68.2109C80.4514 68.7642 78.0558 70.2183 76.3339 72.329C74.612 74.4397 73.6687 77.0785 73.6622 79.8024L73.659 79.8319ZM73.659 79.8319C73.6627 78.0201 74.078 76.2327 74.8735 74.6049C75.669 72.977 76.8239 71.551 78.251 70.4347C79.6736 69.3084 81.3356 68.5235 83.1092 68.1402C84.8827 67.757 86.7205 67.7856 88.4813 68.224C90.2547 68.6542 91.9063 69.4844 93.3095 70.6512C94.7163 71.8245 95.8363 73.304 96.5839 74.9764C97.3314 76.6489 97.6867 78.4701 97.6226 80.301C97.5629 82.1368 97.0767 83.9336 96.2024 85.549V85.4079L98.6165 90.8462L98.7378 91.1184L98.4492 91.043L92.6239 89.5276L92.7223 89.5079C90.9334 90.8307 88.8098 91.6261 86.592 91.8039C86.0461 91.8459 85.4979 91.8459 84.952 91.8039C84.4014 91.775 83.8534 91.7082 83.312 91.6038C83.0398 91.5645 82.7774 91.4726 82.5084 91.4103C82.2413 91.347 81.9784 91.267 81.7212 91.1709L80.9471 90.8822C80.6978 90.7674 80.4518 90.6395 80.2058 90.5214C80.0845 90.4591 79.9566 90.4034 79.8385 90.3378L79.4875 90.1213C79.2546 89.9704 79.0119 89.8425 78.7922 89.6785L78.1362 89.1799C77.9198 89.0122 77.7128 88.8326 77.5162 88.642C77.1119 88.2699 76.7307 87.8734 76.3748 87.4546C76.0333 87.0245 75.7179 86.5743 75.4302 86.1066C74.2703 84.2193 73.6572 82.0471 73.659 79.8319Z" fill="#263238"/>
<path d="M89 77H87V76C87 75.445 86.555 75 86 75H84C83.445 75 83 75.445 83 76V77H81C80.445 77 80.005 77.445 80.005 78L80 83.5C80 84.055 80.445 84.5 81 84.5H89C89.555 84.5 90 84.055 90 83.5V78C90 77.445 89.555 77 89 77ZM86 77H84V76H86V77Z" fill="#FF9919"/>
<path d="M120.835 150.631H76.7946V152.605H120.835V150.631Z" fill="#455A64"/>
<path d="M98.9609 150.631H76.7946V152.605H98.9609V150.631Z" fill="#37474F"/>
<path d="M97.6161 152.602H54.694L49.0852 123.453H92.004L97.6161 152.602Z" fill="#37474F"/>
<path d="M95.8711 152.602H52.949L47.337 123.453H90.259L95.8711 152.602Z" fill="#455A64"/>
<path d="M74.2166 138.029C74.2544 138.362 74.2207 138.7 74.1175 139.02C74.0144 139.339 73.8443 139.633 73.6186 139.881C73.3929 140.129 73.1167 140.327 72.8086 140.46C72.5005 140.593 72.1676 140.659 71.832 140.653C71.1191 140.64 70.4357 140.366 69.912 139.882C69.3882 139.398 69.0606 138.739 68.9915 138.029C68.9531 137.695 68.9865 137.357 69.0894 137.038C69.1923 136.718 69.3624 136.424 69.5882 136.176C69.814 135.927 70.0904 135.73 70.3988 135.597C70.7071 135.464 71.0403 135.399 71.3761 135.405C72.0888 135.418 72.7717 135.693 73.2954 136.177C73.819 136.66 74.1468 137.32 74.2166 138.029Z" fill="white"/>
</svg>
