<svg width="358" height="358" viewBox="0 0 358 358" fill="none" xmlns="http://www.w3.org/2000/svg">
<path d="M287.882 277.5H313.057V269.488H287.882V277.5Z" fill="#EBEBEB"/>
<path d="M226.607 198.461H251.781V190.449H226.607V198.461Z" fill="#EBEBEB"/>
<path d="M301.923 287.596L314.596 287.388L320.861 287.302H327.097L326.768 287.624V279.612L327.126 279.97L314.539 279.927L308.245 279.863L301.952 279.784L302.123 279.612L301.923 287.596ZM301.923 287.596L301.758 279.584V279.419H301.93L308.224 279.34L314.517 279.276L327.105 279.226H327.463V279.584V287.596V287.925H327.14H320.79L314.467 287.839L301.923 287.596Z" fill="#EBEBEB"/>
<path d="M142.119 92.2711L154.792 92.0634L161.057 91.9775L167.293 91.9417L166.971 92.2711V84.259L167.329 84.617L154.742 84.5669L148.448 84.5096L142.155 84.4309L142.326 84.259L142.119 92.2711ZM142.119 92.2711L141.954 84.259V84.0944H142.126L148.42 84.0156L154.713 83.9583L167.301 83.9082H167.659V84.2662V92.2782V92.6076H167.329L160.978 92.5718L154.656 92.4859L142.119 92.2711Z" fill="#EBEBEB"/>
<path d="M156.167 102.388L168.84 102.18L175.098 102.094H181.334L181.012 102.424L180.976 94.4118L181.334 94.7698L168.754 94.7197L162.46 94.6624L156.167 94.5836L156.331 94.4118L156.167 102.388ZM156.167 102.388L155.995 94.376V94.2113H156.174L162.468 94.1325L168.761 94.0753L181.341 94.0251H181.706V94.3831V102.395V102.725H181.377L175.033 102.689L168.704 102.603L156.167 102.388Z" fill="#EBEBEB"/>
<path d="M170.15 92.271H195.325V84.259H170.15V92.271Z" fill="#EBEBEB"/>
<path d="M30.9026 287.603H56.0771V279.591H30.9026V287.603Z" fill="#EBEBEB"/>
<path d="M44.9433 40.1892H70.1179V32.1772H44.9433V40.1892Z" fill="#EBEBEB"/>
<path d="M30.9026 50.2848L43.5758 50.0772L49.8408 49.9913H56.0771L55.7478 50.3135V42.3014L56.1058 42.6594L43.5185 42.6093L37.232 42.5234L30.9384 42.4446L31.0744 42.2442L30.9026 50.2848ZM30.9026 50.2848L30.7307 42.2442V42.0795H30.9026L37.232 42.0294L43.5256 41.9649L56.1129 41.9148H56.4709V42.2442V50.2562V50.5856H56.1487H49.7978L43.4755 50.4996L30.9026 50.2848Z" fill="#EBEBEB"/>
<path d="M287.882 40.1821L300.555 39.9744L306.82 39.8885H313.057L312.727 40.2107V32.1987L313.085 32.5567L300.498 32.5065L294.204 32.4493L287.911 32.3705L288.083 32.1987L287.882 40.1821ZM287.882 40.1821L287.71 32.17V32.0053H287.882L294.176 31.9266L300.469 31.8621L313.057 31.812H313.415V32.17L313.379 40.1821V40.5114H313.057H306.706L300.383 40.4255L287.882 40.1821Z" fill="#EBEBEB"/>
<path d="M224.659 30.8955V170.516H315.398V30.8955H224.659ZM312.047 167.157H228.003V34.2464H312.047V167.157Z" fill="#EBEBEB"/>
<path d="M312.047 34.2463H228.003V167.157H312.047V34.2463Z" fill="white"/>
<path d="M228.003 102.374L312.047 102.374V99.0229L228.003 99.0229V102.374Z" fill="#EBEBEB"/>
<path d="M218.495 180.11H321.563V170.501H218.495V180.11Z" fill="#DBDBDB"/>
<path d="M228.003 34.2463H312.047V120.231H228.003V34.2463ZM308.947 37.3466H231.103V117.13H308.947V37.3466Z" fill="#DBDBDB"/>
<path d="M285.226 34.2463H283.55V117.138H285.226V34.2463Z" fill="#DBDBDB"/>
<path d="M256.5 34.2463H254.824V117.138H256.5V34.2463Z" fill="#DBDBDB"/>
<path d="M42.6091 30.8955V170.516H133.348V30.8955H42.6091ZM130.004 167.157H45.96V34.2464H130.004V167.157Z" fill="#EBEBEB"/>
<path d="M130.004 34.2463H45.96V167.157H130.004V34.2463Z" fill="white"/>
<path d="M45.96 102.374L130.004 102.374V99.0229L45.96 99.0229V102.374Z" fill="#EBEBEB"/>
<path d="M36.4372 180.11H139.505V170.501H36.4372V180.11Z" fill="#DBDBDB"/>
<path d="M45.9529 34.2463H129.997V120.231H45.9529V34.2463ZM126.861 37.3466H49.0532V117.13H126.897L126.861 37.3466Z" fill="#DBDBDB"/>
<path d="M103.176 34.2463H101.5V117.138H103.176V34.2463Z" fill="#DBDBDB"/>
<path d="M74.4568 34.2463H72.7814V117.138H74.4568V34.2463Z" fill="#DBDBDB"/>
<path d="M29.6782 318.591L67.0104 318.42L104.343 318.355L179 318.233L253.657 318.355L290.99 318.412L328.322 318.591L290.99 318.763L253.657 318.828L179 318.949L104.343 318.828L67.0104 318.763L29.6782 318.591Z" fill="#263238"/>
<path d="M327.878 213.432H237.025V226.328H327.878V213.432Z" fill="#455A64"/>
<path d="M325.716 226.328H239.194V230.516H325.716V226.328Z" fill="#455A64"/>
<path d="M325.716 226.328H239.194V227.717H325.716V226.328Z" fill="#263238"/>
<path d="M240.046 318.949H236.588L246.655 230.509H255.483L240.046 318.949Z" fill="#455A64"/>
<path d="M255.483 230.516L254.452 236.43H245.982L246.655 230.516H255.483Z" fill="#263238"/>
<path d="M324.864 318.949H328.322L318.255 230.509H309.419L324.864 318.949Z" fill="#455A64"/>
<path d="M309.419 230.516L310.458 236.43H318.921L318.248 230.516H309.419Z" fill="#263238"/>
<path d="M304.722 265.686C304.024 268.24 303.561 270.852 303.341 273.491C303.412 273.619 303.398 274.099 303.341 273.97C303.341 274.4 302.675 274.321 302.675 273.899C302.675 273.619 302.675 273.347 302.675 273.075C301.15 271.185 298.937 269.989 297.147 268.343C295.707 267.051 294.657 265.382 294.118 263.524C292.636 258.404 294.025 252.984 292.243 247.886C290.703 243.49 287.947 239.667 285.605 235.714C283.142 231.497 281.309 227.072 281.137 222.11C280.994 218.33 281.445 213.289 284.324 210.461C287.374 207.454 291.161 209.709 293.496 212.387C300.269 220.163 303.405 229.986 304.672 240.032C305.388 245.588 306.104 251.187 305.925 256.801C305.822 259.795 305.419 262.772 304.722 265.686Z" fill="#3D66CC"/>
<path d="M303.376 275.531C303.744 270.284 303.682 265.016 303.19 259.779C303.19 259.779 303.19 259.743 303.19 259.722C303.276 255.462 303.613 251.223 303.448 246.956C303.242 242.347 302.614 237.767 301.572 233.273C301.575 233.266 301.576 233.259 301.575 233.252C301.575 233.245 301.572 233.238 301.569 233.232C301.565 233.226 301.559 233.221 301.553 233.218C301.547 233.215 301.54 233.213 301.533 233.213C301.526 233.213 301.518 233.215 301.512 233.218C301.506 233.221 301.501 233.226 301.497 233.232C301.493 233.238 301.49 233.245 301.49 233.252C301.489 233.259 301.49 233.266 301.493 233.273C302.32 237.69 302.815 242.164 302.975 246.655C303.061 249.042 303.042 251.447 302.918 253.872C302.875 254.653 302.804 255.44 302.746 256.228C300.977 244.275 296.657 232.842 290.08 222.705C289.994 222.569 289.744 222.705 289.83 222.862C294.538 230.571 298.026 238.961 300.169 247.736C296.911 241.7 291.985 236.738 288.333 230.939C288.333 230.939 288.262 230.939 288.283 230.975C291.562 237.419 296.975 242.524 300.455 248.875C301.049 251.466 301.543 254.087 301.887 256.715C302.375 260.327 302.638 263.967 302.675 267.612C300.691 263.903 298.629 260.359 297.004 256.435C296.961 256.328 296.811 256.4 296.846 256.507C298.228 260.581 300.083 264.97 302.682 268.443C302.682 271.02 302.617 273.605 302.467 276.176C302.066 283.056 300.892 289.837 300.319 296.696C300.314 296.738 300.326 296.78 300.353 296.813C300.379 296.846 300.417 296.867 300.459 296.872C300.5 296.876 300.542 296.864 300.575 296.838C300.608 296.812 300.629 296.774 300.634 296.732C302.024 289.735 302.94 282.652 303.376 275.531Z" fill="#263238"/>
<path d="M296.073 222.497C296.073 222.447 295.973 222.497 295.994 222.533C297.247 226.006 297.963 229.521 298.858 233.08C298.864 233.114 298.883 233.144 298.911 233.165C298.94 233.185 298.975 233.193 299.009 233.187C299.043 233.181 299.073 233.162 299.094 233.134C299.114 233.106 299.122 233.071 299.116 233.037C298.758 229.428 297.469 225.827 296.073 222.497Z" fill="#263238"/>
<path d="M327.964 237.053C327.138 239.092 326.181 241.074 325.1 242.989C322.837 247.092 320.482 250.865 320.088 255.641C320.016 257.78 319.711 259.904 319.178 261.977C318.584 263.747 317.733 265.418 316.651 266.939C314.202 270.519 311.138 273.591 308.861 277.293C306.5 281.159 304.756 285.369 303.691 289.772C303.634 290.009 303.255 289.944 303.312 289.708C303.312 289.708 303.312 289.672 303.312 289.651C303.309 289.643 303.307 289.634 303.307 289.626C303.307 289.617 303.309 289.609 303.312 289.601C302.954 279.347 303.77 269.008 306.892 259.185C308.272 254.864 309.932 250.638 311.861 246.533C313.536 242.953 315.62 239.545 318.563 236.889C320.474 235.17 324.613 231.877 327.334 233.631C328.58 234.461 328.479 235.772 327.964 237.053Z" fill="#3D66CC"/>
<path d="M317.661 260.302C315.855 263.286 313.865 266.156 311.703 268.894C310.708 270.19 309.699 271.479 308.711 272.775C308.238 273.39 307.715 273.999 307.279 274.658L308.095 271.364C309.419 266.187 310.694 260.961 312.663 255.977C314.683 251.152 317.062 246.485 319.78 242.015C319.852 241.901 319.658 241.815 319.594 241.929C317.446 245.509 315.226 249.046 313.4 252.805C312.398 254.899 311.52 257.051 310.773 259.249C311.607 254.572 312.778 249.961 314.274 245.452C314.274 245.416 314.231 245.388 314.209 245.452C312.256 250.006 311.031 254.838 310.579 259.772C310.135 261.104 309.725 262.448 309.348 263.803C307.73 269.531 306.312 275.338 305.002 281.159C304.976 277.335 305.307 273.516 305.99 269.753C305.985 269.739 305.976 269.726 305.964 269.717C305.952 269.709 305.937 269.704 305.922 269.704C305.907 269.704 305.892 269.709 305.88 269.717C305.868 269.726 305.858 269.739 305.854 269.753C304.854 273.677 304.52 277.74 304.866 281.775C304.364 283.987 303.885 286.2 303.434 288.419C302.424 293.145 301.185 297.956 300.57 302.739C300.567 302.751 300.567 302.764 300.57 302.776C300.572 302.788 300.577 302.8 300.584 302.81C300.591 302.821 300.6 302.829 300.611 302.836C300.621 302.843 300.633 302.848 300.645 302.85C300.657 302.853 300.67 302.852 300.682 302.85C300.694 302.847 300.706 302.843 300.716 302.836C300.726 302.829 300.735 302.82 300.742 302.809C300.749 302.799 300.753 302.787 300.756 302.775C301.472 300.183 301.887 297.505 302.46 294.899C303.033 292.293 303.634 289.651 304.243 287.023C305.131 283.207 306.069 279.398 307.014 275.567C307.651 274.178 308.882 272.939 309.799 271.772C310.808 270.491 311.818 269.202 312.799 267.899C314.643 265.488 316.295 262.936 317.739 260.266C317.782 260.288 317.689 260.245 317.661 260.302Z" fill="#263238"/>
<path d="M318.097 255.913C315.839 258.795 313.883 261.902 312.262 265.185C312.262 265.221 312.312 265.271 312.334 265.228C314.295 262.149 316.229 259.049 318.19 255.97C318.219 255.92 318.133 255.87 318.097 255.913Z" fill="#263238"/>
<path d="M274.443 246.777C275.775 249.068 277.307 251.789 276.72 254.56C276.355 256.3 275.08 257.71 274.851 259.486C274.335 263.402 278.245 265.994 281.066 267.841C288.111 272.467 297.763 276.584 299.045 286.021C299.095 286.35 299.675 286.271 299.632 285.942C299.635 285.921 299.635 285.899 299.632 285.877C299.632 285.877 299.667 285.877 299.667 285.827C300.589 281.062 300.543 276.161 299.531 271.414C298.486 266.553 296.36 262.178 293.854 257.91C289.615 250.679 285.133 243.275 278.724 237.734C276.949 236.209 273.319 233.438 271.901 236.91C270.483 240.383 272.796 243.984 274.443 246.777Z" fill="#3D66CC"/>
<path d="M280.887 262.106C285.555 267.161 292.98 269.982 296.997 275.653C294.753 267.037 290.512 259.07 284.617 252.397C284.6 252.38 284.587 252.36 284.578 252.338C284.568 252.316 284.564 252.292 284.564 252.268C284.564 252.245 284.568 252.221 284.578 252.199C284.587 252.177 284.6 252.156 284.617 252.14C284.634 252.123 284.654 252.109 284.676 252.1C284.698 252.091 284.722 252.086 284.746 252.086C284.77 252.086 284.794 252.091 284.816 252.1C284.838 252.109 284.858 252.123 284.875 252.14C289.171 256.315 292.608 261.292 294.992 266.789C293.882 262.95 292.422 259.221 290.632 255.648C290.621 255.621 290.62 255.591 290.629 255.563C290.639 255.536 290.658 255.513 290.683 255.498C290.708 255.483 290.738 255.478 290.766 255.483C290.795 255.488 290.821 255.504 290.839 255.526C293.056 259.429 294.641 263.658 295.536 268.056C300.835 280.873 301.321 295.909 300.212 309.42C300.212 309.613 299.904 309.62 299.911 309.42C300.212 298.773 300.04 287.94 297.491 277.536L297.319 276.892C292.951 270.799 285.562 267.97 280.808 262.185C280.758 262.128 280.837 262.056 280.887 262.106Z" fill="#263238"/>
<path d="M279.806 257.76C282.254 260.008 284.667 262.314 287.123 264.555C287.123 264.555 287.123 264.627 287.087 264.605C284.311 262.733 281.811 260.479 279.662 257.91C279.65 257.89 279.645 257.867 279.647 257.843C279.65 257.819 279.66 257.797 279.676 257.78C279.693 257.763 279.714 257.752 279.737 257.748C279.761 257.744 279.785 257.749 279.806 257.76Z" fill="#263238"/>
<path d="M279.419 248.022C281.587 251.575 284.039 254.946 286.751 258.104C286.787 258.147 286.751 258.211 286.686 258.168C283.644 255.273 281.137 251.862 279.283 248.094C279.278 248.077 279.28 248.058 279.287 248.042C279.294 248.026 279.306 248.012 279.322 248.004C279.338 247.995 279.356 247.993 279.374 247.996C279.392 247.999 279.407 248.009 279.419 248.022Z" fill="#263238"/>
<path d="M290.453 318.949H311.918L309.026 290.066H293.76L290.453 318.949Z" fill="#455A64"/>
<path d="M293.216 294.763H309.498L309.026 290.066H293.753L293.216 294.763Z" fill="#263238"/>
<path d="M291.126 291.477H311.245V286.866H291.126V291.477Z" fill="#455A64"/>
<path d="M57.5664 122.014H53.7V315.083H57.5664V122.014Z" fill="#263238"/>
<path d="M121.565 53.7407L29.6782 145.627L32.4122 148.361L124.298 56.4746L121.565 53.7407Z" fill="#263238"/>
<path d="M34.6687 315.083V318.949H76.5905V315.083H34.6687Z" fill="#263238"/>
<path d="M124.691 67.9913L137.651 55.8193L125.45 45.9099L115.741 55.0317L124.691 67.9913Z" fill="#FF9919"/>
<path opacity="0.1" d="M137.651 55.8193L124.691 67.9913L121.133 62.8361L132.238 51.4302L137.651 55.8193Z" fill="black"/>
<path d="M123.352 88.3185L158.322 55.4541L141.618 46.4612L115.412 71.0916L123.352 88.3185Z" fill="#FF9919"/>
<path opacity="0.6" d="M259.772 192.289C259.772 192.289 247.349 186.561 247.349 178.893C247.349 171.224 263.459 166.284 263.459 160.277C263.459 154.269 256.435 150.754 256.435 150.754C256.435 150.754 267.533 154.549 267.533 162.131C267.533 169.714 256.908 174.862 255.898 179.716C254.481 186.389 259.772 192.289 259.772 192.289Z" fill="#DBDBDB"/>
<path opacity="0.6" d="M259.192 192.289C259.192 192.289 271.622 187.793 271.622 181.757C271.622 175.721 255.469 171.84 255.469 167.129C255.469 162.418 262.5 159.668 262.5 159.668C262.5 159.668 251.395 162.647 251.395 168.611C251.395 174.575 263.567 178.678 264.469 183.518C265.371 188.358 259.192 192.289 259.192 192.289Z" fill="#DBDBDB"/>
<path d="M265.55 211.585H253.729V213.432H265.55V211.585Z" fill="#FF9919"/>
<path opacity="0.1" d="M265.55 211.585H253.729V212.802H265.55V211.585Z" fill="black"/>
<path d="M279.584 206.623C278.866 207.69 277.856 208.527 276.675 209.035C275.495 209.542 274.193 209.7 272.925 209.487C272.516 209.412 272.116 209.297 271.729 209.144C271.14 208.913 270.578 208.617 270.054 208.263L271.557 206.036C271.837 206.233 272.134 206.403 272.445 206.545C273.304 206.941 274.277 207.015 275.186 206.752C276.095 206.489 276.878 205.907 277.393 205.113C279.011 202.836 279.591 197.638 277.951 195.633C277.844 195.49 277.364 195.253 275.46 195.633C275.109 195.712 274.744 195.797 274.264 195.919C273.913 196.038 273.551 196.117 273.183 196.155L273.133 194.817L273.004 193.485C273.125 193.485 273.319 193.406 273.569 193.334C274.448 193.078 275.346 192.892 276.254 192.776C277.686 192.633 279.118 192.776 280.028 193.907C282.691 197.165 281.61 203.774 279.584 206.623Z" fill="#FF9919"/>
<path opacity="0.1" d="M271.557 206.022C271.837 206.219 272.134 206.389 272.445 206.53L271.729 209.129C271.14 208.898 270.578 208.603 270.054 208.249L271.557 206.022Z" fill="black"/>
<path opacity="0.1" d="M276.254 192.769L275.46 195.633C275.109 195.712 274.743 195.797 274.264 195.919C273.913 196.038 273.551 196.117 273.183 196.155L273.133 194.817L273.004 193.485C273.125 193.485 273.319 193.406 273.569 193.334C274.448 193.076 275.346 192.887 276.254 192.769Z" fill="black"/>
<path d="M243.92 189.289C243.92 189.289 244.02 190.17 244.22 191.559C244.256 191.766 244.285 192.003 244.321 192.232C244.464 193.184 244.65 194.315 244.858 195.525C244.862 195.597 244.862 195.669 244.858 195.74C245.173 197.48 245.574 199.37 245.996 201.16C245.996 201.239 246.046 201.318 246.061 201.389C246.182 201.869 246.311 202.342 246.44 202.821C246.569 203.301 246.712 203.724 246.848 204.146C247.102 204.925 247.403 205.688 247.75 206.43C250.199 211.499 253.622 212.065 255.741 212.065H263.488C265.636 212.065 269.03 211.499 271.471 206.43L271.693 205.936C271.751 205.814 271.801 205.685 271.851 205.557C271.901 205.428 271.958 205.292 272.008 205.156L272.116 204.869C272.625 203.43 273.048 201.962 273.383 200.473C273.403 200.412 273.42 200.35 273.433 200.287C273.433 200.287 273.433 200.244 273.433 200.215C273.584 199.585 273.72 198.948 273.849 198.318C274.07 197.287 274.271 196.263 274.436 195.296C274.507 194.852 274.586 194.416 274.658 194C274.658 193.879 274.693 193.771 274.715 193.657C274.758 193.377 274.808 193.105 274.844 192.84C274.88 192.575 274.915 192.332 274.951 192.124C274.987 191.917 275.016 191.652 275.051 191.408C275.238 190.127 275.331 189.318 275.331 189.318L243.92 189.289Z" fill="#FF9919"/>
<path opacity="0.1" d="M244.872 195.74C245.187 197.48 245.588 199.37 246.01 201.16C246.211 201.16 246.404 201.225 246.598 201.268C247.544 201.488 248.444 201.876 249.254 202.413C250.049 202.962 250.792 203.583 251.474 204.268C252.133 204.942 252.852 205.555 253.622 206.101C254.39 206.613 255.284 206.902 256.206 206.938C256.656 206.925 257.098 206.819 257.505 206.627C257.911 206.435 258.274 206.161 258.569 205.821C259.222 205.139 259.814 204.402 260.338 203.616C260.876 202.815 261.457 202.043 262.077 201.303C262.402 200.932 262.767 200.598 263.166 200.308C263.394 200.171 263.634 200.054 263.882 199.957C264.128 199.873 264.387 199.829 264.648 199.828C265.163 199.818 265.672 199.944 266.123 200.194C266.555 200.435 266.954 200.731 267.311 201.074C268.027 201.733 268.643 202.506 269.28 203.186C269.843 203.924 270.603 204.487 271.471 204.812C271.691 204.858 271.918 204.858 272.137 204.812C272.646 203.373 273.069 201.905 273.405 200.416C273.154 200.351 272.896 200.287 272.646 200.208C271.72 199.891 270.86 199.405 270.111 198.776C269.375 198.154 268.695 197.468 268.078 196.728C267.483 195.993 266.827 195.311 266.116 194.688C265.398 194.103 264.534 193.727 263.617 193.599C263.169 193.572 262.719 193.636 262.297 193.789C261.875 193.941 261.488 194.179 261.161 194.487C260.445 195.097 259.788 195.773 259.199 196.506C258.569 197.222 257.946 197.938 257.237 198.654C256.88 198.996 256.483 199.294 256.056 199.542C255.827 199.66 255.587 199.755 255.34 199.828C255.082 199.887 254.816 199.906 254.552 199.886C254.039 199.837 253.547 199.66 253.12 199.37C252.713 199.088 252.344 198.754 252.025 198.375C251.366 197.659 250.836 196.85 250.263 196.091C249.776 195.301 249.076 194.663 248.244 194.251C247.378 193.943 246.454 194.43 245.731 195.003C245.452 195.268 245.173 195.468 244.872 195.74Z" fill="black"/>
<path d="M244.872 195.525C244.877 195.597 244.877 195.669 244.872 195.74C245.151 195.497 245.43 195.268 245.717 195.024C246.433 194.451 247.364 193.964 248.23 194.272C249.062 194.685 249.761 195.322 250.249 196.112C250.822 196.871 251.352 197.68 252.011 198.396C252.33 198.775 252.698 199.11 253.106 199.392C253.532 199.681 254.025 199.859 254.538 199.907C254.802 199.927 255.067 199.908 255.326 199.85C255.573 199.777 255.812 199.681 256.042 199.564C256.469 199.315 256.865 199.017 257.223 198.676C257.939 198.003 258.555 197.244 259.185 196.528C259.774 195.795 260.431 195.118 261.147 194.509C261.474 194.201 261.86 193.963 262.283 193.81C262.705 193.658 263.154 193.593 263.603 193.621C264.519 193.749 265.383 194.125 266.101 194.709C266.812 195.332 267.469 196.015 268.063 196.75C268.68 197.49 269.361 198.175 270.097 198.797C270.846 199.427 271.705 199.912 272.631 200.229C272.882 200.308 273.14 200.373 273.39 200.437C273.41 200.376 273.427 200.314 273.44 200.251C273.197 200.179 272.946 200.108 272.724 200.015C270.962 199.306 269.444 198.099 268.357 196.542C267.763 195.775 267.097 195.068 266.366 194.43C265.597 193.794 264.668 193.381 263.681 193.234C263.175 193.195 262.666 193.26 262.186 193.425C261.705 193.59 261.264 193.851 260.889 194.194C260.147 194.817 259.464 195.507 258.848 196.256C258.218 196.972 257.617 197.688 256.944 198.368C256.271 199.048 255.469 199.599 254.588 199.492C254.141 199.428 253.71 199.277 253.322 199.046C252.934 198.815 252.595 198.509 252.326 198.146C251.695 197.43 251.151 196.664 250.557 195.905C250.011 195.076 249.241 194.418 248.337 194.007C247.847 193.857 247.318 193.888 246.848 194.093C246.396 194.284 245.976 194.542 245.602 194.859C245.337 195.081 245.101 195.296 244.872 195.525Z" fill="white"/>
<path d="M246.032 201.196C246.032 201.275 246.082 201.354 246.096 201.425L246.562 201.525C248.382 202.066 250.01 203.117 251.252 204.554C251.902 205.262 252.621 205.902 253.4 206.466C254.228 207.024 255.194 207.343 256.192 207.389C256.698 207.383 257.198 207.272 257.659 207.062C258.12 206.853 258.532 206.55 258.87 206.172C259.55 205.479 260.168 204.726 260.717 203.924C261.234 203.129 261.798 202.367 262.407 201.64C263.008 200.924 263.746 200.272 264.626 200.28C265.537 200.329 266.393 200.732 267.011 201.404C267.727 202.034 268.328 202.764 268.994 203.459C269.614 204.232 270.441 204.813 271.378 205.134C271.584 205.173 271.795 205.173 272.001 205.134L272.109 204.848C271.889 204.894 271.662 204.894 271.443 204.848C270.574 204.523 269.815 203.96 269.252 203.222C268.615 202.506 268.006 201.79 267.283 201.11C266.926 200.767 266.526 200.471 266.094 200.229C265.643 199.98 265.134 199.854 264.619 199.864C264.359 199.865 264.1 199.909 263.853 199.993C263.605 200.09 263.366 200.207 263.137 200.344C262.738 200.634 262.373 200.968 262.049 201.339C261.428 202.079 260.847 202.851 260.309 203.652C259.785 204.437 259.193 205.175 258.54 205.857C258.245 206.196 257.883 206.471 257.476 206.663C257.069 206.855 256.627 206.961 256.178 206.974C255.255 206.938 254.361 206.648 253.593 206.136C252.823 205.591 252.104 204.978 251.445 204.304C250.763 203.619 250.02 202.998 249.225 202.449C248.415 201.912 247.515 201.524 246.569 201.303C246.426 201.196 246.232 201.196 246.032 201.196Z" fill="white"/>
<path d="M120.925 274.507L66.2515 318.591H69.3303L132.474 274.507H120.925Z" fill="#C7C7C7"/>
<path d="M126.059 274.507L99.0443 318.591H102.123L135.238 274.507H126.059Z" fill="#C7C7C7"/>
<path d="M139.305 274.507L166.32 318.591H163.241L130.126 274.507H139.305Z" fill="#C7C7C7"/>
<path d="M144.023 274.507L198.69 318.591H195.611L132.474 274.507H144.023Z" fill="#C7C7C7"/>
<path d="M235.27 258.34V245.445L160.191 242.359L120.539 136.484H29.6782L61.8266 258.34L138.632 279.899H143.443L235.27 258.34Z" fill="#455A64"/>
<path d="M29.6782 136.484H40.0745L73.569 247.557L141.525 266.81L235.27 245.445V258.34L143.443 279.899H138.632L61.8266 258.34L29.6782 136.484Z" fill="#37474F"/>
<path d="M290.481 318.147C288.054 318.205 225.232 298.815 223.306 296.531C223.098 296.281 224.079 286.98 225.705 279.598C225.776 279.24 203.387 249.913 203.387 249.913L243.862 234.161L263.23 274.257L268.242 284.689C268.242 284.689 289.2 305.761 291.061 308.46C292.923 311.159 292.901 318.09 290.481 318.147Z" fill="#EBEBEB"/>
<path d="M292.25 318.505C289.722 318.57 224.137 298.55 222.118 296.202C221.344 295.321 222.518 291.262 225.698 279.598L268.658 284.775C268.658 284.775 290.854 305.61 292.787 308.403C294.72 311.195 294.77 318.434 292.25 318.505Z" fill="#FF9919"/>
<path d="M292.128 315.591C281.216 311.968 236.86 298.407 225.798 295.615C225.712 295.615 225.69 295.651 225.798 295.686C236.538 299.517 281.001 312.749 292.099 315.734C292.286 315.835 292.336 315.67 292.128 315.591Z" fill="#263238"/>
<path d="M289.336 304.773C288.123 304.368 286.839 304.219 285.566 304.336C284.293 304.454 283.058 304.834 281.939 305.453C279.916 306.548 278.392 308.382 277.686 310.572C277.686 310.637 277.794 310.68 277.822 310.615C279.763 306.498 284.832 303.913 289.278 304.887C289.292 304.887 289.305 304.883 289.316 304.876C289.327 304.869 289.336 304.859 289.342 304.848C289.348 304.836 289.351 304.822 289.35 304.809C289.348 304.796 289.344 304.783 289.336 304.773Z" fill="#263238"/>
<path d="M273.14 289.114C268.758 287.682 263.187 287.682 259.35 290.467C259.199 290.574 259.35 290.782 259.507 290.753C263.971 289.913 268.513 289.551 273.054 289.672C273.122 289.671 273.187 289.646 273.238 289.602C273.289 289.557 273.323 289.496 273.333 289.429C273.344 289.362 273.33 289.294 273.294 289.236C273.259 289.178 273.204 289.135 273.14 289.114Z" fill="#263238"/>
<path d="M276.133 291.469C271.751 290.037 266.18 290.037 262.342 292.83C262.192 292.937 262.342 293.145 262.5 293.116C266.964 292.273 271.505 291.911 276.047 292.035C276.12 292.042 276.193 292.021 276.251 291.976C276.309 291.931 276.348 291.866 276.359 291.793C276.37 291.72 276.353 291.646 276.311 291.586C276.268 291.525 276.205 291.484 276.133 291.469Z" fill="#263238"/>
<path d="M279.125 293.832C274.744 292.4 269.173 292.4 265.335 295.192C265.185 295.3 265.335 295.507 265.493 295.479C269.957 294.636 274.498 294.273 279.04 294.398C279.113 294.405 279.186 294.384 279.244 294.339C279.302 294.294 279.341 294.228 279.352 294.156C279.363 294.083 279.346 294.009 279.303 293.949C279.261 293.888 279.198 293.847 279.125 293.832Z" fill="#263238"/>
<path d="M282.104 296.195C277.722 294.763 272.152 294.763 268.314 297.548C268.163 297.655 268.314 297.87 268.471 297.842C272.935 296.998 277.477 296.636 282.018 296.76C282.091 296.768 282.165 296.747 282.223 296.702C282.281 296.657 282.319 296.591 282.33 296.519C282.342 296.446 282.324 296.372 282.282 296.311C282.24 296.251 282.176 296.209 282.104 296.195Z" fill="#263238"/>
<path d="M281.481 278.818C279.82 276.29 276.469 277.242 274.5 278.739C271.187 281.371 268.624 284.828 267.068 288.763C267.032 288.856 267.068 288.913 267.168 288.935C267.168 289.278 267.455 289.651 267.848 289.529C271.643 288.319 275.853 287.496 279.161 285.154C281.094 283.794 283.056 281.209 281.481 278.818ZM273.226 286.522C271.378 287.166 269.502 287.71 267.677 288.419C269.068 286.424 270.559 284.5 272.144 282.655C272.926 281.775 273.766 280.947 274.658 280.178C276.09 279.018 281.503 276.655 280.479 281.61C279.913 284.295 275.438 285.763 273.226 286.522Z" fill="#263238"/>
<path d="M255.612 287.066C259.264 288.827 263.545 288.942 267.49 289.507C267.899 289.565 268.121 289.142 268.063 288.791C268.082 288.787 268.1 288.777 268.114 288.764C268.129 288.751 268.14 288.735 268.148 288.717C268.155 288.699 268.157 288.679 268.155 288.66C268.153 288.64 268.146 288.621 268.135 288.605C265.96 284.991 262.877 282.009 259.192 279.956C257.008 278.803 253.543 278.424 252.318 281.187C251.144 283.815 253.507 286.042 255.612 287.066ZM253.715 283.751C251.889 279.068 257.653 280.493 259.221 281.402C260.22 282.015 261.177 282.694 262.085 283.436C263.954 284.992 265.743 286.641 267.447 288.376C265.529 287.982 263.588 287.753 261.655 287.424C259.414 287.037 254.753 286.335 253.743 283.751H253.715Z" fill="#263238"/>
<path d="M265.278 276.154L220.657 282.748C220.657 282.748 196.313 238.535 186.475 227.538C185.924 226.903 185.323 226.314 184.678 225.776C183.661 225.316 182.57 225.044 181.456 224.974C168.26 223.37 123.861 227.688 93.1731 225.69L107.493 206.537L113.844 198.038C148.412 194.1 190.836 179.967 209.974 189.568C230.717 199.986 265.278 276.154 265.278 276.154Z" fill="#263238"/>
<path d="M259.686 268.579C252.104 269.56 254.266 269.173 246.691 270.233C242.982 270.748 224.351 273.304 220.972 274.364C220.953 274.364 220.935 274.371 220.921 274.385C220.908 274.398 220.9 274.417 220.9 274.436C220.9 274.455 220.908 274.473 220.921 274.486C220.935 274.5 220.953 274.507 220.972 274.507C224.509 274.507 243.089 271.579 246.784 270.992C254.338 269.796 252.154 270.061 259.672 268.786C259.687 268.791 259.704 268.793 259.72 268.791C259.736 268.788 259.752 268.783 259.765 268.773C259.779 268.764 259.79 268.752 259.798 268.738C259.807 268.724 259.811 268.708 259.813 268.692C259.814 268.675 259.811 268.659 259.805 268.644C259.799 268.629 259.789 268.615 259.777 268.604C259.765 268.593 259.75 268.585 259.734 268.581C259.719 268.576 259.702 268.576 259.686 268.579Z" fill="#37474F"/>
<path d="M220.886 273.741C215.838 265.299 192.847 223.621 188.272 221.989C184.105 220.492 100.77 222.225 99.5383 222.232C99.4524 222.232 99.4453 222.368 99.5383 222.368C109.405 222.246 185.573 221.974 187.75 222.833C192.268 224.616 219.755 272.953 220.435 273.963C220.607 274.228 221.058 274.027 220.886 273.741Z" fill="#37474F"/>
<path d="M69.81 208.248C69.81 208.248 67.1751 233.416 79.9271 245.874C95.1851 260.831 195.919 257.058 211.492 252.01C227.065 246.963 227.581 221.788 210.525 215.953C194.301 210.404 122.343 207.21 120.639 206.53C118.935 205.85 113.944 197.888 113.944 197.888L69.81 208.248Z" fill="#263238"/>
<path d="M91.1182 207.54C91.1182 207.418 90.9105 207.461 90.9105 207.575C90.9126 210.836 89.764 213.993 87.667 216.49C85.2756 219.253 81.7529 220.786 78.5595 222.411C78.2516 222.569 78.4879 223.048 78.803 222.955C80.7659 222.349 82.6576 221.533 84.445 220.521C86.0835 219.648 87.526 218.449 88.6838 216.998C89.7237 215.677 90.4772 214.153 90.8963 212.525C91.3154 210.897 91.391 209.199 91.1182 207.54Z" fill="#37474F"/>
<path d="M119.951 204.962C119.235 204.053 118.462 203.186 117.718 202.306C115.963 200.208 114.195 198.11 112.355 196.091C112.176 195.897 111.839 196.17 111.997 196.377C113.235 198.002 114.553 199.571 115.842 201.153L117.839 203.58C118.537 204.304 119.161 205.095 119.701 205.943C120.188 206.845 119.551 207.611 118.62 207.711C117.793 207.731 116.99 207.437 116.371 206.888C114.939 205.771 113.772 204.174 112.57 202.814C111.854 201.983 111.087 201.146 110.336 200.329C109.584 199.513 108.682 198.618 107.887 197.752C107.837 197.695 107.737 197.752 107.779 197.831C108.495 198.79 109.118 199.785 109.82 200.745C110.522 201.704 111.252 202.649 111.968 203.609C112.684 204.568 113.35 205.37 114.116 206.222C114.722 206.975 115.448 207.623 116.264 208.141C117.603 208.929 119.916 209.093 120.632 207.368C120.746 206.943 120.744 206.495 120.624 206.071C120.504 205.647 120.272 205.264 119.951 204.962Z" fill="#37474F"/>
<path d="M209.358 252.104C203.981 252.204 198.618 252.519 193.241 252.633C187.864 252.748 182.58 252.777 177.246 252.727C166.539 252.626 155.842 252.211 145.155 251.481C134.357 250.765 122.715 249.655 111.997 248.173C106.863 247.457 101.665 246.87 96.5884 245.781C92.0217 244.917 87.7979 242.762 84.4164 239.574C77.4712 232.836 74.7719 222.934 73.6764 213.475C73.526 212.201 73.4043 210.934 73.3041 209.659C73.3041 209.573 73.1609 209.573 73.168 209.659C73.7981 219.361 75.316 229.478 81.4092 237.275C83.9836 240.679 87.4121 243.342 91.3473 244.994C96.1516 246.92 101.479 247.371 106.548 248.058C117.288 249.49 129.002 250.643 139.828 251.488C150.654 252.333 161.651 252.855 172.577 253.02C183.504 253.185 194.437 253.02 205.349 252.49C206.688 252.426 208.012 252.347 209.344 252.225C209.43 252.225 209.43 252.104 209.358 252.104Z" fill="#37474F"/>
<path d="M223.7 228.626C222.676 224.414 220.108 220.739 216.504 218.33C212.638 215.688 208.012 214.485 203.43 213.819C198.253 213.067 193.005 212.681 187.792 212.18C177.105 211.139 166.408 210.184 155.701 209.316C145.004 208.435 121.963 206.645 120.667 206.595C120.56 206.595 120.531 206.781 120.667 206.795C130.992 207.941 140.393 208.943 150.739 209.867C161.086 210.79 171.503 211.8 181.921 212.831C187.096 213.337 192.272 213.857 197.451 214.392C202.241 214.886 207.175 215.373 211.671 217.256C215.53 218.845 219.003 221.402 220.979 225.132C222.807 228.833 223.349 233.038 222.518 237.082C221.797 240.842 220.064 244.335 217.506 247.185C215.051 249.995 211.78 251.968 208.148 252.827C207.203 253.034 206.065 253.178 205.191 253.357C205.127 253.357 205.055 253.507 205.127 253.507C212.86 253.708 220.012 248.058 222.805 240.991C224.36 237.058 224.673 232.742 223.7 228.626Z" fill="#37474F"/>
<path d="M99.8749 146.408C104.994 166.456 115.169 190.427 119.35 194.251C124.648 199.091 157.047 205.442 158.73 205.607C161.537 205.886 167.322 176.967 164.709 177.067C157.778 177.217 136.427 175.048 134.894 173.551C133.362 172.055 122.457 158.959 111.266 144.195C103.584 134.035 96.703 133.964 99.8749 146.408Z" fill="#EB9481"/>
<path d="M156.131 204.411C156.596 204.633 163.291 207.783 167.365 208.864C170.422 209.673 179.294 211.764 180.518 208.485C181.349 206.251 176.279 204.404 172.728 203.022C170.852 202.306 168.518 200.408 169.04 199.205C169.943 197.057 174.768 199.077 177.955 200.824C184.112 204.21 192.353 210.361 195.991 207.196C197.358 205.993 195.683 203.917 193.248 201.89C197.172 204.225 201.346 206.115 202.922 204.84C203.824 204.124 203.845 203.151 203.308 202.062C204.511 202.427 205.564 202.32 206.28 201.525C207.504 200.186 206.845 198.26 205.42 196.298C205.656 196.268 205.881 196.183 206.076 196.048C206.272 195.914 206.432 195.734 206.545 195.525C209.108 191.401 195.511 180.074 190.878 179.1C177.274 176.236 162.99 177.145 162.99 177.145C157.771 181.527 156.088 204.396 156.131 204.411Z" fill="#EB9481"/>
<path d="M175.749 191.458C178.989 191.896 182.099 193.019 184.871 194.752C188.365 196.936 190.707 199.535 193.649 202.141C193.728 202.213 193.649 202.334 193.549 202.263C192.117 201.024 186.339 196.384 184.843 195.339C182.137 193.399 179.025 192.104 175.742 191.551C175.742 191.551 175.721 191.451 175.749 191.458Z" fill="#263238"/>
<path d="M178.141 185.645C181.721 186.532 185.394 187.435 188.745 189.038C192.403 190.793 195.303 193.728 198.16 196.556C199.869 198.256 201.54 199.988 203.172 201.755C203.244 201.833 203.172 201.955 203.072 201.876C200.17 198.965 197.186 196.134 194.122 193.384C191.291 190.835 187.988 188.867 184.399 187.592C182.344 186.876 180.232 186.296 178.126 185.73L178.141 185.645Z" fill="#263238"/>
<path d="M181.821 180.525C185.301 181.155 188.33 181.692 191.444 183.468C195.554 185.831 199.571 189.869 200.981 191.301C202.535 192.883 204.039 194.523 205.513 196.177C205.578 196.241 205.456 196.349 205.399 196.284C202.02 192.655 198.411 189.247 194.594 186.081C192.796 184.549 190.772 183.303 188.594 182.387C186.393 181.582 184.127 180.969 181.821 180.554C181.821 180.554 181.807 180.525 181.821 180.525Z" fill="#263238"/>
<path d="M162.468 175.126L152.73 208.778C152.73 208.778 124.011 201.325 118.663 195.826C113.314 190.327 102.997 161.53 99.8247 147.525C96.6529 133.52 103.784 133.706 110.565 142.42C117.345 151.133 134.107 172.241 135.03 172.685C135.954 173.129 162.468 175.126 162.468 175.126Z" fill="#3D66CC"/>
<path d="M149.644 193.993C150.825 190.033 152.043 186.074 153.074 182.064C153.661 179.787 154.262 177.511 154.828 175.227C154.828 175.141 154.706 175.091 154.677 175.176C153.331 179.107 151.992 183.052 150.833 187.048C149.673 191.043 148.484 194.988 147.374 198.983C146.744 201.246 146.186 203.53 145.699 205.836C145.699 205.879 145.763 205.907 145.778 205.836C147.245 201.969 148.448 197.988 149.644 193.993Z" fill="#263238"/>
<path opacity="0.1" d="M148.591 207.64C140.436 205.342 122.737 200 118.656 195.812C113.314 190.313 102.997 161.515 99.8247 147.517C98.314 140.794 99.1589 137.329 101.207 136.527C101.43 136.634 101.648 136.753 101.858 136.885C112.412 151.37 134.279 185.959 148.591 207.64Z" fill="black"/>
<path d="M66.9102 212.602C67.0677 212.766 127.77 199.463 128.343 198.762C129.131 197.766 118.276 152.114 106.863 138.489C103.999 135.08 94.8843 135.317 90.8031 138.754C70.5618 155.794 66.3374 212.015 66.9102 212.602Z" fill="#3D66CC"/>
<path d="M86.056 142.019C73.9485 151.327 42.0435 188.988 48.7095 197.917C55.3754 206.845 101.099 203.881 114.438 200.065C118.405 198.919 108.223 173.673 103.985 172.427C100.462 171.382 80.6717 176.759 80.3137 175.606C79.9056 174.31 84.2947 165.969 91.3616 150.711C99.524 133.097 91.4046 137.909 86.056 142.019Z" fill="#EB9481"/>
<path d="M122.594 169.456C131.415 169.678 133.649 171.095 141.21 167.308C146.157 164.837 149.859 166.943 146.494 171.604C140.995 179.236 129.546 181.341 125.372 180.912L122.594 169.456Z" fill="#EB9481"/>
<path d="M98.314 173.988C98.314 173.988 108.896 170.207 118.319 169.52C124.835 169.047 139.133 169.584 150.245 185.623C152.88 189.425 153.933 196.707 147.381 192.067C142.727 188.766 140.766 185.265 137.708 183.84C137.708 183.84 137.952 193.27 134.042 195.761C130.62 197.938 127.048 199.869 123.352 201.54C122.894 200.934 122.473 200.3 122.092 199.642C122.092 199.642 118.219 201.618 111.818 199.929L98.314 173.988Z" fill="#EB9481"/>
<path d="M124.584 170.036C127.319 172.098 133.054 176.558 136.47 181.835C140.264 187.692 146 200.015 141.639 202.771C138.446 204.79 135.847 200.279 135.847 200.279C135.847 200.279 137.143 205.871 133.856 207.067C130.863 208.155 129.059 204.547 129.059 204.547C129.059 204.547 129.259 208.077 126.195 208.571C122.486 209.165 122.672 201.676 118.391 199.026C117.424 198.432 124.584 170.036 124.584 170.036Z" fill="#EB9481"/>
<path d="M129.632 184.814C131.894 187.17 135.646 193.836 135.94 200.158C135.94 200.294 135.847 200.38 135.811 200.251C134.366 194.884 132.274 189.712 129.582 184.85L129.632 184.814Z" fill="#263238"/>
<path d="M123.825 188.816C125.565 191.05 129.131 198.124 129.209 204.504C129.209 204.654 129.102 204.726 129.073 204.597C127.909 199.162 126.129 193.877 123.768 188.845C123.768 188.845 123.804 188.788 123.825 188.816Z" fill="#263238"/>
<path d="M137.708 183.754C140.386 185.05 142.004 186.726 144.081 188.766C145.108 189.78 146.191 190.737 147.324 191.63C148.362 192.439 149.902 193.656 151.276 192.883C152.043 192.461 152.2 191.451 152.179 190.678C152.022 189.479 151.679 188.312 151.162 187.22C151.162 187.22 151.212 187.148 151.234 187.22C151.744 188.219 152.151 189.267 152.451 190.349C152.638 191.087 152.601 191.865 152.343 192.582C151.67 194.065 149.809 193.964 148.584 193.298C147.861 192.889 147.18 192.41 146.551 191.866C145.935 191.365 145.341 190.835 144.768 190.284C143.579 189.16 142.455 187.971 141.288 186.833C140.14 185.755 138.925 184.751 137.651 183.826C137.608 183.804 137.658 183.733 137.708 183.754Z" fill="#263238"/>
<path d="M141.961 194.616C140.763 190.926 139.328 187.317 137.665 183.811C137.662 183.807 137.661 183.802 137.66 183.797C137.659 183.792 137.659 183.787 137.66 183.782C137.661 183.777 137.663 183.773 137.665 183.768C137.668 183.764 137.672 183.761 137.676 183.758C137.68 183.755 137.685 183.753 137.69 183.752C137.695 183.751 137.7 183.751 137.705 183.752C137.71 183.753 137.715 183.755 137.719 183.758C137.723 183.761 137.727 183.764 137.73 183.768C139.577 186.203 142.183 192.303 142.742 194.208C143.3 196.112 143.83 198.468 143.508 200.415C143.021 203.351 140.98 203.587 140.236 203.609C139.357 203.624 138.5 203.336 137.809 202.793C137.006 202.098 136.355 201.245 135.897 200.287C135.897 200.244 135.933 200.194 135.961 200.244C136.785 201.568 138.288 202.986 139.921 203.043C140.279 203.065 140.637 203.017 140.977 202.9C141.316 202.783 141.628 202.601 141.897 202.363C142.449 201.727 142.754 200.914 142.756 200.072C142.804 198.221 142.535 196.376 141.961 194.616Z" fill="#263238"/>
<path d="M98.314 172.692L107.5 204.661C107.5 204.661 50.342 207.926 47.1772 197.544C44.0125 187.162 71.6215 153.152 83.0775 143.844C96.3521 133.025 97.061 137.565 92.7435 148.391C88.2184 159.725 80.4283 175.907 80.4283 175.907L98.314 172.692Z" fill="#3D66CC"/>
<path d="M62.3708 181.005C65.2246 179.66 68.1728 178.526 71.1919 177.611C74.1768 176.718 77.2232 176.046 80.3066 175.599C82.0608 175.32 83.8293 175.134 85.5906 174.933C85.602 174.933 85.613 174.938 85.621 174.946C85.6291 174.954 85.6336 174.965 85.6336 174.976C85.6336 174.987 85.6291 174.998 85.621 175.006C85.613 175.014 85.602 175.019 85.5906 175.019C82.4937 175.482 79.4264 176.125 76.4044 176.945C73.39 177.733 70.4043 178.57 67.4186 179.465C65.736 179.974 64.0749 180.561 62.4066 181.119C62.3984 181.126 62.3887 181.13 62.3784 181.132C62.3681 181.134 62.3575 181.134 62.3475 181.131C62.3374 181.128 62.3283 181.122 62.3209 181.115C62.3134 181.107 62.3079 181.098 62.3048 181.088C62.3016 181.078 62.301 181.068 62.3029 181.057C62.3048 181.047 62.3092 181.037 62.3157 181.029C62.3222 181.021 62.3306 181.014 62.3402 181.01C62.3498 181.006 62.3603 181.004 62.3708 181.005Z" fill="#263238"/>
<path d="M98.1851 172.556C97.8915 172.556 81.9963 175.062 81.4665 175.212C81.5667 174.998 85.5978 167.429 86.1992 166.327C86.2565 166.212 86.3066 166.105 86.3711 165.99C86.7291 165.511 87.0871 165.038 87.4379 164.558L88.7411 162.661L87.352 164.487C87.1372 164.773 86.9367 165.067 86.7362 165.353C87.1372 164.575 87.531 163.787 87.9177 162.99C88.5477 161.723 89.1349 160.448 89.7148 159.16H89.6504C88.4618 161.365 87.2088 163.534 86.0131 165.733C84.8174 167.931 80.2851 176.021 80.3209 176.021C80.3567 176.021 97.8915 172.907 98.2209 172.828C98.257 172.823 98.2897 172.804 98.3118 172.776C98.334 172.747 98.3438 172.71 98.339 172.674C98.3343 172.638 98.3154 172.605 98.2865 172.583C98.2577 172.561 98.2212 172.551 98.1851 172.556Z" fill="#263238"/>
<path d="M96.0013 192.088C94.9989 188.508 94.018 184.928 92.8867 181.42C92.2423 179.415 91.6051 177.41 90.9392 175.413C90.9392 175.334 90.7816 175.363 90.8031 175.413C91.6695 179.036 92.543 182.659 93.5741 186.239C94.6051 189.819 95.5932 193.399 96.6672 196.914C97.2758 198.926 97.9488 200.917 98.6791 202.9C98.6791 202.909 98.6829 202.919 98.6896 202.925C98.6963 202.932 98.7054 202.936 98.7149 202.936C98.7244 202.936 98.7335 202.932 98.7402 202.925C98.747 202.919 98.7507 202.909 98.7507 202.9C98.0061 199.255 97.0109 195.675 96.0013 192.088Z" fill="#263238"/>
<path d="M108.116 205.249C107.715 204.246 107.235 202.814 106.791 201.826C106.677 201.568 106.484 201.583 106.569 201.826C106.849 202.721 107.042 203.709 107.285 204.626C106.484 204.626 105.689 204.661 104.887 204.697L102.116 204.819C100.302 204.891 98.4906 204.943 96.6815 204.977C93.006 205.043 89.3377 205.043 85.6766 204.977C78.337 204.84 71.0096 204.321 63.724 203.423C61.6834 203.165 59.6428 202.864 57.6237 202.499C55.6169 202.168 53.6285 201.733 51.6666 201.196C51.6165 201.196 51.5878 201.275 51.6666 201.289C53.3247 201.937 55.0318 202.452 56.7717 202.829C58.5903 203.222 60.4304 203.545 62.2705 203.852C65.9436 204.418 69.6382 204.783 73.3399 205.055C80.6861 205.585 88.0441 205.807 95.4142 205.721C97.4762 205.721 99.5383 205.65 101.6 205.585C102.639 205.549 103.684 205.514 104.722 205.456C105.76 205.399 108.202 205.42 108.116 205.249Z" fill="#263238"/>
<path d="M185.229 209.451H112.097V212.401H185.229V209.451Z" fill="#455A64"/>
<path d="M152.565 209.451H112.097V212.401H152.565V209.451Z" fill="#A6A6A6"/>
<path d="M151.334 212.401H215.43L224.487 168.869H160.391L151.334 212.401Z" fill="#A6A6A6"/>
<path d="M154.241 212.401H218.337L227.394 168.869H163.298L154.241 212.401Z" fill="#C7C7C7"/>
<path d="M186.547 191.609C186.471 192.151 186.514 192.702 186.672 193.226C186.831 193.75 187.101 194.232 187.465 194.641C187.828 195.05 188.277 195.374 188.778 195.593C189.28 195.811 189.823 195.917 190.37 195.905C191.543 195.88 192.667 195.431 193.534 194.641C194.402 193.851 194.954 192.774 195.089 191.609C195.164 191.067 195.122 190.515 194.963 189.992C194.805 189.468 194.534 188.985 194.17 188.576C193.807 188.168 193.358 187.843 192.857 187.625C192.355 187.407 191.812 187.3 191.265 187.313C190.093 187.339 188.97 187.789 188.102 188.578C187.235 189.368 186.683 190.444 186.547 191.609Z" fill="#EBEBEB"/>
<path d="M102.238 153.088C102.238 153.088 91.5478 142.484 84.5596 142.641L78.5953 147.854C78.5953 147.854 76.6407 148.477 76.0535 147.238C74.6215 144.174 74.3495 136.799 80.7362 132.066C86.5787 127.727 96.0872 128.135 104.006 130.29C111.61 132.36 118.176 137.45 115.799 142.42C113.422 147.389 102.238 153.088 102.238 153.088Z" fill="#3D66CC"/>
<path opacity="0.1" d="M103.018 150.761C103.018 150.761 111.811 144.596 112.741 140.894C113.672 137.193 106.297 133.606 101.522 132.181C94.1397 129.975 89.0919 130.412 84.9104 134.329C80.729 138.245 103.018 150.761 103.018 150.761Z" fill="black"/>
<path d="M103.018 150.761C103.018 150.761 94.512 136.04 83.7219 134.529L84.5596 142.642C84.5596 142.642 91.0036 142.713 102.238 153.088L103.018 150.761Z" fill="#3D66CC"/>
<path d="M81.624 142.763C83.5897 142.621 85.563 142.904 87.4093 143.594C89.2611 144.226 91.0341 145.07 92.6934 146.107C94.365 147.127 95.9676 148.256 97.4906 149.487L99.7316 151.398L101.88 153.41L102.123 153.639L102.395 153.496C104.42 152.479 106.372 151.323 108.238 150.038C109.178 149.408 110.08 148.722 110.937 147.983C111.803 147.254 112.597 146.444 113.307 145.563C111.663 147.084 109.855 148.417 107.916 149.537C106.963 150.117 105.982 150.661 104.994 151.176C104.006 151.692 103.011 152.215 102.009 152.68L102.517 152.773L100.369 150.689C99.6529 150.024 98.8581 149.379 98.0992 148.735C97.3402 148.09 96.5025 147.518 95.6791 146.945C94.8557 146.372 94.0108 145.835 93.1158 145.37C91.3728 144.366 89.5078 143.591 87.5668 143.064C87.0871 142.921 86.5859 142.835 86.1348 142.727C85.6837 142.62 85.1396 142.584 84.6384 142.556C83.629 142.455 82.61 142.525 81.624 142.763Z" fill="#263238"/>
<path d="M78.5953 147.854C80.7917 146.37 82.7952 144.62 84.5596 142.642C82.3676 144.131 80.3648 145.881 78.5953 147.854Z" fill="#263238"/>
<path d="M98.6505 148.119C98.0175 151.487 97.675 154.903 97.6266 158.329C97.5693 160.72 98.493 169.298 101.149 168.983C103.806 168.668 99.481 163.141 98.7221 158.623C97.9631 154.105 99.1732 150.782 99.3307 148.076L98.6505 148.119Z" fill="#3D66CC"/>
<g opacity="0.1">
<path d="M98.6505 148.119C98.0175 151.487 97.675 154.903 97.6266 158.329C97.5693 160.72 98.493 169.298 101.149 168.983C103.806 168.668 99.481 163.141 98.7221 158.623C97.9631 154.105 99.1732 150.782 99.3307 148.076L98.6505 148.119Z" fill="black"/>
</g>
<path d="M108.116 148.592C108.97 151.865 109.63 155.186 110.092 158.537C110.379 160.685 110.436 168.504 108.009 168.496C105.581 168.489 108.911 163.062 109.133 158.909C109.355 154.756 107.923 151.033 107.5 148.627L108.116 148.592Z" fill="#3D66CC"/>
<g opacity="0.1">
<path d="M108.116 148.592C108.97 151.865 109.63 155.186 110.092 158.537C110.379 160.685 110.436 168.504 108.009 168.496C105.581 168.489 108.911 163.062 109.133 158.909C109.355 154.756 107.923 151.033 107.5 148.627L108.116 148.592Z" fill="black"/>
</g>
<path d="M103.913 149.114C101.142 148.928 95.9727 143.143 94.2113 138.546C94.0967 138.231 94.9273 135.202 95.8509 131.472C96.3736 129.202 96.9106 126.667 97.2256 124.312L111.474 129.897C110.234 132.718 109.344 135.68 108.825 138.718C108.793 139.044 108.793 139.372 108.825 139.699C108.825 139.742 108.825 139.799 108.825 139.863C108.832 141.768 108.259 149.393 103.913 149.114Z" fill="#EB9481"/>
<path d="M108.789 139.706C108.793 139.761 108.793 139.816 108.789 139.87C108.276 139.867 107.763 139.824 107.257 139.742C98.9082 138.41 98.2495 127.928 98.2495 124.706L111.474 129.882C110.239 132.715 109.352 135.686 108.832 138.732C108.793 139.055 108.779 139.381 108.789 139.706Z" fill="#263238"/>
<path d="M100.125 105.968C97.1397 110.608 95.6719 126.016 98.3498 130.312C102.238 136.534 110.672 139.412 116.479 134.264C122.107 129.252 123.639 109.154 120.481 105.044C115.784 98.9582 104.536 99.1014 100.125 105.968Z" fill="#EB9481"/>
<path d="M109.741 117.181C110.197 117.111 110.649 117.015 111.095 116.894C111.585 116.856 112.05 116.66 112.419 116.336C112.516 116.21 112.568 116.057 112.568 115.899C112.568 115.741 112.516 115.587 112.419 115.462C112.19 115.248 111.908 115.099 111.603 115.028C111.298 114.958 110.979 114.969 110.679 115.061C110.037 115.153 109.453 115.486 109.047 115.992C108.961 116.11 108.912 116.251 108.904 116.396C108.897 116.542 108.932 116.687 109.006 116.813C109.08 116.939 109.188 117.041 109.319 117.106C109.45 117.171 109.596 117.197 109.741 117.181Z" fill="#263238"/>
<path d="M120.188 118.613C119.752 118.463 119.324 118.291 118.906 118.097C118.428 117.98 118.003 117.708 117.696 117.324C117.623 117.184 117.598 117.024 117.625 116.869C117.653 116.713 117.73 116.571 117.846 116.465C118.108 116.291 118.41 116.189 118.723 116.17C119.037 116.152 119.349 116.216 119.629 116.357C120.236 116.564 120.746 116.987 121.061 117.546C121.125 117.676 121.15 117.822 121.133 117.966C121.116 118.11 121.058 118.247 120.966 118.359C120.874 118.471 120.752 118.555 120.614 118.6C120.476 118.645 120.328 118.649 120.188 118.613Z" fill="#263238"/>
<path d="M108.947 129.302C109.161 129.574 109.369 129.94 109.741 130.018C110.127 130.062 110.518 130.023 110.887 129.904C110.887 129.904 110.944 129.904 110.887 129.961C110.712 130.143 110.492 130.275 110.249 130.344C110.006 130.413 109.75 130.417 109.505 130.355C109.298 130.275 109.12 130.136 108.992 129.955C108.865 129.774 108.794 129.56 108.789 129.338C108.832 129.274 108.911 129.259 108.947 129.302Z" fill="#263238"/>
<path d="M110.429 126.345C110.641 126.786 110.941 127.178 111.31 127.498C111.679 127.819 112.111 128.06 112.577 128.207C112.984 128.342 113.408 128.417 113.837 128.429H114.317C114.373 128.423 114.425 128.4 114.468 128.363C114.51 128.326 114.54 128.276 114.553 128.221C114.556 128.186 114.556 128.15 114.553 128.114V128.021C114.675 127.226 114.753 126.009 114.753 126.009C115.025 126.188 116.422 127.047 116.45 126.625C116.687 123.159 116.944 119.3 116.45 115.792C116.45 115.677 116.264 115.684 116.257 115.792C115.906 119.114 116.135 122.479 115.834 125.816C115.338 125.5 114.797 125.259 114.231 125.1C114.116 125.1 114.123 127.462 114.044 127.813C112.684 127.813 111.725 127.283 110.543 126.216C110.464 126.195 110.379 126.252 110.429 126.345Z" fill="#263238"/>
<path d="M113.422 127.963C112.911 128.478 112.278 128.852 111.581 129.052C111.198 129.143 110.796 129.116 110.429 128.973C109.634 128.651 109.713 127.892 109.942 127.262C110.071 126.929 110.237 126.612 110.436 126.317C111.231 127.169 112.276 127.746 113.422 127.963Z" fill="#263238"/>
<path d="M111.581 129.052C111.198 129.143 110.796 129.116 110.429 128.973C109.634 128.651 109.713 127.892 109.942 127.262C110.377 127.332 110.776 127.546 111.073 127.871C111.371 128.196 111.55 128.612 111.581 129.052Z" fill="#FF9ABB"/>
<path d="M111.775 120.001C111.775 120.001 111.689 120.037 111.682 120.08C111.553 121.111 111.231 122.228 110.25 122.457V122.515C111.402 122.536 111.818 121.004 111.775 120.001Z" fill="#263238"/>
<path d="M111.03 118.791C109.405 118.405 108.753 121.655 110.257 122.042C111.76 122.429 112.412 119.114 111.03 118.791Z" fill="#263238"/>
<path d="M117.761 120.789C117.761 120.789 117.832 120.854 117.825 120.896C117.582 121.899 117.474 123.095 118.319 123.624V123.682C117.209 123.288 117.374 121.72 117.761 120.789Z" fill="#263238"/>
<path d="M118.892 119.916C120.546 120.131 119.994 123.431 118.462 123.231C116.93 123.03 117.503 119.737 118.892 119.916Z" fill="#263238"/>
<path d="M101.593 115.87C103.741 113.221 103.813 107.543 105.81 106.734C110.106 104.987 114.775 113.028 119.35 114.717C123.782 116.357 126.302 114.044 126.804 110.149C127.305 106.254 125.128 102.717 120.41 100.168C115.534 97.5263 110.078 97.8986 106.927 98.6075C106.927 98.6075 108.703 97.2184 108.488 96.5024C108.274 95.7864 105.467 96.7387 104.536 97.2184C103.815 97.6831 103.184 98.2751 102.674 98.9655C102.072 98.5576 101.414 98.2393 100.72 98.0204C99.7061 97.7333 98.6239 97.8119 97.6624 98.2423C97.4834 98.4786 99.0228 99.2734 100.14 99.7388C100.14 99.7388 97.0037 101.779 96.1803 104.199C95.3569 106.62 94.9559 119.379 95.808 119.83C96.9034 120.417 100.734 116.944 101.593 115.87Z" fill="#455A64"/>
<path d="M100.684 99.6243C100.727 99.6243 100.763 99.6887 100.684 99.7102C99.2629 100.196 98.0057 101.069 97.0538 102.231C96.0093 103.681 95.3715 105.384 95.2065 107.164C94.7698 110.572 95.271 113.994 95.5574 117.388C95.5574 117.488 95.3927 117.51 95.3784 117.388C94.8485 113.808 94.3831 109.963 94.9989 106.369C95.5502 103.326 97.419 100.24 100.684 99.6243Z" fill="#455A64"/>
<path d="M106.061 105.51C107.469 105.83 108.803 106.416 109.992 107.235C111.068 108.096 112.03 109.09 112.856 110.192C114.882 112.484 117.266 114.546 120.245 115.426C120.245 115.426 120.245 115.498 120.245 115.484C117.453 114.854 115.14 113.114 113.2 111.08C112.309 109.96 111.353 108.894 110.336 107.887C109.028 106.945 107.578 106.219 106.04 105.739C106.019 105.726 106.003 105.708 105.993 105.687C105.982 105.665 105.978 105.641 105.98 105.618C105.982 105.594 105.991 105.571 106.005 105.552C106.02 105.533 106.039 105.518 106.061 105.51Z" fill="#455A64"/>
<path d="M110.128 98.3426C112.252 98.1014 114.4 98.1617 116.508 98.5216C118.543 98.8099 120.512 99.4495 122.329 100.412C125.422 102.137 127.691 105.331 127.233 109.004C127.028 110.893 126.124 112.637 124.699 113.894C124.68 113.911 124.655 113.92 124.629 113.919C124.604 113.917 124.58 113.906 124.563 113.887C124.545 113.868 124.537 113.843 124.538 113.817C124.539 113.792 124.551 113.768 124.57 113.751C125.786 112.566 126.587 111.019 126.853 109.342C127.119 107.664 126.835 105.946 126.045 104.443C124.197 101.121 120.474 99.567 116.908 98.8868C114.671 98.4933 112.398 98.3349 110.128 98.4142V98.3426Z" fill="#455A64"/>
<path d="M108.116 125.099C107.251 124.858 106.472 124.379 105.866 123.717C105.26 123.054 104.852 122.235 104.689 121.353C104.525 120.47 104.613 119.559 104.941 118.724C105.27 117.889 105.826 117.162 106.546 116.627C107.267 116.092 108.124 115.77 109.018 115.697C109.913 115.625 110.81 115.805 111.608 116.217C112.405 116.629 113.071 117.256 113.53 118.028C113.988 118.799 114.221 119.684 114.202 120.581C114.188 121.211 114.05 121.833 113.796 122.409C113.542 122.986 113.177 123.507 112.721 123.942C112.266 124.378 111.729 124.719 111.142 124.947C110.554 125.175 109.927 125.285 109.297 125.271C108.898 125.265 108.501 125.208 108.116 125.099ZM110.515 116.464C110.181 116.37 109.837 116.319 109.491 116.314C108.433 116.292 107.406 116.674 106.619 117.382C105.833 118.09 105.346 119.072 105.257 120.126C105.169 121.181 105.486 122.23 106.144 123.059C106.802 123.888 107.751 124.435 108.799 124.589C109.846 124.743 110.912 124.492 111.781 123.887C112.649 123.282 113.254 122.368 113.473 121.333C113.692 120.297 113.508 119.217 112.958 118.313C112.408 117.408 111.535 116.747 110.515 116.464Z" fill="#37474F"/>
<path d="M119.014 126.732C117.245 126.238 116.15 123.975 116.529 121.505C116.691 120.317 117.222 119.211 118.047 118.34C118.378 117.947 118.805 117.646 119.287 117.466C119.768 117.286 120.288 117.233 120.796 117.312C121.304 117.391 121.783 117.6 122.187 117.918C122.591 118.236 122.906 118.653 123.102 119.128C123.623 120.206 123.793 121.421 123.589 122.601C123.181 125.221 121.269 127.097 119.293 126.796C119.198 126.781 119.105 126.76 119.014 126.732ZM120.94 117.997L120.696 117.94C120.288 117.896 119.876 117.951 119.494 118.1C119.112 118.248 118.77 118.485 118.498 118.792C117.774 119.568 117.307 120.547 117.159 121.598C116.808 123.868 117.818 125.894 119.422 126.159C121.025 126.424 122.601 124.77 122.959 122.5C123.14 121.455 122.992 120.379 122.536 119.422C122.383 119.088 122.161 118.789 121.887 118.545C121.612 118.301 121.289 118.117 120.94 118.004V117.997Z" fill="#37474F"/>
<path d="M113.959 121.104L113.629 120.553C114.438 120.059 116.228 119.507 117.209 120.925L116.679 121.29C115.799 120.016 114.03 121.061 113.959 121.104Z" fill="#37474F"/>
<path d="M92.6289 119.035L92.1134 118.655C92.2852 118.412 93.8819 116.293 95.3282 116.285C96.7746 116.278 105.066 118.433 105.424 118.491L105.266 119.114C102.861 118.505 96.3808 116.923 95.3354 116.93C94.29 116.937 93.08 118.448 92.6289 119.035Z" fill="#37474F"/>
<path d="M99.8749 118.77C99.8749 118.77 97.7913 113.135 95.3211 113.758C92.8509 114.381 93.5454 121.942 95.8366 123.553C96.1161 123.779 96.4384 123.946 96.7842 124.044C97.13 124.142 97.4921 124.17 97.8487 124.124C98.2053 124.079 98.5489 123.961 98.859 123.78C99.1691 123.598 99.4391 123.355 99.6529 123.066L99.8749 118.77Z" fill="#EB9481"/>
<path d="M95.5717 115.92V115.985C97.1612 117.173 97.6624 119.064 97.8701 120.947C97.8193 120.738 97.7223 120.544 97.5862 120.378C97.4502 120.212 97.2785 120.078 97.0839 119.987C96.8894 119.897 96.6769 119.851 96.4622 119.853C96.2476 119.856 96.0362 119.906 95.8438 120.002C95.7865 120.002 95.8438 120.109 95.8438 120.109C96.1827 120.091 96.519 120.178 96.8063 120.359C97.0936 120.539 97.3177 120.805 97.4476 121.119C97.6632 121.644 97.8194 122.191 97.913 122.751C97.956 122.937 98.2638 122.923 98.2495 122.751V122.708C98.8796 120.424 97.9488 116.787 95.5717 115.92Z" fill="#263238"/>
</svg>
