<svg width="195" height="32" viewBox="0 0 195 32" fill="none" xmlns="http://www.w3.org/2000/svg">
<path fill-rule="evenodd" clip-rule="evenodd" d="M11.8379 4.60939C15.0582 4.31909 17.7035 5.81025 18.9898 8.33083C20.7072 11.6961 19.812 15.515 17.6419 18.1511L16.8152 19.1225C16.4676 19.5501 15.4108 20.6162 15.0793 21.0433L14.2444 22.0638C13.2815 23.325 13.0861 24.6345 12.5557 25.8924C11.7859 27.7184 11.1373 26.7429 10.3141 27.3022C9.62487 27.7703 9.977 29.1771 11.7803 28.8273C12.7592 28.6373 13.3991 27.8122 13.8134 27.1556C14.3102 26.3681 14.4672 25.4045 14.8375 24.5204C15.6153 22.6641 16.9467 21.6214 17.9884 20.3585C18.7125 19.4805 18.9051 19.3136 19.6394 18.3002C22.4558 14.4135 22.2405 8.07768 18.4152 4.96776C17.1099 3.90658 15.3913 3.02072 13.1657 2.90944C8.53222 2.67781 5.39594 5.43036 3.96619 8.38513C3.70777 8.91899 3.77392 9.45455 4.21643 9.68046C5.14938 10.1567 5.5416 8.87025 6.10956 8.02221C7.2742 6.2831 9.22312 4.84489 11.8379 4.60939Z" fill="white"/>
<path fill-rule="evenodd" clip-rule="evenodd" d="M22.063 16.5458C22.2401 16.6068 22.1984 16.5868 22.3882 16.6244C22.536 16.6373 22.4839 16.6196 22.7235 16.657L23.0453 16.7022L23.5024 16.7634C23.5033 16.8241 23.5403 16.7373 23.5465 16.7862L23.6398 16.8331C23.6459 16.8405 23.7558 16.8499 23.7688 16.8623C24.2483 16.2537 24.5022 14.0264 24.5793 13.0454C24.9196 8.71945 22.9094 4.36732 19.6854 2.10375C15.0387 -1.1588 8.40512 -0.560547 4.16399 3.43943C3.90707 3.68183 2.98748 4.51793 3.53757 5.11097C4.11003 5.72804 4.86742 4.83949 5.17111 4.56432C5.57987 4.19384 6.13079 3.76302 6.64646 3.42145C9.63825 1.44028 13.7918 1.01769 17.1084 2.50836C20.8753 4.20141 23.1579 8.23618 22.9354 12.4969C22.8953 13.2664 22.7943 14.0854 22.6306 14.8052C22.4487 15.6054 22.2608 15.8763 22.063 16.5458Z" fill="white"/>
<path fill-rule="evenodd" clip-rule="evenodd" d="M20.4973 22.1471C20.1408 22.0626 20.4973 22.1471 20.2871 22.1235L20.3147 22.1093C20.5248 22.1841 20.1464 22.0702 20.1408 22.0626L19.6994 21.9587L19.6111 21.9348L18.8643 21.7451C18.7863 21.7245 18.649 21.6858 18.649 21.6858C18.649 21.6858 18.6641 21.679 18.5503 21.8026L17.8146 22.5908C15.1629 25.4017 15.6654 27.6615 14.1189 29.105C12.2971 30.8052 9.61953 30.6988 8.47109 29.0944C7.94389 28.3578 8.11261 26.4151 8.11311 25.3548C8.11361 24.5662 8.27715 21.8591 7.92134 21.4363C7.52661 20.9672 6.83805 21.1216 6.59483 21.536C6.39187 21.8819 6.48007 22.9653 6.48007 23.4395C6.4799 24.8076 6.48675 26.1752 6.48425 27.5434C6.48291 28.266 6.42895 28.7879 6.70241 29.3968C7.33251 30.7994 8.74104 31.7153 10.2625 31.9375C11.4766 32.1149 12.7668 31.9041 13.7182 31.4398C16.7798 29.9456 16.7594 27.2109 17.848 25.3632C18.1516 24.848 18.3602 24.6157 18.696 24.1912C19.0297 23.7696 20.4973 22.1471 20.4973 22.1471Z" fill="white"/>
<path fill-rule="evenodd" clip-rule="evenodd" d="M2.07057 15.324L3.97673 15.3254L3.95351 17.505L2.08243 17.5007L2.07224 15.7789L2.07057 15.324ZM10.5004 15.3213C10.8266 15.322 11.1529 15.3228 11.4791 15.3233C12.1814 15.3247 12.1107 15.2445 12.2983 15.4482C13.2139 16.4425 14.5106 15.5968 14.2626 14.5625C14.0788 13.796 13.0752 13.4659 12.4465 14.0174C12.1648 14.2645 12.3103 14.5301 12.0771 14.5763L4.57308 14.5832C1.52333 14.5839 1.32938 14.21 1.32371 16.2714L1.31853 23.7772C0.222872 24.1962 0.440367 25.8694 1.69121 25.863C2.23594 25.8602 2.65924 25.4547 2.73224 24.9686C2.78085 24.6449 2.69331 24.3791 2.5398 24.1739C2.41986 24.0135 2.13605 23.8514 2.0709 23.7131L2.0704 18.2331L3.9784 18.2351L3.97723 26.8867C3.76959 27.0557 3.5673 27.1165 3.42765 27.3226C2.93687 28.0471 3.4198 29.0247 4.30113 29.0397C5.5052 29.0602 5.80672 27.4515 4.73395 26.9405L4.73428 18.2294L9.9573 18.2406C10.0792 19.2349 11.2596 19.5539 11.8337 18.8184C12.4266 18.0586 11.7743 16.8851 10.7316 17.1056C10.0199 17.2563 10.5919 17.5205 9.52182 17.5097L4.73194 17.503L4.72793 15.3181L10.5004 15.3213Z" fill="white"/>
<path fill-rule="evenodd" clip-rule="evenodd" d="M11.2345 6.46845C10.2376 6.70109 10.2293 7.39751 10.5338 7.81001C10.9133 8.32421 11.7916 8.06333 12.5064 8.13628C15.0971 8.40103 16.5944 11.1119 16.4658 13.4225C16.424 14.1729 16.2364 14.6306 16.0428 15.2828C15.8427 15.9567 16.1076 16.6362 16.8523 16.58C17.5066 16.5306 17.6727 15.8843 17.8419 15.2862C18.4287 13.2111 18.176 11.4585 17.2333 9.60795C16.785 8.72764 15.8273 7.67738 14.9847 7.21664C14.0884 6.72647 12.4972 6.17361 11.2345 6.46845Z" fill="white"/>
<path fill-rule="evenodd" clip-rule="evenodd" d="M9.94194 11.5499L2.9337 11.5571C2.58641 10.5591 1.7759 10.5142 1.23735 10.8906C0.107952 11.6798 1.40523 13.508 2.53513 12.6354C2.97981 12.292 2.50406 12.2755 3.59437 12.2831L9.2497 12.2907C10.343 12.288 9.87412 12.2631 10.3345 12.6089C11.4348 13.4347 12.779 11.7993 11.6189 10.8763C11.1021 10.465 10.3024 10.5537 9.94194 11.5499Z" fill="white"/>
<path fill-rule="evenodd" clip-rule="evenodd" d="M18.649 21.6858C18.8213 21.7344 18.649 21.6858 18.8213 21.7344L19.3911 21.8789L19.7236 21.9652L20.1822 22.0723C20.188 22.0803 20.4216 22.1093 20.4216 22.1093L20.1603 22.0672C20.2868 22.1148 20.2871 22.0969 20.4973 22.1471C21.0519 21.7371 23.5674 17.9329 23.7688 16.8623C23.7553 16.8492 23.6643 16.8499 23.6579 16.8422L23.5465 16.7862C23.6579 16.7862 23.2959 16.7302 23.4351 16.7302H23.1566L22.9339 16.6742C23.1566 16.7031 22.5068 16.6257 22.2658 16.6183C22.0685 16.5317 22.3214 16.6183 22.0685 16.5317C21.7092 17.4626 21.104 18.4999 20.5763 19.2553L18.9893 21.2736C18.8179 21.4414 18.9893 21.2736 18.649 21.6858Z" fill="white"/>
<path fill-rule="evenodd" clip-rule="evenodd" d="M2.4678 5.48585C1.76688 5.81498 2.28739 6.7316 2.8951 6.48702C3.53689 6.22866 3.20013 5.14209 2.4678 5.48585Z" fill="white"/>
<path d="M43.0463 22.9013C41.3819 22.9013 39.9523 22.5813 38.7573 21.9413C37.5624 21.3013 36.6448 20.3982 36.0047 19.232C35.3787 18.0658 35.0658 16.7004 35.0658 15.136C35.0658 13.9698 35.2436 12.9102 35.5992 11.9573C35.9691 11.0044 36.4955 10.1867 37.1783 9.504C37.8753 8.82133 38.7146 8.30222 39.6962 7.94667C40.692 7.57689 41.8087 7.392 43.0463 7.392C43.7007 7.392 44.3764 7.47022 45.0735 7.62667C45.7847 7.76889 46.4107 7.98933 46.9512 8.288C47.3496 8.50133 47.627 8.77155 47.7834 9.09867C47.9399 9.42578 47.9897 9.76 47.9328 10.1013C47.8901 10.4427 47.7692 10.7484 47.5701 11.0187C47.3709 11.2889 47.1148 11.4738 46.8019 11.5733C46.4889 11.6587 46.1475 11.6089 45.7776 11.424C45.3509 11.2249 44.9241 11.0756 44.4973 10.976C44.0848 10.8622 43.6509 10.8053 43.1957 10.8053C42.3137 10.8053 41.574 10.976 40.9765 11.3173C40.3933 11.6444 39.9523 12.128 39.6535 12.768C39.3548 13.408 39.2054 14.1973 39.2054 15.136C39.2054 16.0747 39.3548 16.8711 39.6535 17.5253C39.9523 18.1653 40.3933 18.656 40.9765 18.9973C41.574 19.3244 42.3137 19.488 43.1957 19.488C43.5656 19.488 43.9639 19.4453 44.3906 19.36C44.8174 19.2604 45.2371 19.1111 45.6496 18.912C46.0764 18.7271 46.4533 18.6773 46.7805 18.7627C47.1219 18.848 47.3922 19.0187 47.5914 19.2747C47.8048 19.5307 47.9399 19.8293 47.9968 20.1707C48.0537 20.4978 48.0039 20.8249 47.8475 21.152C47.7052 21.4791 47.4491 21.7422 47.0793 21.9413C46.5814 22.24 45.9626 22.4747 45.2228 22.6453C44.4973 22.816 43.7718 22.9013 43.0463 22.9013Z" fill="white"/>
<path d="M56.8957 22.9013C55.3736 22.9013 54.0364 22.5813 52.8841 21.9413C51.7319 21.2871 50.8357 20.3769 50.1955 19.2107C49.5696 18.0444 49.2566 16.6862 49.2566 15.136C49.2566 13.9698 49.4344 12.9102 49.7901 11.9573C50.1599 11.0044 50.6792 10.1867 51.3478 9.504C52.0306 8.82133 52.8415 8.30222 53.7803 7.94667C54.7192 7.57689 55.7577 7.392 56.8957 7.392C58.4179 7.392 59.748 7.712 60.886 8.352C62.0383 8.992 62.9345 9.89511 63.5746 11.0613C64.2148 12.2133 64.5349 13.5716 64.5349 15.136C64.5349 16.3022 64.3499 17.3618 63.9801 18.3147C63.6244 19.2676 63.1052 20.0924 62.4224 20.7893C61.7538 21.472 60.95 21.9982 60.0111 22.368C59.0723 22.7236 58.0338 22.9013 56.8957 22.9013ZM56.8957 19.616C57.6497 19.616 58.2899 19.4382 58.8162 19.0827C59.3425 18.7271 59.748 18.2151 60.0325 17.5467C60.317 16.8782 60.4592 16.0747 60.4592 15.136C60.4592 13.728 60.1463 12.6329 59.5204 11.8507C58.8944 11.0684 58.0196 10.6773 56.8957 10.6773C56.156 10.6773 55.5159 10.8551 54.9753 11.2107C54.4489 11.552 54.0435 12.0569 53.759 12.7253C53.4745 13.3796 53.3322 14.1831 53.3322 15.136C53.3322 16.544 53.6452 17.6462 54.2711 18.4427C54.897 19.2249 55.7719 19.616 56.8957 19.616Z" fill="white"/>
<path d="M68.6882 22.8587C68.0907 22.8587 67.6355 22.7022 67.3225 22.3893C67.0096 22.0764 66.8531 21.6142 66.8531 21.0027V9.376C66.8531 8.75022 67.0096 8.27378 67.3225 7.94667C67.6355 7.60533 68.048 7.43467 68.5602 7.43467C69.0154 7.43467 69.371 7.52 69.6271 7.69067C69.8831 7.86133 70.1676 8.14578 70.4806 8.544L77.2449 16.992H76.6474V9.26933C76.6474 8.672 76.7967 8.21689 77.0955 7.904C77.4084 7.59111 77.8637 7.43467 78.4611 7.43467C79.0586 7.43467 79.5067 7.59111 79.8055 7.904C80.1184 8.21689 80.2749 8.672 80.2749 9.26933V21.088C80.2749 21.6284 80.1326 22.0622 79.8481 22.3893C79.5636 22.7022 79.1795 22.8587 78.6959 22.8587C78.2122 22.8587 77.8281 22.7733 77.5436 22.6027C77.2733 22.4178 76.9817 22.1333 76.6687 21.7493L69.9045 13.28H70.5019V21.0027C70.5019 21.6142 70.3455 22.0764 70.0325 22.3893C69.7338 22.7022 69.2857 22.8587 68.6882 22.8587Z" fill="white"/>
<path d="M84.8586 22.8587C84.2612 22.8587 83.806 22.7022 83.493 22.3893C83.18 22.0764 83.0235 21.6142 83.0235 21.0027V9.376C83.0235 8.75022 83.18 8.27378 83.493 7.94667C83.806 7.60533 84.2185 7.43467 84.7306 7.43467C85.1858 7.43467 85.5415 7.52 85.7975 7.69067C86.0536 7.86133 86.3381 8.14578 86.6511 8.544L93.4153 16.992H92.8178V9.26933C92.8178 8.672 92.9672 8.21689 93.2659 7.904C93.5789 7.59111 94.0341 7.43467 94.6316 7.43467C95.2291 7.43467 95.6772 7.59111 95.9759 7.904C96.2889 8.21689 96.4454 8.672 96.4454 9.26933V21.088C96.4454 21.6284 96.3031 22.0622 96.0186 22.3893C95.7341 22.7022 95.35 22.8587 94.8663 22.8587C94.3827 22.8587 93.9986 22.7733 93.7141 22.6027C93.4438 22.4178 93.1522 22.1333 92.8392 21.7493L86.0749 13.28H86.6724V21.0027C86.6724 21.6142 86.5159 22.0764 86.203 22.3893C85.9042 22.7022 85.4561 22.8587 84.8586 22.8587Z" fill="white"/>
<path d="M101.242 22.6667C100.574 22.6667 100.062 22.496 99.7061 22.1547C99.3647 21.7991 99.194 21.2942 99.194 20.64V9.65333C99.194 8.99911 99.3647 8.50133 99.7061 8.16C100.062 7.80444 100.574 7.62667 101.242 7.62667H108.476C108.988 7.62667 109.372 7.75467 109.628 8.01067C109.885 8.26667 110.013 8.63644 110.013 9.12C110.013 9.61778 109.885 10.0018 109.628 10.272C109.372 10.528 108.988 10.656 108.476 10.656H102.95V13.5147H108.007C108.505 13.5147 108.882 13.6427 109.138 13.8987C109.408 14.1547 109.543 14.5316 109.543 15.0293C109.543 15.5271 109.408 15.904 109.138 16.16C108.882 16.416 108.505 16.544 108.007 16.544H102.95V19.6373H108.476C108.988 19.6373 109.372 19.7724 109.628 20.0427C109.885 20.2987 110.013 20.6684 110.013 21.152C110.013 21.6498 109.885 22.0267 109.628 22.2827C109.372 22.5387 108.988 22.6667 108.476 22.6667H101.242Z" fill="white"/>
<path d="M119.939 22.9013C118.275 22.9013 116.845 22.5813 115.65 21.9413C114.455 21.3013 113.538 20.3982 112.898 19.232C112.272 18.0658 111.959 16.7004 111.959 15.136C111.959 13.9698 112.137 12.9102 112.492 11.9573C112.862 11.0044 113.389 10.1867 114.071 9.504C114.768 8.82133 115.608 8.30222 116.589 7.94667C117.585 7.57689 118.702 7.392 119.939 7.392C120.594 7.392 121.269 7.47022 121.967 7.62667C122.678 7.76889 123.304 7.98933 123.844 8.288C124.243 8.50133 124.52 8.77155 124.676 9.09867C124.833 9.42578 124.883 9.76 124.826 10.1013C124.783 10.4427 124.662 10.7484 124.463 11.0187C124.264 11.2889 124.008 11.4738 123.695 11.5733C123.382 11.6587 123.041 11.6089 122.671 11.424C122.244 11.2249 121.817 11.0756 121.39 10.976C120.978 10.8622 120.544 10.8053 120.089 10.8053C119.207 10.8053 118.467 10.976 117.87 11.3173C117.286 11.6444 116.845 12.128 116.547 12.768C116.248 13.408 116.098 14.1973 116.098 15.136C116.098 16.0747 116.248 16.8711 116.547 17.5253C116.845 18.1653 117.286 18.656 117.87 18.9973C118.467 19.3244 119.207 19.488 120.089 19.488C120.459 19.488 120.857 19.4453 121.284 19.36C121.71 19.2604 122.13 19.1111 122.543 18.912C122.969 18.7271 123.346 18.6773 123.674 18.7627C124.015 18.848 124.285 19.0187 124.484 19.2747C124.698 19.5307 124.833 19.8293 124.89 20.1707C124.947 20.4978 124.897 20.8249 124.741 21.152C124.598 21.4791 124.342 21.7422 123.972 21.9413C123.474 22.24 122.856 22.4747 122.116 22.6453C121.39 22.816 120.665 22.9013 119.939 22.9013Z" fill="white"/>
<path d="M132.331 22.8587C131.705 22.8587 131.221 22.688 130.88 22.3467C130.538 21.9911 130.368 21.5004 130.368 20.8747V10.8267H127.018C126.491 10.8267 126.086 10.6916 125.801 10.4213C125.531 10.1369 125.396 9.73867 125.396 9.22667C125.396 8.70044 125.531 8.30222 125.801 8.032C126.086 7.76178 126.491 7.62667 127.018 7.62667H137.644C138.17 7.62667 138.569 7.76178 138.839 8.032C139.124 8.30222 139.266 8.70044 139.266 9.22667C139.266 9.73867 139.124 10.1369 138.839 10.4213C138.569 10.6916 138.17 10.8267 137.644 10.8267H134.294V20.8747C134.294 21.5004 134.13 21.9911 133.803 22.3467C133.476 22.688 132.985 22.8587 132.331 22.8587Z" fill="white"/>
<path d="M142.073 22.6667C141.731 22.6667 141.468 22.5742 141.283 22.3893C141.098 22.2044 141.006 21.9413 141.006 21.6V8.69333C141.006 8.352 141.098 8.08889 141.283 7.904C141.468 7.71911 141.731 7.62667 142.073 7.62667H146.191C148.652 7.62667 150.544 8.27378 151.867 9.568C153.204 10.848 153.873 12.704 153.873 15.136C153.873 16.3449 153.702 17.4187 153.361 18.3573C153.019 19.296 152.522 20.0853 151.867 20.7253C151.213 21.3511 150.409 21.8347 149.456 22.176C148.517 22.5031 147.429 22.6667 146.191 22.6667H142.073ZM142.99 20.9813H146.063C147.031 20.9813 147.87 20.8604 148.581 20.6187C149.292 20.3769 149.883 20.0142 150.352 19.5307C150.836 19.0471 151.199 18.4427 151.44 17.7173C151.682 16.9778 151.803 16.1173 151.803 15.136C151.803 13.1876 151.32 11.7298 150.352 10.7627C149.399 9.79556 147.969 9.312 146.063 9.312H142.99V20.9813Z" fill="white"/>
<path d="M158.014 22.6667C157.673 22.6667 157.41 22.5742 157.225 22.3893C157.04 22.2044 156.947 21.9413 156.947 21.6V8.69333C156.947 8.352 157.04 8.08889 157.225 7.904C157.41 7.71911 157.673 7.62667 158.014 7.62667H165.867C166.137 7.62667 166.343 7.69778 166.485 7.84C166.642 7.968 166.72 8.16 166.72 8.416C166.72 8.68622 166.642 8.89244 166.485 9.03467C166.343 9.17689 166.137 9.248 165.867 9.248H158.868V14.2187H165.419C165.689 14.2187 165.895 14.2898 166.037 14.432C166.18 14.5742 166.251 14.7733 166.251 15.0293C166.251 15.2996 166.18 15.5058 166.037 15.648C165.895 15.776 165.689 15.84 165.419 15.84H158.868V21.0453H165.867C166.137 21.0453 166.343 21.1164 166.485 21.2587C166.642 21.3867 166.72 21.5858 166.72 21.856C166.72 22.1262 166.642 22.3324 166.485 22.4747C166.343 22.6027 166.137 22.6667 165.867 22.6667H158.014Z" fill="white"/>
<path d="M168.945 22.816C168.689 22.816 168.483 22.7591 168.326 22.6453C168.184 22.5316 168.099 22.3751 168.07 22.176C168.042 21.9769 168.084 21.7564 168.198 21.5147L174.024 8.33067C174.152 8.032 174.315 7.81867 174.514 7.69067C174.714 7.54844 174.934 7.47733 175.176 7.47733C175.418 7.47733 175.631 7.54844 175.816 7.69067C176.015 7.81867 176.186 8.032 176.328 8.33067L182.153 21.5147C182.267 21.7564 182.31 21.984 182.282 22.1973C182.267 22.3964 182.189 22.5529 182.047 22.6667C181.905 22.7662 181.705 22.816 181.449 22.816C181.165 22.816 180.937 22.7449 180.766 22.6027C180.596 22.4462 180.446 22.2258 180.318 21.9413L178.803 18.4L179.721 18.912H170.588L171.506 18.4L169.991 21.9413C169.863 22.2542 169.72 22.4818 169.564 22.624C169.407 22.752 169.201 22.816 168.945 22.816ZM175.133 9.86667L171.804 17.7387L171.292 17.2907H179.017L178.526 17.7387L175.176 9.86667H175.133Z" fill="white"/>
<path d="M185.854 22.816C185.526 22.816 185.27 22.7236 185.085 22.5387C184.9 22.3538 184.808 22.0907 184.808 21.7493V8.69333C184.808 8.352 184.9 8.08889 185.085 7.904C185.27 7.71911 185.533 7.62667 185.875 7.62667H193.535C193.82 7.62667 194.033 7.69778 194.175 7.84C194.318 7.968 194.389 8.16 194.389 8.416C194.389 8.68622 194.318 8.89244 194.175 9.03467C194.033 9.17689 193.82 9.248 193.535 9.248H186.792V14.2827H193.109C193.379 14.2827 193.585 14.3538 193.727 14.496C193.87 14.6382 193.941 14.8302 193.941 15.072C193.941 15.3422 193.87 15.5484 193.727 15.6907C193.585 15.8329 193.379 15.904 193.109 15.904H186.792V21.7493C186.792 22.4604 186.479 22.816 185.854 22.816Z" fill="white"/>
</svg>
