<svg width="123" height="48" viewBox="0 0 123 48" fill="none" xmlns="http://www.w3.org/2000/svg">
<g clip-path="url(#clip0_20_318)">
<path d="M118.723 8.03553L117.408 7.50232C117.811 7.6754 118.153 7.96671 118.387 8.33791C118.622 8.7091 118.739 9.14278 118.723 9.58186V41.1055C118.74 41.5455 118.624 41.9803 118.389 42.3526C118.154 42.7248 117.812 43.017 117.408 43.1904L118.723 42.6572L121.684 41.4788C122.085 41.3067 122.425 41.0178 122.66 40.6498C122.894 40.2818 123.013 39.8516 123 39.4152V11.3521C123.015 10.916 122.898 10.4857 122.664 10.1174C122.43 9.7492 122.09 9.46029 121.69 9.28859L121.573 9.24593L118.723 8.03553Z" fill="#FFCC40"/>
<path d="M64.3548 34.611C62.2598 34.6161 60.2278 33.8937 58.6052 32.567C56.9825 31.2402 55.8697 29.3912 55.4563 27.335C55.0429 25.2788 55.3546 23.1427 56.3381 21.2907C57.3217 19.4388 58.9163 17.9857 60.8502 17.179C62.7841 16.3723 64.9375 16.2619 66.9436 16.8668C68.9496 17.4716 70.6841 18.7542 71.8513 20.4959C73.0186 22.2376 73.5464 24.3307 73.3449 26.4184C73.1434 28.5061 72.2249 30.4592 70.7461 31.9449C69.0526 33.6462 66.7539 34.6051 64.3548 34.611ZM64.3548 19.9049C63.2359 19.9049 62.1422 20.2368 61.2116 20.8587C60.281 21.4806 59.5553 22.3645 59.1262 23.399C58.6971 24.4335 58.5837 25.572 58.8005 26.6709C59.0172 27.7699 59.5543 28.7798 60.344 29.5734C61.1336 30.3669 62.1404 30.9084 63.2373 31.1295C64.3341 31.3506 65.4718 31.2414 66.5067 30.8157C67.5415 30.39 68.4272 29.6668 69.0519 28.7375C69.6765 27.8082 70.0122 26.7144 70.0164 25.5943C70.0171 24.8495 69.8712 24.1119 69.587 23.4236C69.3027 22.7353 68.8858 22.1098 68.36 21.5829C67.8342 21.056 67.2099 20.638 66.5226 20.3529C65.8354 20.0677 65.0987 19.9209 64.3548 19.9209V19.9049Z" fill="white"/>
<path d="M77.0095 42.124C77.1507 42.124 77.2862 42.1801 77.3861 42.2801C77.486 42.3801 77.5421 42.5158 77.5421 42.6572V45.5685C77.5644 45.9345 77.7253 46.2782 77.992 46.5295C78.2588 46.7807 78.6112 46.9206 78.9775 46.9206C79.3437 46.9206 79.6961 46.7807 79.9629 46.5295C80.2296 46.2782 80.3905 45.9345 80.4128 45.5685V42.6572C80.4128 42.5158 80.4689 42.3801 80.5688 42.2801C80.6687 42.1801 80.8042 42.124 80.9454 42.124C81.0867 42.124 81.2222 42.1801 81.322 42.2801C81.4219 42.3801 81.478 42.5158 81.478 42.6572V45.5685C81.4485 46.2069 81.1743 46.8094 80.7126 47.2507C80.2509 47.692 79.6371 47.9382 78.9988 47.9382C78.3604 47.9382 77.7466 47.692 77.2849 47.2507C76.8232 46.8094 76.549 46.2069 76.5195 45.5685V42.6572C76.519 42.5228 76.5693 42.3933 76.6601 42.2945C76.751 42.1956 76.8757 42.1347 77.0095 42.124Z" fill="#FFCC40"/>
<path d="M87.1876 45.0407C87.1902 45.4064 87.2971 45.7638 87.4958 46.0708C87.6945 46.3778 87.9767 46.6215 88.3091 46.7734C88.6415 46.9252 89.0103 46.9788 89.3721 46.9278C89.7339 46.8768 90.0736 46.7234 90.3513 46.4857C90.3992 46.4224 90.4607 46.3707 90.5311 46.3343C90.6016 46.2979 90.6793 46.2777 90.7585 46.2751C90.8378 46.2726 90.9166 46.2878 90.9892 46.3197C91.0618 46.3515 91.1264 46.3992 91.1783 46.4593C91.2302 46.5193 91.268 46.5902 91.289 46.6668C91.31 46.7433 91.3137 46.8236 91.2998 46.9017C91.2859 46.9799 91.2547 47.0539 91.2085 47.1185C91.1624 47.183 91.1024 47.2364 91.033 47.2748C90.4965 47.74 89.8093 47.994 89.0996 47.9893C88.7115 47.9893 88.3271 47.9128 87.9684 47.7641C87.6098 47.6153 87.2839 47.3974 87.0095 47.1226C86.735 46.8478 86.5172 46.5215 86.3687 46.1625C86.2201 45.8034 86.1437 45.4186 86.1437 45.03C86.1437 44.6414 86.2201 44.2565 86.3687 43.8975C86.5172 43.5385 86.735 43.2122 87.0095 42.9374C87.2839 42.6626 87.6098 42.4446 87.9684 42.2959C88.3271 42.1472 88.7115 42.0706 89.0996 42.0706C89.8142 42.0674 90.5054 42.3252 91.0436 42.7958C91.1455 42.8726 91.2166 42.9833 91.2438 43.108C91.2711 43.2327 91.2527 43.3631 91.1921 43.4754C91.1315 43.5877 91.0327 43.6745 90.9135 43.7201C90.7944 43.7656 90.663 43.7669 90.543 43.7236C90.4797 43.686 90.4238 43.6373 90.3779 43.5796C90.1002 43.3419 89.7605 43.1885 89.3987 43.1375C89.0369 43.0865 88.6681 43.1401 88.3357 43.2919C88.0033 43.4438 87.7211 43.6875 87.5224 43.9945C87.3238 44.3015 87.2168 44.6589 87.2142 45.0247L87.1876 45.0407Z" fill="#FFCC40"/>
<path d="M82.6871 47.9253C82.5458 47.9253 82.4103 47.8692 82.3105 47.7692C82.2106 47.6692 82.1545 47.5335 82.1545 47.3921V42.5932C82.1478 42.5357 82.1531 42.4775 82.1699 42.4222C82.1867 42.3669 82.2147 42.3156 82.2522 42.2716C82.2897 42.2275 82.3358 42.1917 82.3877 42.1663C82.4396 42.1409 82.4962 42.1265 82.5539 42.124H85.5045C85.6345 42.124 85.7591 42.1756 85.851 42.2676C85.9429 42.3596 85.9946 42.4844 85.9946 42.6145C85.9946 42.7446 85.9429 42.8694 85.851 42.9614C85.7591 43.0534 85.6345 43.1051 85.5045 43.1051H83.4593C83.4043 43.1051 83.3514 43.127 83.3125 43.166C83.2735 43.205 83.2516 43.2579 83.2516 43.313V44.3795C83.2516 44.4342 83.2725 44.4869 83.3102 44.5266C83.3479 44.5663 83.3994 44.59 83.454 44.5927H85.0518C85.1719 44.5927 85.2871 44.6405 85.372 44.7255C85.4569 44.8105 85.5045 44.9258 85.5045 45.046C85.5045 45.1662 85.4569 45.2815 85.372 45.3665C85.2871 45.4515 85.1719 45.4992 85.0518 45.4992H83.454C83.3989 45.4992 83.3461 45.5211 83.3071 45.5601C83.2682 45.5991 83.2463 45.652 83.2463 45.7072V47.3068C83.2629 47.4459 83.2242 47.586 83.1385 47.6968C83.0528 47.8075 82.927 47.8801 82.7883 47.8987L82.6871 47.9253Z" fill="#FFCC40"/>
<path d="M51.1302 34.5577C50.6843 34.5563 50.257 34.3783 49.9417 34.0626C49.6263 33.7469 49.4486 33.3191 49.4472 32.8727V27.066C49.4458 25.1657 48.6922 23.3434 47.3515 21.9982C46.0109 20.653 44.1924 19.8946 42.2943 19.8889H39.2424V32.8727C39.2182 33.3039 39.0301 33.7094 38.7166 34.0061C38.4031 34.3028 37.9881 34.4681 37.5567 34.4681C37.1254 34.4681 36.7103 34.3028 36.3969 34.0061C36.0834 33.7094 35.8953 33.3039 35.871 32.8727V18.204C35.8752 17.7584 36.055 17.3326 36.3712 17.0191C36.6873 16.7055 37.1144 16.5296 37.5594 16.5297H42.2943C43.6789 16.529 45.0501 16.8014 46.3295 17.3314C47.6089 17.8614 48.7715 18.6385 49.7508 19.6185C50.7301 20.5984 51.507 21.7619 52.037 23.0426C52.567 24.3232 52.8399 25.6958 52.8399 27.082V32.8727C52.8399 33.3196 52.6625 33.7482 52.3469 34.0641C52.0313 34.3801 51.6032 34.5577 51.1568 34.5577H51.1302Z" fill="white"/>
<path d="M26.4279 34.595C24.9609 34.6054 23.5133 34.2589 22.2098 33.5851C20.9062 32.9114 19.7857 31.9306 18.9447 30.7272C18.1036 29.5238 17.5673 28.1339 17.3817 26.677C17.1962 25.2201 17.367 23.7398 17.8796 22.3637C18.3921 20.9875 19.2309 19.7566 20.3239 18.777C21.4169 17.7973 22.7313 17.0982 24.154 16.7399C25.5767 16.3815 27.0651 16.3746 28.491 16.7197C29.917 17.0648 31.2378 17.7517 32.3398 18.7211C32.5219 18.8797 32.668 19.0755 32.7681 19.2953C32.8683 19.5151 32.9202 19.7539 32.9204 19.9955V25.5943C32.9204 26.0412 32.743 26.4697 32.4274 26.7857C32.1118 27.1017 31.6837 27.2792 31.2373 27.2792H26.4439C26.2212 27.2939 25.9978 27.2641 25.7867 27.1918C25.5755 27.1194 25.3808 27.0059 25.2138 26.8577C25.0467 26.7095 24.9107 26.5297 24.8135 26.3285C24.7163 26.1274 24.66 25.909 24.6476 25.6859C24.6353 25.4628 24.6673 25.2395 24.7417 25.0289C24.8162 24.8182 24.9316 24.6244 25.0813 24.4587C25.231 24.293 25.412 24.1587 25.6139 24.0635C25.8158 23.9683 26.0345 23.9141 26.2575 23.904H29.5649V20.8487C28.687 20.2644 27.6635 19.9371 26.6098 19.9037C25.5561 19.8702 24.514 20.132 23.6009 20.6595C22.6878 21.187 21.9399 21.9593 21.4416 22.8894C20.9432 23.8194 20.7141 24.8703 20.7801 25.9237C20.8461 26.9771 21.2045 27.9911 21.8151 28.8515C22.4256 29.7119 23.264 30.3846 24.2358 30.7937C25.2076 31.2029 26.2742 31.3323 27.3155 31.1673C28.3568 31.0023 29.3314 30.5496 30.1295 29.86C30.2825 29.6848 30.4701 29.5431 30.6804 29.4438C30.8907 29.3446 31.1192 29.2898 31.3516 29.2831C31.584 29.2764 31.8152 29.3178 32.0309 29.4047C32.2466 29.4916 32.442 29.6222 32.6049 29.7882C32.7679 29.9543 32.8948 30.1522 32.9777 30.3697C33.0607 30.5871 33.0979 30.8194 33.087 31.0519C33.0761 31.2844 33.0173 31.5121 32.9144 31.7208C32.8115 31.9296 32.6667 32.1147 32.4889 32.2648L32.3451 32.3928C30.7005 33.8138 28.6003 34.5954 26.4279 34.595Z" fill="white"/>
<path d="M9.10756 34.595C7.64101 34.6037 6.19427 34.2557 4.89179 33.5808C3.58932 32.9059 2.47008 31.9244 1.63036 30.7206C0.790634 29.5169 0.255553 28.1269 0.0711371 26.6703C-0.113279 25.2137 0.0584914 23.734 0.571673 22.3586C1.08485 20.9832 1.92409 19.7531 3.01719 18.7742C4.11029 17.7954 5.42454 17.097 6.84691 16.7391C8.26927 16.3813 9.75717 16.3747 11.1826 16.72C12.6081 17.0652 13.9285 17.752 15.0301 18.7212C15.3762 19.004 15.5959 19.4129 15.6408 19.8579C15.6858 20.3029 15.5523 20.7475 15.2698 21.094C14.9873 21.4404 14.5789 21.6604 14.1344 21.7054C13.6899 21.7504 13.2458 21.6167 12.8997 21.3339L12.8198 21.2699C11.9991 20.5567 10.9908 20.0947 9.9152 19.9392C8.83957 19.7836 7.74193 19.941 6.75314 20.3926C5.76436 20.8441 4.92612 21.5708 4.33834 22.486C3.75057 23.4012 3.43806 24.4663 3.43806 25.5543C3.43806 26.6423 3.75057 27.7074 4.33834 28.6226C4.92612 29.5378 5.76436 30.2645 6.75314 30.7161C7.74193 31.1676 8.83957 31.325 9.9152 31.1694C10.9908 31.0139 11.9991 30.5519 12.8198 29.8387C12.9873 29.6941 13.1817 29.5839 13.3917 29.5145C13.6017 29.4451 13.8234 29.4178 14.0439 29.4341C14.2645 29.4505 14.4797 29.5102 14.6773 29.6098C14.8748 29.7094 15.0508 29.8469 15.1952 30.0146C15.3397 30.1824 15.4497 30.3769 15.519 30.5872C15.5884 30.7974 15.6157 31.0193 15.5993 31.2402C15.583 31.461 15.5234 31.6764 15.4239 31.8742C15.3244 32.072 15.187 32.2482 15.0195 32.3928C13.3748 33.8101 11.2777 34.5912 9.10756 34.595Z" fill="white"/>
<path fill-rule="evenodd" clip-rule="evenodd" d="M91.9544 25.5943C91.9576 24.473 91.6285 23.376 91.0088 22.442C90.3891 21.5081 89.5066 20.7791 88.473 20.3473C87.4393 19.9155 86.301 19.8004 85.202 20.0164C84.103 20.2324 83.0927 20.77 82.2989 21.5609C81.5051 22.3519 80.9635 23.3609 80.7425 24.4601C80.5215 25.5593 80.6312 26.6994 81.0576 27.7363C81.484 28.7731 82.208 29.66 83.138 30.2848C84.068 30.9096 85.1622 31.2442 86.2822 31.2464C87.7828 31.2492 89.2232 30.6555 90.2868 29.5956C91.3504 28.5358 91.9502 27.0966 91.9544 25.5943Z" fill="white"/>
<path fill-rule="evenodd" clip-rule="evenodd" d="M117.413 7.50231C116.939 7.29377 116.421 7.20936 115.906 7.25703L108.119 7.89156V2.66605C108.119 1.95896 107.838 1.28084 107.339 0.780852C106.84 0.280866 106.162 -2.30717e-05 105.456 -2.30717e-05C105.355 -0.00796757 105.253 -0.00796757 105.152 -2.30717e-05L87.9279 2.20215C87.2896 2.28593 86.7032 2.59838 86.2772 3.08168C85.8513 3.56497 85.6146 4.18638 85.6111 4.8309V9.43255L76.8923 10.1577C76.2961 10.2072 75.7402 10.4791 75.3347 10.9196C74.9293 11.36 74.7039 11.9369 74.7033 12.5359V35.7734C74.7057 36.3517 74.9166 36.9097 75.2973 37.3447C75.678 37.7797 76.2028 38.0624 76.7751 38.1408L77.2598 38.2048V25.5943C77.2569 23.5381 77.9522 21.5421 79.2318 19.9337C80.5114 18.3254 82.2991 17.2004 84.3016 16.7433C86.304 16.2863 88.4021 16.5244 90.2516 17.4186C92.101 18.3128 93.5919 19.8098 94.4794 21.6641C95.3669 23.5184 95.5983 25.6196 95.1357 27.623C94.6731 29.6263 93.544 31.4126 91.9336 32.6888C90.3232 33.9649 88.3273 34.655 86.2735 34.6458C84.2197 34.6366 82.2301 33.9286 80.6312 32.6381V38.7167L99.6559 41.2601C98.449 39.8658 97.7852 38.0823 97.7865 36.2373C97.7739 36.0156 97.805 35.7937 97.8781 35.5841C97.9512 35.3746 98.0648 35.1814 98.2124 35.0158C98.36 34.8502 98.5388 34.7153 98.7385 34.6189C98.9382 34.5224 99.1549 34.4663 99.3763 34.4537C99.5977 34.4411 99.8193 34.4722 100.029 34.5454C100.238 34.6186 100.431 34.7323 100.596 34.8801C100.762 35.0279 100.896 35.2069 100.993 35.4068C101.089 35.6067 101.145 35.8237 101.158 36.0453C101.163 36.1092 101.163 36.1734 101.158 36.2373C101.158 37.3785 101.611 38.473 102.417 39.28C103.223 40.0869 104.316 40.5403 105.456 40.5403C106.596 40.5403 107.689 40.0869 108.495 39.28C109.301 38.473 109.754 37.3785 109.754 36.2373C109.754 33.5339 107.368 32.5048 105.296 31.9449L104.95 31.8489L104.742 31.7849C103.366 31.4279 102.062 30.8363 100.886 30.036C99.9465 29.3925 99.1797 28.5269 98.6539 27.5159C98.1281 26.5049 97.8594 25.3797 97.8717 24.2399C97.87 22.7188 98.3197 21.2315 99.1637 19.9667C100.008 18.7018 101.208 17.7164 102.612 17.1355C104.016 16.5545 105.561 16.4042 107.051 16.7036C108.54 17.003 109.908 17.7386 110.979 18.8171C111.294 19.1346 111.47 19.5644 111.469 20.0119C111.467 20.4593 111.288 20.8879 110.971 21.2033C110.654 21.5186 110.225 21.695 109.778 21.6935C109.331 21.692 108.903 21.5127 108.588 21.1953C107.987 20.5909 107.22 20.1788 106.385 20.0114C105.55 19.844 104.684 19.9287 103.897 20.255C103.11 20.5812 102.437 21.1342 101.965 21.8437C101.493 22.5532 101.241 23.3872 101.243 24.2399C101.243 26.3301 102.612 27.6578 105.674 28.543L105.957 28.6283L106.202 28.6976C107.593 29.0268 108.915 29.601 110.106 30.3932C111.05 31.0343 111.821 31.9009 112.347 32.9147C112.873 33.9285 113.139 35.0575 113.12 36.1999C113.122 37.4637 112.813 38.7084 112.219 39.8237C111.625 40.9389 110.766 41.8902 109.717 42.5932L115.847 43.4143H115.89C116.405 43.462 116.924 43.3776 117.397 43.1691C117.798 42.997 118.138 42.7081 118.372 42.3401C118.607 41.9721 118.725 41.5419 118.713 41.1055V9.59785C118.733 9.15791 118.62 8.72204 118.388 8.34787C118.156 7.9737 117.816 7.67885 117.413 7.50231ZM103.672 8.21682L88.7162 9.2086V6.16927C88.7157 5.95642 88.7928 5.75071 88.933 5.59071C89.0732 5.4307 89.2669 5.32739 89.4778 5.30013L102.692 3.91377C102.806 3.902 102.921 3.91299 103.031 3.9461C103.141 3.97921 103.243 4.03378 103.332 4.10666C103.42 4.17955 103.494 4.2693 103.547 4.37073C103.601 4.47216 103.634 4.58325 103.645 4.6976C103.648 4.72597 103.648 4.75455 103.645 4.78291L103.672 8.21682Z" fill="white"/>
</g>
<defs>
<clipPath id="clip0_20_318">
<rect width="123" height="48" fill="white"/>
</clipPath>
</defs>
</svg>
