<svg width="72" height="96" viewBox="0 0 72 96" fill="none" xmlns="http://www.w3.org/2000/svg">
<title>Logo Icon</title>
<path fill-rule="evenodd" clip-rule="evenodd" d="M33.6725 13.8283C43.3312 12.9574 51.2654 17.4309 55.1232 24.9926C60.2742 35.0884 57.5892 46.5452 51.0805 54.4534L48.6009 57.3676C47.5583 58.6505 44.3889 61.8487 43.3943 63.1301L40.8902 66.1916C38.0024 69.9752 37.4162 73.9036 35.8254 77.6772C33.5167 83.1552 31.5713 80.2288 29.1022 81.9066C27.035 83.311 28.0912 87.5314 33.4997 86.482C36.4357 85.9121 38.3551 83.4366 39.5976 81.4669C41.0876 79.1043 41.5586 76.2137 42.6694 73.5612C45.0021 67.9924 48.9952 64.8643 52.1196 61.0756C54.2915 58.4418 54.8692 57.941 57.0717 54.9007C65.5189 43.2406 64.8731 24.2332 53.3997 14.9034C49.4847 11.7199 44.3302 9.06229 37.6551 8.72846C23.7579 8.03355 14.3512 16.2912 10.063 25.1555C9.28789 26.7571 9.4863 28.3638 10.8135 29.0415C13.6117 30.4701 14.7881 26.6109 16.4916 24.0668C19.9847 18.8494 25.8301 14.5353 33.6725 13.8288V13.8283Z" fill="white"/>
<path fill-rule="evenodd" clip-rule="evenodd" d="M64.0685 50.4996C64.4628 50.8834 64.1471 50.9172 64.3996 51.3852C64.8866 51.1174 65.7218 51.2188 66.4653 51.2188V50.5687L68.5295 50.5667C68.532 50.7488 68.511 51.2465 68.5295 51.3932L68.6668 51.7109C68.6848 51.7331 68.7635 51.773 68.8026 51.8103C70.2405 49.9843 71.6564 42.0791 71.8879 39.1361C72.9084 26.1584 66.8792 13.1019 57.2095 6.31126C43.2726 -3.47638 23.3766 -1.68164 10.6562 10.3183C9.88564 11.0455 7.12752 13.5538 8.77738 15.3329C10.4944 17.1841 12.766 14.5185 13.6769 13.693C14.9029 12.5815 16.5552 11.289 18.1019 10.2643C27.0751 4.32085 39.533 3.05308 49.4802 7.52507C60.7782 12.6042 67.6247 24.7085 66.9573 37.4906C66.8371 39.7992 66.534 42.2561 66.043 44.4155C65.4974 46.8163 64.6607 48.4911 64.0674 50.4996H64.0685Z" fill="white"/>
<path fill-rule="evenodd" clip-rule="evenodd" d="M59.7988 66.0548C59.3949 65.7572 60.2096 65.7779 59.0142 66.3704L58.7892 66.1138C58.7707 66.0901 58.7371 66.0437 58.7201 66.021L57.3914 65.7174L57.3904 65.0654L54.7765 65.0633C54.6638 64.9025 54.6483 65.2756 54.5927 64.5505C54.2059 64.8576 54.1462 65.0371 53.805 65.4078L51.5986 67.7724C43.6454 76.205 45.1524 82.9846 40.514 87.3149C35.0499 92.4157 27.019 92.0965 23.5745 87.2831C21.9933 85.0733 22.4993 79.2453 22.5008 76.0643C22.5023 73.6987 22.9928 65.5772 21.9257 64.3089C20.7417 62.9015 18.6765 63.3649 17.9471 64.608C17.3383 65.6458 17.6029 68.8959 17.6029 70.3185C17.6024 74.4229 17.6229 78.5257 17.6154 82.6301C17.6114 84.798 17.4495 86.3638 18.2697 88.1903C20.1596 92.3981 24.3842 95.1459 28.9474 95.8126C32.5889 96.3446 36.4587 95.7122 39.312 94.3194C48.4947 89.8368 48.4336 81.6326 51.6988 76.0895C52.6091 74.5439 53.2349 73.847 54.2419 72.5736C55.243 71.3089 59.5302 66.792 59.7968 66.0548H59.7988Z" fill="white"/>
<path fill-rule="evenodd" clip-rule="evenodd" d="M4.37742 45.972L10.0946 45.976L10.0249 52.515L4.41299 52.5019L4.38243 47.3366L4.37742 45.9715V45.972ZM29.6609 45.9639C30.6394 45.9659 31.6179 45.9684 32.5964 45.9699C34.7027 45.974 34.4907 45.7334 35.0534 46.3446C37.7995 49.3275 41.6889 46.7904 40.9449 43.6876C40.3937 41.388 37.3836 40.3976 35.4978 42.0522C34.6531 42.7935 35.0894 43.5902 34.39 43.7289L11.8832 43.7496C2.73608 43.7516 2.1544 42.6301 2.13736 48.8141L2.12183 71.3314C-1.16436 72.5886 -0.512031 77.6082 3.23961 77.5891C4.87343 77.5805 6.14301 76.3641 6.36196 74.9057C6.50776 73.9345 6.24522 73.1372 5.78478 72.5215C5.42505 72.0404 4.57382 71.5543 4.37842 71.1393L4.37692 54.6991L10.0996 54.7052L10.0961 80.6601C9.4733 81.1669 8.86656 81.3495 8.44771 81.9677C6.97571 84.1412 8.42416 87.0741 11.0675 87.119C14.6789 87.1805 15.5832 82.3545 12.3657 80.8215L12.3667 54.688L28.0321 54.7218C28.3978 57.7046 31.938 58.6618 33.66 56.455C35.4382 54.1756 33.4817 50.6552 30.3543 51.3169C28.22 51.7687 29.9355 52.5614 26.7259 52.5292L12.3597 52.509L12.3476 45.9543L29.6609 45.9634V45.9639Z" fill="white"/>
<path fill-rule="evenodd" clip-rule="evenodd" d="M31.8629 19.4053C28.8728 20.1033 28.8478 22.1925 29.7611 23.43C30.8994 24.9726 33.5338 24.19 35.6777 24.4088C43.448 25.2031 47.9386 33.3357 47.5528 40.2676C47.4276 42.5187 46.8649 43.8919 46.2843 45.8485C45.684 47.8701 46.4787 49.9085 48.7122 49.74C50.6747 49.5918 51.1727 47.6528 51.6802 45.8586C53.4403 39.6332 52.6823 34.3755 49.855 28.8238C48.5103 26.1829 45.6379 23.0322 43.1108 21.6499C40.4223 20.1794 35.6501 18.5213 31.8629 19.4058V19.4053Z" fill="white"/>
<path fill-rule="evenodd" clip-rule="evenodd" d="M27.986 34.6496L6.96623 34.6713C5.92461 31.6773 3.49366 31.5427 1.87837 32.6718C-1.50903 35.0394 2.3819 40.524 5.7708 37.9063C7.10451 36.876 5.6776 36.8266 8.94776 36.8493L25.9098 36.872C29.189 36.8639 27.7826 36.7893 29.1634 37.8266C32.4636 40.3041 36.4953 35.398 33.0158 32.6289C31.4656 31.3949 29.0667 31.6612 27.9855 34.6496H27.986Z" fill="white"/>
<path fill-rule="evenodd" clip-rule="evenodd" d="M54.1012 65.0576C54.6177 65.2033 54.1012 65.0576 54.6177 65.2033L56.4314 65.6546L57.3242 65.8957L58.6996 66.2169C58.7171 66.2411 58.7522 66.29 58.7712 66.3158L59.0042 66.5876C59.8945 66.7051 58.9596 66.8785 59.8163 66.2532C61.4797 65.0233 68.8527 53.7989 69.457 50.5871C69.4164 50.5478 69.1433 50.5498 69.1243 50.5266L68.7901 50.3587C69.1243 50.3587 68.0386 50.1908 68.4559 50.1908H67.6207L66.9529 50.0228C66.1818 49.977 65.6718 49.8771 64.9488 49.8549C64.3571 49.5952 65.1156 49.8549 64.3571 49.5952C63.2794 52.3879 61.4642 55.4999 59.8815 57.7661L55.1218 63.8211C54.6077 64.3243 54.3652 64.4529 54.1012 65.0586V65.0576Z" fill="white"/>
<path fill-rule="evenodd" clip-rule="evenodd" d="M5.56883 16.4575C3.46655 17.4449 5.02773 20.1948 6.85044 19.4611C8.77536 18.686 7.7653 15.4263 5.56883 16.4575Z" fill="white"/>
</svg>
