<svg width="148" height="148" viewBox="0 0 148 148" fill="none" xmlns="http://www.w3.org/2000/svg">
<path d="M74 137.829C104.998 137.829 130.128 135.787 130.128 133.268C130.128 130.749 104.998 128.707 74 128.707C43.0016 128.707 17.8725 130.749 17.8725 133.268C17.8725 135.787 43.0016 137.829 74 137.829Z" fill="#EBEBEB"/>
<path d="M11.5766 103.621L27.1817 103.55L42.7898 103.523L74 103.473L105.21 103.523L120.818 103.547L136.423 103.621L120.818 103.692L105.21 103.718L74 103.769L42.7898 103.718L27.1817 103.692L11.5766 103.621Z" fill="#263238"/>
<path d="M135.754 101.469H12.2426V103.621H135.754V101.469Z" fill="#C7C7C7"/>
<path d="M20.9035 101.469C21.0969 102.173 21.0969 102.916 20.9035 103.621C20.7995 103.272 20.7496 102.91 20.7555 102.546C20.7506 102.182 20.8005 101.819 20.9035 101.469Z" fill="#263238"/>
<path d="M30.5561 101.469C30.6591 101.819 30.709 102.182 30.7041 102.546C30.71 102.91 30.6601 103.272 30.5561 103.621C30.3627 102.916 30.3627 102.173 30.5561 101.469Z" fill="#263238"/>
<path d="M40.2116 101.469C40.405 102.173 40.405 102.916 40.2116 103.621C40.1076 103.272 40.0576 102.91 40.0636 102.546C40.0587 102.182 40.1086 101.819 40.2116 101.469Z" fill="#263238"/>
<path d="M49.8642 101.469C49.9672 101.819 50.0171 102.182 50.0122 102.546C50.0181 102.91 49.9682 103.272 49.8642 103.621C49.6708 102.916 49.6708 102.173 49.8642 101.469Z" fill="#263238"/>
<path d="M59.5197 101.469C59.713 102.173 59.713 102.916 59.5197 103.621C59.4156 103.272 59.3657 102.91 59.3717 102.546C59.3668 102.182 59.4167 101.819 59.5197 101.469Z" fill="#263238"/>
<path d="M69.1722 101.469C69.2752 101.819 69.3251 102.182 69.3202 102.546C69.3262 102.91 69.2763 103.272 69.1722 103.621C68.9789 102.916 68.9789 102.173 69.1722 101.469Z" fill="#263238"/>
<path d="M78.8278 101.469C79.0211 102.173 79.0211 102.916 78.8278 103.621C78.7237 103.272 78.6738 102.91 78.6798 102.546C78.6749 102.182 78.7248 101.819 78.8278 101.469Z" fill="#263238"/>
<path d="M88.4803 101.469C88.5833 101.819 88.6332 102.182 88.6283 102.546C88.6343 102.91 88.5844 103.272 88.4803 103.621C88.287 102.916 88.287 102.173 88.4803 101.469Z" fill="#263238"/>
<path d="M98.1358 101.469C98.3292 102.173 98.3292 102.916 98.1358 103.621C98.0318 103.272 97.9819 102.91 97.9878 102.546C97.983 102.182 98.0328 101.819 98.1358 101.469Z" fill="#263238"/>
<path d="M107.788 101.469C107.891 101.819 107.941 102.182 107.936 102.546C107.942 102.91 107.892 103.272 107.788 103.621C107.595 102.916 107.595 102.173 107.788 101.469Z" fill="#263238"/>
<path d="M117.444 101.469C117.637 102.173 117.637 102.916 117.444 103.621C117.34 103.272 117.29 102.91 117.296 102.546C117.291 102.182 117.341 101.819 117.444 101.469Z" fill="#263238"/>
<path d="M127.096 101.469C127.199 101.819 127.249 102.182 127.244 102.546C127.25 102.91 127.201 103.272 127.096 103.621C126.903 102.916 126.903 102.173 127.096 101.469Z" fill="#263238"/>
<path d="M26.1723 101.469C26.1723 101.469 25.9237 100.306 25.4264 100.128C24.9291 99.9503 24.6242 100.471 24.6242 100.471C24.6242 100.471 24.5088 99.3583 23.8014 99.0268C23.0939 98.6953 22.567 99.3761 22.567 99.3761C22.567 99.3761 22.0254 97.976 21.0574 97.976C20.0895 97.976 19.6041 100.048 19.6041 100.048C19.6041 100.048 19.0328 99.4353 18.4467 99.7816C17.8606 100.128 17.8547 101.49 17.8547 101.49L26.1723 101.469Z" fill="#37474F"/>
<path d="M108.709 101.469C108.709 101.469 108.46 100.306 107.963 100.128C107.466 99.9503 107.164 100.471 107.164 100.471C107.164 100.471 107.045 99.3583 106.341 99.0268C105.636 98.6953 105.107 99.3761 105.107 99.3761C105.107 99.3761 104.565 97.976 103.6 97.976C102.635 97.976 102.144 100.048 102.144 100.048C102.144 100.048 101.575 99.4353 100.989 99.7816C100.403 100.128 100.397 101.49 100.397 101.49L108.709 101.469Z" fill="#455A64"/>
<path d="M48.1592 101.469H39.4124C39.4124 101.469 39.7084 100.237 40.2797 100.149C40.4569 100.131 40.6351 100.169 40.7899 100.257C40.9447 100.345 41.0684 100.479 41.144 100.64C41.144 100.64 41.1174 98.9202 42.2007 98.6272C43.2841 98.3342 44.1898 99.8526 44.1898 99.8526C44.1898 99.8526 44.8706 98.9854 45.7942 99.0416C46.7177 99.0978 46.9574 100.522 46.9574 100.522C46.9574 100.522 47.7862 100.027 48.1592 101.469Z" fill="#37474F"/>
<path d="M18.3994 101.469H13.7966C13.7966 101.469 13.7966 100.785 14.2583 100.602C14.3814 100.548 14.5183 100.537 14.6486 100.568C14.7788 100.6 14.8953 100.673 14.9806 100.776C14.9806 100.776 15.1641 99.5152 16.0077 99.5152C16.8513 99.5152 17.2568 100.602 17.2568 100.602C17.3284 100.498 17.4287 100.417 17.5455 100.37C17.6623 100.323 17.7903 100.311 17.9139 100.335C18.3816 100.394 18.3994 101.469 18.3994 101.469Z" fill="#455A64"/>
<path d="M51.7704 101.469H47.1676C47.1676 101.469 47.1676 100.785 47.6294 100.602C47.7524 100.548 47.8894 100.537 48.0196 100.568C48.1499 100.6 48.2664 100.673 48.3516 100.776C48.3516 100.776 48.5381 99.5152 49.3817 99.5152C50.2253 99.5152 50.6278 100.602 50.6278 100.602C50.6994 100.498 50.7998 100.417 50.9165 100.37C51.0333 100.323 51.1614 100.311 51.285 100.335C51.7526 100.394 51.7704 101.469 51.7704 101.469Z" fill="#455A64"/>
<path d="M127.487 101.469H122.884C122.884 101.469 122.884 100.785 123.346 100.602C123.469 100.548 123.606 100.537 123.736 100.568C123.867 100.6 123.983 100.673 124.068 100.776C124.068 100.776 124.252 99.5152 125.096 99.5152C125.939 99.5152 126.345 100.602 126.345 100.602C126.416 100.498 126.516 100.417 126.633 100.369C126.75 100.322 126.878 100.31 127.002 100.335C127.469 100.394 127.487 101.469 127.487 101.469Z" fill="#455A64"/>
<path d="M134.203 101.469H126.614C126.614 101.469 126.632 100.338 127.378 100.039C127.581 99.9539 127.806 99.9367 128.019 99.9901C128.232 100.043 128.423 100.164 128.562 100.335C128.562 100.335 128.858 98.2631 130.258 98.2631C131.658 98.2631 132.312 100.048 132.312 100.048C132.43 99.8769 132.595 99.7439 132.788 99.6655C132.98 99.5872 133.191 99.5668 133.395 99.607C134.174 99.6987 134.203 101.469 134.203 101.469Z" fill="#37474F"/>
<path d="M100.004 14.3116H94.942V17.1798H100.004V14.3116Z" fill="#263238"/>
<path d="M100.717 13.3466H94.2257V15.2233H100.717V13.3466Z" fill="#455A64"/>
<path d="M88.6862 17.1464L87.3069 18.5257L89.4858 20.7046L90.8651 19.3252L88.6862 17.1464Z" fill="#263238"/>
<path d="M88.3601 16.0062L86.1687 18.1976L87.592 19.6209L89.7834 17.4295L88.3601 16.0062Z" fill="#455A64"/>
<path d="M104.08 19.3228L105.46 20.7021L107.638 18.5233L106.259 17.1439L104.08 19.3228Z" fill="#263238"/>
<path d="M105.156 17.4309L107.348 19.6223L108.771 18.199L106.579 16.0076L105.156 17.4309Z" fill="#455A64"/>
<path d="M109.445 31.929C110.997 25.3128 106.892 18.6914 100.276 17.1396C93.6595 15.5878 87.0381 19.6932 85.4863 26.3094C83.9345 32.9256 88.0399 39.547 94.6561 41.0988C101.272 42.6506 107.894 38.5451 109.445 31.929Z" fill="#455A64"/>
<path d="M97.3218 40.6586C103.805 40.6586 109.061 35.4027 109.061 28.9192C109.061 22.4357 103.805 17.1798 97.3218 17.1798C90.8384 17.1798 85.5825 22.4357 85.5825 28.9192C85.5825 35.4027 90.8384 40.6586 97.3218 40.6586Z" fill="#263238"/>
<path d="M107.729 30.5667C108.557 24.9004 104.636 19.6352 98.9692 18.8065C93.3029 17.9779 88.0377 21.8996 87.2091 27.5659C86.3804 33.2322 90.3021 38.4974 95.9684 39.326C101.635 40.1547 106.9 36.233 107.729 30.5667Z" fill="white"/>
<path opacity="0.5" d="M107.842 29.0702H97.4817V18.7102C100.229 18.7102 102.864 19.8017 104.807 21.7445C106.75 23.6874 107.842 26.3225 107.842 29.0702Z" fill="#FF9919"/>
<path d="M97.5734 19.4531H97.3722V21.0249H97.5734V19.4531Z" fill="#C7C7C7"/>
<path d="M92.7488 20.6847L92.5745 20.7853L93.3604 22.1465L93.5347 22.0459L92.7488 20.6847Z" fill="#C7C7C7"/>
<path d="M89.19 24.1703L89.0894 24.3446L90.4506 25.1305L90.5512 24.9562L89.19 24.1703Z" fill="#C7C7C7"/>
<path d="M89.4275 28.9695H87.8558V29.1708H89.4275V28.9695Z" fill="#C7C7C7"/>
<path d="M90.8071 33.1053L89.4397 33.8912L89.5403 34.0663L90.9077 33.2804L90.8071 33.1053Z" fill="#C7C7C7"/>
<path d="M93.3612 35.9877L92.5761 37.3492L92.7504 37.4498L93.5356 36.0882L93.3612 35.9877Z" fill="#C7C7C7"/>
<path d="M97.5734 37.1154H97.3722V38.6872H97.5734V37.1154Z" fill="#C7C7C7"/>
<path d="M101.58 35.9823L101.405 36.0829L102.191 37.4441L102.365 37.3435L101.58 35.9823Z" fill="#C7C7C7"/>
<path d="M104.488 32.9982L104.387 33.1725L105.748 33.9584L105.849 33.784L104.488 32.9982Z" fill="#C7C7C7"/>
<path d="M107.09 28.9695H105.518V29.1708H107.09V28.9695Z" fill="#C7C7C7"/>
<path d="M105.749 24.1689L104.388 24.9548L104.488 25.1291L105.85 24.3432L105.749 24.1689Z" fill="#C7C7C7"/>
<path d="M102.192 20.6888L101.406 22.0502L101.581 22.1508L102.366 20.7893L102.192 20.6888Z" fill="#C7C7C7"/>
<path d="M97.5438 21.5666L98.0056 29.6858L96.9637 29.671L97.2626 21.5636L97.5438 21.5666Z" fill="#FF9919"/>
<path d="M97.828 29.0702C97.828 29.1411 97.8069 29.2105 97.7674 29.2694C97.7279 29.3284 97.6718 29.3743 97.6062 29.4013C97.5406 29.4284 97.4684 29.4353 97.3989 29.4212C97.3293 29.4071 97.2655 29.3727 97.2155 29.3224C97.1656 29.272 97.1317 29.2079 97.1182 29.1382C97.1047 29.0685 97.1122 28.9964 97.1398 28.931C97.1674 28.8656 97.2137 28.8099 97.273 28.7709C97.3323 28.7319 97.4018 28.7114 97.4728 28.712C97.5197 28.712 97.5661 28.7213 97.6094 28.7393C97.6527 28.7574 97.692 28.7838 97.725 28.8171C97.758 28.8504 97.7841 28.8899 97.8018 28.9333C97.8195 28.9768 97.8284 29.0233 97.828 29.0702Z" fill="#FF9919"/>
<path d="M104.988 29.1915L96.869 29.6503L96.8838 28.6084L104.991 28.9074L104.988 29.1915Z" fill="#263238"/>
<path d="M97.828 29.0702C97.828 29.1411 97.8069 29.2105 97.7674 29.2694C97.7279 29.3284 97.6718 29.3743 97.6062 29.4013C97.5406 29.4284 97.4684 29.4353 97.3989 29.4212C97.3293 29.4071 97.2655 29.3727 97.2155 29.3224C97.1656 29.272 97.1317 29.2079 97.1182 29.1382C97.1047 29.0685 97.1122 28.9964 97.1398 28.931C97.1674 28.8656 97.2137 28.8099 97.273 28.7709C97.3323 28.7319 97.4018 28.7114 97.4728 28.712C97.5197 28.712 97.5661 28.7213 97.6094 28.7393C97.6527 28.7574 97.692 28.7838 97.725 28.8171C97.758 28.8504 97.7841 28.8899 97.8018 28.9333C97.8195 28.9768 97.8284 29.0233 97.828 29.0702Z" fill="#FF9919"/>
<path d="M55.3135 51.356C56.8379 57.1724 58.8241 60.9701 60.1561 62.2843C63.347 65.4338 70.2201 66.1323 74.0858 67.7366C75.3438 68.2606 78.8218 60.2804 77.5342 59.5818C76.5841 59.0638 65.5492 57.6667 64.6109 57.3796C64.1284 57.2316 60.4669 52.463 58.3949 49.7813C55.056 45.4834 54.4788 48.1799 55.3135 51.356Z" fill="#EB9481"/>
<path d="M80.1272 68.8555C79.5352 68.8407 79.5145 69.1515 80.3403 69.8353C81.1662 70.519 85.0112 72.4993 84.2031 73.7869C83.395 75.0745 78.0108 72.1855 76.7232 70.9482C75.4356 69.711 73.781 67.2601 73.781 67.2601C74.9442 67.6123 77.848 68.1954 80.1272 68.8555Z" fill="#EB9481"/>
<path d="M76.6048 59.3302C82.3354 60.2182 84.6146 61.3401 87.1246 64.2705C87.4112 64.5871 87.5841 64.9902 87.616 65.416C88.7645 66.7066 88.504 67.639 88.504 67.639C89.2026 69.1693 88.8 70.0839 88.8 70.0839C88.8 70.0839 90.132 71.6142 89.3387 72.5733C88.4507 73.6507 86.7576 71.2886 85.0319 70.5605C81.0744 68.8881 74.9679 67.6212 73.7839 67.2542L76.6048 59.3302Z" fill="#EB9481"/>
<path d="M82.1045 65.9014C83.2691 66.3754 84.3995 66.9293 85.4878 67.559C86.635 68.3209 87.7234 69.1679 88.7438 70.0928C88.7507 70.0968 88.7588 70.0983 88.7667 70.0971C88.7746 70.096 88.7818 70.0922 88.7873 70.0863C88.7928 70.0805 88.7961 70.073 88.7968 70.0651C88.7975 70.0571 88.7955 70.0492 88.7911 70.0425C86.9956 68.0613 84.691 66.6105 82.1282 65.8482C82.069 65.8304 82.0453 65.8748 82.1045 65.9014Z" fill="#263238"/>
<path d="M82.7646 63.3647C83.8627 63.9271 85.7808 64.9306 88.4655 67.6715C88.4655 67.6715 88.4922 67.6715 88.4833 67.6715C87.0262 65.7219 85.0553 64.2163 82.7912 63.3233C82.7202 63.2818 82.6935 63.3262 82.7646 63.3647Z" fill="#263238"/>
<path d="M83.1464 62.009C84.9727 63.0391 85.9939 63.9182 87.6012 65.4219C87.6012 65.4219 87.6249 65.4219 87.616 65.4071C85.9732 63.5068 85.1622 63.0036 83.176 61.941C83.105 61.9054 83.0754 61.9676 83.1464 62.009Z" fill="#263238"/>
<path d="M61.8137 53.9934L56.536 58.9395C56.536 58.9395 54.4048 51.2672 54.4196 48.84C54.4196 46.102 55.8286 46.7058 57.6756 48.544C59.5226 50.3822 61.8137 53.9934 61.8137 53.9934Z" fill="#3D66CC"/>
<path opacity="0.1" d="M61.8137 53.9934L56.536 58.9395C56.536 58.9395 54.4048 51.2672 54.4196 48.84C54.4196 46.102 55.8286 46.7058 57.6756 48.544C59.5226 50.3822 61.8137 53.9934 61.8137 53.9934Z" fill="#1D1D1D"/>
<path d="M60.7333 53.2119C59.9755 53.7506 57.9302 55.6865 57.5868 56.0032C57.4062 56.1719 56.7195 56.8675 56.539 57.0333C56.5153 57.054 56.539 57.0866 56.5745 57.0658C56.9208 56.7521 57.2997 56.4738 57.646 56.1571C57.9923 55.8404 60.1472 53.949 60.757 53.2386C60.7718 53.2238 60.751 53.2001 60.7333 53.2119Z" fill="#263238"/>
<path d="M89.7827 113.347C89.0664 113.581 68.4411 112.755 67.6686 112.255C67.5738 112.199 67.2068 108.232 67.2068 108.232L69.5926 92.9914L83.1346 93.1719L80.5209 106.196C80.5209 106.196 83.5046 107.569 85.9643 108.768C87.4798 109.502 88.797 110.174 89.099 110.42C89.8922 111.053 90.502 113.116 89.7827 113.347Z" fill="#EB9481"/>
<path d="M89.7857 113.347C89.0694 113.581 68.4382 112.755 67.6686 112.258C67.5768 112.199 67.2038 108.232 67.2038 108.232L67.9409 103.538L80.9323 104.13L80.512 106.184C80.512 106.184 83.4927 107.558 85.9554 108.753C87.471 109.487 88.7882 110.159 89.0901 110.405C89.8893 111.056 90.499 113.119 89.7857 113.347Z" fill="#EBEBEB"/>
<path d="M89.7738 113.368C89.0427 113.596 68.2813 113.113 67.5028 112.592C67.2068 112.4 67.0973 109.369 67.0736 105.705V105.592L80.4735 105.755V105.98C80.4735 105.98 88.3382 109.721 89.1345 110.384C89.9307 111.047 90.505 113.149 89.7738 113.368Z" fill="#C7C7C7"/>
<path d="M88.5898 113.427C84.0462 113.475 68.1658 113.048 67.5028 112.595C67.2068 112.403 67.0973 109.372 67.0736 105.708V105.595L75.4652 105.696L88.5898 113.427Z" fill="#A6A6A6"/>
<path d="M89.5578 112.563C86.059 112.394 71.9339 112.048 68.4648 112.148C68.4352 112.148 68.4352 112.169 68.4648 112.172C71.928 112.412 86.0531 112.643 89.5548 112.619C89.6288 112.619 89.6318 112.566 89.5578 112.563Z" fill="#263238"/>
<path d="M81.5865 106.051C80.216 105.755 78.5258 105.932 77.4425 106.892C77.401 106.927 77.4425 106.986 77.4987 106.971C78.8248 106.578 80.1893 106.328 81.5687 106.226C81.5899 106.224 81.61 106.216 81.6254 106.201C81.6407 106.187 81.6504 106.167 81.6525 106.146C81.6547 106.125 81.6492 106.104 81.6371 106.086C81.625 106.069 81.607 106.056 81.5865 106.051Z" fill="#263238"/>
<path d="M82.5662 106.672C81.1958 106.376 79.5056 106.557 78.4222 107.513C78.3808 107.549 78.4222 107.608 78.4785 107.596C79.8077 107.204 81.1751 106.956 82.5574 106.856C82.5817 106.857 82.6055 106.849 82.6235 106.832C82.6416 106.816 82.6524 106.793 82.6536 106.769C82.6547 106.744 82.6462 106.721 82.6298 106.703C82.6134 106.684 82.5906 106.674 82.5662 106.672Z" fill="#263238"/>
<path d="M83.546 107.294C82.1755 106.998 80.4854 107.179 79.402 108.135C79.3606 108.173 79.402 108.229 79.4582 108.218C80.7843 107.823 82.1487 107.572 83.5282 107.469C83.5494 107.468 83.5695 107.459 83.5849 107.444C83.6003 107.43 83.6099 107.41 83.6121 107.389C83.6142 107.368 83.6087 107.347 83.5966 107.329C83.5845 107.312 83.5665 107.299 83.546 107.294Z" fill="#263238"/>
<path d="M81.6575 104.225L66.5408 103.538C66.5408 103.538 71.7652 82.3235 71.2087 81.6338C70.6167 80.8938 48.7305 86.3698 44.3556 80.9412C39.8742 75.3794 42.1208 67.3726 42.1208 67.3726H57.0481C57.0481 67.3726 56.7521 69.3765 56.9534 70.3326C56.9534 70.3326 77.9694 67.118 82.5396 69.5393C83.4276 70.0158 86.6836 72.6917 86.7369 75.2284C87.024 86.432 81.6575 104.225 81.6575 104.225Z" fill="#455A64"/>
<path d="M81.8085 101.487C80.0147 101.262 78.218 101.125 76.4154 100.989C74.6127 100.853 72.8101 100.747 71.0074 100.678C69.9892 100.637 68.971 100.646 67.9527 100.61C67.9475 100.612 67.943 100.616 67.9398 100.62C67.9366 100.625 67.9348 100.63 67.9348 100.636C67.9348 100.641 67.9366 100.646 67.9398 100.651C67.943 100.656 67.9475 100.659 67.9527 100.661C68.8585 100.726 69.7613 100.841 70.667 100.912L73.3488 101.108C75.1514 101.226 76.9541 101.327 78.7567 101.436C79.772 101.498 80.7873 101.531 81.8055 101.555C81.813 101.553 81.8196 101.549 81.8245 101.543C81.8293 101.537 81.8321 101.529 81.8324 101.522C81.8328 101.514 81.8306 101.506 81.8263 101.5C81.822 101.494 81.8157 101.489 81.8085 101.487Z" fill="#263238"/>
<path d="M73.5382 80.1272C70.6345 80.2219 67.7455 80.4735 64.8566 80.7577C61.9676 81.0418 59.0609 81.3497 56.1482 81.5391C54.7038 81.6309 53.2534 81.6901 51.803 81.699C50.5983 81.7507 49.3925 81.625 48.2243 81.326C47.0645 80.987 46.0732 80.2269 45.4449 79.1948C44.8132 78.1488 44.3994 76.9859 44.2283 75.776C43.8465 73.3281 44.2283 70.8269 44.6753 68.4115C44.7315 68.1155 44.7878 67.8195 44.841 67.4998C44.841 67.4732 44.8026 67.4614 44.7937 67.4998C44.2017 69.9359 43.6482 72.443 43.8258 74.959C43.8984 76.1936 44.1995 77.4041 44.7138 78.5288C45.1776 79.6216 45.9755 80.5397 46.993 81.1514C48.0319 81.7434 49.2603 81.918 50.4532 81.9772C51.8444 82.0482 53.2534 81.9772 54.6446 81.915C57.6223 81.77 60.5882 81.4622 63.5482 81.1543C66.5082 80.8465 69.4534 80.5446 72.4282 80.3966C72.7568 80.3788 73.0854 80.367 73.4139 80.3551C72.964 83.0191 69.1545 98.8788 68.9414 100.134C68.9206 100.258 69.039 100.297 69.0716 100.169C69.7228 97.6978 73.4198 81.8174 73.6655 80.2663C73.6695 80.2483 73.669 80.2295 73.6642 80.2117C73.6594 80.1939 73.6504 80.1774 73.6379 80.1638C73.6254 80.1502 73.6099 80.1397 73.5925 80.1334C73.5752 80.127 73.5566 80.1249 73.5382 80.1272Z" fill="#263238"/>
<path d="M85.1918 113.966H52.8863V117.539H85.1918V113.966Z" fill="#3D66CC"/>
<path d="M24.497 82.6225H26.3292L38.1692 96.1674H36.337L24.497 82.6225Z" fill="#A6A6A6"/>
<path d="M47.5731 81.548H22.1112V82.6195H47.5731V81.548Z" fill="#A6A6A6"/>
<path d="M31.4056 82.6225H33.2378L45.0778 96.1674H43.2456L31.4056 82.6225Z" fill="#A6A6A6"/>
<path d="M43.1864 107.593C52.3861 107.593 57.717 113.984 57.717 121.505C57.717 129.026 52.7798 135.272 43.808 135.272C33.8802 135.272 29.1382 127.375 29.1382 121.437C29.1382 115.499 33.8742 107.593 43.1864 107.593Z" fill="#37474F"/>
<path d="M41.7715 107.593C50.5183 107.593 55.5829 113.984 55.5829 121.505C55.5829 129.026 50.8913 135.272 42.3576 135.272C32.9182 135.272 28.416 127.363 28.416 121.425C28.416 115.487 32.9182 107.593 41.7715 107.593Z" fill="#263238"/>
<path d="M41.8603 112.995C47.1883 112.995 50.2756 116.89 50.2756 121.472C50.2756 126.055 47.4162 129.858 42.2185 129.858C36.4642 129.858 33.7174 125.045 33.7174 121.425C33.7174 117.805 36.4642 112.995 41.8603 112.995Z" fill="#C7C7C7"/>
<path d="M69.2285 90.7299V89.5193L38.2698 90.5168V93.24C38.2698 93.24 29.304 103.141 28.3982 113.433L59.4427 114.09L64.4303 113.966H70.5546V107.744C70.5546 107.744 65.9251 104.37 66.7362 97.4758C67.0055 95.1877 69.2285 90.7299 69.2285 90.7299Z" fill="#3D66CC"/>
<path d="M56.5508 112.649C56.2282 113.241 51.5188 114.09 42.5914 114.33C34.555 114.546 28.5522 114.368 28.0874 113.85C27.6227 113.332 28.8067 104.171 34.2472 99.2103C39.6877 94.2494 47.3896 93.536 52.469 96.496C56.9356 99.0919 60.2686 105.69 56.5508 112.649Z" fill="#3D66CC"/>
<path opacity="0.1" d="M58.0663 103.976C57.589 101.807 56.4882 99.824 54.8991 98.272C53.3062 96.6759 51.317 95.5327 49.136 94.9598C46.7032 94.3525 44.1552 94.38 41.736 95.0397C40.5253 95.3572 39.3545 95.811 38.2462 96.3924C37.0759 97.0213 35.973 97.7681 34.9546 98.6213C34.6823 98.8462 34.407 99.0712 34.1377 99.3021C34.114 99.3198 34.1377 99.3524 34.1732 99.3346C35.1978 98.4336 36.307 97.6337 37.4854 96.9459C38.5607 96.3318 39.7015 95.8403 40.8865 95.4807C43.2357 94.746 45.7305 94.6056 48.1474 95.0722C50.3317 95.5112 52.3561 96.5342 54.0052 98.0322C55.5943 99.4629 56.763 101.3 57.3855 103.345C58.1255 105.838 57.8828 108.582 57.1458 111.041C57.0481 111.373 56.9415 111.699 56.832 112.024C56.832 112.06 56.8734 112.072 56.8853 112.039C57.8798 109.484 58.6228 106.732 58.0663 103.976Z" fill="#1D1D1D"/>
<path d="M36.5471 115.274C31.157 115.274 28.3035 115.108 26.8561 114.534L27.528 112.844C29.2211 113.516 34.5225 113.504 43.0532 113.406C49.355 113.332 54.0052 112.738 56.906 111.63L57.5542 113.33C54.4166 114.514 49.6806 115.141 43.0739 115.218C40.5668 115.254 38.406 115.274 36.5471 115.274Z" fill="#DBDBDB"/>
<path d="M69.7376 90.3155C69.7376 90.3155 69.9448 83.543 69.7376 83.2766C69.5304 83.0102 38.1899 82.4449 37.2516 82.5278C36.3133 82.6106 36.2186 90.5198 36.2896 90.8898C36.3606 91.2598 68.9206 90.3866 69.7376 90.3155Z" fill="#37474F"/>
<path d="M72.6739 83.4128C72.5822 83.3062 68.6098 83.1938 68.3908 83.1878C68.1718 83.1819 68.0948 90.4014 68.2132 90.3954C68.3316 90.3895 72.5289 90.4487 72.668 90.2948C72.8071 90.1409 72.8722 83.6437 72.6739 83.4128Z" fill="#455A64"/>
<path d="M50.7226 82.5337C50.6103 82.6507 50.5369 82.7996 50.5124 82.9599C50.4752 83.1288 50.4485 83.2998 50.4325 83.472C50.394 83.8154 50.3733 84.1646 50.3555 84.511C50.3259 85.2095 50.3082 85.911 50.2963 86.6155C50.2845 87.32 50.2667 88.0186 50.2963 88.7142C50.2989 89.0586 50.3227 89.4027 50.3674 89.7442C50.3851 89.9093 50.4239 90.0715 50.4828 90.2267C50.5045 90.2964 50.5427 90.3597 50.5943 90.4112C50.6458 90.4628 50.7092 90.5011 50.7788 90.5227C50.7007 90.5204 50.6249 90.4958 50.5603 90.4517C50.4958 90.4077 50.4453 90.346 50.4147 90.2741C50.3319 90.1193 50.2673 89.9554 50.2223 89.7857C50.1386 89.4386 50.0841 89.0851 50.0595 88.729C50.0049 88.02 49.9871 87.3086 50.0062 86.5978C50.024 85.8903 50.0536 85.1799 50.1335 84.4725C50.1719 84.1186 50.2283 83.7669 50.3022 83.4187C50.3436 83.2465 50.394 83.0765 50.4532 82.9096C50.5006 82.7646 50.5834 82.584 50.7226 82.5337Z" fill="#455A64"/>
<path d="M23.2893 81.5332H52.8863V63.1338H23.2893L23.2893 81.5332Z" fill="#37474F"/>
<path d="M23.2893 81.5332H44.6723V63.1338H23.2893L23.2893 81.5332Z" fill="#263238"/>
<path d="M35.1322 63.1309H32.8323V81.5302H35.1322V63.1309Z" fill="#3D66CC"/>
<path d="M44.6753 61.4289H22.6884V63.1309H44.6753V61.4289Z" fill="#37474F"/>
<path d="M53.5494 61.4289H44.6723V63.1309H53.5494V61.4289Z" fill="#263238"/>
<path d="M35.3246 61.4289H32.637V63.1309H35.3246V61.4289Z" fill="#3D66CC"/>
<path d="M26.4239 61.5058H48.029V48.0734H26.4239V61.5058Z" fill="#37474F"/>
<path d="M26.4239 61.5058H42.032V48.0734H26.4239V61.5058Z" fill="#263238"/>
<path d="M35.0671 48.0763H33.3888V61.5088H35.0671V48.0763Z" fill="#3D66CC"/>
<path d="M42.032 46.8331H25.9829V48.0763H42.032V46.8331Z" fill="#37474F"/>
<path d="M48.5114 46.8331H42.032V48.0763H48.5114V46.8331Z" fill="#263238"/>
<path d="M35.2092 46.8331H33.2467V48.0763H35.2092V46.8331Z" fill="#3D66CC"/>
<path d="M110.757 107.481C119.96 107.481 125.288 113.871 125.288 121.393C125.288 128.914 120.351 135.151 111.376 135.151C101.445 135.151 96.7032 127.253 96.7032 121.319C96.7032 115.384 101.445 107.481 110.757 107.481Z" fill="#37474F"/>
<path d="M109.342 107.481C118.089 107.481 123.157 113.871 123.157 121.393C123.157 128.914 118.462 135.151 109.931 135.151C100.492 135.151 95.9839 127.253 95.9839 121.319C95.9839 115.384 100.492 107.481 109.342 107.481Z" fill="#263238"/>
<path d="M109.431 112.883C114.759 112.883 117.849 116.778 117.849 121.36C117.849 125.942 114.99 129.746 109.789 129.746C104.038 129.746 101.291 124.933 101.291 121.316C101.291 117.698 104.038 112.883 109.431 112.883Z" fill="#C7C7C7"/>
<path d="M95.8714 76.0602H92.2514L89.7709 72.4194H94.0125L95.8714 76.0602Z" fill="#3D66CC"/>
<path d="M89.7709 72.4194L91.2242 74.5506L92.2514 76.0602H95.8714L94.8917 74.1421L94.0096 72.4194H89.7709Z" fill="#3D66CC"/>
<path opacity="0.1" d="M89.7709 72.4194L91.2242 74.5506L94.8917 74.1421L94.0096 72.4194H89.7709Z" fill="#1D1D1D"/>
<path d="M104.669 103.23L101.143 104.041L97.9109 101.046L102.043 100.098L104.669 103.23Z" fill="#3D66CC"/>
<path d="M97.9109 101.046L99.8023 102.801L101.14 104.041L104.672 103.23L103.286 101.581L102.043 100.098L97.9109 101.046Z" fill="#3D66CC"/>
<path opacity="0.1" d="M97.9109 101.046L99.8023 102.801L103.286 101.581L102.043 100.098L97.9109 101.046Z" fill="#1D1D1D"/>
<path d="M124.489 109.257L121.064 111.056C121.064 111.056 111.145 109.257 104.784 110.618C98.423 111.98 96.7062 115.378 96.7062 115.378H93.4916C93.4916 115.378 96.2503 105.577 100.93 102.019C105.61 98.4614 113.131 99.2577 117.29 101.498C121.449 103.739 124.489 109.257 124.489 109.257Z" fill="#3D66CC"/>
<path opacity="0.1" d="M120.703 110.378C120.039 109.686 119.321 109.048 118.554 108.472C117.794 107.882 116.991 107.349 116.15 106.88C114.522 105.975 112.736 105.388 110.888 105.151C107.27 104.707 103.488 105.761 100.824 108.54C99.3258 110.115 98.2602 112.048 97.2478 113.998C97.233 114.028 97.2745 114.052 97.2893 114.022C98.147 112.307 99.23 110.714 100.51 109.286C101.743 107.94 103.278 106.905 104.988 106.267C108.401 105.015 112.092 105.494 115.372 107.007C116.311 107.433 117.217 107.927 118.083 108.487C118.969 109.083 119.823 109.725 120.644 110.408C120.649 110.413 120.656 110.416 120.663 110.417C120.67 110.418 120.677 110.417 120.683 110.413C120.69 110.41 120.695 110.405 120.699 110.399C120.702 110.393 120.704 110.386 120.703 110.378Z" fill="#1D1D1D"/>
<path d="M83.0665 74.1006C83.0132 74.225 75.8648 75.5392 75.8648 75.5392C75.8648 75.5392 74.6808 74.74 75.4119 73.7277L82.584 72.1796C82.8597 72.4058 83.0555 72.7146 83.1423 73.0605C83.2292 73.4064 83.2026 73.771 83.0665 74.1006Z" fill="#263238"/>
<path d="M98.0707 64.8595V73.3399C98.0707 73.3399 93.4916 72.9403 92.2721 72.8989C91.0526 72.8574 85.6328 73.559 85.6328 73.559L85.2125 71.6586C85.2125 71.6586 89.392 70.1994 91.168 69.0598C92.944 67.9202 94.9894 65.7416 96.0875 65.2591C96.709 64.9751 97.3877 64.8383 98.0707 64.8595Z" fill="#3D66CC"/>
<path d="M85.6506 71.4189C85.9228 71.6988 86.1282 72.0368 86.2512 72.4074C86.3742 72.7781 86.4118 73.1718 86.361 73.559C86.361 73.559 82.9481 74.1835 82.9066 74.1835C82.935 73.782 82.8376 73.3816 82.6281 73.0379C82.4186 72.6942 82.1073 72.4242 81.7374 72.2654L85.6506 71.4189Z" fill="#DBDBDB"/>
<path d="M98.1151 73.3399C99.3543 73.3399 100.359 71.4422 100.359 69.1012C100.359 66.7602 99.3543 64.8625 98.1151 64.8625C96.876 64.8625 95.8714 66.7602 95.8714 69.1012C95.8714 71.4422 96.876 73.3399 98.1151 73.3399Z" fill="#DBDBDB"/>
<path d="M98.2542 72.8841C99.3152 72.8841 100.175 71.1904 100.175 69.1012C100.175 67.012 99.3152 65.3183 98.2542 65.3183C97.1933 65.3183 96.3332 67.012 96.3332 69.1012C96.3332 71.1904 97.1933 72.8841 98.2542 72.8841Z" fill="white"/>
<path d="M98.8373 76.072C99.5833 77.1642 102.57 92.0175 103.156 92.7634C103.742 93.5094 104.864 93.5626 104.864 93.5626L106.838 98.4703C106.838 98.4703 101.934 100.018 99.2103 102.256C95.6909 105.148 92.4378 114.736 92.4378 114.736C91.905 115.108 85.2924 117.829 83.4779 117.935C83.4779 117.935 91.9109 108.676 92.5977 95.8626C92.8641 90.8986 89.8093 83.9071 89.611 80.4439C89.392 76.7262 90.5168 76.072 92.4911 76.072H98.8373Z" fill="#3D66CC"/>
<path d="M83.0724 118.992L81.7522 117.743C89.1522 109.911 91.8814 97.5705 91.6653 94.202C91.5528 92.4763 90.9993 90.5464 90.4102 88.501C89.7827 86.3195 89.0723 83.8479 88.7704 81.1632C88.4892 78.6709 88.7704 77.0606 89.6199 76.0986C90.4694 75.1366 91.6357 75.1396 92.4112 75.1426H99.456V76.96H92.4082C91.7304 76.96 91.2686 76.9837 90.9756 77.3122C90.6826 77.6408 90.3007 78.4962 90.579 80.9619C90.875 83.4927 91.5232 85.7838 92.1596 87.9978C92.7753 90.1409 93.3436 92.1626 93.4798 94.0836C93.7106 97.68 90.872 110.772 83.0724 118.992Z" fill="#DBDBDB"/>
<path d="M103.192 96.8157C103.606 98.343 104.911 99.3139 106.107 98.9883C107.303 98.6627 107.939 97.162 107.522 95.6376C107.105 94.1132 105.799 93.1364 104.603 93.462C103.408 93.7876 102.774 95.2913 103.192 96.8157Z" fill="#DBDBDB"/>
<path d="M103.636 96.6943C104.006 98.0559 105.136 98.9321 106.16 98.6538C107.185 98.3756 107.711 97.0466 107.344 95.6938C106.977 94.3411 105.844 93.4561 104.822 93.7343C103.801 94.0126 103.266 95.3327 103.636 96.6943Z" fill="white"/>
<path opacity="0.1" d="M97.9553 96.57C97.6267 95.0338 97.2715 93.5034 96.9637 91.9642C96.6558 90.425 96.3717 88.8829 96.1319 87.3348C95.8981 85.8933 95.6465 84.437 95.5547 82.9777C95.463 81.4533 95.5547 79.9141 96.2947 78.5377C96.2963 78.535 96.2973 78.532 96.2977 78.5289C96.2981 78.5257 96.2979 78.5226 96.297 78.5196C96.2962 78.5165 96.2948 78.5137 96.2929 78.5112C96.291 78.5087 96.2886 78.5067 96.2858 78.5051C96.2831 78.5036 96.2801 78.5026 96.277 78.5022C96.2739 78.5018 96.2707 78.502 96.2677 78.5028C96.2647 78.5036 96.2619 78.5051 96.2594 78.507C96.2569 78.5089 96.2548 78.5113 96.2533 78.514C95.4926 79.624 95.2439 80.959 95.2025 82.2821C95.2064 83.7408 95.3351 85.1965 95.5873 86.6333C96.0192 89.7882 96.6119 92.9191 97.3633 96.0135C97.7925 97.7629 98.346 99.4826 98.938 101.182C98.938 101.187 98.9402 101.192 98.9441 101.196C98.948 101.2 98.9532 101.202 98.9587 101.202C98.9642 101.202 98.9695 101.2 98.9734 101.196C98.9773 101.192 98.9794 101.187 98.9794 101.182C98.6262 99.6366 98.2848 98.0993 97.9553 96.57Z" fill="#1D1D1D"/>
<path opacity="0.1" d="M70.5546 107.744V113.96H65.2502V109.254C65.2502 109.254 62.2902 107.759 61.6982 102.321C61.1654 97.3958 65.0963 90.8217 65.8422 89.6288L69.2196 89.5193V90.7299C69.2196 90.7299 66.9966 95.1877 66.7273 97.4758C65.9251 104.37 70.5546 107.744 70.5546 107.744Z" fill="#1D1D1D"/>
<path d="M83.8953 115.413C83.179 115.644 62.5507 114.821 61.7782 114.321C61.6864 114.265 61.3194 110.296 61.3194 110.296L63.7051 95.0545L77.2471 95.235L74.6334 108.259C74.6334 108.259 77.6142 109.63 80.0769 110.828C81.5924 111.565 82.9096 112.237 83.2115 112.48C84.0018 113.119 84.6116 115.182 83.8953 115.413Z" fill="#EB9481"/>
<path d="M83.8982 115.413C83.179 115.644 62.5507 114.821 61.7811 114.321C61.6864 114.265 61.3164 110.298 61.3164 110.298L62.0534 105.601L75.0449 106.193L74.6334 108.241C74.6334 108.241 77.6142 109.615 80.0769 110.811C81.5894 111.548 82.9096 112.22 83.2115 112.462C84.0018 113.122 84.6116 115.182 83.8982 115.413Z" fill="#EBEBEB"/>
<path d="M83.8834 115.44C83.1553 115.668 62.3909 115.182 61.6124 114.662C61.3164 114.469 61.2098 111.441 61.1862 107.777V107.661L74.5831 107.824V108.052C74.5831 108.052 82.4478 111.79 83.2441 112.453C84.0403 113.116 84.6146 115.212 83.8834 115.44Z" fill="#C7C7C7"/>
<path d="M83.6674 114.626C80.1716 114.46 66.0465 114.114 62.5774 114.215C62.5478 114.215 62.5478 114.235 62.5774 114.235C66.0406 114.478 80.1657 114.709 83.6674 114.685C83.7414 114.682 83.7414 114.629 83.6674 114.626Z" fill="#263238"/>
<path d="M75.699 108.114C74.3286 107.818 72.6384 107.999 71.555 108.955C71.5106 108.993 71.555 109.049 71.6113 109.038C72.9372 108.643 74.3017 108.392 75.6813 108.289C75.7025 108.288 75.7226 108.279 75.7379 108.264C75.7533 108.25 75.7629 108.23 75.7651 108.209C75.7672 108.188 75.7617 108.167 75.7496 108.149C75.7375 108.132 75.7196 108.119 75.699 108.114Z" fill="#263238"/>
<path d="M76.6788 108.739C75.3083 108.443 73.6182 108.62 72.5348 109.576C72.4934 109.615 72.5348 109.674 72.591 109.659C73.918 109.264 75.2835 109.013 76.664 108.91C76.6753 108.911 76.6866 108.91 76.6974 108.907C76.7082 108.903 76.7182 108.898 76.7269 108.89C76.7355 108.883 76.7427 108.874 76.7479 108.864C76.7531 108.854 76.7563 108.843 76.7572 108.832C76.7582 108.821 76.757 108.809 76.7535 108.798C76.7501 108.788 76.7446 108.778 76.7373 108.769C76.73 108.76 76.7211 108.753 76.7111 108.748C76.701 108.743 76.6901 108.74 76.6788 108.739Z" fill="#263238"/>
<path d="M77.6585 109.36C76.2881 109.064 74.5979 109.242 73.5146 110.201C73.4731 110.236 73.5146 110.296 73.5708 110.281C74.8972 109.889 76.2615 109.639 77.6408 109.535C77.662 109.534 77.6821 109.525 77.6975 109.51C77.7128 109.496 77.7225 109.476 77.7246 109.455C77.7267 109.434 77.7213 109.413 77.7092 109.395C77.697 109.378 77.6791 109.365 77.6585 109.36Z" fill="#263238"/>
<path d="M75.776 106.291L60.6593 105.601C60.6593 105.601 65.8866 84.3866 65.3302 83.697C64.7382 82.954 44.8055 88.433 40.4277 83.0043C35.9462 77.4425 40.4277 68.1333 40.4277 68.1333H55.7516C55.7516 68.1333 55.7516 69.8382 54.7097 72.3898C54.7097 72.3898 72.0849 69.1722 76.664 71.5935C77.5668 72.073 80.808 74.7489 80.8613 77.2856C81.1277 88.504 75.776 106.291 75.776 106.291Z" fill="#455A64"/>
<path d="M75.921 103.553C74.1273 103.328 72.3276 103.189 70.525 103.055C68.7223 102.922 66.9226 102.813 65.117 102.742C64.1018 102.703 63.0835 102.712 62.0653 102.674C62.0582 102.674 62.0514 102.676 62.0464 102.681C62.0414 102.686 62.0386 102.693 62.0386 102.7C62.0386 102.707 62.0414 102.714 62.0464 102.719C62.0514 102.724 62.0582 102.727 62.0653 102.727C62.971 102.792 63.8738 102.904 64.7796 102.975C65.6854 103.046 66.5556 103.112 67.4614 103.171C69.261 103.292 71.0637 103.39 72.8663 103.502C73.8846 103.564 74.8998 103.597 75.9181 103.621C75.9255 103.619 75.9322 103.615 75.937 103.609C75.9419 103.603 75.9447 103.595 75.945 103.588C75.9453 103.58 75.9432 103.573 75.9389 103.566C75.9346 103.56 75.9283 103.555 75.921 103.553Z" fill="#263238"/>
<path d="M46.8361 69.415C46.816 69.4774 46.7903 69.5378 46.7591 69.5955C46.7558 69.5997 46.7539 69.6049 46.7539 69.6103C46.7539 69.6157 46.7558 69.6209 46.7591 69.6251C46.5815 70.1786 46.5075 70.7647 46.3358 71.3212C46.1728 71.9119 45.8111 72.4283 45.3117 72.7834C44.2638 73.5116 43.0058 73.8402 41.7863 74.1421C41.779 74.1443 41.7726 74.1488 41.768 74.1549C41.7634 74.161 41.7609 74.1685 41.7609 74.1761C41.7609 74.1838 41.7634 74.1912 41.768 74.1973C41.7726 74.2035 41.779 74.208 41.7863 74.2102C42.4893 74.2141 43.1886 74.1072 43.8583 73.8934C44.4876 73.7192 45.0809 73.4346 45.6106 73.0528C46.1082 72.6763 46.463 72.1419 46.617 71.5373C46.6915 71.2158 46.7498 70.8908 46.7917 70.5634C46.8602 70.1871 46.9008 69.8062 46.913 69.4238C46.9087 69.418 46.9032 69.4132 46.8969 69.4096C46.8906 69.4059 46.8837 69.4036 46.8765 69.4028C46.8693 69.402 46.862 69.4026 46.855 69.4047C46.8481 69.4068 46.8416 69.4103 46.8361 69.415Z" fill="#263238"/>
<path d="M57.1754 71.632C56.3418 71.8725 55.5299 72.1824 54.7482 72.5585L54.7097 72.5762C54.7257 72.528 54.7376 72.4785 54.7452 72.4282C54.7452 72.369 54.763 72.3128 54.7748 72.2536C54.7866 72.1944 54.7748 72.1322 54.7926 72.0701V71.9754C54.8933 71.9689 54.9916 71.9416 55.0812 71.8952C55.1709 71.8488 55.25 71.7844 55.3135 71.706C55.477 71.4789 55.5873 71.2179 55.6362 70.9423C55.7279 70.599 55.8138 70.2497 55.8878 69.9004C55.9618 69.5511 56.0417 69.1219 56.1038 68.7164C56.179 68.3328 56.2236 67.9438 56.237 67.5531C56.237 67.539 56.2314 67.5254 56.2214 67.5154C56.2114 67.5055 56.1979 67.4998 56.1838 67.4998C56.1696 67.4998 56.1561 67.5055 56.1461 67.5154C56.1361 67.5254 56.1305 67.539 56.1305 67.5531C56.0387 67.9113 55.9973 68.2813 55.9292 68.6424C55.8611 69.0035 55.7842 69.3676 55.7013 69.7287C55.6184 70.0898 55.5296 70.451 55.429 70.8062C55.3283 71.1614 55.2514 71.5846 54.8843 71.6942C54.1266 71.9102 54.467 70.2142 54.4995 69.8767C54.5765 69.1071 54.6238 68.3198 54.76 67.5561C54.76 67.5265 54.7156 67.5117 54.7097 67.5561C54.5439 68.2576 54.3574 68.9473 54.2331 69.6577C54.171 70.007 54.1266 70.3592 54.0881 70.7085C54.0266 71.0111 54.0512 71.3249 54.1591 71.6142C54.2061 71.712 54.2762 71.7968 54.3634 71.8612C54.4505 71.9257 54.5522 71.9679 54.6594 71.9842L54.6357 72.0642C54.6179 72.1204 54.6002 72.1766 54.5854 72.2329C54.5706 72.2891 54.5587 72.3483 54.5469 72.4046C54.5208 72.4713 54.5117 72.5435 54.5202 72.6147C54.5268 72.6347 54.5405 72.6515 54.5587 72.6621C54.2361 72.8012 53.9105 72.9403 53.5908 73.0913C53.1889 73.2491 52.8 73.4382 52.4275 73.6566C52.3831 73.6774 52.4275 73.7366 52.4601 73.7277C52.8768 73.6107 53.2844 73.4633 53.6796 73.2866C54.0851 73.1327 54.4847 72.967 54.8873 72.7982C55.6847 72.5055 56.456 72.146 57.1931 71.7238C57.2053 71.7214 57.216 71.7143 57.223 71.704C57.2299 71.6938 57.2325 71.6812 57.2301 71.669C57.2278 71.6568 57.2207 71.6461 57.2104 71.6392C57.2001 71.6322 57.1875 71.6296 57.1754 71.632Z" fill="#263238"/>
<path d="M80.4114 75.3586C79.887 73.8171 78.8259 72.5155 77.4218 71.6912C75.9802 70.895 74.299 70.6818 72.6858 70.6315C70.8091 70.5753 68.9206 70.673 67.047 70.7914C65.0519 70.9157 63.0569 71.1051 61.0737 71.3834C59.0905 71.6616 57.1428 72.002 55.1922 72.4223C54.7245 72.523 54.2598 72.6473 53.795 72.7775C53.7595 72.7775 53.7654 72.8545 53.795 72.8486C55.7338 72.5762 57.6638 72.2566 59.6026 71.9902C61.5414 71.7238 63.5009 71.5136 65.4604 71.3656C67.4199 71.2176 69.3587 71.1347 71.3094 71.1051C72.9078 71.0814 74.5654 71.1051 76.0838 71.6202C76.8347 71.8601 77.5301 72.2475 78.1292 72.7598C78.7177 73.2859 79.2 73.9199 79.55 74.6275C80.3492 76.1993 80.4232 78.0019 80.5031 79.7424C80.734 84.9076 77.0192 101.321 76.3591 103.958C76.3574 103.981 76.3638 104.004 76.3772 104.022C76.3907 104.041 76.4102 104.054 76.4325 104.06C76.4547 104.066 76.4783 104.063 76.499 104.053C76.5197 104.043 76.5362 104.026 76.5456 104.006C77.2886 101.028 80.9856 85.5233 80.9856 80.8642C80.9886 79.0054 81.0566 77.111 80.4114 75.3586Z" fill="#263238"/>
<path d="M67.5502 81.9091C64.8418 82.0038 62.1482 82.2554 59.4546 82.5396C56.761 82.8238 54.0466 83.1316 51.3353 83.321C49.9855 83.4128 48.6328 83.472 47.2801 83.4809C46.1554 83.5336 45.0295 83.4077 43.9442 83.1079C42.8419 82.7518 41.9154 81.9913 41.3512 80.9797C40.759 79.9195 40.3742 78.7562 40.2175 77.552C39.8623 75.1041 40.2175 72.6029 40.6349 70.1875C40.6882 69.8915 40.7385 69.5955 40.7918 69.2788C40.7918 69.2492 40.7533 69.2374 40.7474 69.2788C40.182 71.7149 39.6758 74.222 39.8594 76.738C39.9266 77.9676 40.206 79.1763 40.6852 80.3107C41.103 81.3843 41.8461 82.3003 42.8105 82.9303C43.8036 83.4617 44.9106 83.745 46.0369 83.7562C47.3404 83.805 48.6457 83.7842 49.947 83.694C52.7235 83.549 55.4882 83.2411 58.2498 82.9333C61.0115 82.6254 63.7554 82.3235 66.5201 82.1755C66.8161 82.1607 67.1328 82.1459 67.4377 82.137C67.0203 84.7862 63.4683 100.658 63.27 101.913C63.2493 102.037 63.3618 102.076 63.3914 101.951C63.9834 99.4767 67.4466 83.5993 67.6745 82.0453C67.6784 82.0276 67.6781 82.0093 67.6734 81.9918C67.6688 81.9743 67.66 81.9582 67.6478 81.9448C67.6356 81.9314 67.6203 81.9212 67.6033 81.915C67.5864 81.9088 67.5681 81.9068 67.5502 81.9091Z" fill="#263238"/>
<path d="M39.5486 70.0247C39.59 70.0839 59.8394 71.6409 60.0525 71.4514C60.3485 71.1821 58.3446 50.4354 56.536 47.3926C56.1482 46.7443 54.6653 46.4039 53.3658 46.4158C53.0275 46.4141 52.6897 46.4428 52.3565 46.5016H52.3239C52.055 46.5473 51.7957 46.6384 51.5573 46.771C47.6678 49.1982 43.5179 58.7826 42.473 61.6834C40.7414 66.4668 39.3976 69.8116 39.5486 70.0247Z" fill="#3D66CC"/>
<path d="M55.6036 50.0388C54.5972 50.0388 52.8982 48.4138 52.5607 46.8894C52.537 46.7828 52.9544 45.8741 53.4043 44.7434C53.6766 44.0537 53.9638 43.2841 54.1739 42.5618C54.2154 42.4109 58.386 44.9802 58.386 44.9802C57.865 45.8091 57.4475 46.6988 57.1428 47.6294C57.1154 47.7262 57.0966 47.8252 57.0866 47.9254C57.0877 47.9421 57.0877 47.9589 57.0866 47.9757C57.0066 48.5766 56.6781 50.0536 55.6036 50.0388Z" fill="#EB9481"/>
<path d="M57.0866 47.9342C57.0877 47.951 57.0877 47.9678 57.0866 47.9846C56.9269 47.9613 56.7695 47.9247 56.6159 47.875C53.9519 47.0403 54.2302 43.4942 54.3426 42.6092C55.1152 42.9585 58.3949 44.9772 58.3949 44.9772C57.8743 45.8069 57.4559 46.6964 57.1487 47.6264C57.12 47.7272 57.0992 47.8302 57.0866 47.9342Z" fill="#263238"/>
<path d="M54.5439 37.0148C53.8128 38.6073 54.0378 43.5268 55.0708 44.7463C56.5715 46.5223 59.3539 47.0581 60.9494 45.1814C62.4945 43.361 62.089 36.9645 60.905 35.813C59.1556 34.1199 55.6273 34.6675 54.5439 37.0148Z" fill="#EB9481"/>
<path d="M58.83 40.5194C58.83 40.5194 58.8063 40.5372 58.8063 40.552C58.83 40.8806 58.8063 41.2654 58.5103 41.3867C58.5103 41.3867 58.5103 41.4074 58.5103 41.4045C58.8744 41.3394 58.904 40.8302 58.83 40.5194Z" fill="#263238"/>
<path d="M58.5192 40.1879C57.9864 40.1672 57.9894 41.2387 58.4837 41.2565C58.978 41.2742 58.9691 40.2027 58.5192 40.1879Z" fill="#263238"/>
<path d="M60.7481 40.5727C60.7481 40.5727 60.7747 40.5875 60.7718 40.6023C60.7718 40.9309 60.8073 41.3127 61.1062 41.4222C61.1062 41.4222 61.1062 41.443 61.1062 41.44C60.7392 41.3897 60.68 40.8835 60.7481 40.5727Z" fill="#263238"/>
<path d="M61.0441 40.2264C61.5739 40.185 61.6183 41.2535 61.124 41.289C60.6297 41.3246 60.5971 40.256 61.0441 40.2264Z" fill="#263238"/>
<path d="M58.0989 39.6995C58.2386 39.6577 58.376 39.6083 58.5103 39.5515C58.6635 39.522 58.8022 39.4417 58.904 39.3236C58.9292 39.2802 58.9394 39.2297 58.933 39.1799C58.9266 39.1302 58.9039 39.0839 58.8685 39.0483C58.7879 38.9893 58.6929 38.953 58.5935 38.9431C58.494 38.9332 58.3938 38.9501 58.3031 38.9921C58.1058 39.0476 57.9367 39.1755 57.8295 39.3502C57.808 39.3914 57.7986 39.4378 57.8027 39.4841C57.8067 39.5303 57.8239 39.5744 57.8523 39.6112C57.8806 39.648 57.9189 39.6758 57.9626 39.6915C58.0063 39.7071 58.0536 39.7099 58.0989 39.6995Z" fill="#263238"/>
<path d="M61.4555 39.6847C61.3113 39.6569 61.169 39.6204 61.0293 39.5752C60.8743 39.5596 60.7292 39.4917 60.6178 39.3828C60.5878 39.3432 60.5716 39.2949 60.5716 39.2452C60.5716 39.1955 60.5878 39.1471 60.6178 39.1075C60.693 39.0413 60.7846 38.9965 60.883 38.9777C60.9814 38.959 61.083 38.967 61.1773 39.001C61.3784 39.0388 61.558 39.1508 61.6805 39.3147C61.7053 39.3526 61.7189 39.3968 61.7197 39.4421C61.7205 39.4874 61.7084 39.532 61.6849 39.5708C61.6613 39.6095 61.6273 39.6408 61.5867 39.6609C61.5461 39.6811 61.5006 39.6893 61.4555 39.6847Z" fill="#263238"/>
<path d="M58.5281 43.5949C58.608 43.6718 58.6879 43.7784 58.8241 43.7902C58.9472 43.7866 59.0681 43.7573 59.1793 43.7044C59.1793 43.7044 59.2 43.7044 59.1941 43.7222C59.1468 43.7873 59.0828 43.8385 59.0088 43.8703C58.9348 43.9021 58.8536 43.9133 58.7738 43.9027C58.7056 43.8854 58.6442 43.8478 58.5978 43.795C58.5513 43.7422 58.5218 43.6766 58.5133 43.6067C58.4926 43.5919 58.5162 43.583 58.5281 43.5949Z" fill="#263238"/>
<path d="M58.8744 42.6033C58.9588 42.7343 59.0695 42.8464 59.1994 42.9325C59.3293 43.0186 59.4757 43.0768 59.6292 43.1035C59.7628 43.1287 59.8994 43.1347 60.0347 43.1213C60.0603 43.1243 60.0861 43.1243 60.1117 43.1213H60.1857C60.203 43.1175 60.2187 43.1083 60.2304 43.095C60.2422 43.0817 60.2493 43.065 60.2508 43.0473C60.2523 43.0365 60.2523 43.0255 60.2508 43.0147V42.9851C60.2508 42.7306 60.2301 42.3428 60.2301 42.3428C60.3248 42.3902 60.8014 42.6033 60.7925 42.4701C60.7612 41.3203 60.6124 40.1767 60.3485 39.0572C60.3485 39.0493 60.3454 39.0418 60.3398 39.0363C60.3343 39.0307 60.3267 39.0276 60.3189 39.0276C60.311 39.0276 60.3035 39.0307 60.298 39.0363C60.2924 39.0418 60.2893 39.0493 60.2893 39.0572C60.313 40.1198 60.5202 41.1706 60.5616 42.2362C60.3923 42.1584 60.213 42.1046 60.0288 42.0764C59.9933 42.0764 60.091 42.8253 60.0791 42.9407C59.8705 42.9614 59.6598 42.94 59.4595 42.878C59.2592 42.816 59.0734 42.7145 58.9129 42.5796C58.8833 42.5559 58.8566 42.5766 58.8744 42.6033Z" fill="#263238"/>
<path d="M59.8838 42.991C59.7446 43.1745 59.5599 43.3184 59.348 43.4084C59.2319 43.4535 59.1048 43.4617 58.9839 43.4321C58.7205 43.364 58.7116 43.1361 58.759 42.9111C58.7872 42.8017 58.8269 42.6955 58.8774 42.5944C59.1618 42.8309 59.5145 42.9699 59.8838 42.991Z" fill="#263238"/>
<path d="M59.348 43.4084C59.2319 43.4535 59.1048 43.4617 58.9839 43.4321C58.7205 43.364 58.7116 43.1361 58.759 42.9111C58.8988 42.9156 59.033 42.9672 59.1399 43.0574C59.2468 43.1477 59.3201 43.2713 59.348 43.4084Z" fill="#FF9BBC"/>
<path d="M61.6124 37.4381C61.4318 37.0178 61.2217 36.5945 60.9671 36.5086C60.7126 36.4228 60.5498 37.0444 59.9726 37.0829C59.197 37.1362 58.8211 36.4228 57.7348 36.3458C56.1719 36.2393 55.4852 37.5298 55.4497 39.7558C55.4171 41.733 54.2213 41.9195 54.2213 41.9195C54.2213 41.9195 53.4961 37.5594 54.7245 36.115C55.9529 34.6705 58.7738 34.043 60.6682 35.4105C61.3578 35.9107 61.6124 37.4381 61.6124 37.4381Z" fill="#263238"/>
<path d="M55.2188 41.144C55.2188 41.144 54.3101 39.4657 53.5612 39.7706C52.8123 40.0754 53.3688 42.4346 54.1532 42.8282C54.2515 42.8873 54.3607 42.9258 54.4743 42.9416C54.5879 42.9573 54.7035 42.9498 54.8141 42.9197C54.9247 42.8895 55.0281 42.8373 55.118 42.7661C55.2079 42.695 55.2825 42.6064 55.3372 42.5056L55.2188 41.144Z" fill="#EB9481"/>
<path d="M53.7388 40.4366V40.4573C54.2923 40.7533 54.535 41.3453 54.686 41.9166C54.659 41.8545 54.6188 41.7991 54.5683 41.7541C54.5178 41.7091 54.4581 41.6756 54.3934 41.6559C54.3287 41.6362 54.2605 41.6308 54.1934 41.64C54.1264 41.6492 54.0622 41.6729 54.0052 41.7094C53.9874 41.7094 54.0052 41.7449 54.0052 41.7419C54.1111 41.7216 54.2206 41.7343 54.3191 41.7782C54.4175 41.8222 54.5001 41.8952 54.5558 41.9876C54.6455 42.1445 54.7189 42.3101 54.7748 42.4819C54.7955 42.5352 54.8932 42.5204 54.8784 42.4582V42.4434C54.979 41.7034 54.5232 40.6023 53.7388 40.4366Z" fill="#263238"/>
<path d="M61.4259 36.1386C60.9671 36.0291 58.4245 36.1061 57.2819 36.5974C56.1394 37.0888 54.1088 38.7316 54.0052 38.8174C53.9016 38.9033 53.3777 34.7119 56.7787 33.9482C60.4817 33.1135 61.4259 36.1386 61.4259 36.1386Z" fill="#3D66CC"/>
<path d="M54.2006 38.6458C54.2006 38.6458 56.4472 35.6858 57.6963 35.005C58.9454 34.3242 61.7426 33.9453 63.4742 34.709C64.821 35.301 61.5295 37.0355 61.5295 37.0355C61.4984 36.8935 61.4345 36.7607 61.3431 36.6476C61.2516 36.5346 61.135 36.4444 61.0026 36.3843C60.162 36.0498 58.5636 36.3074 57.6519 36.6122C56.5034 37 54.2006 38.6458 54.2006 38.6458Z" fill="#3D66CC"/>
<path opacity="0.2" d="M54.2006 38.6606C54.2006 38.6606 56.4472 35.6828 57.6963 35.005C58.9454 34.3271 61.7426 33.9453 63.4742 34.709C64.821 35.301 61.5295 37.0355 61.5295 37.0355C61.4984 36.8935 61.4345 36.7607 61.3431 36.6476C61.2516 36.5346 61.135 36.4444 61.0026 36.3843C60.162 36.0498 58.5636 36.3074 57.6519 36.6122C56.5034 37 54.2006 38.6606 54.2006 38.6606Z" fill="#1D1D1D"/>
<path d="M50.2756 52.3062C50.0862 58.1433 52.241 69.0746 53.8276 69.8175C58.9484 72.2092 67.565 72.3602 70.5161 72.3868C71.7889 72.3868 73.7425 63.3351 72.4815 62.826C71.6438 62.4886 59.0106 62.4856 58.7886 62.0357C58.5666 61.5858 55.5562 55.0856 54.2568 51.4862C52.5311 46.6999 50.3851 48.8785 50.2756 52.3062Z" fill="#EB9481"/>
<path d="M71.1258 62.7046C71.1258 62.7046 74.9946 62.9414 77.5135 63.2138C78.9225 63.3647 81.3112 63.8413 82.291 64.4244C83.771 65.3124 89.3476 69.8945 88.2642 71.2738C87.2815 72.52 82.9836 67.9646 82.9836 67.9646C82.9836 67.9646 87.7196 72.1766 86.2692 73.4642C84.8188 74.7518 80.6452 68.9532 80.6452 68.9532C80.6452 68.9532 85.4226 73.3932 83.7088 74.4825C82.4153 75.3024 78.3394 70.2674 78.3394 70.2674C78.3394 70.2674 82.4212 74.1154 81.1247 75.0034C79.6921 76.001 75.6398 71.5876 75.6398 71.5876C71.9606 73.3281 69.4978 72.6502 67.8018 71.9606C67.3844 71.8066 71.1258 62.7046 71.1258 62.7046Z" fill="#EB9481"/>
<path d="M81.4355 66.4017C82.0098 66.8753 82.5958 67.3518 83.1257 67.8817C83.6555 68.4115 84.1706 68.9502 84.6501 69.5215C85.2917 70.2563 85.8478 71.0617 86.3077 71.9221C85.3812 70.4421 83.5105 68.5477 82.9777 68.0238C82.4449 67.4998 81.9446 66.9493 81.4148 66.4254C81.4 66.4076 81.4207 66.3898 81.4355 66.4017Z" fill="#263238"/>
<path d="M79.5086 68.2842C80.216 68.9206 80.9412 69.5304 81.622 70.1994C82.3028 70.8683 82.883 71.558 83.5134 72.2714C83.5608 72.3246 83.5134 72.3335 83.4631 72.2714C82.806 71.5876 82.1459 71.0045 81.4829 70.3266C80.8198 69.6488 80.1775 68.9443 79.4908 68.2931C79.479 68.2902 79.4967 68.2754 79.5086 68.2842Z" fill="#263238"/>
<path d="M77.552 69.6014C78.6622 70.5536 79.671 71.6179 80.5623 72.7775C80.6067 72.8338 80.5475 72.8397 80.4972 72.7775C79.5174 71.703 78.7567 70.8535 77.5194 69.637C77.5106 69.6222 77.552 69.5837 77.552 69.6014Z" fill="#263238"/>
<path d="M81.8025 63.9567C80.8829 63.5638 79.9068 63.3191 78.9106 63.2315C76.7617 62.9681 74.6009 62.7964 72.4401 62.6395C70.2793 62.4826 68.0859 62.3435 65.9074 62.2636C64.6819 62.2162 63.4565 62.1797 62.231 62.1541C61.0056 62.1304 60.751 62.1748 59.5197 62.1896C59.4871 62.1896 59.4901 62.234 59.5197 62.237C61.6657 62.3494 62.8497 62.4382 64.9957 62.5507C67.1417 62.6632 69.2818 62.7905 71.4218 62.9385C73.5619 63.0865 75.6665 63.2345 77.7799 63.4713C78.8021 63.5406 79.8158 63.7041 80.808 63.9597C81.78 64.3167 82.6817 64.8417 83.472 65.5107C84.3778 66.2241 87.7729 69.489 88.0837 69.9122C88.1222 69.9626 88.137 69.9478 88.1162 69.8826C87.8706 68.9976 83.7887 64.8832 81.8025 63.9567Z" fill="#263238"/>
<path d="M56.388 56.0742L50.0921 59.644C50.0921 59.644 49.8257 51.6875 50.4088 49.3254C51.0659 46.6614 52.2795 47.585 53.647 49.799C55.0146 52.0131 56.388 56.0742 56.388 56.0742Z" fill="#3D66CC"/>
<path opacity="0.1" d="M56.388 56.0742L50.0921 59.644C50.0921 59.644 49.8257 51.6875 50.4088 49.3254C51.0659 46.6614 52.2795 47.585 53.647 49.799C55.0146 52.0131 56.388 56.0742 56.388 56.0742Z" fill="#1D1D1D"/>
<path d="M55.5207 55.056C54.6594 55.4023 52.2144 56.8054 51.8089 57.0333C51.5958 57.1517 50.761 57.6697 50.5479 57.7881C50.5213 57.8029 50.5479 57.8414 50.5746 57.8266C50.986 57.6016 51.4182 57.4181 51.8326 57.1961C52.247 56.9741 54.7926 55.6362 55.5385 55.0856C55.5413 55.0828 55.5431 55.0791 55.5436 55.0752C55.5441 55.0712 55.5433 55.0672 55.5412 55.0638C55.5392 55.0604 55.5361 55.0578 55.5323 55.0564C55.5286 55.0549 55.5245 55.0548 55.5207 55.056Z" fill="#263238"/>
<path d="M55.3964 53.129C55.2987 52.759 55.1981 52.392 55.0856 52.025C55.1478 52.2973 55.2188 52.5696 55.2898 52.8419C55.0619 52.3269 54.8281 51.8178 54.5735 51.3234H54.5587C54.834 52.1256 55.1507 52.913 55.4467 53.7092C55.7427 54.5054 56.0387 55.2662 56.3347 56.0446C56.2015 56.1482 56.0713 56.2489 55.9351 56.3406C55.9296 56.3442 55.9258 56.3497 55.9244 56.3561C55.923 56.3625 55.9242 56.3692 55.9277 56.3747C55.9313 56.3802 55.9368 56.384 55.9432 56.3854C55.9496 56.3868 55.9563 56.3856 55.9618 56.3821C56.1246 56.2992 56.2874 56.2163 56.4561 56.1423C56.4756 56.135 56.4916 56.1205 56.5009 56.1018C56.5103 56.0832 56.5122 56.0617 56.5064 56.0417C56.1749 55.0738 55.8078 54.091 55.3964 53.129Z" fill="#263238"/>
<g opacity="0.5">
<path d="M125.688 49.6066C125.688 49.8813 125.606 50.1498 125.453 50.3782C125.301 50.6066 125.084 50.7845 124.83 50.8895C124.576 50.9945 124.297 51.0218 124.027 50.968C123.758 50.9142 123.511 50.7817 123.317 50.5872C123.123 50.3928 122.991 50.1451 122.937 49.8757C122.884 49.6062 122.912 49.3269 123.018 49.0733C123.123 48.8197 123.301 48.6031 123.53 48.4509C123.759 48.2987 124.028 48.2178 124.302 48.2184C124.484 48.2184 124.665 48.2543 124.833 48.3241C125.001 48.3939 125.154 48.4962 125.283 48.6252C125.412 48.7541 125.513 48.9072 125.583 49.0756C125.652 49.244 125.688 49.4245 125.688 49.6066Z" fill="#FF9919"/>
<path d="M124.302 51.9598C123.833 51.9628 123.373 51.826 122.981 51.5669C122.589 51.3079 122.284 50.9382 122.103 50.5049C121.922 50.0716 121.873 49.5943 121.964 49.1335C122.055 48.6728 122.281 48.2495 122.613 47.9175C122.945 47.5854 123.368 47.3596 123.829 47.2687C124.29 47.1778 124.767 47.2259 125.2 47.407C125.634 47.588 126.003 47.8938 126.263 48.2855C126.522 48.6772 126.658 49.137 126.655 49.6066C126.652 50.2295 126.402 50.8258 125.962 51.2663C125.521 51.7068 124.925 51.956 124.302 51.9598ZM124.302 47.5494C123.896 47.5495 123.499 47.6697 123.161 47.8951C122.823 48.1205 122.559 48.441 122.403 48.816C122.247 49.191 122.205 49.6039 122.284 50.0026C122.362 50.4012 122.556 50.7678 122.842 51.0561C123.129 51.3444 123.494 51.5414 123.892 51.6225C124.29 51.7035 124.703 51.6649 125.079 51.5115C125.455 51.358 125.778 51.0966 126.006 50.7603C126.233 50.4239 126.357 50.0277 126.359 49.6214C126.361 49.35 126.31 49.0809 126.207 48.8296C126.105 48.5783 125.953 48.3498 125.762 48.1572C125.571 47.9646 125.343 47.8117 125.093 47.7074C124.842 47.6031 124.574 47.5494 124.302 47.5494Z" fill="#FF9919"/>
<path d="M40.8006 36.331C40.8012 36.6057 40.7203 36.8744 40.5681 37.1031C40.4159 37.3318 40.1993 37.5102 39.9457 37.6157C39.6921 37.7212 39.4129 37.7492 39.1434 37.6959C38.8739 37.6427 38.6263 37.5107 38.4318 37.3167C38.2374 37.1227 38.1049 36.8753 38.0511 36.6059C37.9972 36.3365 38.0246 36.0573 38.1296 35.8034C38.2345 35.5496 38.4125 35.3326 38.6408 35.1799C38.8692 35.0273 39.1377 34.9458 39.4124 34.9458C39.7801 34.9458 40.1327 35.0916 40.393 35.3513C40.6532 35.611 40.7999 35.9634 40.8006 36.331Z" fill="#FF9919"/>
<path d="M39.4124 38.6872C38.9434 38.6901 38.4842 38.5537 38.0928 38.2953C37.7014 38.0369 37.3956 37.6681 37.2141 37.2357C37.0326 36.8033 36.9836 36.3267 37.0733 35.8664C37.163 35.406 37.3874 34.9827 37.7179 34.6501C38.0485 34.3174 38.4704 34.0904 38.9302 33.9978C39.3899 33.9053 39.8668 33.9513 40.3003 34.1301C40.7339 34.3089 41.1046 34.6124 41.3655 35.0021C41.6263 35.3918 41.7656 35.8502 41.7656 36.3192C41.7656 36.9447 41.5182 37.5448 41.0773 37.9884C40.6364 38.4321 40.0379 38.6833 39.4124 38.6872ZM39.4124 34.2738C39.0014 34.2709 38.5987 34.3903 38.2557 34.6169C37.9127 34.8434 37.6449 35.1669 37.4862 35.5461C37.3276 35.9253 37.2853 36.3431 37.3648 36.7464C37.4442 37.1497 37.6419 37.5202 37.9325 37.8109C38.2232 38.1016 38.5937 38.2992 38.997 38.3787C39.4003 38.4582 39.8182 38.4159 40.1974 38.2572C40.5766 38.0986 40.9 37.8307 41.1266 37.4877C41.3531 37.1447 41.4725 36.7421 41.4696 36.331C41.4657 35.7866 41.2477 35.2656 40.8628 34.8807C40.4778 34.4957 39.9568 34.2777 39.4124 34.2738Z" fill="#FF9919"/>
<path d="M91.7896 56.9356H73.852V29.2063H50.1809V36.479H41.6176V36.183H49.8849V28.9103H74.148V56.6396H91.4936V48.9584H111.796V41.4785H124.45V47.4014H124.154V41.7745H112.092V49.2544H91.7896V56.9356Z" fill="#FF9919"/>
</g>
<path d="M44.3408 21.904C44.0951 19.4413 42.3961 16.9874 39.4124 16.9874C36.4287 16.9874 34.7326 19.4531 34.487 21.904C34.111 25.7076 36.6744 29.153 39.4124 32.2966C42.1504 29.1649 44.7167 25.7194 44.3408 21.904ZM39.4124 24.639C38.8784 24.639 38.3563 24.4806 37.9123 24.1839C37.4683 23.8871 37.1223 23.4653 36.9181 22.9719C36.7139 22.4785 36.6606 21.9355 36.765 21.4118C36.8694 20.888 37.1268 20.407 37.5046 20.0296C37.8824 19.6522 38.3637 19.3953 38.8876 19.2915C39.4114 19.1877 39.9543 19.2416 40.4475 19.4463C40.9407 19.6511 41.3621 19.9976 41.6584 20.4419C41.9547 20.8862 42.1125 21.4084 42.1119 21.9425C42.1135 22.2978 42.0448 22.65 41.9098 22.9787C41.7748 23.3075 41.5761 23.6063 41.3253 23.8579C41.0744 24.1096 40.7763 24.3093 40.448 24.4453C40.1197 24.5814 39.7678 24.6513 39.4124 24.6509V24.639Z" fill="#FF9919"/>
</svg>
